<svg height="420px" viewBox="0 0 560 420" width="560px" xmlns="http://www.w3.org/2000/svg" xmlns:xlink="http://www.w3.org/1999/xlink">

<title>Gnuplot</title>
<desc>Produced by GNUPLOT 4.6 patchlevel 2 </desc>

<g id="gnuplot_canvas">

<rect fill="none" height="420" width="560" x="0" y="0"/>
<defs>

	<circle id="gpDot" r="0.5" stroke-width="0.5"/>
	<path d="M-1,0 h2 M0,-1 v2" id="gpPt0" stroke="currentColor" stroke-width="0.333"/>
	<path d="M-1,-1 L1,1 M1,-1 L-1,1" id="gpPt1" stroke="currentColor" stroke-width="0.333"/>
	<path d="M-1,0 L1,0 M0,-1 L0,1 M-1,-1 L1,1 M-1,1 L1,-1" id="gpPt2" stroke="currentColor" stroke-width="0.333"/>
	<rect height="2" id="gpPt3" stroke="currentColor" stroke-width="0.333" width="2" x="-1" y="-1"/>
	<rect fill="currentColor" height="2" id="gpPt4" stroke="currentColor" stroke-width="0.333" width="2" x="-1" y="-1"/>
	<circle cx="0" cy="0" id="gpPt5" r="1" stroke="currentColor" stroke-width="0.333"/>
	<use fill="currentColor" id="gpPt6" stroke="none" xlink:href="#gpPt5"/>
	<path d="M0,-1.33 L-1.33,0.67 L1.33,0.67 z" id="gpPt7" stroke="currentColor" stroke-width="0.333"/>
	<use fill="currentColor" id="gpPt8" stroke="none" xlink:href="#gpPt7"/>
	<use id="gpPt9" stroke="currentColor" transform="rotate(180)" xlink:href="#gpPt7"/>
	<use fill="currentColor" id="gpPt10" stroke="none" xlink:href="#gpPt9"/>
	<use id="gpPt11" stroke="currentColor" transform="rotate(45)" xlink:href="#gpPt3"/>
	<use fill="currentColor" id="gpPt12" stroke="none" xlink:href="#gpPt11"/>
</defs>
<g style="fill:none; color:white; stroke:currentColor; stroke-width:1.00; stroke-linecap:butt; stroke-linejoin:miter">
</g>
<g style="fill:none; color:black; stroke:currentColor; stroke-width:1.00; stroke-linecap:butt; stroke-linejoin:miter">
	<g style="stroke:none; shape-rendering:crispEdges">
		<polygon fill="rgb(255, 255, 255)" points="48.4,381.6 543.0,381.6 543.0,11.4 48.4,11.4 "/>
	</g>
	<path d="M48.4,381.6 L48.4,11.4 L543.0,11.4 L543.0,381.6 L48.4,381.6  h0.01" stroke="black"/></g>
<g style="fill:none; color:black; stroke:black; stroke-width:0.50; stroke-linecap:butt; stroke-linejoin:miter">
	<path d="M48.4,381.6 L56.8,381.6 M543.1,381.6 L534.7,381.6  h0.01" stroke="black"/>	<g style="stroke:none; fill:rgb(0,0,0); font-family:{}; font-size:10.00pt; text-anchor:end" transform="translate(42.8,385.3)">
		<text><tspan>-0.5</tspan></text>
	</g>
	<path d="M48.4,319.9 L56.8,319.9 M543.1,319.9 L534.7,319.9  h0.01" stroke="black"/>	<g style="stroke:none; fill:rgb(0,0,0); font-family:{}; font-size:10.00pt; text-anchor:end" transform="translate(42.8,323.6)">
		<text><tspan>0</tspan></text>
	</g>
	<path d="M48.4,258.2 L56.8,258.2 M543.1,258.2 L534.7,258.2  h0.01" stroke="black"/>	<g style="stroke:none; fill:rgb(0,0,0); font-family:{}; font-size:10.00pt; text-anchor:end" transform="translate(42.8,261.9)">
		<text><tspan>0.5</tspan></text>
	</g>
	<path d="M48.4,196.4 L56.8,196.4 M543.1,196.4 L534.7,196.4  h0.01" stroke="black"/>	<g style="stroke:none; fill:rgb(0,0,0); font-family:{}; font-size:10.00pt; text-anchor:end" transform="translate(42.8,200.1)">
		<text><tspan>1</tspan></text>
	</g>
	<path d="M48.4,134.7 L56.8,134.7 M543.1,134.7 L534.7,134.7  h0.01" stroke="black"/>	<g style="stroke:none; fill:rgb(0,0,0); font-family:{}; font-size:10.00pt; text-anchor:end" transform="translate(42.8,138.4)">
		<text><tspan>1.5</tspan></text>
	</g>
	<path d="M48.4,73.0 L56.8,73.0 M543.1,73.0 L534.7,73.0  h0.01" stroke="black"/>	<g style="stroke:none; fill:rgb(0,0,0); font-family:{}; font-size:10.00pt; text-anchor:end" transform="translate(42.8,76.7)">
		<text><tspan>2</tspan></text>
	</g>
	<path d="M48.4,11.3 L56.8,11.3 M543.1,11.3 L534.7,11.3  h0.01" stroke="black"/>	<g style="stroke:none; fill:rgb(0,0,0); font-family:{}; font-size:10.00pt; text-anchor:end" transform="translate(42.8,15.0)">
		<text><tspan>2.5</tspan></text>
	</g>
	<path d="M48.4,381.6 L48.4,373.2 M48.4,11.3 L48.4,19.7  h0.01" stroke="black"/>	<g style="stroke:none; fill:rgb(0,0,0); font-family:{}; font-size:10.00pt; text-anchor:middle" transform="translate(48.4,397.3)">
		<text><tspan>-1</tspan></text>
	</g>
	<path d="M172.1,381.6 L172.1,373.2 M172.1,11.3 L172.1,19.7  h0.01" stroke="black"/>	<g style="stroke:none; fill:rgb(0,0,0); font-family:{}; font-size:10.00pt; text-anchor:middle" transform="translate(172.1,397.3)">
		<text><tspan>-0.5</tspan></text>
	</g>
	<path d="M295.8,381.6 L295.8,373.2 M295.8,11.3 L295.8,19.7  h0.01" stroke="black"/>	<g style="stroke:none; fill:rgb(0,0,0); font-family:{}; font-size:10.00pt; text-anchor:middle" transform="translate(295.8,397.3)">
		<text><tspan>0</tspan></text>
	</g>
	<path d="M419.4,381.6 L419.4,373.2 M419.4,11.3 L419.4,19.7  h0.01" stroke="black"/>	<g style="stroke:none; fill:rgb(0,0,0); font-family:{}; font-size:10.00pt; text-anchor:middle" transform="translate(419.4,397.3)">
		<text><tspan>0.5</tspan></text>
	</g>
	<path d="M543.1,381.6 L543.1,373.2 M543.1,11.3 L543.1,19.7  h0.01" stroke="black"/>	<g style="stroke:none; fill:rgb(0,0,0); font-family:{}; font-size:10.00pt; text-anchor:middle" transform="translate(543.1,397.3)">
		<text><tspan>1</tspan></text>
	</g>
	<path d="M48.4,11.3 L48.4,381.6 L543.1,381.6 L543.1,11.3 L48.4,11.3 Z  h0.01" stroke="black"/>	<g style="stroke:none; fill:rgb(0,0,0); font-family:{}; font-size:10.00pt; text-anchor:middle" transform="translate(12.5,196.5) rotate(-90)">
		<text><tspan>y</tspan></text>
	</g>
	<g style="stroke:none; fill:rgb(0,0,0); font-family:{}; font-size:10.00pt; text-anchor:middle" transform="translate(295.7,415.3)">
		<text><tspan>x</tspan></text>
	</g>
</g>
	<g id="gnuplot_plot_1a"><title>gnuplot_plot_1a</title>
<g style="fill:none; color:red; stroke:currentColor; stroke-width:0.50; stroke-linecap:butt; stroke-linejoin:miter">
	<use color="rgb(  0, 255,   0)" transform="translate(49.0,62.1) scale(6.00)" xlink:href="#gpPt6"/>
	<use color="rgb(  0, 255,   0)" transform="translate(123.7,176.1) scale(6.00)" xlink:href="#gpPt6"/>
	<use color="rgb(  0, 255,   0)" transform="translate(195.9,279.3) scale(6.00)" xlink:href="#gpPt6"/>
	<use color="rgb(  0, 255,   0)" transform="translate(270.4,263.1) scale(6.00)" xlink:href="#gpPt6"/>
	<use color="rgb(  0, 255,   0)" transform="translate(350.2,264.6) scale(6.00)" xlink:href="#gpPt6"/>
	<use color="rgb(  0, 255,   0)" transform="translate(413.8,307.5) scale(6.00)" xlink:href="#gpPt6"/>
	<use color="rgb(  0, 255,   0)" transform="translate(499.1,360.6) scale(6.00)" xlink:href="#gpPt6"/>
</g>
	</g>
<g style="fill:none; color:black; stroke:currentColor; stroke-width:0.50; stroke-linecap:butt; stroke-linejoin:miter">
</g>
</g>
</svg>