<svg height="420px" viewBox="0 0 560 420" width="560px" xmlns="http://www.w3.org/2000/svg" xmlns:xlink="http://www.w3.org/1999/xlink">

<title>Gnuplot</title>
<desc>Produced by GNUPLOT 4.6 patchlevel 2 </desc>

<g id="gnuplot_canvas">

<rect fill="none" height="420" width="560" x="0" y="0"/>
<defs>

	<circle id="gpDot" r="0.5" stroke-width="0.5"/>
	<path d="M-1,0 h2 M0,-1 v2" id="gpPt0" stroke="currentColor" stroke-width="0.333"/>
	<path d="M-1,-1 L1,1 M1,-1 L-1,1" id="gpPt1" stroke="currentColor" stroke-width="0.333"/>
	<path d="M-1,0 L1,0 M0,-1 L0,1 M-1,-1 L1,1 M-1,1 L1,-1" id="gpPt2" stroke="currentColor" stroke-width="0.333"/>
	<rect height="2" id="gpPt3" stroke="currentColor" stroke-width="0.333" width="2" x="-1" y="-1"/>
	<rect fill="currentColor" height="2" id="gpPt4" stroke="currentColor" stroke-width="0.333" width="2" x="-1" y="-1"/>
	<circle cx="0" cy="0" id="gpPt5" r="1" stroke="currentColor" stroke-width="0.333"/>
	<use fill="currentColor" id="gpPt6" stroke="none" xlink:href="#gpPt5"/>
	<path d="M0,-1.33 L-1.33,0.67 L1.33,0.67 z" id="gpPt7" stroke="currentColor" stroke-width="0.333"/>
	<use fill="currentColor" id="gpPt8" stroke="none" xlink:href="#gpPt7"/>
	<use id="gpPt9" stroke="currentColor" transform="rotate(180)" xlink:href="#gpPt7"/>
	<use fill="currentColor" id="gpPt10" stroke="none" xlink:href="#gpPt9"/>
	<use id="gpPt11" stroke="currentColor" transform="rotate(45)" xlink:href="#gpPt3"/>
	<use fill="currentColor" id="gpPt12" stroke="none" xlink:href="#gpPt11"/>
</defs>
<g style="fill:none; color:white; stroke:currentColor; stroke-width:1.00; stroke-linecap:butt; stroke-linejoin:miter">
</g>
<g style="fill:none; color:black; stroke:currentColor; stroke-width:1.00; stroke-linecap:butt; stroke-linejoin:miter">
	<g style="stroke:none; shape-rendering:crispEdges">
		<polygon fill="rgb(255, 255, 255)" points="48.4,381.6 543.0,381.6 543.0,11.4 48.4,11.4 "/>
	</g>
	<path d="M48.4,381.6 L48.4,11.4 L543.0,11.4 L543.0,381.6 L48.4,381.6  h0.01" stroke="black"/></g>
<g style="fill:none; color:black; stroke:black; stroke-width:0.50; stroke-linecap:butt; stroke-linejoin:miter">
	<path d="M48.4,381.6 L56.8,381.6 M543.1,381.6 L534.7,381.6  h0.01" stroke="black"/>	<g style="stroke:none; fill:rgb(0,0,0); font-family:{}; font-size:10.00pt; text-anchor:end" transform="translate(42.8,385.3)">
		<text><tspan>-1</tspan></text>
	</g>
	<path d="M48.4,307.5 L56.8,307.5 M543.1,307.5 L534.7,307.5  h0.01" stroke="black"/>	<g style="stroke:none; fill:rgb(0,0,0); font-family:{}; font-size:10.00pt; text-anchor:end" transform="translate(42.8,311.2)">
		<text><tspan>-0.5</tspan></text>
	</g>
	<path d="M48.4,233.5 L56.8,233.5 M543.1,233.5 L534.7,233.5  h0.01" stroke="black"/>	<g style="stroke:none; fill:rgb(0,0,0); font-family:{}; font-size:10.00pt; text-anchor:end" transform="translate(42.8,237.2)">
		<text><tspan>0</tspan></text>
	</g>
	<path d="M48.4,159.4 L56.8,159.4 M543.1,159.4 L534.7,159.4  h0.01" stroke="black"/>	<g style="stroke:none; fill:rgb(0,0,0); font-family:{}; font-size:10.00pt; text-anchor:end" transform="translate(42.8,163.1)">
		<text><tspan>0.5</tspan></text>
	</g>
	<path d="M48.4,85.4 L56.8,85.4 M543.1,85.4 L534.7,85.4  h0.01" stroke="black"/>	<g style="stroke:none; fill:rgb(0,0,0); font-family:{}; font-size:10.00pt; text-anchor:end" transform="translate(42.8,89.1)">
		<text><tspan>1</tspan></text>
	</g>
	<path d="M48.4,11.3 L56.8,11.3 M543.1,11.3 L534.7,11.3  h0.01" stroke="black"/>	<g style="stroke:none; fill:rgb(0,0,0); font-family:{}; font-size:10.00pt; text-anchor:end" transform="translate(42.8,15.0)">
		<text><tspan>1.5</tspan></text>
	</g>
	<path d="M48.4,381.6 L48.4,373.2 M48.4,11.3 L48.4,19.7  h0.01" stroke="black"/>	<g style="stroke:none; fill:rgb(0,0,0); font-family:{}; font-size:10.00pt; text-anchor:middle" transform="translate(48.4,397.3)">
		<text><tspan>-1</tspan></text>
	</g>
	<path d="M147.3,381.6 L147.3,373.2 M147.3,11.3 L147.3,19.7  h0.01" stroke="black"/>	<g style="stroke:none; fill:rgb(0,0,0); font-family:{}; font-size:10.00pt; text-anchor:middle" transform="translate(147.3,397.3)">
		<text><tspan>-0.5</tspan></text>
	</g>
	<path d="M246.3,381.6 L246.3,373.2 M246.3,11.3 L246.3,19.7  h0.01" stroke="black"/>	<g style="stroke:none; fill:rgb(0,0,0); font-family:{}; font-size:10.00pt; text-anchor:middle" transform="translate(246.3,397.3)">
		<text><tspan>0</tspan></text>
	</g>
	<path d="M345.2,381.6 L345.2,373.2 M345.2,11.3 L345.2,19.7  h0.01" stroke="black"/>	<g style="stroke:none; fill:rgb(0,0,0); font-family:{}; font-size:10.00pt; text-anchor:middle" transform="translate(345.2,397.3)">
		<text><tspan>0.5</tspan></text>
	</g>
	<path d="M444.2,381.6 L444.2,373.2 M444.2,11.3 L444.2,19.7  h0.01" stroke="black"/>	<g style="stroke:none; fill:rgb(0,0,0); font-family:{}; font-size:10.00pt; text-anchor:middle" transform="translate(444.2,397.3)">
		<text><tspan>1</tspan></text>
	</g>
	<path d="M543.1,381.6 L543.1,373.2 M543.1,11.3 L543.1,19.7  h0.01" stroke="black"/>	<g style="stroke:none; fill:rgb(0,0,0); font-family:{}; font-size:10.00pt; text-anchor:middle" transform="translate(543.1,397.3)">
		<text><tspan>1.5</tspan></text>
	</g>
	<path d="M48.4,11.3 L48.4,381.6 L543.1,381.6 L543.1,11.3 L48.4,11.3 Z  h0.01" stroke="black"/>	<g style="stroke:none; fill:rgb(0,0,0); font-family:{}; font-size:10.00pt; text-anchor:middle" transform="translate(12.5,196.5) rotate(-90)">
		<text><tspan>v</tspan></text>
	</g>
	<g style="stroke:none; fill:rgb(0,0,0); font-family:{}; font-size:10.00pt; text-anchor:middle" transform="translate(295.7,415.3)">
		<text><tspan>u</tspan></text>
	</g>
</g>
<g style="fill:none; color:black; stroke:black; stroke-width:1.00; stroke-linecap:butt; stroke-linejoin:miter">
	<path d="M469.9,41.3 L469.9,17.3 L537.5,17.3 L537.5,41.3 L469.9,41.3 Z  h0.01" stroke="black"/></g>
	<g id="gnuplot_plot_1a"><title>gnuplot_plot_1a</title>
<g style="fill:none; color:white; stroke:black; stroke-width:0.50; stroke-linecap:butt; stroke-linejoin:miter">
</g>
<g style="fill:none; color:red; stroke:currentColor; stroke-width:0.50; stroke-linecap:butt; stroke-linejoin:miter">
	<g style="stroke:none; fill:rgb(0,0,0); font-family:{}; font-size:10.00pt; text-anchor:end" transform="translate(537.5,27.0)">
		<text><tspan>y = 1</tspan></text>
	</g>
	<use color="rgb(255,   0,   0)" transform="translate(256.4,129.9) scale(6.00)" xlink:href="#gpPt0"/>
	<use color="rgb(255,   0,   0)" transform="translate(227.9,132.0) scale(6.00)" xlink:href="#gpPt0"/>
	<use color="rgb(255,   0,   0)" transform="translate(204.0,130.9) scale(6.00)" xlink:href="#gpPt0"/>
	<use color="rgb(255,   0,   0)" transform="translate(172.1,159.1) scale(6.00)" xlink:href="#gpPt0"/>
	<use color="rgb(255,   0,   0)" transform="translate(144.7,164.5) scale(6.00)" xlink:href="#gpPt0"/>
	<use color="rgb(255,   0,   0)" transform="translate(142.4,202.4) scale(6.00)" xlink:href="#gpPt0"/>
	<use color="rgb(255,   0,   0)" transform="translate(167.5,228.4) scale(6.00)" xlink:href="#gpPt0"/>
	<use color="rgb(255,   0,   0)" transform="translate(185.8,262.0) scale(6.00)" xlink:href="#gpPt0"/>
	<use color="rgb(255,   0,   0)" transform="translate(249.6,293.4) scale(6.00)" xlink:href="#gpPt0"/>
	<use color="rgb(255,   0,   0)" transform="translate(272.4,309.6) scale(6.00)" xlink:href="#gpPt0"/>
	<use color="rgb(255,   0,   0)" transform="translate(322.5,317.2) scale(6.00)" xlink:href="#gpPt0"/>
	<use color="rgb(255,   0,   0)" transform="translate(351.0,310.7) scale(6.00)" xlink:href="#gpPt0"/>
	<use color="rgb(255,   0,   0)" transform="translate(372.7,269.5) scale(6.00)" xlink:href="#gpPt0"/>
	<use color="rgb(255,   0,   0)" transform="translate(392.1,260.9) scale(6.00)" xlink:href="#gpPt0"/>
	<use color="rgb(255,   0,   0)" transform="translate(354.5,161.3) scale(6.00)" xlink:href="#gpPt0"/>
	<use color="rgb(255,   0,   0)" transform="translate(310.0,147.2) scale(6.00)" xlink:href="#gpPt0"/>
	<use color="rgb(255,   0,   0)" transform="translate(279.2,153.7) scale(6.00)" xlink:href="#gpPt0"/>
	<use color="rgb(255,   0,   0)" transform="translate(237.0,112.5) scale(6.00)" xlink:href="#gpPt0"/>
	<use color="rgb(255,   0,   0)" transform="translate(212.0,129.9) scale(6.00)" xlink:href="#gpPt0"/>
	<use color="rgb(255,   0,   0)" transform="translate(151.6,139.6) scale(6.00)" xlink:href="#gpPt0"/>
	<use color="rgb(255,   0,   0)" transform="translate(126.5,145.0) scale(6.00)" xlink:href="#gpPt0"/>
	<use color="rgb(255,   0,   0)" transform="translate(121.9,184.0) scale(6.00)" xlink:href="#gpPt0"/>
	<use color="rgb(255,   0,   0)" transform="translate(128.8,232.7) scale(6.00)" xlink:href="#gpPt0"/>
	<use color="rgb(255,   0,   0)" transform="translate(163.0,273.9) scale(6.00)" xlink:href="#gpPt0"/>
	<use color="rgb(255,   0,   0)" transform="translate(223.4,292.3) scale(6.00)" xlink:href="#gpPt0"/>
	<use color="rgb(255,   0,   0)" transform="translate(286.1,322.6) scale(6.00)" xlink:href="#gpPt0"/>
	<use color="rgb(255,   0,   0)" transform="translate(338.5,312.8) scale(6.00)" xlink:href="#gpPt0"/>
	<use color="rgb(255,   0,   0)" transform="translate(379.5,312.8) scale(6.00)" xlink:href="#gpPt0"/>
	<use color="rgb(255,   0,   0)" transform="translate(218.8,152.6) scale(6.00)" xlink:href="#gpPt0"/>
	<use color="rgb(255,   0,   0)" transform="translate(188.0,118.0) scale(6.00)" xlink:href="#gpPt0"/>
	<use color="rgb(255,   0,   0)" transform="translate(193.7,90.9) scale(6.00)" xlink:href="#gpPt0"/>
	<use color="rgb(255,   0,   0)" transform="translate(214.2,114.7) scale(6.00)" xlink:href="#gpPt0"/>
	<use color="rgb(255,   0,   0)" transform="translate(212.0,137.4) scale(6.00)" xlink:href="#gpPt0"/>
	<use color="rgb(255,   0,   0)" transform="translate(190.3,163.4) scale(6.00)" xlink:href="#gpPt0"/>
	<use color="rgb(255,   0,   0)" transform="translate(174.4,187.2) scale(6.00)" xlink:href="#gpPt0"/>
	<use color="rgb(255,   0,   0)" transform="translate(186.9,229.5) scale(6.00)" xlink:href="#gpPt0"/>
	<use color="rgb(255,   0,   0)" transform="translate(199.4,265.2) scale(6.00)" xlink:href="#gpPt0"/>
	<use color="rgb(255,   0,   0)" transform="translate(233.6,260.9) scale(6.00)" xlink:href="#gpPt0"/>
	<use color="rgb(255,   0,   0)" transform="translate(258.7,257.6) scale(6.00)" xlink:href="#gpPt0"/>
	<use color="rgb(255,   0,   0)" transform="translate(291.8,294.4) scale(6.00)" xlink:href="#gpPt0"/>
	<use color="rgb(255,   0,   0)" transform="translate(304.3,267.4) scale(6.00)" xlink:href="#gpPt0"/>
	<use color="rgb(255,   0,   0)" transform="translate(341.9,260.9) scale(6.00)" xlink:href="#gpPt0"/>
	<use color="rgb(255,   0,   0)" transform="translate(373.8,254.4) scale(6.00)" xlink:href="#gpPt0"/>
	<use color="rgb(255,   0,   0)" transform="translate(337.4,231.6) scale(6.00)" xlink:href="#gpPt0"/>
	<use color="rgb(255,   0,   0)" transform="translate(370.4,210.0) scale(6.00)" xlink:href="#gpPt0"/>
	<use color="rgb(255,   0,   0)" transform="translate(360.2,193.7) scale(6.00)" xlink:href="#gpPt0"/>
	<use color="rgb(255,   0,   0)" transform="translate(389.8,167.8) scale(6.00)" xlink:href="#gpPt0"/>
	<use color="rgb(255,   0,   0)" transform="translate(290.6,155.8) scale(6.00)" xlink:href="#gpPt0"/>
	<use color="rgb(255,   0,   0)" transform="translate(333.9,134.2) scale(6.00)" xlink:href="#gpPt0"/>
	<use color="rgb(255,   0,   0)" transform="translate(310.0,130.9) scale(6.00)" xlink:href="#gpPt0"/>
	<use color="rgb(255,   0,   0)" transform="translate(273.5,148.3) scale(6.00)" xlink:href="#gpPt0"/>
	<use color="rgb(255,   0,   0)" transform="translate(245.0,174.3) scale(6.00)" xlink:href="#gpPt0"/>
	<use color="rgb(255,   0,   0)" transform="translate(227.9,151.5) scale(6.00)" xlink:href="#gpPt0"/>
	<use color="rgb(255,   0,   0)" transform="translate(205.1,180.8) scale(6.00)" xlink:href="#gpPt0"/>
	<use color="rgb(255,   0,   0)" transform="translate(205.1,207.8) scale(6.00)" xlink:href="#gpPt0"/>
	<use color="rgb(255,   0,   0)" transform="translate(159.5,201.3) scale(6.00)" xlink:href="#gpPt0"/>
	<use color="rgb(255,   0,   0)" transform="translate(202.9,236.0) scale(6.00)" xlink:href="#gpPt0"/>
	<use color="rgb(255,   0,   0)" transform="translate(218.8,273.9) scale(6.00)" xlink:href="#gpPt0"/>
	<use color="rgb(255,   0,   0)" transform="translate(489.7,23.3) scale(6.00)" xlink:href="#gpPt0"/>
</g>
	</g>
	<g id="gnuplot_plot_2a"><title>gnuplot_plot_2a</title>
<g style="fill:none; color:green; stroke:currentColor; stroke-width:0.50; stroke-linecap:butt; stroke-linejoin:miter">
	<g style="stroke:none; fill:rgb(0,0,0); font-family:{}; font-size:10.00pt; text-anchor:end" transform="translate(537.5,39.0)">
		<text><tspan>y = 0</tspan></text>
	</g>
	<use color="rgb(  0,   0, 255)" transform="translate(282.6,95.2) scale(6.00)" xlink:href="#gpPt5"/>
	<use color="rgb(  0,   0, 255)" transform="translate(290.6,118.0) scale(6.00)" xlink:href="#gpPt5"/>
	<use color="rgb(  0,   0, 255)" transform="translate(305.4,141.8) scale(6.00)" xlink:href="#gpPt5"/>
	<use color="rgb(  0,   0, 255)" transform="translate(346.5,121.2) scale(6.00)" xlink:href="#gpPt5"/>
	<use color="rgb(  0,   0, 255)" transform="translate(368.1,125.5) scale(6.00)" xlink:href="#gpPt5"/>
	<use color="rgb(  0,   0, 255)" transform="translate(365.9,145.0) scale(6.00)" xlink:href="#gpPt5"/>
	<use color="rgb(  0,   0, 255)" transform="translate(397.8,159.1) scale(6.00)" xlink:href="#gpPt5"/>
	<use color="rgb(  0,   0, 255)" transform="translate(429.7,179.7) scale(6.00)" xlink:href="#gpPt5"/>
	<use color="rgb(  0,   0, 255)" transform="translate(409.2,192.7) scale(6.00)" xlink:href="#gpPt5"/>
	<use color="rgb(  0,   0, 255)" transform="translate(436.5,220.8) scale(6.00)" xlink:href="#gpPt5"/>
	<use color="rgb(  0,   0, 255)" transform="translate(432.0,231.6) scale(6.00)" xlink:href="#gpPt5"/>
	<use color="rgb(  0,   0, 255)" transform="translate(417.1,245.7) scale(6.00)" xlink:href="#gpPt5"/>
	<use color="rgb(  0,   0, 255)" transform="translate(424.0,264.1) scale(6.00)" xlink:href="#gpPt5"/>
	<use color="rgb(  0,   0, 255)" transform="translate(414.9,287.9) scale(6.00)" xlink:href="#gpPt5"/>
	<use color="rgb(  0,   0, 255)" transform="translate(410.3,310.7) scale(6.00)" xlink:href="#gpPt5"/>
	<use color="rgb(  0,   0, 255)" transform="translate(403.5,316.1) scale(6.00)" xlink:href="#gpPt5"/>
	<use color="rgb(  0,   0, 255)" transform="translate(363.6,343.2) scale(6.00)" xlink:href="#gpPt5"/>
	<use color="rgb(  0,   0, 255)" transform="translate(348.8,321.5) scale(6.00)" xlink:href="#gpPt5"/>
	<use color="rgb(  0,   0, 255)" transform="translate(338.5,295.5) scale(6.00)" xlink:href="#gpPt5"/>
	<use color="rgb(  0,   0, 255)" transform="translate(315.7,319.3) scale(6.00)" xlink:href="#gpPt5"/>
	<use color="rgb(  0,   0, 255)" transform="translate(303.2,347.5) scale(6.00)" xlink:href="#gpPt5"/>
	<use color="rgb(  0,   0, 255)" transform="translate(263.3,345.3) scale(6.00)" xlink:href="#gpPt5"/>
	<use color="rgb(  0,   0, 255)" transform="translate(275.8,319.3) scale(6.00)" xlink:href="#gpPt5"/>
	<use color="rgb(  0,   0, 255)" transform="translate(220.0,299.9) scale(6.00)" xlink:href="#gpPt5"/>
	<use color="rgb(  0,   0, 255)" transform="translate(165.2,294.4) scale(6.00)" xlink:href="#gpPt5"/>
	<use color="rgb(  0,   0, 255)" transform="translate(168.7,271.7) scale(6.00)" xlink:href="#gpPt5"/>
	<use color="rgb(  0,   0, 255)" transform="translate(99.1,271.7) scale(6.00)" xlink:href="#gpPt5"/>
	<use color="rgb(  0,   0, 255)" transform="translate(108.2,227.3) scale(6.00)" xlink:href="#gpPt5"/>
	<use color="rgb(  0,   0, 255)" transform="translate(96.8,190.5) scale(6.00)" xlink:href="#gpPt5"/>
	<use color="rgb(  0,   0, 255)" transform="translate(108.2,132.0) scale(6.00)" xlink:href="#gpPt5"/>
	<use color="rgb(  0,   0, 255)" transform="translate(166.4,128.8) scale(6.00)" xlink:href="#gpPt5"/>
	<use color="rgb(  0,   0, 255)" transform="translate(170.9,97.4) scale(6.00)" xlink:href="#gpPt5"/>
	<use color="rgb(  0,   0, 255)" transform="translate(145.9,99.5) scale(6.00)" xlink:href="#gpPt5"/>
	<use color="rgb(  0,   0, 255)" transform="translate(137.9,128.8) scale(6.00)" xlink:href="#gpPt5"/>
	<use color="rgb(  0,   0, 255)" transform="translate(266.7,118.0) scale(6.00)" xlink:href="#gpPt5"/>
	<use color="rgb(  0,   0, 255)" transform="translate(257.6,97.4) scale(6.00)" xlink:href="#gpPt5"/>
	<use color="rgb(  0,   0, 255)" transform="translate(225.6,86.6) scale(6.00)" xlink:href="#gpPt5"/>
	<use color="rgb(  0,   0, 255)" transform="translate(230.2,69.2) scale(6.00)" xlink:href="#gpPt5"/>
	<use color="rgb(  0,   0, 255)" transform="translate(303.2,72.5) scale(6.00)" xlink:href="#gpPt5"/>
	<use color="rgb(  0,   0, 255)" transform="translate(324.8,111.5) scale(6.00)" xlink:href="#gpPt5"/>
	<use color="rgb(  0,   0, 255)" transform="translate(372.7,101.7) scale(6.00)" xlink:href="#gpPt5"/>
	<use color="rgb(  0,   0, 255)" transform="translate(409.2,135.3) scale(6.00)" xlink:href="#gpPt5"/>
	<use color="rgb(  0,   0, 255)" transform="translate(379.5,138.5) scale(6.00)" xlink:href="#gpPt5"/>
	<use color="rgb(  0,   0, 255)" transform="translate(458.2,218.6) scale(6.00)" xlink:href="#gpPt5"/>
	<use color="rgb(  0,   0, 255)" transform="translate(237.0,319.3) scale(6.00)" xlink:href="#gpPt5"/>
	<use color="rgb(  0,   0, 255)" transform="translate(199.4,328.0) scale(6.00)" xlink:href="#gpPt5"/>
	<use color="rgb(  0,   0, 255)" transform="translate(216.5,287.9) scale(6.00)" xlink:href="#gpPt5"/>
	<use color="rgb(  0,   0, 255)" transform="translate(149.3,278.2) scale(6.00)" xlink:href="#gpPt5"/>
	<use color="rgb(  0,   0, 255)" transform="translate(153.8,253.3) scale(6.00)" xlink:href="#gpPt5"/>
	<use color="rgb(  0,   0, 255)" transform="translate(189.2,242.5) scale(6.00)" xlink:href="#gpPt5"/>
	<use color="rgb(  0,   0, 255)" transform="translate(125.3,243.5) scale(6.00)" xlink:href="#gpPt5"/>
	<use color="rgb(  0,   0, 255)" transform="translate(115.1,265.2) scale(6.00)" xlink:href="#gpPt5"/>
	<use color="rgb(  0,   0, 255)" transform="translate(127.6,295.5) scale(6.00)" xlink:href="#gpPt5"/>
	<use color="rgb(  0,   0, 255)" transform="translate(102.5,245.7) scale(6.00)" xlink:href="#gpPt5"/>
	<use color="rgb(  0,   0, 255)" transform="translate(82.0,187.2) scale(6.00)" xlink:href="#gpPt5"/>
	<use color="rgb(  0,   0, 255)" transform="translate(103.7,153.7) scale(6.00)" xlink:href="#gpPt5"/>
	<use color="rgb(  0,   0, 255)" transform="translate(128.8,160.2) scale(6.00)" xlink:href="#gpPt5"/>
	<use color="rgb(  0,   0, 255)" transform="translate(150.4,85.5) scale(6.00)" xlink:href="#gpPt5"/>
	<use color="rgb(  0,   0, 255)" transform="translate(245.0,85.5) scale(6.00)" xlink:href="#gpPt5"/>
	<use color="rgb(  0,   0, 255)" transform="translate(489.7,35.3) scale(6.00)" xlink:href="#gpPt5"/>
</g>
	</g>
	<g id="gnuplot_plot_3a"><title>gnuplot_plot_3a</title>
<g style="fill:none; color:white; stroke:rgb(  0,   0, 255); stroke-width:4.00; stroke-linecap:butt; stroke-linejoin:miter">
</g>
<g style="fill:none; color:red; stroke:currentColor; stroke-width:4.00; stroke-linecap:butt; stroke-linejoin:miter">
	<path d="M284.4,320.9 L285.0,321.0 L286.7,321.2 L288.3,321.4 L290.0,321.5 L291.6,321.7 L293.3,321.8 L294.9,321.9    L296.6,321.9 L298.2,322.0 L299.9,322.0 L301.5,322.0 L303.2,321.9 L304.8,321.8 L306.5,321.8 L308.2,321.6    L309.8,321.5 L311.5,321.3 L313.1,321.1 L314.8,320.9 L316.4,320.7 L318.1,320.4 L319.7,320.1 L321.4,319.8    L322.2,319.7 L323.0,319.5 L324.7,319.2 L326.4,318.9 L328.0,318.6 L329.4,318.4 L329.7,318.4 L331.3,318.2    L333.0,318.1 L334.6,318.0 L336.3,318.0 L337.9,318.1 L339.6,318.3 L340.7,318.4 L341.2,318.5 L342.9,318.7    L344.6,318.9 L346.2,319.2 L347.9,319.4 L349.4,319.7 L349.5,319.7 L351.2,319.9 L352.8,320.1 L354.5,320.3    L356.1,320.4 L357.8,320.5 L359.4,320.6 L361.1,320.6 L362.8,320.6 L364.4,320.6 L366.1,320.5 L367.7,320.3    L369.4,320.1 L371.0,319.9 L372.1,319.7 L372.7,319.6 L374.3,319.2 L376.0,318.7 L377.0,318.4 L377.6,318.2    L379.3,317.6 L380.4,317.2 L381.0,317.0 L382.6,316.2 L383.1,316.0 L384.3,315.3 L385.3,314.7 L385.9,314.4    L387.3,313.5 L387.6,313.3 L389.1,312.2 L389.2,312.1 L390.6,311.0 L390.9,310.8 L392.1,309.8 L392.5,309.3    L393.4,308.5 L394.2,307.7 L394.6,307.3 L395.8,306.1 L395.8,306.0 L396.8,304.8 L397.5,304.0 L397.8,303.6    L398.8,302.3 L399.2,301.8 L399.7,301.1 L400.5,299.9 L400.8,299.4 L401.3,298.6 L402.1,297.4 L402.5,296.8    L402.8,296.1 L403.5,294.9 L404.1,293.9 L404.2,293.7 L404.8,292.4 L405.5,291.2 L405.8,290.6 L406.1,290.0    L406.6,288.7 L407.2,287.5 L407.4,286.9 L407.7,286.2 L408.2,285.0 L408.7,283.8 L409.1,282.8 L409.2,282.5    L409.6,281.3 L410.0,280.0 L410.5,278.8 L410.7,278.0 L410.9,277.6 L411.2,276.3 L411.6,275.1 L411.9,273.9    L412.3,272.6 L412.4,272.2 L412.6,271.4 L412.9,270.1 L413.2,268.9 L413.5,267.7 L413.7,266.4 L414.0,265.2    L414.0,264.8 L414.2,263.9 L414.4,262.7 L414.6,261.5 L414.8,260.2 L415.0,259.0 L415.1,257.8 L415.3,256.5    L415.5,255.3 L415.6,254.0 L415.7,252.8 L415.8,251.6 L415.9,250.3 L416.0,249.1 L416.0,247.8 L416.1,246.6    L416.1,245.4 L416.1,244.1 L416.2,242.9 L416.2,241.7 L416.1,240.4 L416.1,239.2 L416.1,237.9 L416.0,236.7    L416.0,235.5 L415.9,234.2 L415.8,233.0 L415.7,231.7 L415.7,231.3 L415.6,230.5 L415.5,229.3 L415.4,228.0    L415.2,226.8 L415.0,225.6 L414.9,224.3 L414.7,223.1 L414.5,221.8 L414.3,220.6 L414.1,219.4 L414.0,219.2    L413.8,218.1 L413.6,216.9 L413.3,215.6 L413.0,214.4 L412.7,213.2 L412.4,211.9 L412.4,211.8 L412.1,210.7    L411.8,209.5 L411.4,208.2 L411.1,207.0 L410.7,205.9 L410.7,205.7 L410.3,204.5 L409.9,203.3 L409.5,202.0    L409.1,200.9 L409.0,200.8 L408.6,199.5 L408.1,198.3 L407.6,197.1 L407.4,196.6 L407.1,195.8 L406.6,194.6    L406.0,193.4 L405.8,192.7 L405.5,192.1 L404.9,190.9 L404.3,189.6 L404.1,189.2 L403.7,188.4 L403.1,187.2    L402.5,185.9 L401.8,184.7 L401.1,183.4 L400.8,182.9 L400.4,182.2 L399.7,181.0 L399.2,180.1 L398.9,179.7    L398.1,178.5 L397.5,177.5 L397.4,177.3 L396.5,176.0 L395.8,175.0 L395.7,174.8 L394.8,173.5 L394.2,172.7    L393.9,172.3 L393.0,171.1 L392.5,170.4 L392.1,169.8 L391.1,168.6 L390.9,168.3 L390.1,167.3 L389.2,166.3    L389.1,166.1 L388.0,164.9 L387.6,164.4 L386.9,163.6 L385.9,162.6 L385.8,162.4 L384.6,161.2 L384.3,160.8    L383.4,159.9 L382.6,159.1 L382.1,158.7 L381.0,157.5 L380.9,157.4 L379.5,156.2 L379.3,156.0 L378.1,155.0    L377.6,154.5 L376.7,153.7 L376.0,153.1 L375.2,152.5 L374.3,151.8 L373.7,151.2 L372.7,150.5 L372.1,150.0    L371.0,149.2 L370.4,148.8 L369.4,148.0 L368.7,147.5 L367.7,146.8 L366.9,146.3 L366.1,145.7 L365.0,145.1    L364.4,144.7 L363.0,143.8 L362.8,143.6 L361.1,142.7 L361.0,142.6 L359.4,141.7 L358.7,141.3 L357.8,140.8    L356.4,140.1 L356.1,140.0 L354.5,139.1 L353.9,138.9 L352.8,138.4 L351.2,137.6 L349.5,136.9 L348.3,136.4    L347.9,136.2 L346.2,135.6 L345.0,135.1 L344.6,135.0 L342.9,134.4 L341.4,133.9 L341.2,133.9 L339.6,133.4    L337.9,132.9 L337.0,132.7 L336.3,132.5 L334.6,132.1 L333.0,131.7 L331.5,131.4 L331.3,131.4 L329.7,131.1    L328.0,130.9 L326.4,130.7 L324.7,130.6 L323.0,130.5 L321.4,130.4 L319.7,130.4 L318.1,130.5 L316.4,130.7    L314.8,130.9 L313.1,131.2 L312.1,131.4 L311.5,131.6 L309.8,132.2 L308.6,132.7 L308.2,132.9 L306.5,133.8    L306.3,133.9 L304.8,135.0 L304.6,135.1 L303.3,136.4 L303.2,136.5 L302.2,137.6 L301.5,138.5 L301.2,138.9    L300.3,140.1 L299.9,140.7 L299.4,141.3 L298.4,142.6 L298.2,142.8 L297.2,143.8 L296.6,144.4 L295.4,145.1    L294.9,145.3 L293.3,145.7 L291.6,145.7 L290.0,145.4 L288.7,145.1 L288.3,144.9 L286.7,144.2 L285.8,143.8    L285.0,143.4 L283.6,142.6 L283.3,142.4 L281.7,141.4 L281.6,141.3 L280.0,140.2 L279.9,140.1 L278.4,138.9    L278.3,138.9 L276.8,137.6 L276.7,137.5 L275.4,136.4 L275.1,136.1 L274.1,135.1 L273.4,134.5 L272.8,133.9    L271.8,132.9 L271.6,132.7 L270.4,131.4 L270.1,131.1 L269.3,130.2 L268.5,129.3 L268.2,129.0 L267.2,127.7    L266.8,127.3 L266.2,126.5 L265.2,125.2 L265.1,125.2 L264.3,124.0 L263.5,123.0 L263.3,122.8 L262.5,121.5    L261.8,120.7 L261.6,120.3 L260.7,119.0 L260.2,118.3 L259.8,117.8 L258.9,116.6 L258.5,116.0 L258.0,115.3    L257.1,114.1 L256.9,113.8 L256.1,112.9 L255.2,111.7 L255.2,111.6 L254.1,110.4 L253.6,109.7 L253.1,109.1    L251.9,107.9 L250.7,106.7 L250.3,106.2 L249.5,105.4 L248.6,104.6 L248.2,104.2 L246.9,103.1 L246.8,102.9    L245.3,101.7 L243.8,100.5 L243.6,100.4 L242.1,99.2 L242.0,99.1 L240.4,98.0 L240.3,98.0 L238.7,96.9    L238.5,96.8 L237.0,95.8 L236.5,95.5 L235.4,94.8 L234.4,94.3 L233.7,93.9 L232.1,93.0 L230.4,92.2    L229.6,91.8 L228.7,91.4 L227.1,90.7 L226.8,90.6 L225.4,90.0 L223.8,89.3 L223.7,89.3 L222.1,88.8    L220.5,88.2 L220.1,88.1 L218.8,87.7 L217.2,87.2 L215.7,86.8 L215.5,86.8 L213.9,86.4 L212.2,86.1    L210.5,85.8 L209.0,85.6 L208.9,85.6 L207.2,85.4 L205.6,85.3 L203.9,85.2 L202.3,85.2 L200.6,85.2    L199.0,85.4 L197.3,85.5 L196.8,85.6 L195.7,85.8 L194.0,86.2 L192.3,86.6 L191.6,86.8 L190.7,87.2    L189.0,87.9 L188.7,88.1 L187.4,88.9 L186.7,89.3 L185.7,90.1 L185.1,90.6 L184.1,91.7 L183.9,91.8    L183.0,93.0 L182.4,94.0 L182.2,94.3 L181.7,95.5 L181.2,96.8 L180.8,98.0 L180.8,98.3 L180.5,99.2    L180.3,100.5 L180.1,101.7 L180.0,102.9 L179.8,104.2 L179.6,105.4 L179.5,106.7 L179.3,107.9 L179.1,108.8    L179.0,109.1 L178.7,110.4 L178.4,111.6 L178.0,112.9 L177.5,114.1 L177.5,114.3 L177.0,115.3 L176.4,116.6    L175.8,117.6 L175.7,117.8 L174.9,119.0 L174.1,120.3 L173.2,121.5 L172.5,122.5 L172.3,122.8 L171.2,124.0    L170.8,124.4 L170.1,125.2 L169.2,126.2 L169.0,126.5 L167.7,127.7 L167.5,127.9 L166.5,129.0 L165.9,129.5    L165.1,130.2 L164.2,131.0 L163.7,131.4 L162.6,132.4 L162.3,132.7 L160.9,133.8 L160.8,133.9 L159.3,135.1    L159.2,135.1 L157.6,136.3 L157.5,136.4 L155.9,137.5 L155.8,137.6 L154.3,138.6 L153.9,138.9 L152.6,139.6    L151.8,140.1 L151.0,140.6 L149.6,141.3 L149.3,141.5 L147.7,142.3 L146.9,142.6 L146.0,142.9 L144.4,143.5    L143.3,143.8 L142.7,144.0 L141.1,144.4 L139.4,144.6 L137.7,144.8 L136.1,144.9 L134.4,144.9 L132.8,144.9    L131.1,144.9 L129.5,144.8 L127.8,144.8 L126.2,144.9 L125.1,145.1 L124.5,145.1 L122.9,145.5 L121.2,146.2    L121.0,146.3 L119.5,147.2 L119.2,147.5 L117.9,148.7 L117.8,148.8 L116.9,150.0 L116.2,150.9 L116.1,151.2    L115.4,152.5 L114.9,153.7 L114.6,154.4 L114.4,155.0 L114.0,156.2 L113.7,157.4 L113.4,158.7 L113.2,159.9    L113.0,161.2 L112.9,161.7 L112.8,162.4 L112.7,163.6 L112.7,164.9 L112.6,166.1 L112.6,167.3 L112.5,168.6    L112.6,169.8 L112.6,171.1 L112.6,172.3 L112.7,173.5 L112.8,174.8 L112.9,176.0 L112.9,176.9 L113.0,177.3    L113.1,178.5 L113.2,179.7 L113.4,181.0 L113.6,182.2 L113.8,183.4 L113.9,184.7 L114.1,185.9 L114.3,187.2    L114.5,188.4 L114.6,188.7 L114.8,189.6 L115.0,190.9 L115.3,192.1 L115.5,193.4 L115.7,194.6 L116.0,195.8    L116.2,197.1 L116.5,198.3 L116.8,199.5 L117.1,200.8 L117.4,202.0 L117.6,203.3 L117.9,204.5 L117.9,204.6    L118.2,205.7 L118.5,207.0 L118.8,208.2 L119.1,209.5 L119.3,210.7 L119.5,211.6 L119.6,211.9 L119.9,213.2    L120.3,214.4 L120.6,215.6 L120.8,216.9 L121.1,218.1 L121.2,218.5 L121.4,219.4 L121.8,220.6 L122.1,221.8    L122.4,223.1 L122.7,224.3 L122.9,224.8 L123.1,225.6 L123.4,226.8 L123.8,228.0 L124.1,229.3 L124.5,230.5    L124.5,230.6 L124.9,231.7 L125.3,233.0 L125.7,234.2 L126.1,235.5 L126.2,235.6 L126.6,236.7 L127.1,237.9    L127.6,239.2 L127.8,239.8 L128.1,240.4 L128.7,241.7 L129.2,242.9 L129.5,243.5 L129.8,244.1 L130.4,245.4    L131.1,246.6 L131.1,246.7 L131.8,247.8 L132.5,249.1 L132.8,249.6 L133.3,250.3 L134.1,251.6 L134.4,252.1    L134.9,252.8 L135.8,254.0 L136.1,254.4 L136.8,255.3 L137.7,256.5 L138.8,257.8 L139.4,258.4 L140.0,259.0    L141.1,260.1 L141.1,260.2 L142.5,261.5 L142.7,261.7 L143.9,262.7 L144.4,263.1 L145.4,263.9 L146.0,264.4    L147.0,265.2 L147.7,265.6 L148.8,266.4 L149.3,266.7 L150.9,267.7 L151.0,267.7 L152.6,268.6 L153.3,268.9    L154.3,269.4 L155.9,270.0 L156.2,270.1 L157.6,270.6 L159.3,271.0 L160.9,271.3 L161.7,271.4 L162.6,271.4    L163.4,271.4 L164.2,271.3 L165.9,270.7 L166.6,270.1 L167.4,268.9 L167.5,268.1 L167.6,267.7 L167.5,266.4    L167.5,266.3 L167.3,265.2 L167.0,263.9 L166.5,262.7 L166.0,261.5 L165.9,261.1 L165.5,260.2 L164.9,259.0    L164.3,257.8 L164.2,257.5 L163.7,256.5 L163.1,255.3 L162.6,254.2 L162.5,254.0 L161.9,252.8 L161.3,251.6    L160.9,250.8 L160.7,250.3 L160.1,249.1 L159.5,247.8 L159.3,247.2 L159.0,246.6 L158.5,245.4 L158.0,244.1    L157.6,243.1 L157.5,242.9 L157.1,241.7 L156.7,240.4 L156.4,239.2 L156.1,237.9 L155.9,236.8 L155.9,236.7    L155.8,235.5 L155.8,234.2 L155.9,233.2 L156.0,233.0 L156.4,231.7 L157.4,230.5 L157.6,230.3 L159.3,229.8    L160.9,229.9 L162.6,230.4 L162.9,230.5 L164.2,231.1 L165.4,231.7 L165.9,232.0 L167.5,233.0 L169.2,234.1    L169.3,234.2 L170.8,235.4 L171.0,235.5 L172.5,236.7 L174.0,237.9 L174.1,238.0 L175.4,239.2 L175.8,239.5    L176.8,240.4 L177.5,241.0 L178.2,241.7 L179.1,242.5 L179.5,242.9 L180.8,244.1 L182.1,245.4 L182.4,245.7    L183.3,246.6 L184.1,247.4 L184.5,247.8 L185.7,249.1 L186.9,250.3 L187.4,250.8 L188.0,251.6 L189.0,252.6    L189.2,252.8 L190.3,254.0 L190.7,254.5 L191.4,255.3 L192.3,256.4 L192.5,256.5 L193.5,257.8 L194.0,258.4    L194.5,259.0 L195.5,260.2 L195.7,260.4 L196.5,261.5 L197.3,262.5 L197.4,262.7 L198.4,263.9 L199.0,264.8    L199.3,265.2 L200.1,266.4 L200.6,267.1 L201.0,267.7 L201.8,268.9 L202.3,269.6 L202.6,270.1 L203.3,271.4    L203.9,272.3 L204.1,272.6 L204.8,273.9 L205.5,275.1 L205.6,275.2 L206.2,276.3 L206.9,277.6 L207.2,278.1    L207.6,278.8 L208.3,280.0 L208.9,280.9 L209.1,281.3 L209.9,282.5 L210.5,283.5 L210.7,283.8 L211.6,285.0    L212.2,285.8 L212.5,286.2 L213.6,287.5 L213.9,287.8 L214.7,288.7 L215.5,289.6 L215.8,290.0 L217.1,291.2    L217.2,291.3 L218.4,292.4 L218.8,292.8 L219.8,293.7 L220.5,294.2 L221.3,294.9 L222.1,295.6 L222.9,296.1    L223.8,296.8 L224.5,297.4 L225.4,298.0 L226.2,298.6 L227.1,299.2 L228.1,299.9 L228.7,300.3 L230.0,301.1    L230.4,301.4 L232.0,302.3 L232.1,302.4 L233.7,303.4 L234.0,303.6 L235.4,304.3 L236.2,304.8 L237.0,305.2    L238.5,306.1 L238.7,306.1 L240.3,307.0 L240.9,307.3 L242.0,307.8 L243.5,308.5 L243.6,308.6 L245.3,309.4    L246.1,309.8 L246.9,310.1 L248.6,310.9 L249.0,311.0 L250.3,311.5 L251.9,312.2 L253.6,312.9 L255.1,313.5    L255.2,313.5 L256.9,314.1 L258.5,314.7 L258.6,314.7 L260.2,315.2 L261.8,315.8 L262.4,316.0 L263.5,316.3    L265.1,316.8 L266.5,317.2 L266.8,317.3 L268.5,317.7 L270.1,318.1 L271.3,318.4 L271.8,318.5 L273.4,318.9    L275.1,319.3 L276.7,319.6 L276.9,319.7 L278.4,319.9 L280.0,320.2 L281.7,320.5 L283.3,320.8 L284.4,320.9     h0.01" stroke="rgb(255,   0, 255)"/></g>
	</g>
	<g id="gnuplot_plot_4a"><title>gnuplot_plot_4a</title>
<g style="fill:none; color:red; stroke:currentColor; stroke-width:4.00; stroke-linecap:butt; stroke-linejoin:miter">
	<path d="M328.2,303.6 L329.7,303.9 L331.3,304.0 L333.0,303.9 L334.0,303.6 L334.6,303.4 L336.3,302.6 L336.7,302.3    L337.9,301.5 L338.3,301.1 L339.5,299.9 L339.6,299.8 L340.4,298.6 L341.2,297.4 L341.3,297.4 L341.9,296.1    L342.4,294.9 L342.8,293.7 L342.9,293.4 L343.1,292.4 L343.4,291.2 L343.6,290.0 L343.7,288.7 L343.7,287.5    L343.7,286.2 L343.6,285.0 L343.4,283.8 L343.2,282.5 L342.9,281.3 L342.9,281.2 L342.6,280.0 L342.1,278.8    L341.6,277.6 L341.2,276.7 L341.1,276.3 L340.4,275.1 L339.6,273.9 L339.6,273.8 L338.7,272.6 L337.9,271.7    L337.6,271.4 L336.3,270.2 L336.2,270.1 L334.6,269.1 L334.2,268.9 L333.0,268.4 L331.3,268.0 L329.7,268.0    L328.0,268.3 L326.4,268.9 L326.3,268.9 L324.7,269.8 L324.2,270.1 L323.0,271.0 L322.6,271.4 L321.4,272.5    L321.3,272.6 L320.2,273.9 L319.7,274.5 L319.3,275.1 L318.4,276.3 L318.1,276.9 L317.7,277.6 L317.0,278.8    L316.5,280.0 L316.4,280.1 L316.0,281.3 L315.6,282.5 L315.3,283.8 L315.1,285.0 L315.0,286.2 L314.9,287.5    L315.0,288.7 L315.2,290.0 L315.5,291.2 L315.9,292.4 L316.4,293.7 L317.1,294.9 L317.9,296.1 L318.1,296.4    L318.9,297.4 L319.7,298.4 L320.0,298.6 L321.3,299.9 L321.4,299.9 L323.0,301.1 L323.0,301.2 L324.7,302.2    L325.1,302.3 L326.4,303.0 L328.0,303.5 L328.2,303.6  h0.01" stroke="rgb(255,   0, 255)"/></g>
	</g>
<g style="fill:none; color:white; stroke:rgb(255,   0, 255); stroke-width:0.50; stroke-linecap:butt; stroke-linejoin:miter">
</g>
<g style="fill:none; color:black; stroke:currentColor; stroke-width:0.50; stroke-linecap:butt; stroke-linejoin:miter">
</g>
</g>
</svg>