<svg height="420px" viewBox="0 0 560 420" width="560px" xmlns="http://www.w3.org/2000/svg" xmlns:xlink="http://www.w3.org/1999/xlink">

<title>Gnuplot</title>
<desc>Produced by GNUPLOT 4.6 patchlevel 2 </desc>

<g id="gnuplot_canvas">

<rect fill="none" height="420" width="560" x="0" y="0"/>
<defs>

	<circle id="gpDot" r="0.5" stroke-width="0.5"/>
	<path d="M-1,0 h2 M0,-1 v2" id="gpPt0" stroke="currentColor" stroke-width="0.333"/>
	<path d="M-1,-1 L1,1 M1,-1 L-1,1" id="gpPt1" stroke="currentColor" stroke-width="0.333"/>
	<path d="M-1,0 L1,0 M0,-1 L0,1 M-1,-1 L1,1 M-1,1 L1,-1" id="gpPt2" stroke="currentColor" stroke-width="0.333"/>
	<rect height="2" id="gpPt3" stroke="currentColor" stroke-width="0.333" width="2" x="-1" y="-1"/>
	<rect fill="currentColor" height="2" id="gpPt4" stroke="currentColor" stroke-width="0.333" width="2" x="-1" y="-1"/>
	<circle cx="0" cy="0" id="gpPt5" r="1" stroke="currentColor" stroke-width="0.333"/>
	<use fill="currentColor" id="gpPt6" stroke="none" xlink:href="#gpPt5"/>
	<path d="M0,-1.33 L-1.33,0.67 L1.33,0.67 z" id="gpPt7" stroke="currentColor" stroke-width="0.333"/>
	<use fill="currentColor" id="gpPt8" stroke="none" xlink:href="#gpPt7"/>
	<use id="gpPt9" stroke="currentColor" transform="rotate(180)" xlink:href="#gpPt7"/>
	<use fill="currentColor" id="gpPt10" stroke="none" xlink:href="#gpPt9"/>
	<use id="gpPt11" stroke="currentColor" transform="rotate(45)" xlink:href="#gpPt3"/>
	<use fill="currentColor" id="gpPt12" stroke="none" xlink:href="#gpPt11"/>
</defs>
<g style="fill:none; color:white; stroke:currentColor; stroke-width:1.00; stroke-linecap:butt; stroke-linejoin:miter">
</g>
<g style="fill:none; color:black; stroke:currentColor; stroke-width:1.00; stroke-linecap:butt; stroke-linejoin:miter">
	<g style="stroke:none; shape-rendering:crispEdges">
		<polygon fill="rgb(255, 255, 255)" points="48.4,381.6 543.0,381.6 543.0,36.2 48.4,36.2 "/>
	</g>
	<path d="M48.4,381.6 L48.4,36.2 L543.0,36.2 L543.0,381.6 L48.4,381.6  h0.01" stroke="black"/></g>
<g style="fill:none; color:black; stroke:black; stroke-width:0.50; stroke-linecap:butt; stroke-linejoin:miter">
	<path d="M48.4,381.6 L56.8,381.6 M543.1,381.6 L534.7,381.6  h0.01" stroke="black"/>	<g style="stroke:none; fill:rgb(0,0,0); font-family:{}; font-size:10.00pt; text-anchor:end" transform="translate(42.8,385.3)">
		<text><tspan>-0.5</tspan></text>
	</g>
	<path d="M48.4,324.0 L56.8,324.0 M543.1,324.0 L534.7,324.0  h0.01" stroke="black"/>	<g style="stroke:none; fill:rgb(0,0,0); font-family:{}; font-size:10.00pt; text-anchor:end" transform="translate(42.8,327.7)">
		<text><tspan>0</tspan></text>
	</g>
	<path d="M48.4,266.4 L56.8,266.4 M543.1,266.4 L534.7,266.4  h0.01" stroke="black"/>	<g style="stroke:none; fill:rgb(0,0,0); font-family:{}; font-size:10.00pt; text-anchor:end" transform="translate(42.8,270.1)">
		<text><tspan>0.5</tspan></text>
	</g>
	<path d="M48.4,208.8 L56.8,208.8 M543.1,208.8 L534.7,208.8  h0.01" stroke="black"/>	<g style="stroke:none; fill:rgb(0,0,0); font-family:{}; font-size:10.00pt; text-anchor:end" transform="translate(42.8,212.5)">
		<text><tspan>1</tspan></text>
	</g>
	<path d="M48.4,151.3 L56.8,151.3 M543.1,151.3 L534.7,151.3  h0.01" stroke="black"/>	<g style="stroke:none; fill:rgb(0,0,0); font-family:{}; font-size:10.00pt; text-anchor:end" transform="translate(42.8,155.0)">
		<text><tspan>1.5</tspan></text>
	</g>
	<path d="M48.4,93.7 L56.8,93.7 M543.1,93.7 L534.7,93.7  h0.01" stroke="black"/>	<g style="stroke:none; fill:rgb(0,0,0); font-family:{}; font-size:10.00pt; text-anchor:end" transform="translate(42.8,97.4)">
		<text><tspan>2</tspan></text>
	</g>
	<path d="M48.4,36.1 L56.8,36.1 M543.1,36.1 L534.7,36.1  h0.01" stroke="black"/>	<g style="stroke:none; fill:rgb(0,0,0); font-family:{}; font-size:10.00pt; text-anchor:end" transform="translate(42.8,39.8)">
		<text><tspan>2.5</tspan></text>
	</g>
	<path d="M48.4,381.6 L48.4,373.2 M48.4,36.1 L48.4,44.5  h0.01" stroke="black"/>	<g style="stroke:none; fill:rgb(0,0,0); font-family:{}; font-size:10.00pt; text-anchor:middle" transform="translate(48.4,397.3)">
		<text><tspan>-1</tspan></text>
	</g>
	<path d="M172.1,381.6 L172.1,373.2 M172.1,36.1 L172.1,44.5  h0.01" stroke="black"/>	<g style="stroke:none; fill:rgb(0,0,0); font-family:{}; font-size:10.00pt; text-anchor:middle" transform="translate(172.1,397.3)">
		<text><tspan>-0.5</tspan></text>
	</g>
	<path d="M295.8,381.6 L295.8,373.2 M295.8,36.1 L295.8,44.5  h0.01" stroke="black"/>	<g style="stroke:none; fill:rgb(0,0,0); font-family:{}; font-size:10.00pt; text-anchor:middle" transform="translate(295.8,397.3)">
		<text><tspan>0</tspan></text>
	</g>
	<path d="M419.4,381.6 L419.4,373.2 M419.4,36.1 L419.4,44.5  h0.01" stroke="black"/>	<g style="stroke:none; fill:rgb(0,0,0); font-family:{}; font-size:10.00pt; text-anchor:middle" transform="translate(419.4,397.3)">
		<text><tspan>0.5</tspan></text>
	</g>
	<path d="M543.1,381.6 L543.1,373.2 M543.1,36.1 L543.1,44.5  h0.01" stroke="black"/>	<g style="stroke:none; fill:rgb(0,0,0); font-family:{}; font-size:10.00pt; text-anchor:middle" transform="translate(543.1,397.3)">
		<text><tspan>1</tspan></text>
	</g>
	<path d="M48.4,36.1 L48.4,381.6 L543.1,381.6 L543.1,36.1 L48.4,36.1 Z  h0.01" stroke="black"/>	<g style="stroke:none; fill:rgb(0,0,0); font-family:{}; font-size:10.00pt; text-anchor:middle" transform="translate(12.5,208.9) rotate(-90)">
		<text><tspan>y</tspan></text>
	</g>
	<g style="stroke:none; fill:rgb(0,0,0); font-family:{}; font-size:10.00pt; text-anchor:middle" transform="translate(295.7,415.3)">
		<text><tspan>x</tspan></text>
	</g>
	<g style="stroke:none; fill:black; font-family:{}; font-size:10.00pt; text-anchor:middle" transform="translate(295.7,21.8)">
		<text><tspan>Hypothesis at λ = 10</tspan></text>
	</g>
</g>
<g style="fill:none; color:black; stroke:black; stroke-width:1.00; stroke-linecap:butt; stroke-linejoin:miter">
	<path d="M425.1,66.1 L425.1,42.1 L537.5,42.1 L537.5,66.1 L425.1,66.1 Z  h0.01" stroke="black"/></g>
	<g id="gnuplot_plot_1a"><title>gnuplot_plot_1a</title>
<g style="fill:none; color:white; stroke:black; stroke-width:0.50; stroke-linecap:butt; stroke-linejoin:miter">
</g>
<g style="fill:none; color:red; stroke:currentColor; stroke-width:0.50; stroke-linecap:butt; stroke-linejoin:miter">
	<g style="stroke:none; fill:rgb(0,0,0); font-family:{}; font-size:10.00pt; text-anchor:end" transform="translate(537.5,51.8)">
		<text><tspan>Training data</tspan></text>
	</g>
	<use color="rgb(  0, 255,   0)" transform="translate(49.0,83.5) scale(6.00)" xlink:href="#gpPt6"/>
	<use color="rgb(  0, 255,   0)" transform="translate(123.7,189.9) scale(6.00)" xlink:href="#gpPt6"/>
	<use color="rgb(  0, 255,   0)" transform="translate(195.9,286.2) scale(6.00)" xlink:href="#gpPt6"/>
	<use color="rgb(  0, 255,   0)" transform="translate(270.4,271.0) scale(6.00)" xlink:href="#gpPt6"/>
	<use color="rgb(  0, 255,   0)" transform="translate(350.2,272.4) scale(6.00)" xlink:href="#gpPt6"/>
	<use color="rgb(  0, 255,   0)" transform="translate(413.8,312.5) scale(6.00)" xlink:href="#gpPt6"/>
	<use color="rgb(  0, 255,   0)" transform="translate(499.1,362.0) scale(6.00)" xlink:href="#gpPt6"/>
	<use color="rgb(  0, 255,   0)" transform="translate(444.9,48.1) scale(6.00)" xlink:href="#gpPt6"/>
</g>
	</g>
	<g id="gnuplot_plot_2a"><title>gnuplot_plot_2a</title>
<g style="fill:none; color:white; stroke:rgb(  0, 255,   0); stroke-width:3.00; stroke-linecap:butt; stroke-linejoin:miter">
</g>
<g style="fill:none; color:green; stroke:currentColor; stroke-width:3.00; stroke-linecap:butt; stroke-linejoin:miter">
	<g style="stroke:none; fill:rgb(0,0,0); font-family:{}; font-size:10.00pt; text-anchor:end" transform="translate(537.5,63.8)">
		<text><tspan>5th order fit</tspan></text>
	</g>
	<path d="M430.7,60.1 L459.1,60.1 M48.4,195.7 L48.9,196.1 L49.4,196.5 L49.9,196.9 L50.4,197.2 L50.9,197.6    L51.4,198.0 L51.9,198.4 L52.4,198.8 L52.9,199.1 L53.4,199.5 L53.8,199.9 L54.3,200.2 L54.8,200.6    L55.3,201.0 L55.8,201.3 L56.3,201.7 L56.8,202.0 L57.3,202.4 L57.8,202.7 L58.3,203.1 L58.8,203.4    L59.3,203.8 L59.8,204.1 L60.3,204.5 L60.8,204.8 L61.3,205.1 L61.8,205.5 L62.3,205.8 L62.8,206.2    L63.3,206.5 L63.8,206.8 L64.2,207.1 L64.7,207.5 L65.2,207.8 L65.7,208.1 L66.2,208.4 L66.7,208.8    L67.2,209.1 L67.7,209.4 L68.2,209.7 L68.7,210.0 L69.2,210.3 L69.7,210.6 L70.2,210.9 L70.7,211.3    L71.2,211.6 L71.7,211.9 L72.2,212.2 L72.7,212.5 L73.2,212.8 L73.7,213.1 L74.2,213.3 L74.6,213.6    L75.1,213.9 L75.6,214.2 L76.1,214.5 L76.6,214.8 L77.1,215.1 L77.6,215.4 L78.1,215.6 L78.6,215.9    L79.1,216.2 L79.6,216.5 L80.1,216.8 L80.6,217.0 L81.1,217.3 L81.6,217.6 L82.1,217.8 L82.6,218.1    L83.1,218.4 L83.6,218.6 L84.1,218.9 L84.5,219.2 L85.0,219.4 L85.5,219.7 L86.0,220.0 L86.5,220.2    L87.0,220.5 L87.5,220.7 L88.0,221.0 L88.5,221.2 L89.0,221.5 L89.5,221.7 L90.0,222.0 L90.5,222.2    L91.0,222.5 L91.5,222.7 L92.0,222.9 L92.5,223.2 L93.0,223.4 L93.5,223.7 L94.0,223.9 L94.5,224.1    L94.9,224.4 L95.4,224.6 L95.9,224.8 L96.4,225.1 L96.9,225.3 L97.4,225.5 L97.9,225.7 L98.4,226.0    L98.9,226.2 L99.4,226.4 L99.9,226.6 L100.4,226.9 L100.9,227.1 L101.4,227.3 L101.9,227.5 L102.4,227.7    L102.9,227.9 L103.4,228.1 L103.9,228.4 L104.4,228.6 L104.9,228.8 L105.3,229.0 L105.8,229.2 L106.3,229.4    L106.8,229.6 L107.3,229.8 L107.8,230.0 L108.3,230.2 L108.8,230.4 L109.3,230.6 L109.8,230.8 L110.3,231.0    L110.8,231.2 L111.3,231.4 L111.8,231.6 L112.3,231.8 L112.8,232.0 L113.3,232.2 L113.8,232.3 L114.3,232.5    L114.8,232.7 L115.3,232.9 L115.7,233.1 L116.2,233.3 L116.7,233.5 L117.2,233.6 L117.7,233.8 L118.2,234.0    L118.7,234.2 L119.2,234.4 L119.7,234.5 L120.2,234.7 L120.7,234.9 L121.2,235.1 L121.7,235.2 L122.2,235.4    L122.7,235.6 L123.2,235.8 L123.7,235.9 L124.2,236.1 L124.7,236.3 L125.2,236.4 L125.7,236.6 L126.1,236.8    L126.6,236.9 L127.1,237.1 L127.6,237.2 L128.1,237.4 L128.6,237.6 L129.1,237.7 L129.6,237.9 L130.1,238.0    L130.6,238.2 L131.1,238.3 L131.6,238.5 L132.1,238.7 L132.6,238.8 L133.1,239.0 L133.6,239.1 L134.1,239.3    L134.6,239.4 L135.1,239.6 L135.6,239.7 L136.0,239.9 L136.5,240.0 L137.0,240.2 L137.5,240.3 L138.0,240.4    L138.5,240.6 L139.0,240.7 L139.5,240.9 L140.0,241.0 L140.5,241.2 L141.0,241.3 L141.5,241.4 L142.0,241.6    L142.5,241.7 L143.0,241.8 L143.5,242.0 L144.0,242.1 L144.5,242.2 L145.0,242.4 L145.5,242.5 L146.0,242.6    L146.4,242.8 L146.9,242.9 L147.4,243.0 L147.9,243.2 L148.4,243.3 L148.9,243.4 L149.4,243.5 L149.9,243.7    L150.4,243.8 L150.9,243.9 L151.4,244.0 L151.9,244.2 L152.4,244.3 L152.9,244.4 L153.4,244.5 L153.9,244.7    L154.4,244.8 L154.9,244.9 L155.4,245.0 L155.9,245.1 L156.4,245.3 L156.8,245.4 L157.3,245.5 L157.8,245.6    L158.3,245.7 L158.8,245.8 L159.3,246.0 L159.8,246.1 L160.3,246.2 L160.8,246.3 L161.3,246.4 L161.8,246.5    L162.3,246.6 L162.8,246.7 L163.3,246.8 L163.8,247.0 L164.3,247.1 L164.8,247.2 L165.3,247.3 L165.8,247.4    L166.3,247.5 L166.8,247.6 L167.2,247.7 L167.7,247.8 L168.2,247.9 L168.7,248.0 L169.2,248.1 L169.7,248.2    L170.2,248.3 L170.7,248.4 L171.2,248.5 L171.7,248.6 L172.2,248.7 L172.7,248.8 L173.2,248.9 L173.7,249.0    L174.2,249.1 L174.7,249.2 L175.2,249.3 L175.7,249.4 L176.2,249.5 L176.7,249.6 L177.2,249.7 L177.6,249.8    L178.1,249.9 L178.6,250.0 L179.1,250.1 L179.6,250.2 L180.1,250.2 L180.6,250.3 L181.1,250.4 L181.6,250.5    L182.1,250.6 L182.6,250.7 L183.1,250.8 L183.6,250.9 L184.1,251.0 L184.6,251.0 L185.1,251.1 L185.6,251.2    L186.1,251.3 L186.6,251.4 L187.1,251.5 L187.5,251.6 L188.0,251.7 L188.5,251.7 L189.0,251.8 L189.5,251.9    L190.0,252.0 L190.5,252.1 L191.0,252.2 L191.5,252.2 L192.0,252.3 L192.5,252.4 L193.0,252.5 L193.5,252.6    L194.0,252.6 L194.5,252.7 L195.0,252.8 L195.5,252.9 L196.0,253.0 L196.5,253.0 L197.0,253.1 L197.5,253.2    L197.9,253.3 L198.4,253.3 L198.9,253.4 L199.4,253.5 L199.9,253.6 L200.4,253.6 L200.9,253.7 L201.4,253.8    L201.9,253.9 L202.4,253.9 L202.9,254.0 L203.4,254.1 L203.9,254.2 L204.4,254.2 L204.9,254.3 L205.4,254.4    L205.9,254.5 L206.4,254.5 L206.9,254.6 L207.4,254.7 L207.9,254.7 L208.3,254.8 L208.8,254.9 L209.3,254.9    L209.8,255.0 L210.3,255.1 L210.8,255.2 L211.3,255.2 L211.8,255.3 L212.3,255.4 L212.8,255.4 L213.3,255.5    L213.8,255.6 L214.3,255.6 L214.8,255.7 L215.3,255.8 L215.8,255.8 L216.3,255.9 L216.8,256.0 L217.3,256.0    L217.8,256.1 L218.3,256.2 L218.7,256.2 L219.2,256.3 L219.7,256.3 L220.2,256.4 L220.7,256.5 L221.2,256.5    L221.7,256.6 L222.2,256.7 L222.7,256.7 L223.2,256.8 L223.7,256.8 L224.2,256.9 L224.7,257.0 L225.2,257.0    L225.7,257.1 L226.2,257.2 L226.7,257.2 L227.2,257.3 L227.7,257.3 L228.2,257.4 L228.7,257.5 L229.1,257.5    L229.6,257.6 L230.1,257.6 L230.6,257.7 L231.1,257.7 L231.6,257.8 L232.1,257.9 L232.6,257.9 L233.1,258.0    L233.6,258.0 L234.1,258.1 L234.6,258.1 L235.1,258.2 L235.6,258.3 L236.1,258.3 L236.6,258.4 L237.1,258.4    L237.6,258.5 L238.1,258.5 L238.6,258.6 L239.1,258.7 L239.5,258.7 L240.0,258.8 L240.5,258.8 L241.0,258.9    L241.5,258.9 L242.0,259.0 L242.5,259.0 L243.0,259.1 L243.5,259.1 L244.0,259.2 L244.5,259.2 L245.0,259.3    L245.5,259.4 L246.0,259.4 L246.5,259.5 L247.0,259.5 L247.5,259.6 L248.0,259.6 L248.5,259.7 L249.0,259.7    L249.4,259.8 L249.9,259.8 L250.4,259.9 L250.9,259.9 L251.4,260.0 L251.9,260.0 L252.4,260.1 L252.9,260.1    L253.4,260.2 L253.9,260.2 L254.4,260.3 L254.9,260.3 L255.4,260.4 L255.9,260.4 L256.4,260.5 L256.9,260.5    L257.4,260.6 L257.9,260.6 L258.4,260.7 L258.9,260.7 L259.4,260.8 L259.8,260.8 L260.3,260.9 L260.8,260.9    L261.3,261.0 L261.8,261.0 L262.3,261.1 L262.8,261.1 L263.3,261.2 L263.8,261.2 L264.3,261.3 L264.8,261.3    L265.3,261.3 L265.8,261.4 L266.3,261.4 L266.8,261.5 L267.3,261.5 L267.8,261.6 L268.3,261.6 L268.8,261.7    L269.3,261.7 L269.8,261.8 L270.2,261.8 L270.7,261.9 L271.2,261.9 L271.7,262.0 L272.2,262.0 L272.7,262.0    L273.2,262.1 L273.7,262.1 L274.2,262.2 L274.7,262.2 L275.2,262.3 L275.7,262.3 L276.2,262.4 L276.7,262.4    L277.2,262.5 L277.7,262.5 L278.2,262.5 L278.7,262.6 L279.2,262.6 L279.7,262.7 L280.2,262.7 L280.6,262.8    L281.1,262.8 L281.6,262.9 L282.1,262.9 L282.6,262.9 L283.1,263.0 L283.6,263.0 L284.1,263.1 L284.6,263.1    L285.1,263.2 L285.6,263.2 L286.1,263.2 L286.6,263.3 L287.1,263.3 L287.6,263.4 L288.1,263.4 L288.6,263.5    L289.1,263.5 L289.6,263.5 L290.1,263.6 L290.6,263.6 L291.0,263.7 L291.5,263.7 L292.0,263.8 L292.5,263.8    L293.0,263.8 L293.5,263.9 L294.0,263.9 L294.5,264.0 L295.0,264.0 L295.5,264.1 L296.0,264.1 L296.5,264.1    L297.0,264.2 L297.5,264.2 L298.0,264.3 L298.5,264.3 L299.0,264.3 L299.5,264.4 L300.0,264.4 L300.5,264.5    L300.9,264.5 L301.4,264.6 L301.9,264.6 L302.4,264.6 L302.9,264.7 L303.4,264.7 L303.9,264.8 L304.4,264.8    L304.9,264.8 L305.4,264.9 L305.9,264.9 L306.4,265.0 L306.9,265.0 L307.4,265.1 L307.9,265.1 L308.4,265.1    L308.9,265.2 L309.4,265.2 L309.9,265.3 L310.4,265.3 L310.9,265.3 L311.3,265.4 L311.8,265.4 L312.3,265.5    L312.8,265.5 L313.3,265.5 L313.8,265.6 L314.3,265.6 L314.8,265.7 L315.3,265.7 L315.8,265.7 L316.3,265.8    L316.8,265.8 L317.3,265.9 L317.8,265.9 L318.3,265.9 L318.8,266.0 L319.3,266.0 L319.8,266.1 L320.3,266.1    L320.8,266.1 L321.3,266.2 L321.7,266.2 L322.2,266.3 L322.7,266.3 L323.2,266.3 L323.7,266.4 L324.2,266.4    L324.7,266.5 L325.2,266.5 L325.7,266.5 L326.2,266.6 L326.7,266.6 L327.2,266.7 L327.7,266.7 L328.2,266.7    L328.7,266.8 L329.2,266.8 L329.7,266.9 L330.2,266.9 L330.7,266.9 L331.2,267.0 L331.7,267.0 L332.1,267.1    L332.6,267.1 L333.1,267.1 L333.6,267.2 L334.1,267.2 L334.6,267.3 L335.1,267.3 L335.6,267.3 L336.1,267.4    L336.6,267.4 L337.1,267.5 L337.6,267.5 L338.1,267.5 L338.6,267.6 L339.1,267.6 L339.6,267.7 L340.1,267.7    L340.6,267.7 L341.1,267.8 L341.6,267.8 L342.1,267.9 L342.5,267.9 L343.0,268.0 L343.5,268.0 L344.0,268.0    L344.5,268.1 L345.0,268.1 L345.5,268.2 L346.0,268.2 L346.5,268.2 L347.0,268.3 L347.5,268.3 L348.0,268.4    L348.5,268.4 L349.0,268.4 L349.5,268.5 L350.0,268.5 L350.5,268.6 L351.0,268.6 L351.5,268.6 L352.0,268.7    L352.4,268.7 L352.9,268.8 L353.4,268.8 L353.9,268.8 L354.4,268.9 L354.9,268.9 L355.4,269.0 L355.9,269.0    L356.4,269.0 L356.9,269.1 L357.4,269.1 L357.9,269.2 L358.4,269.2 L358.9,269.2 L359.4,269.3 L359.9,269.3    L360.4,269.4 L360.9,269.4 L361.4,269.5 L361.9,269.5 L362.4,269.5 L362.8,269.6 L363.3,269.6 L363.8,269.7    L364.3,269.7 L364.8,269.7 L365.3,269.8 L365.8,269.8 L366.3,269.9 L366.8,269.9 L367.3,270.0 L367.8,270.0    L368.3,270.0 L368.8,270.1 L369.3,270.1 L369.8,270.2 L370.3,270.2 L370.8,270.2 L371.3,270.3 L371.8,270.3    L372.3,270.4 L372.8,270.4 L373.2,270.5 L373.7,270.5 L374.2,270.5 L374.7,270.6 L375.2,270.6 L375.7,270.7    L376.2,270.7 L376.7,270.8 L377.2,270.8 L377.7,270.8 L378.2,270.9 L378.7,270.9 L379.2,271.0 L379.7,271.0    L380.2,271.1 L380.7,271.1 L381.2,271.2 L381.7,271.2 L382.2,271.2 L382.7,271.3 L383.2,271.3 L383.6,271.4    L384.1,271.4 L384.6,271.5 L385.1,271.5 L385.6,271.6 L386.1,271.6 L386.6,271.6 L387.1,271.7 L387.6,271.7    L388.1,271.8 L388.6,271.8 L389.1,271.9 L389.6,271.9 L390.1,272.0 L390.6,272.0 L391.1,272.1 L391.6,272.1    L392.1,272.1 L392.6,272.2 L393.1,272.2 L393.6,272.3 L394.0,272.3 L394.5,272.4 L395.0,272.4 L395.5,272.5    L396.0,272.5 L396.5,272.6 L397.0,272.6 L397.5,272.7 L398.0,272.7 L398.5,272.8 L399.0,272.8 L399.5,272.8    L400.0,272.9 L400.5,272.9 L401.0,273.0 L401.5,273.0 L402.0,273.1 L402.5,273.1 L403.0,273.2 L403.5,273.2    L404.0,273.3 L404.4,273.3 L404.9,273.4 L405.4,273.4 L405.9,273.5 L406.4,273.5 L406.9,273.6 L407.4,273.6    L407.9,273.7 L408.4,273.7 L408.9,273.8 L409.4,273.8 L409.9,273.9 L410.4,273.9 L410.9,274.0 L411.4,274.0    L411.9,274.1 L412.4,274.1 L412.9,274.2 L413.4,274.2 L413.9,274.3 L414.3,274.4 L414.8,274.4 L415.3,274.5    L415.8,274.5 L416.3,274.6 L416.8,274.6 L417.3,274.7 L417.8,274.7 L418.3,274.8 L418.8,274.8 L419.3,274.9    L419.8,274.9 L420.3,275.0 L420.8,275.0 L421.3,275.1 L421.8,275.2 L422.3,275.2 L422.8,275.3 L423.3,275.3    L423.8,275.4 L424.3,275.4 L424.7,275.5 L425.2,275.6 L425.7,275.6 L426.2,275.7 L426.7,275.7 L427.2,275.8    L427.7,275.8 L428.2,275.9 L428.7,276.0 L429.2,276.0 L429.7,276.1 L430.2,276.1 L430.7,276.2 L431.2,276.2    L431.7,276.3 L432.2,276.4 L432.7,276.4 L433.2,276.5 L433.7,276.5 L434.2,276.6 L434.7,276.7 L435.1,276.7    L435.6,276.8 L436.1,276.9 L436.6,276.9 L437.1,277.0 L437.6,277.0 L438.1,277.1 L438.6,277.2 L439.1,277.2    L439.6,277.3 L440.1,277.4 L440.6,277.4 L441.1,277.5 L441.6,277.6 L442.1,277.6 L442.6,277.7 L443.1,277.7    L443.6,277.8 L444.1,277.9 L444.6,277.9 L445.1,278.0 L445.5,278.1 L446.0,278.2 L446.5,278.2 L447.0,278.3    L447.5,278.4 L448.0,278.4 L448.5,278.5 L449.0,278.6 L449.5,278.6 L450.0,278.7 L450.5,278.8 L451.0,278.8    L451.5,278.9 L452.0,279.0 L452.5,279.1 L453.0,279.1 L453.5,279.2 L454.0,279.3 L454.5,279.3 L455.0,279.4    L455.5,279.5 L455.9,279.6 L456.4,279.6 L456.9,279.7 L457.4,279.8 L457.9,279.9 L458.4,279.9 L458.9,280.0    L459.4,280.1 L459.9,280.2 L460.4,280.3 L460.9,280.3 L461.4,280.4 L461.9,280.5 L462.4,280.6 L462.9,280.6    L463.4,280.7 L463.9,280.8 L464.4,280.9 L464.9,281.0 L465.4,281.0 L465.8,281.1 L466.3,281.2 L466.8,281.3    L467.3,281.4 L467.8,281.5 L468.3,281.5 L468.8,281.6 L469.3,281.7 L469.8,281.8 L470.3,281.9 L470.8,282.0    L471.3,282.1 L471.8,282.1 L472.3,282.2 L472.8,282.3 L473.3,282.4 L473.8,282.5 L474.3,282.6 L474.8,282.7    L475.3,282.8 L475.8,282.9 L476.2,282.9 L476.7,283.0 L477.2,283.1 L477.7,283.2 L478.2,283.3 L478.7,283.4    L479.2,283.5 L479.7,283.6 L480.2,283.7 L480.7,283.8 L481.2,283.9 L481.7,284.0 L482.2,284.1 L482.7,284.2    L483.2,284.3 L483.7,284.4 L484.2,284.5 L484.7,284.6 L485.2,284.7 L485.7,284.8 L486.2,284.9 L486.6,285.0    L487.1,285.1 L487.6,285.2 L488.1,285.3 L488.6,285.4 L489.1,285.5 L489.6,285.6 L490.1,285.7 L490.6,285.8    L491.1,285.9 L491.6,286.0 L492.1,286.1 L492.6,286.2 L493.1,286.4 L493.6,286.5 L494.1,286.6 L494.6,286.7    L495.1,286.8 L495.6,286.9 L496.1,287.0 L496.6,287.1 L497.0,287.3 L497.5,287.4 L498.0,287.5 L498.5,287.6    L499.0,287.7 L499.5,287.8 L500.0,288.0 L500.5,288.1 L501.0,288.2 L501.5,288.3 L502.0,288.4 L502.5,288.6    L503.0,288.7 L503.5,288.8 L504.0,288.9 L504.5,289.1 L505.0,289.2 L505.5,289.3 L506.0,289.4 L506.5,289.6    L507.0,289.7 L507.4,289.8 L507.9,290.0 L508.4,290.1 L508.9,290.2 L509.4,290.3 L509.9,290.5 L510.4,290.6    L510.9,290.7 L511.4,290.9 L511.9,291.0 L512.4,291.2 L512.9,291.3 L513.4,291.4 L513.9,291.6 L514.4,291.7    L514.9,291.8 L515.4,292.0 L515.9,292.1 L516.4,292.3 L516.9,292.4 L517.3,292.6 L517.8,292.7 L518.3,292.9    L518.8,293.0 L519.3,293.1 L519.8,293.3 L520.3,293.4 L520.8,293.6 L521.3,293.7 L521.8,293.9 L522.3,294.1    L522.8,294.2 L523.3,294.4 L523.8,294.5 L524.3,294.7 L524.8,294.8 L525.3,295.0 L525.8,295.2 L526.3,295.3    L526.8,295.5 L527.3,295.6 L527.7,295.8 L528.2,296.0 L528.7,296.1 L529.2,296.3 L529.7,296.5 L530.2,296.6    L530.7,296.8 L531.2,297.0 L531.7,297.1 L532.2,297.3 L532.7,297.5 L533.2,297.7 L533.7,297.8 L534.2,298.0    L534.7,298.2 L535.2,298.4 L535.7,298.5 L536.2,298.7 L536.7,298.9 L537.2,299.1 L537.7,299.3 L538.1,299.5    L538.6,299.6 L539.1,299.8 L539.6,300.0 L540.1,300.2 L540.6,300.4 L541.1,300.6 L541.6,300.8 L542.1,301.0    L542.6,301.2 L543.1,301.4  h0.01" stroke="rgb(255,   0,   0)" stroke-dasharray=" 5,8"/></g>
	</g>
<g style="fill:none; color:white; stroke:rgb(255,   0,   0); stroke-width:0.50; stroke-linecap:butt; stroke-linejoin:miter">
</g>
<g style="fill:none; color:black; stroke:currentColor; stroke-width:0.50; stroke-linecap:butt; stroke-linejoin:miter">
</g>
</g>
</svg>