<svg height="420px" viewBox="0 0 560 420" width="560px" xmlns="http://www.w3.org/2000/svg" xmlns:xlink="http://www.w3.org/1999/xlink">

<title>Gnuplot</title>
<desc>Produced by GNUPLOT 4.6 patchlevel 2 </desc>

<g id="gnuplot_canvas">

<rect fill="none" height="420" width="560" x="0" y="0"/>
<defs>

	<circle id="gpDot" r="0.5" stroke-width="0.5"/>
	<path d="M-1,0 h2 M0,-1 v2" id="gpPt0" stroke="currentColor" stroke-width="0.333"/>
	<path d="M-1,-1 L1,1 M1,-1 L-1,1" id="gpPt1" stroke="currentColor" stroke-width="0.333"/>
	<path d="M-1,0 L1,0 M0,-1 L0,1 M-1,-1 L1,1 M-1,1 L1,-1" id="gpPt2" stroke="currentColor" stroke-width="0.333"/>
	<rect height="2" id="gpPt3" stroke="currentColor" stroke-width="0.333" width="2" x="-1" y="-1"/>
	<rect fill="currentColor" height="2" id="gpPt4" stroke="currentColor" stroke-width="0.333" width="2" x="-1" y="-1"/>
	<circle cx="0" cy="0" id="gpPt5" r="1" stroke="currentColor" stroke-width="0.333"/>
	<use fill="currentColor" id="gpPt6" stroke="none" xlink:href="#gpPt5"/>
	<path d="M0,-1.33 L-1.33,0.67 L1.33,0.67 z" id="gpPt7" stroke="currentColor" stroke-width="0.333"/>
	<use fill="currentColor" id="gpPt8" stroke="none" xlink:href="#gpPt7"/>
	<use id="gpPt9" stroke="currentColor" transform="rotate(180)" xlink:href="#gpPt7"/>
	<use fill="currentColor" id="gpPt10" stroke="none" xlink:href="#gpPt9"/>
	<use id="gpPt11" stroke="currentColor" transform="rotate(45)" xlink:href="#gpPt3"/>
	<use fill="currentColor" id="gpPt12" stroke="none" xlink:href="#gpPt11"/>
</defs>
<g style="fill:none; color:white; stroke:currentColor; stroke-width:1.00; stroke-linecap:butt; stroke-linejoin:miter">
</g>
<g style="fill:none; color:black; stroke:currentColor; stroke-width:1.00; stroke-linecap:butt; stroke-linejoin:miter">
	<g style="stroke:none; shape-rendering:crispEdges">
		<polygon fill="rgb(255, 255, 255)" points="48.4,381.6 543.0,381.6 543.0,11.4 48.4,11.4 "/>
	</g>
	<path d="M48.4,381.6 L48.4,11.4 L543.0,11.4 L543.0,381.6 L48.4,381.6  h0.01" stroke="black"/></g>
<g style="fill:none; color:black; stroke:black; stroke-width:0.50; stroke-linecap:butt; stroke-linejoin:miter">
	<path d="M48.4,381.6 L56.8,381.6 M543.1,381.6 L534.7,381.6  h0.01" stroke="black"/>	<g style="stroke:none; fill:rgb(0,0,0); font-family:{}; font-size:10.00pt; text-anchor:end" transform="translate(42.8,385.3)">
		<text><tspan>-1</tspan></text>
	</g>
	<path d="M48.4,307.5 L56.8,307.5 M543.1,307.5 L534.7,307.5  h0.01" stroke="black"/>	<g style="stroke:none; fill:rgb(0,0,0); font-family:{}; font-size:10.00pt; text-anchor:end" transform="translate(42.8,311.2)">
		<text><tspan>-0.5</tspan></text>
	</g>
	<path d="M48.4,233.5 L56.8,233.5 M543.1,233.5 L534.7,233.5  h0.01" stroke="black"/>	<g style="stroke:none; fill:rgb(0,0,0); font-family:{}; font-size:10.00pt; text-anchor:end" transform="translate(42.8,237.2)">
		<text><tspan>0</tspan></text>
	</g>
	<path d="M48.4,159.4 L56.8,159.4 M543.1,159.4 L534.7,159.4  h0.01" stroke="black"/>	<g style="stroke:none; fill:rgb(0,0,0); font-family:{}; font-size:10.00pt; text-anchor:end" transform="translate(42.8,163.1)">
		<text><tspan>0.5</tspan></text>
	</g>
	<path d="M48.4,85.4 L56.8,85.4 M543.1,85.4 L534.7,85.4  h0.01" stroke="black"/>	<g style="stroke:none; fill:rgb(0,0,0); font-family:{}; font-size:10.00pt; text-anchor:end" transform="translate(42.8,89.1)">
		<text><tspan>1</tspan></text>
	</g>
	<path d="M48.4,11.3 L56.8,11.3 M543.1,11.3 L534.7,11.3  h0.01" stroke="black"/>	<g style="stroke:none; fill:rgb(0,0,0); font-family:{}; font-size:10.00pt; text-anchor:end" transform="translate(42.8,15.0)">
		<text><tspan>1.5</tspan></text>
	</g>
	<path d="M48.4,381.6 L48.4,373.2 M48.4,11.3 L48.4,19.7  h0.01" stroke="black"/>	<g style="stroke:none; fill:rgb(0,0,0); font-family:{}; font-size:10.00pt; text-anchor:middle" transform="translate(48.4,397.3)">
		<text><tspan>-1</tspan></text>
	</g>
	<path d="M147.3,381.6 L147.3,373.2 M147.3,11.3 L147.3,19.7  h0.01" stroke="black"/>	<g style="stroke:none; fill:rgb(0,0,0); font-family:{}; font-size:10.00pt; text-anchor:middle" transform="translate(147.3,397.3)">
		<text><tspan>-0.5</tspan></text>
	</g>
	<path d="M246.3,381.6 L246.3,373.2 M246.3,11.3 L246.3,19.7  h0.01" stroke="black"/>	<g style="stroke:none; fill:rgb(0,0,0); font-family:{}; font-size:10.00pt; text-anchor:middle" transform="translate(246.3,397.3)">
		<text><tspan>0</tspan></text>
	</g>
	<path d="M345.2,381.6 L345.2,373.2 M345.2,11.3 L345.2,19.7  h0.01" stroke="black"/>	<g style="stroke:none; fill:rgb(0,0,0); font-family:{}; font-size:10.00pt; text-anchor:middle" transform="translate(345.2,397.3)">
		<text><tspan>0.5</tspan></text>
	</g>
	<path d="M444.2,381.6 L444.2,373.2 M444.2,11.3 L444.2,19.7  h0.01" stroke="black"/>	<g style="stroke:none; fill:rgb(0,0,0); font-family:{}; font-size:10.00pt; text-anchor:middle" transform="translate(444.2,397.3)">
		<text><tspan>1</tspan></text>
	</g>
	<path d="M543.1,381.6 L543.1,373.2 M543.1,11.3 L543.1,19.7  h0.01" stroke="black"/>	<g style="stroke:none; fill:rgb(0,0,0); font-family:{}; font-size:10.00pt; text-anchor:middle" transform="translate(543.1,397.3)">
		<text><tspan>1.5</tspan></text>
	</g>
	<path d="M48.4,11.3 L48.4,381.6 L543.1,381.6 L543.1,11.3 L48.4,11.3 Z  h0.01" stroke="black"/>	<g style="stroke:none; fill:rgb(0,0,0); font-family:{}; font-size:10.00pt; text-anchor:middle" transform="translate(12.5,196.5) rotate(-90)">
		<text><tspan>v</tspan></text>
	</g>
	<g style="stroke:none; fill:rgb(0,0,0); font-family:{}; font-size:10.00pt; text-anchor:middle" transform="translate(295.7,415.3)">
		<text><tspan>u</tspan></text>
	</g>
</g>
<g style="fill:none; color:black; stroke:black; stroke-width:1.00; stroke-linecap:butt; stroke-linejoin:miter">
	<path d="M458.7,41.3 L458.7,17.3 L537.5,17.3 L537.5,41.3 L458.7,41.3 Z  h0.01" stroke="black"/></g>
	<g id="gnuplot_plot_1a"><title>gnuplot_plot_1a</title>
<g style="fill:none; color:white; stroke:black; stroke-width:0.50; stroke-linecap:butt; stroke-linejoin:miter">
</g>
<g style="fill:none; color:red; stroke:currentColor; stroke-width:0.50; stroke-linecap:butt; stroke-linejoin:miter">
	<g style="stroke:none; fill:rgb(0,0,0); font-family:{}; font-size:10.00pt; text-anchor:end" transform="translate(537.5,27.0)">
		<text><tspan> y = 1 </tspan></text>
	</g>
	<use color="rgb(255,   0,   0)" transform="translate(256.4,129.9) scale(6.00)" xlink:href="#gpPt0"/>
	<use color="rgb(255,   0,   0)" transform="translate(227.9,132.0) scale(6.00)" xlink:href="#gpPt0"/>
	<use color="rgb(255,   0,   0)" transform="translate(204.0,130.9) scale(6.00)" xlink:href="#gpPt0"/>
	<use color="rgb(255,   0,   0)" transform="translate(172.1,159.1) scale(6.00)" xlink:href="#gpPt0"/>
	<use color="rgb(255,   0,   0)" transform="translate(144.7,164.5) scale(6.00)" xlink:href="#gpPt0"/>
	<use color="rgb(255,   0,   0)" transform="translate(142.4,202.4) scale(6.00)" xlink:href="#gpPt0"/>
	<use color="rgb(255,   0,   0)" transform="translate(167.5,228.4) scale(6.00)" xlink:href="#gpPt0"/>
	<use color="rgb(255,   0,   0)" transform="translate(185.8,262.0) scale(6.00)" xlink:href="#gpPt0"/>
	<use color="rgb(255,   0,   0)" transform="translate(249.6,293.4) scale(6.00)" xlink:href="#gpPt0"/>
	<use color="rgb(255,   0,   0)" transform="translate(272.4,309.6) scale(6.00)" xlink:href="#gpPt0"/>
	<use color="rgb(255,   0,   0)" transform="translate(322.5,317.2) scale(6.00)" xlink:href="#gpPt0"/>
	<use color="rgb(255,   0,   0)" transform="translate(351.0,310.7) scale(6.00)" xlink:href="#gpPt0"/>
	<use color="rgb(255,   0,   0)" transform="translate(372.7,269.5) scale(6.00)" xlink:href="#gpPt0"/>
	<use color="rgb(255,   0,   0)" transform="translate(392.1,260.9) scale(6.00)" xlink:href="#gpPt0"/>
	<use color="rgb(255,   0,   0)" transform="translate(354.5,161.3) scale(6.00)" xlink:href="#gpPt0"/>
	<use color="rgb(255,   0,   0)" transform="translate(310.0,147.2) scale(6.00)" xlink:href="#gpPt0"/>
	<use color="rgb(255,   0,   0)" transform="translate(279.2,153.7) scale(6.00)" xlink:href="#gpPt0"/>
	<use color="rgb(255,   0,   0)" transform="translate(237.0,112.5) scale(6.00)" xlink:href="#gpPt0"/>
	<use color="rgb(255,   0,   0)" transform="translate(212.0,129.9) scale(6.00)" xlink:href="#gpPt0"/>
	<use color="rgb(255,   0,   0)" transform="translate(151.6,139.6) scale(6.00)" xlink:href="#gpPt0"/>
	<use color="rgb(255,   0,   0)" transform="translate(126.5,145.0) scale(6.00)" xlink:href="#gpPt0"/>
	<use color="rgb(255,   0,   0)" transform="translate(121.9,184.0) scale(6.00)" xlink:href="#gpPt0"/>
	<use color="rgb(255,   0,   0)" transform="translate(128.8,232.7) scale(6.00)" xlink:href="#gpPt0"/>
	<use color="rgb(255,   0,   0)" transform="translate(163.0,273.9) scale(6.00)" xlink:href="#gpPt0"/>
	<use color="rgb(255,   0,   0)" transform="translate(223.4,292.3) scale(6.00)" xlink:href="#gpPt0"/>
	<use color="rgb(255,   0,   0)" transform="translate(286.1,322.6) scale(6.00)" xlink:href="#gpPt0"/>
	<use color="rgb(255,   0,   0)" transform="translate(338.5,312.8) scale(6.00)" xlink:href="#gpPt0"/>
	<use color="rgb(255,   0,   0)" transform="translate(379.5,312.8) scale(6.00)" xlink:href="#gpPt0"/>
	<use color="rgb(255,   0,   0)" transform="translate(218.8,152.6) scale(6.00)" xlink:href="#gpPt0"/>
	<use color="rgb(255,   0,   0)" transform="translate(188.0,118.0) scale(6.00)" xlink:href="#gpPt0"/>
	<use color="rgb(255,   0,   0)" transform="translate(193.7,90.9) scale(6.00)" xlink:href="#gpPt0"/>
	<use color="rgb(255,   0,   0)" transform="translate(214.2,114.7) scale(6.00)" xlink:href="#gpPt0"/>
	<use color="rgb(255,   0,   0)" transform="translate(212.0,137.4) scale(6.00)" xlink:href="#gpPt0"/>
	<use color="rgb(255,   0,   0)" transform="translate(190.3,163.4) scale(6.00)" xlink:href="#gpPt0"/>
	<use color="rgb(255,   0,   0)" transform="translate(174.4,187.2) scale(6.00)" xlink:href="#gpPt0"/>
	<use color="rgb(255,   0,   0)" transform="translate(186.9,229.5) scale(6.00)" xlink:href="#gpPt0"/>
	<use color="rgb(255,   0,   0)" transform="translate(199.4,265.2) scale(6.00)" xlink:href="#gpPt0"/>
	<use color="rgb(255,   0,   0)" transform="translate(233.6,260.9) scale(6.00)" xlink:href="#gpPt0"/>
	<use color="rgb(255,   0,   0)" transform="translate(258.7,257.6) scale(6.00)" xlink:href="#gpPt0"/>
	<use color="rgb(255,   0,   0)" transform="translate(291.8,294.4) scale(6.00)" xlink:href="#gpPt0"/>
	<use color="rgb(255,   0,   0)" transform="translate(304.3,267.4) scale(6.00)" xlink:href="#gpPt0"/>
	<use color="rgb(255,   0,   0)" transform="translate(341.9,260.9) scale(6.00)" xlink:href="#gpPt0"/>
	<use color="rgb(255,   0,   0)" transform="translate(373.8,254.4) scale(6.00)" xlink:href="#gpPt0"/>
	<use color="rgb(255,   0,   0)" transform="translate(337.4,231.6) scale(6.00)" xlink:href="#gpPt0"/>
	<use color="rgb(255,   0,   0)" transform="translate(370.4,210.0) scale(6.00)" xlink:href="#gpPt0"/>
	<use color="rgb(255,   0,   0)" transform="translate(360.2,193.7) scale(6.00)" xlink:href="#gpPt0"/>
	<use color="rgb(255,   0,   0)" transform="translate(389.8,167.8) scale(6.00)" xlink:href="#gpPt0"/>
	<use color="rgb(255,   0,   0)" transform="translate(290.6,155.8) scale(6.00)" xlink:href="#gpPt0"/>
	<use color="rgb(255,   0,   0)" transform="translate(333.9,134.2) scale(6.00)" xlink:href="#gpPt0"/>
	<use color="rgb(255,   0,   0)" transform="translate(310.0,130.9) scale(6.00)" xlink:href="#gpPt0"/>
	<use color="rgb(255,   0,   0)" transform="translate(273.5,148.3) scale(6.00)" xlink:href="#gpPt0"/>
	<use color="rgb(255,   0,   0)" transform="translate(245.0,174.3) scale(6.00)" xlink:href="#gpPt0"/>
	<use color="rgb(255,   0,   0)" transform="translate(227.9,151.5) scale(6.00)" xlink:href="#gpPt0"/>
	<use color="rgb(255,   0,   0)" transform="translate(205.1,180.8) scale(6.00)" xlink:href="#gpPt0"/>
	<use color="rgb(255,   0,   0)" transform="translate(205.1,207.8) scale(6.00)" xlink:href="#gpPt0"/>
	<use color="rgb(255,   0,   0)" transform="translate(159.5,201.3) scale(6.00)" xlink:href="#gpPt0"/>
	<use color="rgb(255,   0,   0)" transform="translate(202.9,236.0) scale(6.00)" xlink:href="#gpPt0"/>
	<use color="rgb(255,   0,   0)" transform="translate(218.8,273.9) scale(6.00)" xlink:href="#gpPt0"/>
	<use color="rgb(255,   0,   0)" transform="translate(478.5,23.3) scale(6.00)" xlink:href="#gpPt0"/>
</g>
	</g>
	<g id="gnuplot_plot_2a"><title>gnuplot_plot_2a</title>
<g style="fill:none; color:green; stroke:currentColor; stroke-width:0.50; stroke-linecap:butt; stroke-linejoin:miter">
	<g style="stroke:none; fill:rgb(0,0,0); font-family:{}; font-size:10.00pt; text-anchor:end" transform="translate(537.5,39.0)">
		<text><tspan> y = 0 </tspan></text>
	</g>
	<use color="rgb(  0,   0, 255)" transform="translate(282.6,95.2) scale(6.00)" xlink:href="#gpPt5"/>
	<use color="rgb(  0,   0, 255)" transform="translate(290.6,118.0) scale(6.00)" xlink:href="#gpPt5"/>
	<use color="rgb(  0,   0, 255)" transform="translate(305.4,141.8) scale(6.00)" xlink:href="#gpPt5"/>
	<use color="rgb(  0,   0, 255)" transform="translate(346.5,121.2) scale(6.00)" xlink:href="#gpPt5"/>
	<use color="rgb(  0,   0, 255)" transform="translate(368.1,125.5) scale(6.00)" xlink:href="#gpPt5"/>
	<use color="rgb(  0,   0, 255)" transform="translate(365.9,145.0) scale(6.00)" xlink:href="#gpPt5"/>
	<use color="rgb(  0,   0, 255)" transform="translate(397.8,159.1) scale(6.00)" xlink:href="#gpPt5"/>
	<use color="rgb(  0,   0, 255)" transform="translate(429.7,179.7) scale(6.00)" xlink:href="#gpPt5"/>
	<use color="rgb(  0,   0, 255)" transform="translate(409.2,192.7) scale(6.00)" xlink:href="#gpPt5"/>
	<use color="rgb(  0,   0, 255)" transform="translate(436.5,220.8) scale(6.00)" xlink:href="#gpPt5"/>
	<use color="rgb(  0,   0, 255)" transform="translate(432.0,231.6) scale(6.00)" xlink:href="#gpPt5"/>
	<use color="rgb(  0,   0, 255)" transform="translate(417.1,245.7) scale(6.00)" xlink:href="#gpPt5"/>
	<use color="rgb(  0,   0, 255)" transform="translate(424.0,264.1) scale(6.00)" xlink:href="#gpPt5"/>
	<use color="rgb(  0,   0, 255)" transform="translate(414.9,287.9) scale(6.00)" xlink:href="#gpPt5"/>
	<use color="rgb(  0,   0, 255)" transform="translate(410.3,310.7) scale(6.00)" xlink:href="#gpPt5"/>
	<use color="rgb(  0,   0, 255)" transform="translate(403.5,316.1) scale(6.00)" xlink:href="#gpPt5"/>
	<use color="rgb(  0,   0, 255)" transform="translate(363.6,343.2) scale(6.00)" xlink:href="#gpPt5"/>
	<use color="rgb(  0,   0, 255)" transform="translate(348.8,321.5) scale(6.00)" xlink:href="#gpPt5"/>
	<use color="rgb(  0,   0, 255)" transform="translate(338.5,295.5) scale(6.00)" xlink:href="#gpPt5"/>
	<use color="rgb(  0,   0, 255)" transform="translate(315.7,319.3) scale(6.00)" xlink:href="#gpPt5"/>
	<use color="rgb(  0,   0, 255)" transform="translate(303.2,347.5) scale(6.00)" xlink:href="#gpPt5"/>
	<use color="rgb(  0,   0, 255)" transform="translate(263.3,345.3) scale(6.00)" xlink:href="#gpPt5"/>
	<use color="rgb(  0,   0, 255)" transform="translate(275.8,319.3) scale(6.00)" xlink:href="#gpPt5"/>
	<use color="rgb(  0,   0, 255)" transform="translate(220.0,299.9) scale(6.00)" xlink:href="#gpPt5"/>
	<use color="rgb(  0,   0, 255)" transform="translate(165.2,294.4) scale(6.00)" xlink:href="#gpPt5"/>
	<use color="rgb(  0,   0, 255)" transform="translate(168.7,271.7) scale(6.00)" xlink:href="#gpPt5"/>
	<use color="rgb(  0,   0, 255)" transform="translate(99.1,271.7) scale(6.00)" xlink:href="#gpPt5"/>
	<use color="rgb(  0,   0, 255)" transform="translate(108.2,227.3) scale(6.00)" xlink:href="#gpPt5"/>
	<use color="rgb(  0,   0, 255)" transform="translate(96.8,190.5) scale(6.00)" xlink:href="#gpPt5"/>
	<use color="rgb(  0,   0, 255)" transform="translate(108.2,132.0) scale(6.00)" xlink:href="#gpPt5"/>
	<use color="rgb(  0,   0, 255)" transform="translate(166.4,128.8) scale(6.00)" xlink:href="#gpPt5"/>
	<use color="rgb(  0,   0, 255)" transform="translate(170.9,97.4) scale(6.00)" xlink:href="#gpPt5"/>
	<use color="rgb(  0,   0, 255)" transform="translate(145.9,99.5) scale(6.00)" xlink:href="#gpPt5"/>
	<use color="rgb(  0,   0, 255)" transform="translate(137.9,128.8) scale(6.00)" xlink:href="#gpPt5"/>
	<use color="rgb(  0,   0, 255)" transform="translate(266.7,118.0) scale(6.00)" xlink:href="#gpPt5"/>
	<use color="rgb(  0,   0, 255)" transform="translate(257.6,97.4) scale(6.00)" xlink:href="#gpPt5"/>
	<use color="rgb(  0,   0, 255)" transform="translate(225.6,86.6) scale(6.00)" xlink:href="#gpPt5"/>
	<use color="rgb(  0,   0, 255)" transform="translate(230.2,69.2) scale(6.00)" xlink:href="#gpPt5"/>
	<use color="rgb(  0,   0, 255)" transform="translate(303.2,72.5) scale(6.00)" xlink:href="#gpPt5"/>
	<use color="rgb(  0,   0, 255)" transform="translate(324.8,111.5) scale(6.00)" xlink:href="#gpPt5"/>
	<use color="rgb(  0,   0, 255)" transform="translate(372.7,101.7) scale(6.00)" xlink:href="#gpPt5"/>
	<use color="rgb(  0,   0, 255)" transform="translate(409.2,135.3) scale(6.00)" xlink:href="#gpPt5"/>
	<use color="rgb(  0,   0, 255)" transform="translate(379.5,138.5) scale(6.00)" xlink:href="#gpPt5"/>
	<use color="rgb(  0,   0, 255)" transform="translate(458.2,218.6) scale(6.00)" xlink:href="#gpPt5"/>
	<use color="rgb(  0,   0, 255)" transform="translate(237.0,319.3) scale(6.00)" xlink:href="#gpPt5"/>
	<use color="rgb(  0,   0, 255)" transform="translate(199.4,328.0) scale(6.00)" xlink:href="#gpPt5"/>
	<use color="rgb(  0,   0, 255)" transform="translate(216.5,287.9) scale(6.00)" xlink:href="#gpPt5"/>
	<use color="rgb(  0,   0, 255)" transform="translate(149.3,278.2) scale(6.00)" xlink:href="#gpPt5"/>
	<use color="rgb(  0,   0, 255)" transform="translate(153.8,253.3) scale(6.00)" xlink:href="#gpPt5"/>
	<use color="rgb(  0,   0, 255)" transform="translate(189.2,242.5) scale(6.00)" xlink:href="#gpPt5"/>
	<use color="rgb(  0,   0, 255)" transform="translate(125.3,243.5) scale(6.00)" xlink:href="#gpPt5"/>
	<use color="rgb(  0,   0, 255)" transform="translate(115.1,265.2) scale(6.00)" xlink:href="#gpPt5"/>
	<use color="rgb(  0,   0, 255)" transform="translate(127.6,295.5) scale(6.00)" xlink:href="#gpPt5"/>
	<use color="rgb(  0,   0, 255)" transform="translate(102.5,245.7) scale(6.00)" xlink:href="#gpPt5"/>
	<use color="rgb(  0,   0, 255)" transform="translate(82.0,187.2) scale(6.00)" xlink:href="#gpPt5"/>
	<use color="rgb(  0,   0, 255)" transform="translate(103.7,153.7) scale(6.00)" xlink:href="#gpPt5"/>
	<use color="rgb(  0,   0, 255)" transform="translate(128.8,160.2) scale(6.00)" xlink:href="#gpPt5"/>
	<use color="rgb(  0,   0, 255)" transform="translate(150.4,85.5) scale(6.00)" xlink:href="#gpPt5"/>
	<use color="rgb(  0,   0, 255)" transform="translate(245.0,85.5) scale(6.00)" xlink:href="#gpPt5"/>
	<use color="rgb(  0,   0, 255)" transform="translate(478.5,35.3) scale(6.00)" xlink:href="#gpPt5"/>
</g>
	</g>
<g style="fill:none; color:black; stroke:currentColor; stroke-width:0.50; stroke-linecap:butt; stroke-linejoin:miter">
</g>
</g>
</svg>