<svg height="420px" viewBox="0 0 560 420" width="560px" xmlns="http://www.w3.org/2000/svg" xmlns:xlink="http://www.w3.org/1999/xlink">

<title>Gnuplot</title>
<desc>Produced by GNUPLOT 4.6 patchlevel 2 </desc>

<g id="gnuplot_canvas">

<rect fill="none" height="420" width="560" x="0" y="0"/>
<defs>

	<circle id="gpDot" r="0.5" stroke-width="0.5"/>
	<path d="M-1,0 h2 M0,-1 v2" id="gpPt0" stroke="currentColor" stroke-width="0.333"/>
	<path d="M-1,-1 L1,1 M1,-1 L-1,1" id="gpPt1" stroke="currentColor" stroke-width="0.333"/>
	<path d="M-1,0 L1,0 M0,-1 L0,1 M-1,-1 L1,1 M-1,1 L1,-1" id="gpPt2" stroke="currentColor" stroke-width="0.333"/>
	<rect height="2" id="gpPt3" stroke="currentColor" stroke-width="0.333" width="2" x="-1" y="-1"/>
	<rect fill="currentColor" height="2" id="gpPt4" stroke="currentColor" stroke-width="0.333" width="2" x="-1" y="-1"/>
	<circle cx="0" cy="0" id="gpPt5" r="1" stroke="currentColor" stroke-width="0.333"/>
	<use fill="currentColor" id="gpPt6" stroke="none" xlink:href="#gpPt5"/>
	<path d="M0,-1.33 L-1.33,0.67 L1.33,0.67 z" id="gpPt7" stroke="currentColor" stroke-width="0.333"/>
	<use fill="currentColor" id="gpPt8" stroke="none" xlink:href="#gpPt7"/>
	<use id="gpPt9" stroke="currentColor" transform="rotate(180)" xlink:href="#gpPt7"/>
	<use fill="currentColor" id="gpPt10" stroke="none" xlink:href="#gpPt9"/>
	<use id="gpPt11" stroke="currentColor" transform="rotate(45)" xlink:href="#gpPt3"/>
	<use fill="currentColor" id="gpPt12" stroke="none" xlink:href="#gpPt11"/>
</defs>
<g style="fill:none; color:white; stroke:currentColor; stroke-width:1.00; stroke-linecap:butt; stroke-linejoin:miter">
</g>
<g style="fill:none; color:black; stroke:currentColor; stroke-width:1.00; stroke-linecap:butt; stroke-linejoin:miter">
	<g style="stroke:none; shape-rendering:crispEdges">
		<polygon fill="rgb(255, 255, 255)" points="48.4,381.6 543.0,381.6 543.0,11.4 48.4,11.4 "/>
	</g>
	<path d="M48.4,381.6 L48.4,11.4 L543.0,11.4 L543.0,381.6 L48.4,381.6  h0.01" stroke="black"/></g>
<g style="fill:none; color:black; stroke:black; stroke-width:0.50; stroke-linecap:butt; stroke-linejoin:miter">
	<path d="M48.4,381.6 L56.8,381.6 M543.1,381.6 L534.7,381.6  h0.01" stroke="black"/>	<g style="stroke:none; fill:rgb(0,0,0); font-family:{}; font-size:10.00pt; text-anchor:end" transform="translate(42.8,385.3)">
		<text><tspan>-1</tspan></text>
	</g>
	<path d="M48.4,307.5 L56.8,307.5 M543.1,307.5 L534.7,307.5  h0.01" stroke="black"/>	<g style="stroke:none; fill:rgb(0,0,0); font-family:{}; font-size:10.00pt; text-anchor:end" transform="translate(42.8,311.2)">
		<text><tspan>-0.5</tspan></text>
	</g>
	<path d="M48.4,233.5 L56.8,233.5 M543.1,233.5 L534.7,233.5  h0.01" stroke="black"/>	<g style="stroke:none; fill:rgb(0,0,0); font-family:{}; font-size:10.00pt; text-anchor:end" transform="translate(42.8,237.2)">
		<text><tspan>0</tspan></text>
	</g>
	<path d="M48.4,159.4 L56.8,159.4 M543.1,159.4 L534.7,159.4  h0.01" stroke="black"/>	<g style="stroke:none; fill:rgb(0,0,0); font-family:{}; font-size:10.00pt; text-anchor:end" transform="translate(42.8,163.1)">
		<text><tspan>0.5</tspan></text>
	</g>
	<path d="M48.4,85.4 L56.8,85.4 M543.1,85.4 L534.7,85.4  h0.01" stroke="black"/>	<g style="stroke:none; fill:rgb(0,0,0); font-family:{}; font-size:10.00pt; text-anchor:end" transform="translate(42.8,89.1)">
		<text><tspan>1</tspan></text>
	</g>
	<path d="M48.4,11.3 L56.8,11.3 M543.1,11.3 L534.7,11.3  h0.01" stroke="black"/>	<g style="stroke:none; fill:rgb(0,0,0); font-family:{}; font-size:10.00pt; text-anchor:end" transform="translate(42.8,15.0)">
		<text><tspan>1.5</tspan></text>
	</g>
	<path d="M48.4,381.6 L48.4,373.2 M48.4,11.3 L48.4,19.7  h0.01" stroke="black"/>	<g style="stroke:none; fill:rgb(0,0,0); font-family:{}; font-size:10.00pt; text-anchor:middle" transform="translate(48.4,397.3)">
		<text><tspan>-1</tspan></text>
	</g>
	<path d="M147.3,381.6 L147.3,373.2 M147.3,11.3 L147.3,19.7  h0.01" stroke="black"/>	<g style="stroke:none; fill:rgb(0,0,0); font-family:{}; font-size:10.00pt; text-anchor:middle" transform="translate(147.3,397.3)">
		<text><tspan>-0.5</tspan></text>
	</g>
	<path d="M246.3,381.6 L246.3,373.2 M246.3,11.3 L246.3,19.7  h0.01" stroke="black"/>	<g style="stroke:none; fill:rgb(0,0,0); font-family:{}; font-size:10.00pt; text-anchor:middle" transform="translate(246.3,397.3)">
		<text><tspan>0</tspan></text>
	</g>
	<path d="M345.2,381.6 L345.2,373.2 M345.2,11.3 L345.2,19.7  h0.01" stroke="black"/>	<g style="stroke:none; fill:rgb(0,0,0); font-family:{}; font-size:10.00pt; text-anchor:middle" transform="translate(345.2,397.3)">
		<text><tspan>0.5</tspan></text>
	</g>
	<path d="M444.2,381.6 L444.2,373.2 M444.2,11.3 L444.2,19.7  h0.01" stroke="black"/>	<g style="stroke:none; fill:rgb(0,0,0); font-family:{}; font-size:10.00pt; text-anchor:middle" transform="translate(444.2,397.3)">
		<text><tspan>1</tspan></text>
	</g>
	<path d="M543.1,381.6 L543.1,373.2 M543.1,11.3 L543.1,19.7  h0.01" stroke="black"/>	<g style="stroke:none; fill:rgb(0,0,0); font-family:{}; font-size:10.00pt; text-anchor:middle" transform="translate(543.1,397.3)">
		<text><tspan>1.5</tspan></text>
	</g>
	<path d="M48.4,11.3 L48.4,381.6 L543.1,381.6 L543.1,11.3 L48.4,11.3 Z  h0.01" stroke="black"/>	<g style="stroke:none; fill:rgb(0,0,0); font-family:{}; font-size:10.00pt; text-anchor:middle" transform="translate(12.5,196.5) rotate(-90)">
		<text><tspan>v</tspan></text>
	</g>
	<g style="stroke:none; fill:rgb(0,0,0); font-family:{}; font-size:10.00pt; text-anchor:middle" transform="translate(295.7,415.3)">
		<text><tspan>u</tspan></text>
	</g>
</g>
<g style="fill:none; color:black; stroke:black; stroke-width:1.00; stroke-linecap:butt; stroke-linejoin:miter">
	<path d="M469.9,41.3 L469.9,17.3 L537.5,17.3 L537.5,41.3 L469.9,41.3 Z  h0.01" stroke="black"/></g>
	<g id="gnuplot_plot_1a"><title>gnuplot_plot_1a</title>
<g style="fill:none; color:white; stroke:black; stroke-width:0.50; stroke-linecap:butt; stroke-linejoin:miter">
</g>
<g style="fill:none; color:red; stroke:currentColor; stroke-width:0.50; stroke-linecap:butt; stroke-linejoin:miter">
	<g style="stroke:none; fill:rgb(0,0,0); font-family:{}; font-size:10.00pt; text-anchor:end" transform="translate(537.5,27.0)">
		<text><tspan>y = 1</tspan></text>
	</g>
	<use color="rgb(255,   0,   0)" transform="translate(256.4,129.9) scale(6.00)" xlink:href="#gpPt0"/>
	<use color="rgb(255,   0,   0)" transform="translate(227.9,132.0) scale(6.00)" xlink:href="#gpPt0"/>
	<use color="rgb(255,   0,   0)" transform="translate(204.0,130.9) scale(6.00)" xlink:href="#gpPt0"/>
	<use color="rgb(255,   0,   0)" transform="translate(172.1,159.1) scale(6.00)" xlink:href="#gpPt0"/>
	<use color="rgb(255,   0,   0)" transform="translate(144.7,164.5) scale(6.00)" xlink:href="#gpPt0"/>
	<use color="rgb(255,   0,   0)" transform="translate(142.4,202.4) scale(6.00)" xlink:href="#gpPt0"/>
	<use color="rgb(255,   0,   0)" transform="translate(167.5,228.4) scale(6.00)" xlink:href="#gpPt0"/>
	<use color="rgb(255,   0,   0)" transform="translate(185.8,262.0) scale(6.00)" xlink:href="#gpPt0"/>
	<use color="rgb(255,   0,   0)" transform="translate(249.6,293.4) scale(6.00)" xlink:href="#gpPt0"/>
	<use color="rgb(255,   0,   0)" transform="translate(272.4,309.6) scale(6.00)" xlink:href="#gpPt0"/>
	<use color="rgb(255,   0,   0)" transform="translate(322.5,317.2) scale(6.00)" xlink:href="#gpPt0"/>
	<use color="rgb(255,   0,   0)" transform="translate(351.0,310.7) scale(6.00)" xlink:href="#gpPt0"/>
	<use color="rgb(255,   0,   0)" transform="translate(372.7,269.5) scale(6.00)" xlink:href="#gpPt0"/>
	<use color="rgb(255,   0,   0)" transform="translate(392.1,260.9) scale(6.00)" xlink:href="#gpPt0"/>
	<use color="rgb(255,   0,   0)" transform="translate(354.5,161.3) scale(6.00)" xlink:href="#gpPt0"/>
	<use color="rgb(255,   0,   0)" transform="translate(310.0,147.2) scale(6.00)" xlink:href="#gpPt0"/>
	<use color="rgb(255,   0,   0)" transform="translate(279.2,153.7) scale(6.00)" xlink:href="#gpPt0"/>
	<use color="rgb(255,   0,   0)" transform="translate(237.0,112.5) scale(6.00)" xlink:href="#gpPt0"/>
	<use color="rgb(255,   0,   0)" transform="translate(212.0,129.9) scale(6.00)" xlink:href="#gpPt0"/>
	<use color="rgb(255,   0,   0)" transform="translate(151.6,139.6) scale(6.00)" xlink:href="#gpPt0"/>
	<use color="rgb(255,   0,   0)" transform="translate(126.5,145.0) scale(6.00)" xlink:href="#gpPt0"/>
	<use color="rgb(255,   0,   0)" transform="translate(121.9,184.0) scale(6.00)" xlink:href="#gpPt0"/>
	<use color="rgb(255,   0,   0)" transform="translate(128.8,232.7) scale(6.00)" xlink:href="#gpPt0"/>
	<use color="rgb(255,   0,   0)" transform="translate(163.0,273.9) scale(6.00)" xlink:href="#gpPt0"/>
	<use color="rgb(255,   0,   0)" transform="translate(223.4,292.3) scale(6.00)" xlink:href="#gpPt0"/>
	<use color="rgb(255,   0,   0)" transform="translate(286.1,322.6) scale(6.00)" xlink:href="#gpPt0"/>
	<use color="rgb(255,   0,   0)" transform="translate(338.5,312.8) scale(6.00)" xlink:href="#gpPt0"/>
	<use color="rgb(255,   0,   0)" transform="translate(379.5,312.8) scale(6.00)" xlink:href="#gpPt0"/>
	<use color="rgb(255,   0,   0)" transform="translate(218.8,152.6) scale(6.00)" xlink:href="#gpPt0"/>
	<use color="rgb(255,   0,   0)" transform="translate(188.0,118.0) scale(6.00)" xlink:href="#gpPt0"/>
	<use color="rgb(255,   0,   0)" transform="translate(193.7,90.9) scale(6.00)" xlink:href="#gpPt0"/>
	<use color="rgb(255,   0,   0)" transform="translate(214.2,114.7) scale(6.00)" xlink:href="#gpPt0"/>
	<use color="rgb(255,   0,   0)" transform="translate(212.0,137.4) scale(6.00)" xlink:href="#gpPt0"/>
	<use color="rgb(255,   0,   0)" transform="translate(190.3,163.4) scale(6.00)" xlink:href="#gpPt0"/>
	<use color="rgb(255,   0,   0)" transform="translate(174.4,187.2) scale(6.00)" xlink:href="#gpPt0"/>
	<use color="rgb(255,   0,   0)" transform="translate(186.9,229.5) scale(6.00)" xlink:href="#gpPt0"/>
	<use color="rgb(255,   0,   0)" transform="translate(199.4,265.2) scale(6.00)" xlink:href="#gpPt0"/>
	<use color="rgb(255,   0,   0)" transform="translate(233.6,260.9) scale(6.00)" xlink:href="#gpPt0"/>
	<use color="rgb(255,   0,   0)" transform="translate(258.7,257.6) scale(6.00)" xlink:href="#gpPt0"/>
	<use color="rgb(255,   0,   0)" transform="translate(291.8,294.4) scale(6.00)" xlink:href="#gpPt0"/>
	<use color="rgb(255,   0,   0)" transform="translate(304.3,267.4) scale(6.00)" xlink:href="#gpPt0"/>
	<use color="rgb(255,   0,   0)" transform="translate(341.9,260.9) scale(6.00)" xlink:href="#gpPt0"/>
	<use color="rgb(255,   0,   0)" transform="translate(373.8,254.4) scale(6.00)" xlink:href="#gpPt0"/>
	<use color="rgb(255,   0,   0)" transform="translate(337.4,231.6) scale(6.00)" xlink:href="#gpPt0"/>
	<use color="rgb(255,   0,   0)" transform="translate(370.4,210.0) scale(6.00)" xlink:href="#gpPt0"/>
	<use color="rgb(255,   0,   0)" transform="translate(360.2,193.7) scale(6.00)" xlink:href="#gpPt0"/>
	<use color="rgb(255,   0,   0)" transform="translate(389.8,167.8) scale(6.00)" xlink:href="#gpPt0"/>
	<use color="rgb(255,   0,   0)" transform="translate(290.6,155.8) scale(6.00)" xlink:href="#gpPt0"/>
	<use color="rgb(255,   0,   0)" transform="translate(333.9,134.2) scale(6.00)" xlink:href="#gpPt0"/>
	<use color="rgb(255,   0,   0)" transform="translate(310.0,130.9) scale(6.00)" xlink:href="#gpPt0"/>
	<use color="rgb(255,   0,   0)" transform="translate(273.5,148.3) scale(6.00)" xlink:href="#gpPt0"/>
	<use color="rgb(255,   0,   0)" transform="translate(245.0,174.3) scale(6.00)" xlink:href="#gpPt0"/>
	<use color="rgb(255,   0,   0)" transform="translate(227.9,151.5) scale(6.00)" xlink:href="#gpPt0"/>
	<use color="rgb(255,   0,   0)" transform="translate(205.1,180.8) scale(6.00)" xlink:href="#gpPt0"/>
	<use color="rgb(255,   0,   0)" transform="translate(205.1,207.8) scale(6.00)" xlink:href="#gpPt0"/>
	<use color="rgb(255,   0,   0)" transform="translate(159.5,201.3) scale(6.00)" xlink:href="#gpPt0"/>
	<use color="rgb(255,   0,   0)" transform="translate(202.9,236.0) scale(6.00)" xlink:href="#gpPt0"/>
	<use color="rgb(255,   0,   0)" transform="translate(218.8,273.9) scale(6.00)" xlink:href="#gpPt0"/>
	<use color="rgb(255,   0,   0)" transform="translate(489.7,23.3) scale(6.00)" xlink:href="#gpPt0"/>
</g>
	</g>
	<g id="gnuplot_plot_2a"><title>gnuplot_plot_2a</title>
<g style="fill:none; color:green; stroke:currentColor; stroke-width:0.50; stroke-linecap:butt; stroke-linejoin:miter">
	<g style="stroke:none; fill:rgb(0,0,0); font-family:{}; font-size:10.00pt; text-anchor:end" transform="translate(537.5,39.0)">
		<text><tspan>y = 0</tspan></text>
	</g>
	<use color="rgb(  0,   0, 255)" transform="translate(282.6,95.2) scale(6.00)" xlink:href="#gpPt5"/>
	<use color="rgb(  0,   0, 255)" transform="translate(290.6,118.0) scale(6.00)" xlink:href="#gpPt5"/>
	<use color="rgb(  0,   0, 255)" transform="translate(305.4,141.8) scale(6.00)" xlink:href="#gpPt5"/>
	<use color="rgb(  0,   0, 255)" transform="translate(346.5,121.2) scale(6.00)" xlink:href="#gpPt5"/>
	<use color="rgb(  0,   0, 255)" transform="translate(368.1,125.5) scale(6.00)" xlink:href="#gpPt5"/>
	<use color="rgb(  0,   0, 255)" transform="translate(365.9,145.0) scale(6.00)" xlink:href="#gpPt5"/>
	<use color="rgb(  0,   0, 255)" transform="translate(397.8,159.1) scale(6.00)" xlink:href="#gpPt5"/>
	<use color="rgb(  0,   0, 255)" transform="translate(429.7,179.7) scale(6.00)" xlink:href="#gpPt5"/>
	<use color="rgb(  0,   0, 255)" transform="translate(409.2,192.7) scale(6.00)" xlink:href="#gpPt5"/>
	<use color="rgb(  0,   0, 255)" transform="translate(436.5,220.8) scale(6.00)" xlink:href="#gpPt5"/>
	<use color="rgb(  0,   0, 255)" transform="translate(432.0,231.6) scale(6.00)" xlink:href="#gpPt5"/>
	<use color="rgb(  0,   0, 255)" transform="translate(417.1,245.7) scale(6.00)" xlink:href="#gpPt5"/>
	<use color="rgb(  0,   0, 255)" transform="translate(424.0,264.1) scale(6.00)" xlink:href="#gpPt5"/>
	<use color="rgb(  0,   0, 255)" transform="translate(414.9,287.9) scale(6.00)" xlink:href="#gpPt5"/>
	<use color="rgb(  0,   0, 255)" transform="translate(410.3,310.7) scale(6.00)" xlink:href="#gpPt5"/>
	<use color="rgb(  0,   0, 255)" transform="translate(403.5,316.1) scale(6.00)" xlink:href="#gpPt5"/>
	<use color="rgb(  0,   0, 255)" transform="translate(363.6,343.2) scale(6.00)" xlink:href="#gpPt5"/>
	<use color="rgb(  0,   0, 255)" transform="translate(348.8,321.5) scale(6.00)" xlink:href="#gpPt5"/>
	<use color="rgb(  0,   0, 255)" transform="translate(338.5,295.5) scale(6.00)" xlink:href="#gpPt5"/>
	<use color="rgb(  0,   0, 255)" transform="translate(315.7,319.3) scale(6.00)" xlink:href="#gpPt5"/>
	<use color="rgb(  0,   0, 255)" transform="translate(303.2,347.5) scale(6.00)" xlink:href="#gpPt5"/>
	<use color="rgb(  0,   0, 255)" transform="translate(263.3,345.3) scale(6.00)" xlink:href="#gpPt5"/>
	<use color="rgb(  0,   0, 255)" transform="translate(275.8,319.3) scale(6.00)" xlink:href="#gpPt5"/>
	<use color="rgb(  0,   0, 255)" transform="translate(220.0,299.9) scale(6.00)" xlink:href="#gpPt5"/>
	<use color="rgb(  0,   0, 255)" transform="translate(165.2,294.4) scale(6.00)" xlink:href="#gpPt5"/>
	<use color="rgb(  0,   0, 255)" transform="translate(168.7,271.7) scale(6.00)" xlink:href="#gpPt5"/>
	<use color="rgb(  0,   0, 255)" transform="translate(99.1,271.7) scale(6.00)" xlink:href="#gpPt5"/>
	<use color="rgb(  0,   0, 255)" transform="translate(108.2,227.3) scale(6.00)" xlink:href="#gpPt5"/>
	<use color="rgb(  0,   0, 255)" transform="translate(96.8,190.5) scale(6.00)" xlink:href="#gpPt5"/>
	<use color="rgb(  0,   0, 255)" transform="translate(108.2,132.0) scale(6.00)" xlink:href="#gpPt5"/>
	<use color="rgb(  0,   0, 255)" transform="translate(166.4,128.8) scale(6.00)" xlink:href="#gpPt5"/>
	<use color="rgb(  0,   0, 255)" transform="translate(170.9,97.4) scale(6.00)" xlink:href="#gpPt5"/>
	<use color="rgb(  0,   0, 255)" transform="translate(145.9,99.5) scale(6.00)" xlink:href="#gpPt5"/>
	<use color="rgb(  0,   0, 255)" transform="translate(137.9,128.8) scale(6.00)" xlink:href="#gpPt5"/>
	<use color="rgb(  0,   0, 255)" transform="translate(266.7,118.0) scale(6.00)" xlink:href="#gpPt5"/>
	<use color="rgb(  0,   0, 255)" transform="translate(257.6,97.4) scale(6.00)" xlink:href="#gpPt5"/>
	<use color="rgb(  0,   0, 255)" transform="translate(225.6,86.6) scale(6.00)" xlink:href="#gpPt5"/>
	<use color="rgb(  0,   0, 255)" transform="translate(230.2,69.2) scale(6.00)" xlink:href="#gpPt5"/>
	<use color="rgb(  0,   0, 255)" transform="translate(303.2,72.5) scale(6.00)" xlink:href="#gpPt5"/>
	<use color="rgb(  0,   0, 255)" transform="translate(324.8,111.5) scale(6.00)" xlink:href="#gpPt5"/>
	<use color="rgb(  0,   0, 255)" transform="translate(372.7,101.7) scale(6.00)" xlink:href="#gpPt5"/>
	<use color="rgb(  0,   0, 255)" transform="translate(409.2,135.3) scale(6.00)" xlink:href="#gpPt5"/>
	<use color="rgb(  0,   0, 255)" transform="translate(379.5,138.5) scale(6.00)" xlink:href="#gpPt5"/>
	<use color="rgb(  0,   0, 255)" transform="translate(458.2,218.6) scale(6.00)" xlink:href="#gpPt5"/>
	<use color="rgb(  0,   0, 255)" transform="translate(237.0,319.3) scale(6.00)" xlink:href="#gpPt5"/>
	<use color="rgb(  0,   0, 255)" transform="translate(199.4,328.0) scale(6.00)" xlink:href="#gpPt5"/>
	<use color="rgb(  0,   0, 255)" transform="translate(216.5,287.9) scale(6.00)" xlink:href="#gpPt5"/>
	<use color="rgb(  0,   0, 255)" transform="translate(149.3,278.2) scale(6.00)" xlink:href="#gpPt5"/>
	<use color="rgb(  0,   0, 255)" transform="translate(153.8,253.3) scale(6.00)" xlink:href="#gpPt5"/>
	<use color="rgb(  0,   0, 255)" transform="translate(189.2,242.5) scale(6.00)" xlink:href="#gpPt5"/>
	<use color="rgb(  0,   0, 255)" transform="translate(125.3,243.5) scale(6.00)" xlink:href="#gpPt5"/>
	<use color="rgb(  0,   0, 255)" transform="translate(115.1,265.2) scale(6.00)" xlink:href="#gpPt5"/>
	<use color="rgb(  0,   0, 255)" transform="translate(127.6,295.5) scale(6.00)" xlink:href="#gpPt5"/>
	<use color="rgb(  0,   0, 255)" transform="translate(102.5,245.7) scale(6.00)" xlink:href="#gpPt5"/>
	<use color="rgb(  0,   0, 255)" transform="translate(82.0,187.2) scale(6.00)" xlink:href="#gpPt5"/>
	<use color="rgb(  0,   0, 255)" transform="translate(103.7,153.7) scale(6.00)" xlink:href="#gpPt5"/>
	<use color="rgb(  0,   0, 255)" transform="translate(128.8,160.2) scale(6.00)" xlink:href="#gpPt5"/>
	<use color="rgb(  0,   0, 255)" transform="translate(150.4,85.5) scale(6.00)" xlink:href="#gpPt5"/>
	<use color="rgb(  0,   0, 255)" transform="translate(245.0,85.5) scale(6.00)" xlink:href="#gpPt5"/>
	<use color="rgb(  0,   0, 255)" transform="translate(489.7,35.3) scale(6.00)" xlink:href="#gpPt5"/>
</g>
	</g>
	<g id="gnuplot_plot_3a"><title>gnuplot_plot_3a</title>
<g style="fill:none; color:white; stroke:rgb(  0,   0, 255); stroke-width:4.00; stroke-linecap:butt; stroke-linejoin:miter">
</g>
<g style="fill:none; color:red; stroke:currentColor; stroke-width:4.00; stroke-linecap:butt; stroke-linejoin:miter">
	<path d="M236.9,345.7 L237.0,345.7 L238.7,345.8 L240.3,345.9 L242.0,346.0 L243.6,346.1 L245.3,346.2 L246.9,346.2    L248.6,346.3 L250.3,346.4 L251.9,346.4 L253.6,346.4 L255.2,346.4 L256.9,346.5 L258.5,346.5 L260.2,346.5    L261.8,346.4 L263.5,346.4 L265.1,346.4 L266.8,346.3 L268.5,346.3 L270.1,346.2 L271.8,346.1 L273.4,346.0    L275.1,345.9 L276.7,345.8 L278.4,345.7 L278.6,345.7 L280.0,345.6 L281.7,345.4 L283.3,345.3 L285.0,345.1    L286.7,344.9 L288.3,344.7 L290.0,344.5 L290.3,344.4 L291.6,344.3 L293.3,344.0 L294.9,343.8 L296.6,343.5    L298.2,343.2 L298.4,343.2 L299.9,342.9 L301.5,342.6 L303.2,342.3 L304.7,342.0 L304.8,341.9 L306.5,341.6    L308.2,341.2 L309.8,340.8 L309.9,340.7 L311.5,340.3 L313.1,339.9 L314.4,339.5 L314.8,339.4 L316.4,338.9    L318.1,338.4 L318.4,338.3 L319.7,337.8 L321.4,337.2 L322.0,337.0 L323.0,336.6 L324.7,336.0 L325.2,335.8    L326.4,335.3 L328.0,334.6 L328.1,334.5 L329.7,333.8 L330.8,333.3 L331.3,333.1 L333.0,332.2 L333.3,332.1    L334.6,331.4 L335.6,330.8 L336.3,330.5 L337.8,329.6 L337.9,329.5 L339.6,328.5 L339.8,328.3 L341.2,327.4    L341.7,327.1 L342.9,326.3 L343.5,325.9 L344.6,325.1 L345.2,324.6 L346.2,323.8 L346.8,323.4 L347.9,322.5    L348.3,322.2 L349.5,321.1 L349.7,320.9 L351.1,319.7 L351.2,319.6 L352.4,318.4 L352.8,318.0 L353.6,317.2    L354.5,316.3 L354.8,316.0 L355.9,314.7 L356.1,314.5 L357.0,313.5 L357.8,312.5 L358.0,312.2 L359.0,311.0    L359.4,310.5 L360.0,309.8 L360.9,308.5 L361.1,308.2 L361.8,307.3 L362.6,306.1 L362.8,305.8 L363.4,304.8    L364.2,303.6 L364.4,303.2 L364.9,302.3 L365.7,301.1 L366.1,300.4 L366.4,299.9 L367.0,298.6 L367.7,297.4    L367.7,297.3 L368.3,296.1 L368.9,294.9 L369.4,294.0 L369.5,293.7 L370.1,292.4 L370.6,291.2 L371.0,290.2    L371.2,290.0 L371.7,288.7 L372.2,287.5 L372.6,286.2 L372.7,286.1 L373.1,285.0 L373.5,283.8 L374.0,282.5    L374.3,281.5 L374.4,281.3 L374.8,280.0 L375.2,278.8 L375.6,277.6 L375.9,276.3 L376.0,276.2 L376.3,275.1    L376.6,273.9 L377.0,272.6 L377.3,271.4 L377.6,270.1 L377.6,269.9 L377.9,268.9 L378.2,267.7 L378.5,266.4    L378.7,265.2 L379.0,263.9 L379.2,262.7 L379.3,262.4 L379.5,261.5 L379.7,260.2 L379.9,259.0 L380.1,257.8    L380.3,256.5 L380.5,255.3 L380.7,254.0 L380.9,252.8 L381.0,252.3 L381.1,251.6 L381.2,250.3 L381.4,249.1    L381.5,247.8 L381.7,246.6 L381.8,245.4 L381.9,244.1 L382.0,242.9 L382.1,241.7 L382.2,240.4 L382.3,239.2    L382.4,237.9 L382.5,236.7 L382.5,235.5 L382.6,234.2 L382.6,233.5 L382.6,233.0 L382.7,231.7 L382.7,230.5    L382.7,229.3 L382.8,228.0 L382.8,226.8 L382.8,225.6 L382.8,224.3 L382.7,223.1 L382.7,221.8 L382.7,220.6    L382.7,219.4 L382.6,218.2 L382.6,218.1 L382.6,216.9 L382.5,215.6 L382.4,214.4 L382.3,213.2 L382.2,211.9    L382.1,210.7 L382.0,209.5 L381.9,208.2 L381.8,207.0 L381.6,205.7 L381.5,204.5 L381.3,203.3 L381.2,202.0    L381.0,200.8 L381.0,200.7 L380.8,199.5 L380.6,198.3 L380.4,197.1 L380.1,195.8 L379.9,194.6 L379.6,193.4    L379.4,192.1 L379.3,191.8 L379.1,190.9 L378.8,189.6 L378.5,188.4 L378.1,187.2 L377.8,185.9 L377.6,185.4    L377.4,184.7 L377.1,183.4 L376.7,182.2 L376.3,181.0 L376.0,180.2 L375.8,179.7 L375.4,178.5 L374.9,177.3    L374.4,176.0 L374.3,175.8 L373.9,174.8 L373.4,173.5 L372.8,172.3 L372.7,172.0 L372.2,171.1 L371.6,169.8    L371.0,168.7 L371.0,168.6 L370.3,167.3 L369.6,166.1 L369.4,165.7 L368.9,164.9 L368.1,163.6 L367.7,163.0    L367.3,162.4 L366.5,161.2 L366.1,160.5 L365.6,159.9 L364.7,158.7 L364.4,158.3 L363.8,157.4 L362.8,156.2    L361.7,155.0 L361.1,154.3 L360.6,153.7 L359.5,152.5 L359.4,152.4 L358.3,151.2 L357.8,150.8 L357.0,150.0    L356.1,149.2 L355.7,148.8 L354.5,147.7 L354.3,147.5 L352.8,146.3 L351.3,145.1 L351.2,145.0 L349.7,143.8    L349.5,143.7 L347.9,142.6 L347.9,142.5 L346.2,141.4 L346.1,141.3 L344.6,140.3 L344.2,140.1 L342.9,139.3    L342.2,138.9 L341.2,138.3 L340.0,137.6 L339.6,137.4 L337.9,136.5 L337.7,136.4 L336.3,135.6 L335.3,135.1    L334.6,134.8 L333.0,134.0 L332.7,133.9 L331.3,133.3 L329.9,132.7 L329.7,132.6 L328.0,131.9 L327.0,131.4    L326.4,131.2 L324.7,130.5 L323.8,130.2 L323.0,129.9 L321.4,129.3 L320.3,129.0 L319.7,128.7 L318.1,128.2    L316.6,127.7 L316.4,127.7 L314.8,127.1 L313.1,126.6 L312.6,126.5 L311.5,126.2 L309.8,125.7 L308.2,125.2    L306.5,124.8 L304.8,124.4 L303.3,124.0 L303.2,124.0 L301.5,123.6 L299.9,123.2 L298.2,122.8 L297.9,122.8    L296.6,122.5 L294.9,122.1 L293.3,121.8 L291.8,121.5 L291.6,121.5 L290.0,121.2 L288.3,120.9 L286.7,120.6    L285.0,120.3 L284.9,120.3 L283.3,120.0 L281.7,119.8 L280.0,119.5 L278.4,119.3 L276.8,119.0 L276.7,119.0    L275.1,118.8 L273.4,118.6 L271.8,118.4 L270.1,118.2 L268.5,118.0 L267.0,117.8 L266.8,117.8 L265.1,117.6    L263.5,117.4 L261.8,117.3 L260.2,117.1 L258.5,117.0 L256.9,116.8 L255.2,116.7 L254.0,116.6 L253.6,116.5    L251.9,116.4 L250.3,116.3 L248.6,116.2 L246.9,116.1 L245.3,116.0 L243.6,115.9 L242.0,115.8 L240.3,115.7    L238.7,115.6 L237.0,115.6 L235.4,115.5 L233.7,115.5 L232.1,115.4 L230.4,115.4 L228.7,115.3 L228.5,115.3    L227.1,115.3 L225.4,115.3 L223.8,115.3 L222.1,115.3 L220.5,115.3 L218.8,115.3 L217.2,115.3 L215.5,115.3    L213.9,115.3 L212.4,115.3 L212.2,115.3 L210.5,115.4 L208.9,115.4 L207.2,115.5 L205.6,115.5 L203.9,115.6    L202.3,115.7 L200.6,115.7 L199.0,115.8 L197.3,115.9 L195.7,116.0 L194.0,116.1 L192.3,116.3 L190.7,116.4    L189.0,116.5 L188.5,116.6 L187.4,116.7 L185.7,116.8 L184.1,117.0 L182.4,117.2 L180.8,117.3 L179.1,117.5    L177.5,117.7 L176.9,117.8 L175.8,118.0 L174.1,118.2 L172.5,118.4 L170.8,118.7 L169.2,118.9 L168.5,119.0    L167.5,119.2 L165.9,119.5 L164.2,119.8 L162.6,120.1 L161.7,120.3 L160.9,120.4 L159.3,120.8 L157.6,121.2    L156.0,121.5 L155.9,121.5 L154.3,121.9 L152.6,122.3 L151.0,122.8 L149.3,123.2 L147.7,123.7 L146.7,124.0    L146.0,124.2 L144.4,124.7 L142.8,125.2 L142.7,125.3 L141.1,125.9 L139.4,126.5 L139.3,126.5 L137.7,127.1    L136.2,127.7 L136.1,127.8 L134.4,128.5 L133.3,129.0 L132.8,129.2 L131.1,130.0 L130.7,130.2 L129.5,130.8    L128.2,131.4 L127.8,131.7 L126.2,132.6 L126.0,132.7 L124.5,133.5 L123.9,133.9 L122.9,134.6 L122.0,135.1    L121.2,135.7 L120.1,136.4 L119.5,136.8 L118.5,137.6 L117.9,138.1 L116.9,138.9 L116.2,139.4 L115.4,140.1    L114.6,140.8 L114.0,141.3 L112.9,142.4 L112.7,142.6 L111.5,143.8 L111.3,144.0 L110.3,145.1 L109.6,145.9    L109.2,146.3 L108.2,147.5 L108.0,147.9 L107.3,148.8 L106.4,150.0 L106.3,150.1 L105.5,151.2 L104.7,152.5    L103.9,153.7 L103.2,155.0 L103.0,155.3 L102.5,156.2 L101.9,157.4 L101.3,158.6 L101.3,158.7 L100.7,159.9    L100.2,161.2 L99.7,162.4 L99.2,163.6 L98.8,164.9 L98.4,166.1 L98.0,167.1 L98.0,167.3 L97.6,168.6    L97.3,169.8 L97.0,171.1 L96.7,172.3 L96.4,173.5 L96.1,174.8 L95.9,176.0 L95.7,177.3 L95.5,178.5    L95.3,179.7 L95.1,181.0 L95.0,182.2 L94.8,183.4 L94.7,184.5 L94.7,184.7 L94.6,185.9 L94.5,187.2    L94.4,188.4 L94.4,189.6 L94.3,190.9 L94.3,192.1 L94.2,193.4 L94.2,194.6 L94.2,195.8 L94.2,197.1    L94.3,198.3 L94.3,199.5 L94.3,200.8 L94.4,202.0 L94.4,203.3 L94.5,204.5 L94.6,205.7 L94.7,207.0    L94.7,208.0 L94.7,208.2 L94.9,209.5 L95.0,210.7 L95.1,211.9 L95.2,213.2 L95.4,214.4 L95.5,215.6    L95.7,216.9 L95.8,218.1 L96.0,219.4 L96.2,220.6 L96.4,221.8 L96.4,221.9 L96.6,223.1 L96.8,224.3    L97.0,225.6 L97.2,226.8 L97.4,228.0 L97.7,229.3 L97.9,230.5 L98.0,231.1 L98.2,231.7 L98.4,233.0    L98.7,234.2 L99.0,235.5 L99.3,236.7 L99.6,237.9 L99.7,238.5 L99.9,239.2 L100.2,240.4 L100.5,241.7    L100.8,242.9 L101.1,244.1 L101.3,244.9 L101.5,245.4 L101.8,246.6 L102.2,247.8 L102.6,249.1 L102.9,250.3    L103.0,250.5 L103.3,251.6 L103.7,252.8 L104.1,254.0 L104.5,255.3 L104.7,255.6 L105.0,256.5 L105.4,257.8    L105.8,259.0 L106.3,260.2 L106.3,260.3 L106.8,261.5 L107.2,262.7 L107.7,263.9 L108.0,264.6 L108.2,265.2    L108.7,266.4 L109.2,267.7 L109.6,268.6 L109.8,268.9 L110.3,270.1 L110.9,271.4 L111.3,272.3 L111.4,272.6    L112.0,273.9 L112.6,275.1 L112.9,275.8 L113.2,276.3 L113.8,277.6 L114.5,278.8 L114.6,279.0 L115.1,280.0    L115.8,281.3 L116.2,282.1 L116.5,282.5 L117.2,283.8 L117.9,285.0 L118.6,286.2 L119.4,287.5 L119.5,287.7    L120.2,288.7 L121.0,290.0 L121.2,290.3 L121.8,291.2 L122.6,292.4 L122.9,292.8 L123.5,293.7 L124.4,294.9    L124.5,295.1 L125.3,296.1 L126.2,297.3 L126.2,297.4 L127.2,298.6 L127.8,299.4 L128.2,299.9 L129.2,301.1    L129.5,301.4 L130.2,302.3 L131.1,303.3 L131.3,303.6 L132.5,304.8 L132.8,305.2 L133.6,306.1 L134.4,306.9    L134.8,307.3 L136.1,308.5 L136.1,308.6 L137.4,309.8 L137.7,310.1 L138.7,311.0 L139.4,311.7 L140.1,312.2    L141.1,313.1 L141.5,313.5 L142.7,314.5 L143.0,314.7 L144.4,315.8 L144.5,316.0 L146.0,317.1 L146.2,317.2    L147.7,318.3 L147.8,318.4 L149.3,319.5 L149.6,319.7 L151.0,320.6 L151.4,320.9 L152.6,321.7 L153.3,322.2    L154.3,322.7 L155.4,323.4 L155.9,323.7 L157.5,324.6 L157.6,324.7 L159.3,325.6 L159.7,325.9 L160.9,326.5    L162.0,327.1 L162.6,327.4 L164.2,328.2 L164.5,328.3 L165.9,329.0 L167.1,329.6 L167.5,329.8 L169.2,330.5    L169.9,330.8 L170.8,331.2 L172.5,331.9 L172.9,332.1 L174.1,332.6 L175.8,333.2 L176.0,333.3 L177.5,333.8    L179.1,334.4 L179.4,334.5 L180.8,335.0 L182.4,335.5 L183.1,335.8 L184.1,336.1 L185.7,336.6 L187.1,337.0    L187.4,337.1 L189.0,337.6 L190.7,338.0 L191.5,338.3 L192.3,338.5 L194.0,338.9 L195.7,339.3 L196.3,339.5    L197.3,339.7 L199.0,340.1 L200.6,340.5 L201.7,340.7 L202.3,340.9 L203.9,341.2 L205.6,341.5 L207.2,341.9    L207.8,342.0 L208.9,342.2 L210.5,342.5 L212.2,342.7 L213.9,343.0 L215.1,343.2 L215.5,343.3 L217.2,343.5    L218.8,343.8 L220.5,344.0 L222.1,344.2 L223.8,344.4 L224.1,344.4 L225.4,344.6 L227.1,344.8 L228.7,345.0    L230.4,345.1 L232.1,345.3 L233.7,345.4 L235.4,345.6 L236.9,345.7  h0.01" stroke="rgb(255,   0, 255)"/></g>
	</g>
<g style="fill:none; color:white; stroke:rgb(255,   0, 255); stroke-width:0.50; stroke-linecap:butt; stroke-linejoin:miter">
</g>
<g style="fill:none; color:black; stroke:currentColor; stroke-width:0.50; stroke-linecap:butt; stroke-linejoin:miter">
</g>
</g>
</svg>