<svg height="420px" viewBox="0 0 560 420" width="560px" xmlns="http://www.w3.org/2000/svg" xmlns:xlink="http://www.w3.org/1999/xlink">

<title>Gnuplot</title>
<desc>Produced by GNUPLOT 4.6 patchlevel 2 </desc>

<g id="gnuplot_canvas">

<rect fill="none" height="420" width="560" x="0" y="0"/>
<defs>

	<circle id="gpDot" r="0.5" stroke-width="0.5"/>
	<path d="M-1,0 h2 M0,-1 v2" id="gpPt0" stroke="currentColor" stroke-width="0.333"/>
	<path d="M-1,-1 L1,1 M1,-1 L-1,1" id="gpPt1" stroke="currentColor" stroke-width="0.333"/>
	<path d="M-1,0 L1,0 M0,-1 L0,1 M-1,-1 L1,1 M-1,1 L1,-1" id="gpPt2" stroke="currentColor" stroke-width="0.333"/>
	<rect height="2" id="gpPt3" stroke="currentColor" stroke-width="0.333" width="2" x="-1" y="-1"/>
	<rect fill="currentColor" height="2" id="gpPt4" stroke="currentColor" stroke-width="0.333" width="2" x="-1" y="-1"/>
	<circle cx="0" cy="0" id="gpPt5" r="1" stroke="currentColor" stroke-width="0.333"/>
	<use fill="currentColor" id="gpPt6" stroke="none" xlink:href="#gpPt5"/>
	<path d="M0,-1.33 L-1.33,0.67 L1.33,0.67 z" id="gpPt7" stroke="currentColor" stroke-width="0.333"/>
	<use fill="currentColor" id="gpPt8" stroke="none" xlink:href="#gpPt7"/>
	<use id="gpPt9" stroke="currentColor" transform="rotate(180)" xlink:href="#gpPt7"/>
	<use fill="currentColor" id="gpPt10" stroke="none" xlink:href="#gpPt9"/>
	<use id="gpPt11" stroke="currentColor" transform="rotate(45)" xlink:href="#gpPt3"/>
	<use fill="currentColor" id="gpPt12" stroke="none" xlink:href="#gpPt11"/>
</defs>
<g style="fill:none; color:white; stroke:currentColor; stroke-width:1.00; stroke-linecap:butt; stroke-linejoin:miter">
</g>
<g style="fill:none; color:black; stroke:currentColor; stroke-width:1.00; stroke-linecap:butt; stroke-linejoin:miter">
	<g style="stroke:none; shape-rendering:crispEdges">
		<polygon fill="rgb(255, 255, 255)" points="48.4,381.6 543.0,381.6 543.0,36.2 48.4,36.2 "/>
	</g>
	<path d="M48.4,381.6 L48.4,36.2 L543.0,36.2 L543.0,381.6 L48.4,381.6  h0.01" stroke="black"/></g>
<g style="fill:none; color:black; stroke:black; stroke-width:0.50; stroke-linecap:butt; stroke-linejoin:miter">
	<path d="M48.4,381.6 L56.8,381.6 M543.1,381.6 L534.7,381.6  h0.01" stroke="black"/>	<g style="stroke:none; fill:rgb(0,0,0); font-family:{}; font-size:10.00pt; text-anchor:end" transform="translate(42.8,385.3)">
		<text><tspan>-0.5</tspan></text>
	</g>
	<path d="M48.4,324.0 L56.8,324.0 M543.1,324.0 L534.7,324.0  h0.01" stroke="black"/>	<g style="stroke:none; fill:rgb(0,0,0); font-family:{}; font-size:10.00pt; text-anchor:end" transform="translate(42.8,327.7)">
		<text><tspan>0</tspan></text>
	</g>
	<path d="M48.4,266.4 L56.8,266.4 M543.1,266.4 L534.7,266.4  h0.01" stroke="black"/>	<g style="stroke:none; fill:rgb(0,0,0); font-family:{}; font-size:10.00pt; text-anchor:end" transform="translate(42.8,270.1)">
		<text><tspan>0.5</tspan></text>
	</g>
	<path d="M48.4,208.8 L56.8,208.8 M543.1,208.8 L534.7,208.8  h0.01" stroke="black"/>	<g style="stroke:none; fill:rgb(0,0,0); font-family:{}; font-size:10.00pt; text-anchor:end" transform="translate(42.8,212.5)">
		<text><tspan>1</tspan></text>
	</g>
	<path d="M48.4,151.3 L56.8,151.3 M543.1,151.3 L534.7,151.3  h0.01" stroke="black"/>	<g style="stroke:none; fill:rgb(0,0,0); font-family:{}; font-size:10.00pt; text-anchor:end" transform="translate(42.8,155.0)">
		<text><tspan>1.5</tspan></text>
	</g>
	<path d="M48.4,93.7 L56.8,93.7 M543.1,93.7 L534.7,93.7  h0.01" stroke="black"/>	<g style="stroke:none; fill:rgb(0,0,0); font-family:{}; font-size:10.00pt; text-anchor:end" transform="translate(42.8,97.4)">
		<text><tspan>2</tspan></text>
	</g>
	<path d="M48.4,36.1 L56.8,36.1 M543.1,36.1 L534.7,36.1  h0.01" stroke="black"/>	<g style="stroke:none; fill:rgb(0,0,0); font-family:{}; font-size:10.00pt; text-anchor:end" transform="translate(42.8,39.8)">
		<text><tspan>2.5</tspan></text>
	</g>
	<path d="M48.4,381.6 L48.4,373.2 M48.4,36.1 L48.4,44.5  h0.01" stroke="black"/>	<g style="stroke:none; fill:rgb(0,0,0); font-family:{}; font-size:10.00pt; text-anchor:middle" transform="translate(48.4,397.3)">
		<text><tspan>-1</tspan></text>
	</g>
	<path d="M172.1,381.6 L172.1,373.2 M172.1,36.1 L172.1,44.5  h0.01" stroke="black"/>	<g style="stroke:none; fill:rgb(0,0,0); font-family:{}; font-size:10.00pt; text-anchor:middle" transform="translate(172.1,397.3)">
		<text><tspan>-0.5</tspan></text>
	</g>
	<path d="M295.8,381.6 L295.8,373.2 M295.8,36.1 L295.8,44.5  h0.01" stroke="black"/>	<g style="stroke:none; fill:rgb(0,0,0); font-family:{}; font-size:10.00pt; text-anchor:middle" transform="translate(295.8,397.3)">
		<text><tspan>0</tspan></text>
	</g>
	<path d="M419.4,381.6 L419.4,373.2 M419.4,36.1 L419.4,44.5  h0.01" stroke="black"/>	<g style="stroke:none; fill:rgb(0,0,0); font-family:{}; font-size:10.00pt; text-anchor:middle" transform="translate(419.4,397.3)">
		<text><tspan>0.5</tspan></text>
	</g>
	<path d="M543.1,381.6 L543.1,373.2 M543.1,36.1 L543.1,44.5  h0.01" stroke="black"/>	<g style="stroke:none; fill:rgb(0,0,0); font-family:{}; font-size:10.00pt; text-anchor:middle" transform="translate(543.1,397.3)">
		<text><tspan>1</tspan></text>
	</g>
	<path d="M48.4,36.1 L48.4,381.6 L543.1,381.6 L543.1,36.1 L48.4,36.1 Z  h0.01" stroke="black"/>	<g style="stroke:none; fill:rgb(0,0,0); font-family:{}; font-size:10.00pt; text-anchor:middle" transform="translate(12.5,208.9) rotate(-90)">
		<text><tspan>y</tspan></text>
	</g>
	<g style="stroke:none; fill:rgb(0,0,0); font-family:{}; font-size:10.00pt; text-anchor:middle" transform="translate(295.7,415.3)">
		<text><tspan>x</tspan></text>
	</g>
	<g style="stroke:none; fill:black; font-family:{}; font-size:10.00pt; text-anchor:middle" transform="translate(295.7,21.8)">
		<text><tspan>Hypothesis at λ = 0</tspan></text>
	</g>
</g>
<g style="fill:none; color:black; stroke:black; stroke-width:1.00; stroke-linecap:butt; stroke-linejoin:miter">
	<path d="M425.1,66.1 L425.1,42.1 L537.5,42.1 L537.5,66.1 L425.1,66.1 Z  h0.01" stroke="black"/></g>
	<g id="gnuplot_plot_1a"><title>gnuplot_plot_1a</title>
<g style="fill:none; color:white; stroke:black; stroke-width:0.50; stroke-linecap:butt; stroke-linejoin:miter">
</g>
<g style="fill:none; color:red; stroke:currentColor; stroke-width:0.50; stroke-linecap:butt; stroke-linejoin:miter">
	<g style="stroke:none; fill:rgb(0,0,0); font-family:{}; font-size:10.00pt; text-anchor:end" transform="translate(537.5,51.8)">
		<text><tspan>Training data</tspan></text>
	</g>
	<use color="rgb(  0, 255,   0)" transform="translate(49.0,83.5) scale(6.00)" xlink:href="#gpPt6"/>
	<use color="rgb(  0, 255,   0)" transform="translate(123.7,189.9) scale(6.00)" xlink:href="#gpPt6"/>
	<use color="rgb(  0, 255,   0)" transform="translate(195.9,286.2) scale(6.00)" xlink:href="#gpPt6"/>
	<use color="rgb(  0, 255,   0)" transform="translate(270.4,271.0) scale(6.00)" xlink:href="#gpPt6"/>
	<use color="rgb(  0, 255,   0)" transform="translate(350.2,272.4) scale(6.00)" xlink:href="#gpPt6"/>
	<use color="rgb(  0, 255,   0)" transform="translate(413.8,312.5) scale(6.00)" xlink:href="#gpPt6"/>
	<use color="rgb(  0, 255,   0)" transform="translate(499.1,362.0) scale(6.00)" xlink:href="#gpPt6"/>
	<use color="rgb(  0, 255,   0)" transform="translate(444.9,48.1) scale(6.00)" xlink:href="#gpPt6"/>
</g>
	</g>
	<g id="gnuplot_plot_2a"><title>gnuplot_plot_2a</title>
<g style="fill:none; color:white; stroke:rgb(  0, 255,   0); stroke-width:3.00; stroke-linecap:butt; stroke-linejoin:miter">
</g>
<g style="fill:none; color:green; stroke:currentColor; stroke-width:3.00; stroke-linecap:butt; stroke-linejoin:miter">
	<g style="stroke:none; fill:rgb(0,0,0); font-family:{}; font-size:10.00pt; text-anchor:end" transform="translate(537.5,63.8)">
		<text><tspan>5th order fit</tspan></text>
	</g>
	<path d="M430.7,60.1 L459.1,60.1 M48.4,82.9 L48.9,83.1 L49.4,83.2 L49.9,83.4 L50.4,83.6 L50.9,83.8    L51.4,84.0 L51.9,84.2 L52.4,84.5 L52.9,84.7 L53.4,85.0 L53.8,85.2 L54.3,85.5 L54.8,85.8    L55.3,86.2 L55.8,86.5 L56.3,86.8 L56.8,87.2 L57.3,87.6 L57.8,87.9 L58.3,88.3 L58.8,88.7    L59.3,89.1 L59.8,89.6 L60.3,90.0 L60.8,90.5 L61.3,90.9 L61.8,91.4 L62.3,91.9 L62.8,92.4    L63.3,92.9 L63.8,93.4 L64.2,93.9 L64.7,94.4 L65.2,95.0 L65.7,95.5 L66.2,96.1 L66.7,96.6    L67.2,97.2 L67.7,97.8 L68.2,98.4 L68.7,99.0 L69.2,99.6 L69.7,100.2 L70.2,100.8 L70.7,101.5    L71.2,102.1 L71.7,102.8 L72.2,103.4 L72.7,104.1 L73.2,104.8 L73.7,105.5 L74.2,106.2 L74.6,106.8    L75.1,107.5 L75.6,108.3 L76.1,109.0 L76.6,109.7 L77.1,110.4 L77.6,111.2 L78.1,111.9 L78.6,112.7    L79.1,113.4 L79.6,114.2 L80.1,114.9 L80.6,115.7 L81.1,116.5 L81.6,117.3 L82.1,118.0 L82.6,118.8    L83.1,119.6 L83.6,120.4 L84.1,121.2 L84.5,122.1 L85.0,122.9 L85.5,123.7 L86.0,124.5 L86.5,125.3    L87.0,126.2 L87.5,127.0 L88.0,127.8 L88.5,128.7 L89.0,129.5 L89.5,130.4 L90.0,131.2 L90.5,132.1    L91.0,133.0 L91.5,133.8 L92.0,134.7 L92.5,135.6 L93.0,136.4 L93.5,137.3 L94.0,138.2 L94.5,139.1    L94.9,140.0 L95.4,140.8 L95.9,141.7 L96.4,142.6 L96.9,143.5 L97.4,144.4 L97.9,145.3 L98.4,146.2    L98.9,147.1 L99.4,148.0 L99.9,148.9 L100.4,149.8 L100.9,150.7 L101.4,151.6 L101.9,152.5 L102.4,153.4    L102.9,154.3 L103.4,155.2 L103.9,156.2 L104.4,157.1 L104.9,158.0 L105.3,158.9 L105.8,159.8 L106.3,160.7    L106.8,161.6 L107.3,162.5 L107.8,163.5 L108.3,164.4 L108.8,165.3 L109.3,166.2 L109.8,167.1 L110.3,168.0    L110.8,168.9 L111.3,169.9 L111.8,170.8 L112.3,171.7 L112.8,172.6 L113.3,173.5 L113.8,174.4 L114.3,175.3    L114.8,176.2 L115.3,177.1 L115.7,178.0 L116.2,178.9 L116.7,179.8 L117.2,180.8 L117.7,181.7 L118.2,182.6    L118.7,183.5 L119.2,184.3 L119.7,185.2 L120.2,186.1 L120.7,187.0 L121.2,187.9 L121.7,188.8 L122.2,189.7    L122.7,190.6 L123.2,191.5 L123.7,192.3 L124.2,193.2 L124.7,194.1 L125.2,195.0 L125.7,195.9 L126.1,196.7    L126.6,197.6 L127.1,198.5 L127.6,199.3 L128.1,200.2 L128.6,201.0 L129.1,201.9 L129.6,202.7 L130.1,203.6    L130.6,204.4 L131.1,205.3 L131.6,206.1 L132.1,207.0 L132.6,207.8 L133.1,208.6 L133.6,209.5 L134.1,210.3    L134.6,211.1 L135.1,211.9 L135.6,212.8 L136.0,213.6 L136.5,214.4 L137.0,215.2 L137.5,216.0 L138.0,216.8    L138.5,217.6 L139.0,218.4 L139.5,219.2 L140.0,220.0 L140.5,220.8 L141.0,221.5 L141.5,222.3 L142.0,223.1    L142.5,223.8 L143.0,224.6 L143.5,225.4 L144.0,226.1 L144.5,226.9 L145.0,227.6 L145.5,228.4 L146.0,229.1    L146.4,229.9 L146.9,230.6 L147.4,231.3 L147.9,232.0 L148.4,232.8 L148.9,233.5 L149.4,234.2 L149.9,234.9    L150.4,235.6 L150.9,236.3 L151.4,237.0 L151.9,237.7 L152.4,238.4 L152.9,239.1 L153.4,239.7 L153.9,240.4    L154.4,241.1 L154.9,241.8 L155.4,242.4 L155.9,243.1 L156.4,243.7 L156.8,244.4 L157.3,245.0 L157.8,245.7    L158.3,246.3 L158.8,246.9 L159.3,247.5 L159.8,248.2 L160.3,248.8 L160.8,249.4 L161.3,250.0 L161.8,250.6    L162.3,251.2 L162.8,251.8 L163.3,252.4 L163.8,253.0 L164.3,253.5 L164.8,254.1 L165.3,254.7 L165.8,255.2    L166.3,255.8 L166.8,256.3 L167.2,256.9 L167.7,257.4 L168.2,258.0 L168.7,258.5 L169.2,259.0 L169.7,259.6    L170.2,260.1 L170.7,260.6 L171.2,261.1 L171.7,261.6 L172.2,262.1 L172.7,262.6 L173.2,263.1 L173.7,263.6    L174.2,264.1 L174.7,264.5 L175.2,265.0 L175.7,265.5 L176.2,265.9 L176.7,266.4 L177.2,266.8 L177.6,267.3    L178.1,267.7 L178.6,268.2 L179.1,268.6 L179.6,269.0 L180.1,269.4 L180.6,269.9 L181.1,270.3 L181.6,270.7    L182.1,271.1 L182.6,271.5 L183.1,271.9 L183.6,272.2 L184.1,272.6 L184.6,273.0 L185.1,273.4 L185.6,273.7    L186.1,274.1 L186.6,274.5 L187.1,274.8 L187.5,275.2 L188.0,275.5 L188.5,275.8 L189.0,276.2 L189.5,276.5    L190.0,276.8 L190.5,277.1 L191.0,277.4 L191.5,277.8 L192.0,278.1 L192.5,278.4 L193.0,278.6 L193.5,278.9    L194.0,279.2 L194.5,279.5 L195.0,279.8 L195.5,280.0 L196.0,280.3 L196.5,280.6 L197.0,280.8 L197.5,281.1    L197.9,281.3 L198.4,281.6 L198.9,281.8 L199.4,282.0 L199.9,282.3 L200.4,282.5 L200.9,282.7 L201.4,282.9    L201.9,283.1 L202.4,283.3 L202.9,283.5 L203.4,283.7 L203.9,283.9 L204.4,284.1 L204.9,284.3 L205.4,284.4    L205.9,284.6 L206.4,284.8 L206.9,285.0 L207.4,285.1 L207.9,285.3 L208.3,285.4 L208.8,285.6 L209.3,285.7    L209.8,285.8 L210.3,286.0 L210.8,286.1 L211.3,286.2 L211.8,286.4 L212.3,286.5 L212.8,286.6 L213.3,286.7    L213.8,286.8 L214.3,286.9 L214.8,287.0 L215.3,287.1 L215.8,287.2 L216.3,287.3 L216.8,287.3 L217.3,287.4    L217.8,287.5 L218.3,287.5 L218.7,287.6 L219.2,287.7 L219.7,287.7 L220.2,287.8 L220.7,287.8 L221.2,287.9    L221.7,287.9 L222.2,288.0 L222.7,288.0 L223.2,288.0 L223.7,288.0 L224.2,288.1 L224.7,288.1 L225.2,288.1    L225.7,288.1 L226.2,288.1 L226.7,288.1 L227.2,288.1 L227.7,288.1 L228.2,288.1 L228.7,288.1 L229.1,288.1    L229.6,288.1 L230.1,288.1 L230.6,288.0 L231.1,288.0 L231.6,288.0 L232.1,288.0 L232.6,287.9 L233.1,287.9    L233.6,287.9 L234.1,287.8 L234.6,287.8 L235.1,287.7 L235.6,287.7 L236.1,287.6 L236.6,287.5 L237.1,287.5    L237.6,287.4 L238.1,287.4 L238.6,287.3 L239.1,287.2 L239.5,287.1 L240.0,287.1 L240.5,287.0 L241.0,286.9    L241.5,286.8 L242.0,286.7 L242.5,286.6 L243.0,286.5 L243.5,286.4 L244.0,286.3 L244.5,286.2 L245.0,286.1    L245.5,286.0 L246.0,285.9 L246.5,285.8 L247.0,285.7 L247.5,285.6 L248.0,285.5 L248.5,285.4 L249.0,285.2    L249.4,285.1 L249.9,285.0 L250.4,284.9 L250.9,284.7 L251.4,284.6 L251.9,284.5 L252.4,284.3 L252.9,284.2    L253.4,284.1 L253.9,283.9 L254.4,283.8 L254.9,283.6 L255.4,283.5 L255.9,283.4 L256.4,283.2 L256.9,283.1    L257.4,282.9 L257.9,282.8 L258.4,282.6 L258.9,282.5 L259.4,282.3 L259.8,282.1 L260.3,282.0 L260.8,281.8    L261.3,281.7 L261.8,281.5 L262.3,281.3 L262.8,281.2 L263.3,281.0 L263.8,280.8 L264.3,280.7 L264.8,280.5    L265.3,280.3 L265.8,280.2 L266.3,280.0 L266.8,279.8 L267.3,279.6 L267.8,279.5 L268.3,279.3 L268.8,279.1    L269.3,278.9 L269.8,278.8 L270.2,278.6 L270.7,278.4 L271.2,278.2 L271.7,278.1 L272.2,277.9 L272.7,277.7    L273.2,277.5 L273.7,277.3 L274.2,277.2 L274.7,277.0 L275.2,276.8 L275.7,276.6 L276.2,276.4 L276.7,276.3    L277.2,276.1 L277.7,275.9 L278.2,275.7 L278.7,275.5 L279.2,275.4 L279.7,275.2 L280.2,275.0 L280.6,274.8    L281.1,274.6 L281.6,274.5 L282.1,274.3 L282.6,274.1 L283.1,273.9 L283.6,273.7 L284.1,273.6 L284.6,273.4    L285.1,273.2 L285.6,273.0 L286.1,272.9 L286.6,272.7 L287.1,272.5 L287.6,272.3 L288.1,272.2 L288.6,272.0    L289.1,271.8 L289.6,271.6 L290.1,271.5 L290.6,271.3 L291.0,271.1 L291.5,271.0 L292.0,270.8 L292.5,270.6    L293.0,270.5 L293.5,270.3 L294.0,270.2 L294.5,270.0 L295.0,269.8 L295.5,269.7 L296.0,269.5 L296.5,269.4    L297.0,269.2 L297.5,269.1 L298.0,268.9 L298.5,268.8 L299.0,268.6 L299.5,268.5 L300.0,268.3 L300.5,268.2    L300.9,268.0 L301.4,267.9 L301.9,267.7 L302.4,267.6 L302.9,267.5 L303.4,267.3 L303.9,267.2 L304.4,267.1    L304.9,266.9 L305.4,266.8 L305.9,266.7 L306.4,266.6 L306.9,266.4 L307.4,266.3 L307.9,266.2 L308.4,266.1    L308.9,266.0 L309.4,265.9 L309.9,265.8 L310.4,265.7 L310.9,265.6 L311.3,265.4 L311.8,265.3 L312.3,265.3    L312.8,265.2 L313.3,265.1 L313.8,265.0 L314.3,264.9 L314.8,264.8 L315.3,264.7 L315.8,264.6 L316.3,264.6    L316.8,264.5 L317.3,264.4 L317.8,264.3 L318.3,264.3 L318.8,264.2 L319.3,264.1 L319.8,264.1 L320.3,264.0    L320.8,264.0 L321.3,263.9 L321.7,263.9 L322.2,263.8 L322.7,263.8 L323.2,263.7 L323.7,263.7 L324.2,263.7    L324.7,263.6 L325.2,263.6 L325.7,263.6 L326.2,263.6 L326.7,263.5 L327.2,263.5 L327.7,263.5 L328.2,263.5    L328.7,263.5 L329.2,263.5 L329.7,263.5 L330.2,263.5 L330.7,263.5 L331.2,263.5 L331.7,263.5 L332.1,263.5    L332.6,263.5 L333.1,263.6 L333.6,263.6 L334.1,263.6 L334.6,263.6 L335.1,263.7 L335.6,263.7 L336.1,263.8    L336.6,263.8 L337.1,263.8 L337.6,263.9 L338.1,264.0 L338.6,264.0 L339.1,264.1 L339.6,264.1 L340.1,264.2    L340.6,264.3 L341.1,264.4 L341.6,264.4 L342.1,264.5 L342.5,264.6 L343.0,264.7 L343.5,264.8 L344.0,264.9    L344.5,265.0 L345.0,265.1 L345.5,265.2 L346.0,265.3 L346.5,265.4 L347.0,265.6 L347.5,265.7 L348.0,265.8    L348.5,265.9 L349.0,266.1 L349.5,266.2 L350.0,266.4 L350.5,266.5 L351.0,266.7 L351.5,266.8 L352.0,267.0    L352.4,267.1 L352.9,267.3 L353.4,267.5 L353.9,267.6 L354.4,267.8 L354.9,268.0 L355.4,268.2 L355.9,268.4    L356.4,268.6 L356.9,268.8 L357.4,269.0 L357.9,269.2 L358.4,269.4 L358.9,269.6 L359.4,269.8 L359.9,270.0    L360.4,270.2 L360.9,270.5 L361.4,270.7 L361.9,270.9 L362.4,271.2 L362.8,271.4 L363.3,271.7 L363.8,271.9    L364.3,272.2 L364.8,272.4 L365.3,272.7 L365.8,273.0 L366.3,273.2 L366.8,273.5 L367.3,273.8 L367.8,274.1    L368.3,274.4 L368.8,274.6 L369.3,274.9 L369.8,275.2 L370.3,275.5 L370.8,275.8 L371.3,276.2 L371.8,276.5    L372.3,276.8 L372.8,277.1 L373.2,277.4 L373.7,277.8 L374.2,278.1 L374.7,278.4 L375.2,278.8 L375.7,279.1    L376.2,279.5 L376.7,279.8 L377.2,280.2 L377.7,280.5 L378.2,280.9 L378.7,281.2 L379.2,281.6 L379.7,282.0    L380.2,282.4 L380.7,282.7 L381.2,283.1 L381.7,283.5 L382.2,283.9 L382.7,284.3 L383.2,284.7 L383.6,285.1    L384.1,285.5 L384.6,285.9 L385.1,286.3 L385.6,286.7 L386.1,287.2 L386.6,287.6 L387.1,288.0 L387.6,288.4    L388.1,288.9 L388.6,289.3 L389.1,289.7 L389.6,290.2 L390.1,290.6 L390.6,291.1 L391.1,291.5 L391.6,292.0    L392.1,292.4 L392.6,292.9 L393.1,293.4 L393.6,293.8 L394.0,294.3 L394.5,294.8 L395.0,295.2 L395.5,295.7    L396.0,296.2 L396.5,296.7 L397.0,297.2 L397.5,297.7 L398.0,298.2 L398.5,298.7 L399.0,299.2 L399.5,299.7    L400.0,300.2 L400.5,300.7 L401.0,301.2 L401.5,301.7 L402.0,302.2 L402.5,302.7 L403.0,303.2 L403.5,303.8    L404.0,304.3 L404.4,304.8 L404.9,305.3 L405.4,305.9 L405.9,306.4 L406.4,306.9 L406.9,307.5 L407.4,308.0    L407.9,308.5 L408.4,309.1 L408.9,309.6 L409.4,310.2 L409.9,310.7 L410.4,311.3 L410.9,311.8 L411.4,312.4    L411.9,312.9 L412.4,313.5 L412.9,314.0 L413.4,314.6 L413.9,315.2 L414.3,315.7 L414.8,316.3 L415.3,316.8    L415.8,317.4 L416.3,318.0 L416.8,318.5 L417.3,319.1 L417.8,319.7 L418.3,320.2 L418.8,320.8 L419.3,321.4    L419.8,322.0 L420.3,322.5 L420.8,323.1 L421.3,323.7 L421.8,324.3 L422.3,324.8 L422.8,325.4 L423.3,326.0    L423.8,326.6 L424.3,327.1 L424.7,327.7 L425.2,328.3 L425.7,328.9 L426.2,329.4 L426.7,330.0 L427.2,330.6    L427.7,331.2 L428.2,331.7 L428.7,332.3 L429.2,332.9 L429.7,333.5 L430.2,334.0 L430.7,334.6 L431.2,335.2    L431.7,335.7 L432.2,336.3 L432.7,336.9 L433.2,337.4 L433.7,338.0 L434.2,338.6 L434.7,339.1 L435.1,339.7    L435.6,340.3 L436.1,340.8 L436.6,341.4 L437.1,341.9 L437.6,342.5 L438.1,343.0 L438.6,343.6 L439.1,344.1    L439.6,344.7 L440.1,345.2 L440.6,345.8 L441.1,346.3 L441.6,346.8 L442.1,347.4 L442.6,347.9 L443.1,348.4    L443.6,348.9 L444.1,349.5 L444.6,350.0 L445.1,350.5 L445.5,351.0 L446.0,351.5 L446.5,352.0 L447.0,352.5    L447.5,353.0 L448.0,353.5 L448.5,354.0 L449.0,354.5 L449.5,355.0 L450.0,355.5 L450.5,355.9 L451.0,356.4    L451.5,356.9 L452.0,357.3 L452.5,357.8 L453.0,358.2 L453.5,358.7 L454.0,359.1 L454.5,359.5 L455.0,360.0    L455.5,360.4 L455.9,360.8 L456.4,361.2 L456.9,361.6 L457.4,362.0 L457.9,362.4 L458.4,362.8 L458.9,363.2    L459.4,363.6 L459.9,364.0 L460.4,364.3 L460.9,364.7 L461.4,365.0 L461.9,365.4 L462.4,365.7 L462.9,366.1    L463.4,366.4 L463.9,366.7 L464.4,367.0 L464.9,367.3 L465.4,367.6 L465.8,367.9 L466.3,368.2 L466.8,368.4    L467.3,368.7 L467.8,369.0 L468.3,369.2 L468.8,369.4 L469.3,369.7 L469.8,369.9 L470.3,370.1 L470.8,370.3    L471.3,370.5 L471.8,370.7 L472.3,370.8 L472.8,371.0 L473.3,371.2 L473.8,371.3 L474.3,371.4 L474.8,371.6    L475.3,371.7 L475.8,371.8 L476.2,371.9 L476.7,371.9 L477.2,372.0 L477.7,372.1 L478.2,372.1 L478.7,372.1    L479.2,372.2 L479.7,372.2 L480.2,372.2 L480.7,372.2 L481.2,372.1 L481.7,372.1 L482.2,372.1 L482.7,372.0    L483.2,371.9 L483.7,371.8 L484.2,371.7 L484.7,371.6 L485.2,371.5 L485.7,371.4 L486.2,371.2 L486.6,371.0    L487.1,370.8 L487.6,370.7 L488.1,370.4 L488.6,370.2 L489.1,370.0 L489.6,369.7 L490.1,369.4 L490.6,369.2    L491.1,368.9 L491.6,368.5 L492.1,368.2 L492.6,367.9 L493.1,367.5 L493.6,367.1 L494.1,366.7 L494.6,366.3    L495.1,365.9 L495.6,365.4 L496.1,365.0 L496.6,364.5 L497.0,364.0 L497.5,363.4 L498.0,362.9 L498.5,362.4    L499.0,361.8 L499.5,361.2 L500.0,360.6 L500.5,360.0 L501.0,359.3 L501.5,358.6 L502.0,357.9 L502.5,357.2    L503.0,356.5 L503.5,355.8 L504.0,355.0 L504.5,354.2 L505.0,353.4 L505.5,352.6 L506.0,351.7 L506.5,350.9    L507.0,350.0 L507.4,349.0 L507.9,348.1 L508.4,347.2 L508.9,346.2 L509.4,345.2 L509.9,344.1 L510.4,343.1    L510.9,342.0 L511.4,340.9 L511.9,339.8 L512.4,338.7 L512.9,337.5 L513.4,336.3 L513.9,335.1 L514.4,333.8    L514.9,332.6 L515.4,331.3 L515.9,330.0 L516.4,328.6 L516.9,327.3 L517.3,325.9 L517.8,324.5 L518.3,323.0    L518.8,321.5 L519.3,320.0 L519.8,318.5 L520.3,317.0 L520.8,315.4 L521.3,313.8 L521.8,312.1 L522.3,310.5    L522.8,308.8 L523.3,307.1 L523.8,305.3 L524.3,303.5 L524.8,301.7 L525.3,299.9 L525.8,298.0 L526.3,296.1    L526.8,294.2 L527.3,292.2 L527.7,290.2 L528.2,288.2 L528.7,286.1 L529.2,284.1 L529.7,281.9 L530.2,279.8    L530.7,277.6 L531.2,275.4 L531.7,273.1 L532.2,270.9 L532.7,268.6 L533.2,266.2 L533.7,263.8 L534.2,261.4    L534.7,259.0 L535.2,256.5 L535.7,253.9 L536.2,251.4 L536.7,248.8 L537.2,246.2 L537.7,243.5 L538.1,240.8    L538.6,238.1 L539.1,235.3 L539.6,232.5 L540.1,229.6 L540.6,226.7 L541.1,223.8 L541.6,220.9 L542.1,217.9    L542.6,214.8 L543.1,211.7  h0.01" stroke="rgb(255,   0,   0)" stroke-dasharray=" 5,8"/></g>
	</g>
<g style="fill:none; color:white; stroke:rgb(255,   0,   0); stroke-width:0.50; stroke-linecap:butt; stroke-linejoin:miter">
</g>
<g style="fill:none; color:black; stroke:currentColor; stroke-width:0.50; stroke-linecap:butt; stroke-linejoin:miter">
</g>
</g>
</svg>