<svg height="480px" viewBox="0 0 204 230" width="720px" xmlns="http://www.w3.org/2000/svg" xmlns:xlink="http://www.w3.org/1999/xlink">

<title>Gnuplot</title>
<desc>Produced by GNUPLOT 4.6 patchlevel 2 </desc>

<g id="gnuplot_canvas">

<rect fill="none" height="230" width="204" x="0" y="0"/>
<defs>

	<circle id="gpDot" r="0.5" stroke-width="0.5"/>
	<path d="M-1,0 h2 M0,-1 v2" id="gpPt0" stroke="currentColor" stroke-width="0.333"/>
	<path d="M-1,-1 L1,1 M1,-1 L-1,1" id="gpPt1" stroke="currentColor" stroke-width="0.333"/>
	<path d="M-1,0 L1,0 M0,-1 L0,1 M-1,-1 L1,1 M-1,1 L1,-1" id="gpPt2" stroke="currentColor" stroke-width="0.333"/>
	<rect height="2" id="gpPt3" stroke="currentColor" stroke-width="0.333" width="2" x="-1" y="-1"/>
	<rect fill="currentColor" height="2" id="gpPt4" stroke="currentColor" stroke-width="0.333" width="2" x="-1" y="-1"/>
	<circle cx="0" cy="0" id="gpPt5" r="1" stroke="currentColor" stroke-width="0.333"/>
	<use fill="currentColor" id="gpPt6" stroke="none" xlink:href="#gpPt5"/>
	<path d="M0,-1.33 L-1.33,0.67 L1.33,0.67 z" id="gpPt7" stroke="currentColor" stroke-width="0.333"/>
	<use fill="currentColor" id="gpPt8" stroke="none" xlink:href="#gpPt7"/>
	<use id="gpPt9" stroke="currentColor" transform="rotate(180)" xlink:href="#gpPt7"/>
	<use fill="currentColor" id="gpPt10" stroke="none" xlink:href="#gpPt9"/>
	<use id="gpPt11" stroke="currentColor" transform="rotate(45)" xlink:href="#gpPt3"/>
	<use fill="currentColor" id="gpPt12" stroke="none" xlink:href="#gpPt11"/>
</defs>
<g style="fill:none; color:white; stroke:currentColor; stroke-width:1.00; stroke-linecap:butt; stroke-linejoin:miter">
</g>
<g style="fill:none; color:white; stroke:currentColor; stroke-width:0.50; stroke-linecap:butt; stroke-linejoin:miter">
</g>
<g style="fill:none; color:black; stroke:currentColor; stroke-width:0.50; stroke-linecap:butt; stroke-linejoin:miter">
	<path d="M58.7,192.0 L67.0,192.0 M187.8,192.0 L179.5,192.0  h0.01" stroke="black"/>	<g style="stroke:none; fill:rgb(0,0,0); font-family:{}; font-size:10.00pt; text-anchor:end" transform="translate(53.2,195.7)">
		<text><tspan>100000</tspan></text>
	</g>
	<path d="M58.7,161.9 L67.0,161.9 M187.8,161.9 L179.5,161.9  h0.01" stroke="black"/>	<g style="stroke:none; fill:rgb(0,0,0); font-family:{}; font-size:10.00pt; text-anchor:end" transform="translate(53.2,165.6)">
		<text><tspan>200000</tspan></text>
	</g>
	<path d="M58.7,131.7 L67.0,131.7 M187.8,131.7 L179.5,131.7  h0.01" stroke="black"/>	<g style="stroke:none; fill:rgb(0,0,0); font-family:{}; font-size:10.00pt; text-anchor:end" transform="translate(53.2,135.4)">
		<text><tspan>300000</tspan></text>
	</g>
	<path d="M58.7,101.6 L67.0,101.6 M187.8,101.6 L179.5,101.6  h0.01" stroke="black"/>	<g style="stroke:none; fill:rgb(0,0,0); font-family:{}; font-size:10.00pt; text-anchor:end" transform="translate(53.2,105.3)">
		<text><tspan>400000</tspan></text>
	</g>
	<path d="M58.7,71.4 L67.0,71.4 M187.8,71.4 L179.5,71.4  h0.01" stroke="black"/>	<g style="stroke:none; fill:rgb(0,0,0); font-family:{}; font-size:10.00pt; text-anchor:end" transform="translate(53.2,75.1)">
		<text><tspan>500000</tspan></text>
	</g>
	<path d="M58.7,41.3 L67.0,41.3 M187.8,41.3 L179.5,41.3  h0.01" stroke="black"/>	<g style="stroke:none; fill:rgb(0,0,0); font-family:{}; font-size:10.00pt; text-anchor:end" transform="translate(53.2,45.0)">
		<text><tspan>600000</tspan></text>
	</g>
	<path d="M58.7,11.1 L67.0,11.1 M187.8,11.1 L179.5,11.1  h0.01" stroke="black"/>	<g style="stroke:none; fill:rgb(0,0,0); font-family:{}; font-size:10.00pt; text-anchor:end" transform="translate(53.2,14.8)">
		<text><tspan>700000</tspan></text>
	</g>
	<path d="M58.7,192.0 L58.7,183.7 M58.7,11.1 L58.7,19.4  h0.01" stroke="black"/>	<g style="stroke:none; fill:rgb(0,0,0); font-family:{}; font-size:10.00pt; text-anchor:middle" transform="translate(58.7,207.7)">
		<text><tspan>-2</tspan></text>
	</g>
	<path d="M80.2,192.0 L80.2,183.7 M80.2,11.1 L80.2,19.4  h0.01" stroke="black"/>	<g style="stroke:none; fill:rgb(0,0,0); font-family:{}; font-size:10.00pt; text-anchor:middle" transform="translate(80.2,207.7)">
		<text><tspan>-1</tspan></text>
	</g>
	<path d="M101.7,192.0 L101.7,183.7 M101.7,11.1 L101.7,19.4  h0.01" stroke="black"/>	<g style="stroke:none; fill:rgb(0,0,0); font-family:{}; font-size:10.00pt; text-anchor:middle" transform="translate(101.7,207.7)">
		<text><tspan>0</tspan></text>
	</g>
	<path d="M123.2,192.0 L123.2,183.7 M123.2,11.1 L123.2,19.4  h0.01" stroke="black"/>	<g style="stroke:none; fill:rgb(0,0,0); font-family:{}; font-size:10.00pt; text-anchor:middle" transform="translate(123.2,207.7)">
		<text><tspan>1</tspan></text>
	</g>
	<path d="M144.8,192.0 L144.8,183.7 M144.8,11.1 L144.8,19.4  h0.01" stroke="black"/>	<g style="stroke:none; fill:rgb(0,0,0); font-family:{}; font-size:10.00pt; text-anchor:middle" transform="translate(144.8,207.7)">
		<text><tspan>2</tspan></text>
	</g>
	<path d="M166.3,192.0 L166.3,183.7 M166.3,11.1 L166.3,19.4  h0.01" stroke="black"/>	<g style="stroke:none; fill:rgb(0,0,0); font-family:{}; font-size:10.00pt; text-anchor:middle" transform="translate(166.3,207.7)">
		<text><tspan>3</tspan></text>
	</g>
	<path d="M187.8,192.0 L187.8,183.7 M187.8,11.1 L187.8,19.4  h0.01" stroke="black"/>	<g style="stroke:none; fill:rgb(0,0,0); font-family:{}; font-size:10.00pt; text-anchor:middle" transform="translate(187.8,207.7)">
		<text><tspan>4</tspan></text>
	</g>
	<path d="M58.7,11.1 L58.7,192.0 L187.8,192.0 L187.8,11.1 L58.7,11.1 Z  h0.01" stroke="black"/>	<g style="stroke:none; fill:rgb(0,0,0); font-family:{}; font-size:10.00pt; text-anchor:middle" transform="translate(12.4,101.6) rotate(-90)">
		<text><tspan>Price ($)</tspan></text>
	</g>
	<g style="stroke:none; fill:rgb(0,0,0); font-family:{}; font-size:10.00pt; text-anchor:middle" transform="translate(123.2,225.7)">
		<text><tspan>Area(sq.ft.)</tspan></text>
	</g>
</g>
	<g id="gnuplot_plot_1a"><title>gnuplot_plot_1a</title>
<g style="fill:none; color:red; stroke:currentColor; stroke-width:0.50; stroke-linecap:butt; stroke-linejoin:miter">
	<use color="rgb(  0, 255,   0)" transform="translate(104.5,101.6) scale(6.00)" xlink:href="#gpPt2"/>
	<use color="rgb(  0, 255,   0)" transform="translate(90.9,122.7) scale(6.00)" xlink:href="#gpPt2"/>
	<use color="rgb(  0, 255,   0)" transform="translate(112.5,110.9) scale(6.00)" xlink:href="#gpPt2"/>
	<use color="rgb(  0, 255,   0)" transform="translate(85.9,152.2) scale(6.00)" xlink:href="#gpPt2"/>
	<use color="rgb(  0, 255,   0)" transform="translate(128.8,59.4) scale(6.00)" xlink:href="#gpPt2"/>
	<use color="rgb(  0, 255,   0)" transform="translate(101.3,131.7) scale(6.00)" xlink:href="#gpPt2"/>
	<use color="rgb(  0, 255,   0)" transform="translate(89.1,127.2) scale(6.00)" xlink:href="#gpPt2"/>
	<use color="rgb(  0, 255,   0)" transform="translate(86.2,162.2) scale(6.00)" xlink:href="#gpPt2"/>
	<use color="rgb(  0, 255,   0)" transform="translate(84.9,158.2) scale(6.00)" xlink:href="#gpPt2"/>
	<use color="rgb(  0, 255,   0)" transform="translate(88.0,149.0) scale(6.00)" xlink:href="#gpPt2"/>
	<use color="rgb(  0, 255,   0)" transform="translate(100.1,149.8) scale(6.00)" xlink:href="#gpPt2"/>
	<use color="rgb(  0, 255,   0)" transform="translate(101.7,117.5) scale(6.00)" xlink:href="#gpPt2"/>
	<use color="rgb(  0, 255,   0)" transform="translate(98.7,122.7) scale(6.00)" xlink:href="#gpPt2"/>
	<use color="rgb(  0, 255,   0)" transform="translate(168.8,11.1) scale(6.00)" xlink:href="#gpPt2"/>
	<use color="rgb(  0, 255,   0)" transform="translate(81.9,143.8) scale(6.00)" xlink:href="#gpPt2"/>
	<use color="rgb(  0, 255,   0)" transform="translate(109.8,86.5) scale(6.00)" xlink:href="#gpPt2"/>
	<use color="rgb(  0, 255,   0)" transform="translate(83.3,131.7) scale(6.00)" xlink:href="#gpPt2"/>
	<use color="rgb(  0, 255,   0)" transform="translate(81.0,161.9) scale(6.00)" xlink:href="#gpPt2"/>
	<use color="rgb(  0, 255,   0)" transform="translate(118.2,71.4) scale(6.00)" xlink:href="#gpPt2"/>
	<use color="rgb(  0, 255,   0)" transform="translate(129.6,41.6) scale(6.00)" xlink:href="#gpPt2"/>
	<use color="rgb(  0, 255,   0)" transform="translate(95.4,145.9) scale(6.00)" xlink:href="#gpPt2"/>
	<use color="rgb(  0, 255,   0)" transform="translate(98.7,145.3) scale(6.00)" xlink:href="#gpPt2"/>
	<use color="rgb(  0, 255,   0)" transform="translate(91.0,148.9) scale(6.00)" xlink:href="#gpPt2"/>
	<use color="rgb(  0, 255,   0)" transform="translate(100.7,143.8) scale(6.00)" xlink:href="#gpPt2"/>
	<use color="rgb(  0, 255,   0)" transform="translate(152.9,49.1) scale(6.00)" xlink:href="#gpPt2"/>
	<use color="rgb(  0, 255,   0)" transform="translate(77.3,146.8) scale(6.00)" xlink:href="#gpPt2"/>
	<use color="rgb(  0, 255,   0)" transform="translate(87.0,82.1) scale(6.00)" xlink:href="#gpPt2"/>
	<use color="rgb(  0, 255,   0)" transform="translate(116.0,80.7) scale(6.00)" xlink:href="#gpPt2"/>
	<use color="rgb(  0, 255,   0)" transform="translate(107.1,78.9) scale(6.00)" xlink:href="#gpPt2"/>
	<use color="rgb(  0, 255,   0)" transform="translate(119.0,131.7) scale(6.00)" xlink:href="#gpPt2"/>
	<use color="rgb(  0, 255,   0)" transform="translate(97.4,116.7) scale(6.00)" xlink:href="#gpPt2"/>
	<use color="rgb(  0, 255,   0)" transform="translate(74.6,170.9) scale(6.00)" xlink:href="#gpPt2"/>
	<use color="rgb(  0, 255,   0)" transform="translate(102.8,127.2) scale(6.00)" xlink:href="#gpPt2"/>
	<use color="rgb(  0, 255,   0)" transform="translate(132.5,47.3) scale(6.00)" xlink:href="#gpPt2"/>
	<use color="rgb(  0, 255,   0)" transform="translate(96.6,136.0) scale(6.00)" xlink:href="#gpPt2"/>
	<use color="rgb(  0, 255,   0)" transform="translate(86.5,146.8) scale(6.00)" xlink:href="#gpPt2"/>
	<use color="rgb(  0, 255,   0)" transform="translate(81.1,152.8) scale(6.00)" xlink:href="#gpPt2"/>
	<use color="rgb(  0, 255,   0)" transform="translate(105.3,118.1) scale(6.00)" xlink:href="#gpPt2"/>
	<use color="rgb(  0, 255,   0)" transform="translate(161.7,56.6) scale(6.00)" xlink:href="#gpPt2"/>
	<use color="rgb(  0, 255,   0)" transform="translate(106.1,135.6) scale(6.00)" xlink:href="#gpPt2"/>
	<use color="rgb(  0, 255,   0)" transform="translate(92.6,111.0) scale(6.00)" xlink:href="#gpPt2"/>
	<use color="rgb(  0, 255,   0)" transform="translate(108.2,122.7) scale(6.00)" xlink:href="#gpPt2"/>
	<use color="rgb(  0, 255,   0)" transform="translate(117.1,127.5) scale(6.00)" xlink:href="#gpPt2"/>
	<use color="rgb(  0, 255,   0)" transform="translate(80.1,132.0) scale(6.00)" xlink:href="#gpPt2"/>
	<use color="rgb(  0, 255,   0)" transform="translate(70.6,167.9) scale(6.00)" xlink:href="#gpPt2"/>
	<use color="rgb(  0, 255,   0)" transform="translate(97.7,131.7) scale(6.00)" xlink:href="#gpPt2"/>
	<use color="rgb(  0, 255,   0)" transform="translate(80.1,149.9) scale(6.00)" xlink:href="#gpPt2"/>
</g>
	</g>
<g style="fill:none; color:black; stroke:currentColor; stroke-width:0.50; stroke-linecap:butt; stroke-linejoin:miter">
</g>
</g>
</svg>