<svg height="420px" viewBox="0 0 560 420" width="560px" xmlns="http://www.w3.org/2000/svg" xmlns:xlink="http://www.w3.org/1999/xlink">

<title>Gnuplot</title>
<desc>Produced by GNUPLOT 4.6 patchlevel 2 </desc>

<g id="gnuplot_canvas">

<rect fill="none" height="420" width="560" x="0" y="0"/>
<defs>

	<circle id="gpDot" r="0.5" stroke-width="0.5"/>
	<path d="M-1,0 h2 M0,-1 v2" id="gpPt0" stroke="currentColor" stroke-width="0.333"/>
	<path d="M-1,-1 L1,1 M1,-1 L-1,1" id="gpPt1" stroke="currentColor" stroke-width="0.333"/>
	<path d="M-1,0 L1,0 M0,-1 L0,1 M-1,-1 L1,1 M-1,1 L1,-1" id="gpPt2" stroke="currentColor" stroke-width="0.333"/>
	<rect height="2" id="gpPt3" stroke="currentColor" stroke-width="0.333" width="2" x="-1" y="-1"/>
	<rect fill="currentColor" height="2" id="gpPt4" stroke="currentColor" stroke-width="0.333" width="2" x="-1" y="-1"/>
	<circle cx="0" cy="0" id="gpPt5" r="1" stroke="currentColor" stroke-width="0.333"/>
	<use fill="currentColor" id="gpPt6" stroke="none" xlink:href="#gpPt5"/>
	<path d="M0,-1.33 L-1.33,0.67 L1.33,0.67 z" id="gpPt7" stroke="currentColor" stroke-width="0.333"/>
	<use fill="currentColor" id="gpPt8" stroke="none" xlink:href="#gpPt7"/>
	<use id="gpPt9" stroke="currentColor" transform="rotate(180)" xlink:href="#gpPt7"/>
	<use fill="currentColor" id="gpPt10" stroke="none" xlink:href="#gpPt9"/>
	<use id="gpPt11" stroke="currentColor" transform="rotate(45)" xlink:href="#gpPt3"/>
	<use fill="currentColor" id="gpPt12" stroke="none" xlink:href="#gpPt11"/>
</defs>
<g style="fill:none; color:white; stroke:currentColor; stroke-width:1.00; stroke-linecap:butt; stroke-linejoin:miter">
</g>
<g style="fill:none; color:black; stroke:currentColor; stroke-width:1.00; stroke-linecap:butt; stroke-linejoin:miter">
	<g style="stroke:none; shape-rendering:crispEdges">
		<polygon fill="rgb(255, 255, 255)" points="48.4,381.6 543.0,381.6 543.0,36.2 48.4,36.2 "/>
	</g>
	<path d="M48.4,381.6 L48.4,36.2 L543.0,36.2 L543.0,381.6 L48.4,381.6  h0.01" stroke="black"/></g>
<g style="fill:none; color:black; stroke:black; stroke-width:0.50; stroke-linecap:butt; stroke-linejoin:miter">
	<path d="M48.4,381.6 L56.8,381.6 M543.1,381.6 L534.7,381.6  h0.01" stroke="black"/>	<g style="stroke:none; fill:rgb(0,0,0); font-family:{}; font-size:10.00pt; text-anchor:end" transform="translate(42.8,385.3)">
		<text><tspan>-0.5</tspan></text>
	</g>
	<path d="M48.4,324.0 L56.8,324.0 M543.1,324.0 L534.7,324.0  h0.01" stroke="black"/>	<g style="stroke:none; fill:rgb(0,0,0); font-family:{}; font-size:10.00pt; text-anchor:end" transform="translate(42.8,327.7)">
		<text><tspan>0</tspan></text>
	</g>
	<path d="M48.4,266.4 L56.8,266.4 M543.1,266.4 L534.7,266.4  h0.01" stroke="black"/>	<g style="stroke:none; fill:rgb(0,0,0); font-family:{}; font-size:10.00pt; text-anchor:end" transform="translate(42.8,270.1)">
		<text><tspan>0.5</tspan></text>
	</g>
	<path d="M48.4,208.8 L56.8,208.8 M543.1,208.8 L534.7,208.8  h0.01" stroke="black"/>	<g style="stroke:none; fill:rgb(0,0,0); font-family:{}; font-size:10.00pt; text-anchor:end" transform="translate(42.8,212.5)">
		<text><tspan>1</tspan></text>
	</g>
	<path d="M48.4,151.3 L56.8,151.3 M543.1,151.3 L534.7,151.3  h0.01" stroke="black"/>	<g style="stroke:none; fill:rgb(0,0,0); font-family:{}; font-size:10.00pt; text-anchor:end" transform="translate(42.8,155.0)">
		<text><tspan>1.5</tspan></text>
	</g>
	<path d="M48.4,93.7 L56.8,93.7 M543.1,93.7 L534.7,93.7  h0.01" stroke="black"/>	<g style="stroke:none; fill:rgb(0,0,0); font-family:{}; font-size:10.00pt; text-anchor:end" transform="translate(42.8,97.4)">
		<text><tspan>2</tspan></text>
	</g>
	<path d="M48.4,36.1 L56.8,36.1 M543.1,36.1 L534.7,36.1  h0.01" stroke="black"/>	<g style="stroke:none; fill:rgb(0,0,0); font-family:{}; font-size:10.00pt; text-anchor:end" transform="translate(42.8,39.8)">
		<text><tspan>2.5</tspan></text>
	</g>
	<path d="M48.4,381.6 L48.4,373.2 M48.4,36.1 L48.4,44.5  h0.01" stroke="black"/>	<g style="stroke:none; fill:rgb(0,0,0); font-family:{}; font-size:10.00pt; text-anchor:middle" transform="translate(48.4,397.3)">
		<text><tspan>-1</tspan></text>
	</g>
	<path d="M172.1,381.6 L172.1,373.2 M172.1,36.1 L172.1,44.5  h0.01" stroke="black"/>	<g style="stroke:none; fill:rgb(0,0,0); font-family:{}; font-size:10.00pt; text-anchor:middle" transform="translate(172.1,397.3)">
		<text><tspan>-0.5</tspan></text>
	</g>
	<path d="M295.8,381.6 L295.8,373.2 M295.8,36.1 L295.8,44.5  h0.01" stroke="black"/>	<g style="stroke:none; fill:rgb(0,0,0); font-family:{}; font-size:10.00pt; text-anchor:middle" transform="translate(295.8,397.3)">
		<text><tspan>0</tspan></text>
	</g>
	<path d="M419.4,381.6 L419.4,373.2 M419.4,36.1 L419.4,44.5  h0.01" stroke="black"/>	<g style="stroke:none; fill:rgb(0,0,0); font-family:{}; font-size:10.00pt; text-anchor:middle" transform="translate(419.4,397.3)">
		<text><tspan>0.5</tspan></text>
	</g>
	<path d="M543.1,381.6 L543.1,373.2 M543.1,36.1 L543.1,44.5  h0.01" stroke="black"/>	<g style="stroke:none; fill:rgb(0,0,0); font-family:{}; font-size:10.00pt; text-anchor:middle" transform="translate(543.1,397.3)">
		<text><tspan>1</tspan></text>
	</g>
	<path d="M48.4,36.1 L48.4,381.6 L543.1,381.6 L543.1,36.1 L48.4,36.1 Z  h0.01" stroke="black"/>	<g style="stroke:none; fill:rgb(0,0,0); font-family:{}; font-size:10.00pt; text-anchor:middle" transform="translate(12.5,208.9) rotate(-90)">
		<text><tspan>y</tspan></text>
	</g>
	<g style="stroke:none; fill:rgb(0,0,0); font-family:{}; font-size:10.00pt; text-anchor:middle" transform="translate(295.7,415.3)">
		<text><tspan>x</tspan></text>
	</g>
	<g style="stroke:none; fill:black; font-family:{}; font-size:10.00pt; text-anchor:middle" transform="translate(295.7,21.8)">
		<text><tspan>Hypothesis at λ = 1</tspan></text>
	</g>
</g>
<g style="fill:none; color:black; stroke:black; stroke-width:1.00; stroke-linecap:butt; stroke-linejoin:miter">
	<path d="M425.1,66.1 L425.1,42.1 L537.5,42.1 L537.5,66.1 L425.1,66.1 Z  h0.01" stroke="black"/></g>
	<g id="gnuplot_plot_1a"><title>gnuplot_plot_1a</title>
<g style="fill:none; color:white; stroke:black; stroke-width:0.50; stroke-linecap:butt; stroke-linejoin:miter">
</g>
<g style="fill:none; color:red; stroke:currentColor; stroke-width:0.50; stroke-linecap:butt; stroke-linejoin:miter">
	<g style="stroke:none; fill:rgb(0,0,0); font-family:{}; font-size:10.00pt; text-anchor:end" transform="translate(537.5,51.8)">
		<text><tspan>Training data</tspan></text>
	</g>
	<use color="rgb(  0, 255,   0)" transform="translate(49.0,83.5) scale(6.00)" xlink:href="#gpPt6"/>
	<use color="rgb(  0, 255,   0)" transform="translate(123.7,189.9) scale(6.00)" xlink:href="#gpPt6"/>
	<use color="rgb(  0, 255,   0)" transform="translate(195.9,286.2) scale(6.00)" xlink:href="#gpPt6"/>
	<use color="rgb(  0, 255,   0)" transform="translate(270.4,271.0) scale(6.00)" xlink:href="#gpPt6"/>
	<use color="rgb(  0, 255,   0)" transform="translate(350.2,272.4) scale(6.00)" xlink:href="#gpPt6"/>
	<use color="rgb(  0, 255,   0)" transform="translate(413.8,312.5) scale(6.00)" xlink:href="#gpPt6"/>
	<use color="rgb(  0, 255,   0)" transform="translate(499.1,362.0) scale(6.00)" xlink:href="#gpPt6"/>
	<use color="rgb(  0, 255,   0)" transform="translate(444.9,48.1) scale(6.00)" xlink:href="#gpPt6"/>
</g>
	</g>
	<g id="gnuplot_plot_2a"><title>gnuplot_plot_2a</title>
<g style="fill:none; color:white; stroke:rgb(  0, 255,   0); stroke-width:3.00; stroke-linecap:butt; stroke-linejoin:miter">
</g>
<g style="fill:none; color:green; stroke:currentColor; stroke-width:3.00; stroke-linecap:butt; stroke-linejoin:miter">
	<g style="stroke:none; fill:rgb(0,0,0); font-family:{}; font-size:10.00pt; text-anchor:end" transform="translate(537.5,63.8)">
		<text><tspan>5th order fit</tspan></text>
	</g>
	<path d="M430.7,60.1 L459.1,60.1 M48.4,109.8 L48.9,110.8 L49.4,111.8 L49.9,112.7 L50.4,113.7 L50.9,114.7    L51.4,115.6 L51.9,116.6 L52.4,117.5 L52.9,118.5 L53.4,119.4 L53.8,120.3 L54.3,121.2 L54.8,122.2    L55.3,123.1 L55.8,124.0 L56.3,124.9 L56.8,125.8 L57.3,126.7 L57.8,127.6 L58.3,128.5 L58.8,129.3    L59.3,130.2 L59.8,131.1 L60.3,132.0 L60.8,132.8 L61.3,133.7 L61.8,134.5 L62.3,135.4 L62.8,136.2    L63.3,137.1 L63.8,137.9 L64.2,138.7 L64.7,139.5 L65.2,140.4 L65.7,141.2 L66.2,142.0 L66.7,142.8    L67.2,143.6 L67.7,144.4 L68.2,145.2 L68.7,146.0 L69.2,146.8 L69.7,147.5 L70.2,148.3 L70.7,149.1    L71.2,149.9 L71.7,150.6 L72.2,151.4 L72.7,152.1 L73.2,152.9 L73.7,153.6 L74.2,154.4 L74.6,155.1    L75.1,155.8 L75.6,156.6 L76.1,157.3 L76.6,158.0 L77.1,158.7 L77.6,159.4 L78.1,160.2 L78.6,160.9    L79.1,161.6 L79.6,162.3 L80.1,162.9 L80.6,163.6 L81.1,164.3 L81.6,165.0 L82.1,165.7 L82.6,166.4    L83.1,167.0 L83.6,167.7 L84.1,168.4 L84.5,169.0 L85.0,169.7 L85.5,170.3 L86.0,171.0 L86.5,171.6    L87.0,172.3 L87.5,172.9 L88.0,173.5 L88.5,174.2 L89.0,174.8 L89.5,175.4 L90.0,176.0 L90.5,176.6    L91.0,177.2 L91.5,177.9 L92.0,178.5 L92.5,179.1 L93.0,179.7 L93.5,180.3 L94.0,180.8 L94.5,181.4    L94.9,182.0 L95.4,182.6 L95.9,183.2 L96.4,183.8 L96.9,184.3 L97.4,184.9 L97.9,185.5 L98.4,186.0    L98.9,186.6 L99.4,187.1 L99.9,187.7 L100.4,188.2 L100.9,188.8 L101.4,189.3 L101.9,189.9 L102.4,190.4    L102.9,190.9 L103.4,191.5 L103.9,192.0 L104.4,192.5 L104.9,193.0 L105.3,193.6 L105.8,194.1 L106.3,194.6    L106.8,195.1 L107.3,195.6 L107.8,196.1 L108.3,196.6 L108.8,197.1 L109.3,197.6 L109.8,198.1 L110.3,198.6    L110.8,199.1 L111.3,199.6 L111.8,200.0 L112.3,200.5 L112.8,201.0 L113.3,201.5 L113.8,201.9 L114.3,202.4    L114.8,202.9 L115.3,203.3 L115.7,203.8 L116.2,204.2 L116.7,204.7 L117.2,205.1 L117.7,205.6 L118.2,206.0    L118.7,206.5 L119.2,206.9 L119.7,207.4 L120.2,207.8 L120.7,208.2 L121.2,208.7 L121.7,209.1 L122.2,209.5    L122.7,209.9 L123.2,210.4 L123.7,210.8 L124.2,211.2 L124.7,211.6 L125.2,212.0 L125.7,212.4 L126.1,212.8    L126.6,213.3 L127.1,213.7 L127.6,214.1 L128.1,214.5 L128.6,214.8 L129.1,215.2 L129.6,215.6 L130.1,216.0    L130.6,216.4 L131.1,216.8 L131.6,217.2 L132.1,217.6 L132.6,217.9 L133.1,218.3 L133.6,218.7 L134.1,219.0    L134.6,219.4 L135.1,219.8 L135.6,220.2 L136.0,220.5 L136.5,220.9 L137.0,221.2 L137.5,221.6 L138.0,221.9    L138.5,222.3 L139.0,222.6 L139.5,223.0 L140.0,223.3 L140.5,223.7 L141.0,224.0 L141.5,224.4 L142.0,224.7    L142.5,225.0 L143.0,225.4 L143.5,225.7 L144.0,226.0 L144.5,226.4 L145.0,226.7 L145.5,227.0 L146.0,227.3    L146.4,227.7 L146.9,228.0 L147.4,228.3 L147.9,228.6 L148.4,228.9 L148.9,229.2 L149.4,229.6 L149.9,229.9    L150.4,230.2 L150.9,230.5 L151.4,230.8 L151.9,231.1 L152.4,231.4 L152.9,231.7 L153.4,232.0 L153.9,232.3    L154.4,232.6 L154.9,232.9 L155.4,233.2 L155.9,233.4 L156.4,233.7 L156.8,234.0 L157.3,234.3 L157.8,234.6    L158.3,234.9 L158.8,235.1 L159.3,235.4 L159.8,235.7 L160.3,236.0 L160.8,236.2 L161.3,236.5 L161.8,236.8    L162.3,237.1 L162.8,237.3 L163.3,237.6 L163.8,237.9 L164.3,238.1 L164.8,238.4 L165.3,238.6 L165.8,238.9    L166.3,239.2 L166.8,239.4 L167.2,239.7 L167.7,239.9 L168.2,240.2 L168.7,240.4 L169.2,240.7 L169.7,240.9    L170.2,241.2 L170.7,241.4 L171.2,241.6 L171.7,241.9 L172.2,242.1 L172.7,242.4 L173.2,242.6 L173.7,242.8    L174.2,243.1 L174.7,243.3 L175.2,243.5 L175.7,243.8 L176.2,244.0 L176.7,244.2 L177.2,244.5 L177.6,244.7    L178.1,244.9 L178.6,245.1 L179.1,245.4 L179.6,245.6 L180.1,245.8 L180.6,246.0 L181.1,246.2 L181.6,246.5    L182.1,246.7 L182.6,246.9 L183.1,247.1 L183.6,247.3 L184.1,247.5 L184.6,247.7 L185.1,248.0 L185.6,248.2    L186.1,248.4 L186.6,248.6 L187.1,248.8 L187.5,249.0 L188.0,249.2 L188.5,249.4 L189.0,249.6 L189.5,249.8    L190.0,250.0 L190.5,250.2 L191.0,250.4 L191.5,250.6 L192.0,250.8 L192.5,251.0 L193.0,251.2 L193.5,251.4    L194.0,251.5 L194.5,251.7 L195.0,251.9 L195.5,252.1 L196.0,252.3 L196.5,252.5 L197.0,252.7 L197.5,252.9    L197.9,253.0 L198.4,253.2 L198.9,253.4 L199.4,253.6 L199.9,253.8 L200.4,253.9 L200.9,254.1 L201.4,254.3    L201.9,254.5 L202.4,254.7 L202.9,254.8 L203.4,255.0 L203.9,255.2 L204.4,255.3 L204.9,255.5 L205.4,255.7    L205.9,255.9 L206.4,256.0 L206.9,256.2 L207.4,256.4 L207.9,256.5 L208.3,256.7 L208.8,256.9 L209.3,257.0    L209.8,257.2 L210.3,257.4 L210.8,257.5 L211.3,257.7 L211.8,257.8 L212.3,258.0 L212.8,258.2 L213.3,258.3    L213.8,258.5 L214.3,258.6 L214.8,258.8 L215.3,258.9 L215.8,259.1 L216.3,259.3 L216.8,259.4 L217.3,259.6    L217.8,259.7 L218.3,259.9 L218.7,260.0 L219.2,260.2 L219.7,260.3 L220.2,260.5 L220.7,260.6 L221.2,260.8    L221.7,260.9 L222.2,261.1 L222.7,261.2 L223.2,261.3 L223.7,261.5 L224.2,261.6 L224.7,261.8 L225.2,261.9    L225.7,262.1 L226.2,262.2 L226.7,262.3 L227.2,262.5 L227.7,262.6 L228.2,262.8 L228.7,262.9 L229.1,263.0    L229.6,263.2 L230.1,263.3 L230.6,263.5 L231.1,263.6 L231.6,263.7 L232.1,263.9 L232.6,264.0 L233.1,264.1    L233.6,264.3 L234.1,264.4 L234.6,264.5 L235.1,264.7 L235.6,264.8 L236.1,264.9 L236.6,265.1 L237.1,265.2    L237.6,265.3 L238.1,265.4 L238.6,265.6 L239.1,265.7 L239.5,265.8 L240.0,266.0 L240.5,266.1 L241.0,266.2    L241.5,266.3 L242.0,266.5 L242.5,266.6 L243.0,266.7 L243.5,266.8 L244.0,267.0 L244.5,267.1 L245.0,267.2    L245.5,267.3 L246.0,267.5 L246.5,267.6 L247.0,267.7 L247.5,267.8 L248.0,267.9 L248.5,268.1 L249.0,268.2    L249.4,268.3 L249.9,268.4 L250.4,268.5 L250.9,268.7 L251.4,268.8 L251.9,268.9 L252.4,269.0 L252.9,269.1    L253.4,269.2 L253.9,269.4 L254.4,269.5 L254.9,269.6 L255.4,269.7 L255.9,269.8 L256.4,269.9 L256.9,270.1    L257.4,270.2 L257.9,270.3 L258.4,270.4 L258.9,270.5 L259.4,270.6 L259.8,270.7 L260.3,270.8 L260.8,271.0    L261.3,271.1 L261.8,271.2 L262.3,271.3 L262.8,271.4 L263.3,271.5 L263.8,271.6 L264.3,271.7 L264.8,271.8    L265.3,271.9 L265.8,272.1 L266.3,272.2 L266.8,272.3 L267.3,272.4 L267.8,272.5 L268.3,272.6 L268.8,272.7    L269.3,272.8 L269.8,272.9 L270.2,273.0 L270.7,273.1 L271.2,273.2 L271.7,273.3 L272.2,273.4 L272.7,273.5    L273.2,273.7 L273.7,273.8 L274.2,273.9 L274.7,274.0 L275.2,274.1 L275.7,274.2 L276.2,274.3 L276.7,274.4    L277.2,274.5 L277.7,274.6 L278.2,274.7 L278.7,274.8 L279.2,274.9 L279.7,275.0 L280.2,275.1 L280.6,275.2    L281.1,275.3 L281.6,275.4 L282.1,275.5 L282.6,275.6 L283.1,275.7 L283.6,275.8 L284.1,275.9 L284.6,276.0    L285.1,276.1 L285.6,276.2 L286.1,276.3 L286.6,276.4 L287.1,276.5 L287.6,276.6 L288.1,276.7 L288.6,276.8    L289.1,276.9 L289.6,277.0 L290.1,277.1 L290.6,277.2 L291.0,277.3 L291.5,277.4 L292.0,277.5 L292.5,277.6    L293.0,277.7 L293.5,277.8 L294.0,277.9 L294.5,278.0 L295.0,278.1 L295.5,278.2 L296.0,278.3 L296.5,278.4    L297.0,278.5 L297.5,278.6 L298.0,278.7 L298.5,278.8 L299.0,278.9 L299.5,279.0 L300.0,279.0 L300.5,279.1    L300.9,279.2 L301.4,279.3 L301.9,279.4 L302.4,279.5 L302.9,279.6 L303.4,279.7 L303.9,279.8 L304.4,279.9    L304.9,280.0 L305.4,280.1 L305.9,280.2 L306.4,280.3 L306.9,280.4 L307.4,280.5 L307.9,280.6 L308.4,280.7    L308.9,280.8 L309.4,280.9 L309.9,281.0 L310.4,281.0 L310.9,281.1 L311.3,281.2 L311.8,281.3 L312.3,281.4    L312.8,281.5 L313.3,281.6 L313.8,281.7 L314.3,281.8 L314.8,281.9 L315.3,282.0 L315.8,282.1 L316.3,282.2    L316.8,282.3 L317.3,282.4 L317.8,282.5 L318.3,282.5 L318.8,282.6 L319.3,282.7 L319.8,282.8 L320.3,282.9    L320.8,283.0 L321.3,283.1 L321.7,283.2 L322.2,283.3 L322.7,283.4 L323.2,283.5 L323.7,283.6 L324.2,283.7    L324.7,283.8 L325.2,283.9 L325.7,284.0 L326.2,284.0 L326.7,284.1 L327.2,284.2 L327.7,284.3 L328.2,284.4    L328.7,284.5 L329.2,284.6 L329.7,284.7 L330.2,284.8 L330.7,284.9 L331.2,285.0 L331.7,285.1 L332.1,285.2    L332.6,285.3 L333.1,285.4 L333.6,285.5 L334.1,285.5 L334.6,285.6 L335.1,285.7 L335.6,285.8 L336.1,285.9    L336.6,286.0 L337.1,286.1 L337.6,286.2 L338.1,286.3 L338.6,286.4 L339.1,286.5 L339.6,286.6 L340.1,286.7    L340.6,286.8 L341.1,286.9 L341.6,287.0 L342.1,287.1 L342.5,287.2 L343.0,287.2 L343.5,287.3 L344.0,287.4    L344.5,287.5 L345.0,287.6 L345.5,287.7 L346.0,287.8 L346.5,287.9 L347.0,288.0 L347.5,288.1 L348.0,288.2    L348.5,288.3 L349.0,288.4 L349.5,288.5 L350.0,288.6 L350.5,288.7 L351.0,288.8 L351.5,288.9 L352.0,289.0    L352.4,289.1 L352.9,289.2 L353.4,289.3 L353.9,289.4 L354.4,289.5 L354.9,289.6 L355.4,289.7 L355.9,289.7    L356.4,289.8 L356.9,289.9 L357.4,290.0 L357.9,290.1 L358.4,290.2 L358.9,290.3 L359.4,290.4 L359.9,290.5    L360.4,290.6 L360.9,290.7 L361.4,290.8 L361.9,290.9 L362.4,291.0 L362.8,291.1 L363.3,291.2 L363.8,291.3    L364.3,291.4 L364.8,291.5 L365.3,291.6 L365.8,291.7 L366.3,291.8 L366.8,291.9 L367.3,292.0 L367.8,292.1    L368.3,292.2 L368.8,292.3 L369.3,292.4 L369.8,292.5 L370.3,292.7 L370.8,292.8 L371.3,292.9 L371.8,293.0    L372.3,293.1 L372.8,293.2 L373.2,293.3 L373.7,293.4 L374.2,293.5 L374.7,293.6 L375.2,293.7 L375.7,293.8    L376.2,293.9 L376.7,294.0 L377.2,294.1 L377.7,294.2 L378.2,294.3 L378.7,294.4 L379.2,294.5 L379.7,294.6    L380.2,294.8 L380.7,294.9 L381.2,295.0 L381.7,295.1 L382.2,295.2 L382.7,295.3 L383.2,295.4 L383.6,295.5    L384.1,295.6 L384.6,295.7 L385.1,295.8 L385.6,296.0 L386.1,296.1 L386.6,296.2 L387.1,296.3 L387.6,296.4    L388.1,296.5 L388.6,296.6 L389.1,296.7 L389.6,296.8 L390.1,297.0 L390.6,297.1 L391.1,297.2 L391.6,297.3    L392.1,297.4 L392.6,297.5 L393.1,297.6 L393.6,297.8 L394.0,297.9 L394.5,298.0 L395.0,298.1 L395.5,298.2    L396.0,298.3 L396.5,298.5 L397.0,298.6 L397.5,298.7 L398.0,298.8 L398.5,298.9 L399.0,299.1 L399.5,299.2    L400.0,299.3 L400.5,299.4 L401.0,299.5 L401.5,299.7 L402.0,299.8 L402.5,299.9 L403.0,300.0 L403.5,300.2    L404.0,300.3 L404.4,300.4 L404.9,300.5 L405.4,300.7 L405.9,300.8 L406.4,300.9 L406.9,301.0 L407.4,301.2    L407.9,301.3 L408.4,301.4 L408.9,301.5 L409.4,301.7 L409.9,301.8 L410.4,301.9 L410.9,302.1 L411.4,302.2    L411.9,302.3 L412.4,302.5 L412.9,302.6 L413.4,302.7 L413.9,302.9 L414.3,303.0 L414.8,303.1 L415.3,303.3    L415.8,303.4 L416.3,303.5 L416.8,303.7 L417.3,303.8 L417.8,303.9 L418.3,304.1 L418.8,304.2 L419.3,304.4    L419.8,304.5 L420.3,304.6 L420.8,304.8 L421.3,304.9 L421.8,305.1 L422.3,305.2 L422.8,305.4 L423.3,305.5    L423.8,305.6 L424.3,305.8 L424.7,305.9 L425.2,306.1 L425.7,306.2 L426.2,306.4 L426.7,306.5 L427.2,306.7    L427.7,306.8 L428.2,307.0 L428.7,307.1 L429.2,307.3 L429.7,307.4 L430.2,307.6 L430.7,307.7 L431.2,307.9    L431.7,308.1 L432.2,308.2 L432.7,308.4 L433.2,308.5 L433.7,308.7 L434.2,308.8 L434.7,309.0 L435.1,309.2    L435.6,309.3 L436.1,309.5 L436.6,309.7 L437.1,309.8 L437.6,310.0 L438.1,310.1 L438.6,310.3 L439.1,310.5    L439.6,310.7 L440.1,310.8 L440.6,311.0 L441.1,311.2 L441.6,311.3 L442.1,311.5 L442.6,311.7 L443.1,311.8    L443.6,312.0 L444.1,312.2 L444.6,312.4 L445.1,312.6 L445.5,312.7 L446.0,312.9 L446.5,313.1 L447.0,313.3    L447.5,313.4 L448.0,313.6 L448.5,313.8 L449.0,314.0 L449.5,314.2 L450.0,314.4 L450.5,314.6 L451.0,314.7    L451.5,314.9 L452.0,315.1 L452.5,315.3 L453.0,315.5 L453.5,315.7 L454.0,315.9 L454.5,316.1 L455.0,316.3    L455.5,316.5 L455.9,316.7 L456.4,316.9 L456.9,317.1 L457.4,317.3 L457.9,317.5 L458.4,317.7 L458.9,317.9    L459.4,318.1 L459.9,318.3 L460.4,318.5 L460.9,318.7 L461.4,318.9 L461.9,319.1 L462.4,319.4 L462.9,319.6    L463.4,319.8 L463.9,320.0 L464.4,320.2 L464.9,320.4 L465.4,320.6 L465.8,320.9 L466.3,321.1 L466.8,321.3    L467.3,321.5 L467.8,321.8 L468.3,322.0 L468.8,322.2 L469.3,322.4 L469.8,322.7 L470.3,322.9 L470.8,323.1    L471.3,323.4 L471.8,323.6 L472.3,323.8 L472.8,324.1 L473.3,324.3 L473.8,324.6 L474.3,324.8 L474.8,325.0    L475.3,325.3 L475.8,325.5 L476.2,325.8 L476.7,326.0 L477.2,326.3 L477.7,326.5 L478.2,326.8 L478.7,327.0    L479.2,327.3 L479.7,327.6 L480.2,327.8 L480.7,328.1 L481.2,328.3 L481.7,328.6 L482.2,328.9 L482.7,329.1    L483.2,329.4 L483.7,329.7 L484.2,329.9 L484.7,330.2 L485.2,330.5 L485.7,330.8 L486.2,331.0 L486.6,331.3    L487.1,331.6 L487.6,331.9 L488.1,332.2 L488.6,332.4 L489.1,332.7 L489.6,333.0 L490.1,333.3 L490.6,333.6    L491.1,333.9 L491.6,334.2 L492.1,334.5 L492.6,334.8 L493.1,335.1 L493.6,335.4 L494.1,335.7 L494.6,336.0    L495.1,336.3 L495.6,336.6 L496.1,336.9 L496.6,337.2 L497.0,337.5 L497.5,337.9 L498.0,338.2 L498.5,338.5    L499.0,338.8 L499.5,339.1 L500.0,339.5 L500.5,339.8 L501.0,340.1 L501.5,340.5 L502.0,340.8 L502.5,341.1    L503.0,341.5 L503.5,341.8 L504.0,342.1 L504.5,342.5 L505.0,342.8 L505.5,343.2 L506.0,343.5 L506.5,343.9    L507.0,344.2 L507.4,344.6 L507.9,344.9 L508.4,345.3 L508.9,345.7 L509.4,346.0 L509.9,346.4 L510.4,346.7    L510.9,347.1 L511.4,347.5 L511.9,347.9 L512.4,348.2 L512.9,348.6 L513.4,349.0 L513.9,349.4 L514.4,349.8    L514.9,350.2 L515.4,350.5 L515.9,350.9 L516.4,351.3 L516.9,351.7 L517.3,352.1 L517.8,352.5 L518.3,352.9    L518.8,353.3 L519.3,353.7 L519.8,354.2 L520.3,354.6 L520.8,355.0 L521.3,355.4 L521.8,355.8 L522.3,356.2    L522.8,356.7 L523.3,357.1 L523.8,357.5 L524.3,358.0 L524.8,358.4 L525.3,358.8 L525.8,359.3 L526.3,359.7    L526.8,360.2 L527.3,360.6 L527.7,361.1 L528.2,361.5 L528.7,362.0 L529.2,362.4 L529.7,362.9 L530.2,363.4    L530.7,363.8 L531.2,364.3 L531.7,364.8 L532.2,365.2 L532.7,365.7 L533.2,366.2 L533.7,366.7 L534.2,367.2    L534.7,367.7 L535.2,368.1 L535.7,368.6 L536.2,369.1 L536.7,369.6 L537.2,370.1 L537.7,370.7 L538.1,371.2    L538.6,371.7 L539.1,372.2 L539.6,372.7 L540.1,373.2 L540.6,373.8 L541.1,374.3 L541.6,374.8 L542.1,375.3    L542.6,375.9 L543.1,376.4  h0.01" stroke="rgb(255,   0,   0)" stroke-dasharray=" 5,8"/></g>
	</g>
<g style="fill:none; color:white; stroke:rgb(255,   0,   0); stroke-width:0.50; stroke-linecap:butt; stroke-linejoin:miter">
</g>
<g style="fill:none; color:black; stroke:currentColor; stroke-width:0.50; stroke-linecap:butt; stroke-linejoin:miter">
</g>
</g>
</svg>