<svg height="420px" viewBox="0 0 560 420" width="560px" xmlns="http://www.w3.org/2000/svg" xmlns:xlink="http://www.w3.org/1999/xlink">

<title>Gnuplot</title>
<desc>Produced by GNUPLOT 4.6 patchlevel 2 </desc>

<g id="gnuplot_canvas">

<rect fill="none" height="420" width="560" x="0" y="0"/>
<defs>

	<circle id="gpDot" r="0.5" stroke-width="0.5"/>
	<path d="M-1,0 h2 M0,-1 v2" id="gpPt0" stroke="currentColor" stroke-width="0.333"/>
	<path d="M-1,-1 L1,1 M1,-1 L-1,1" id="gpPt1" stroke="currentColor" stroke-width="0.333"/>
	<path d="M-1,0 L1,0 M0,-1 L0,1 M-1,-1 L1,1 M-1,1 L1,-1" id="gpPt2" stroke="currentColor" stroke-width="0.333"/>
	<rect height="2" id="gpPt3" stroke="currentColor" stroke-width="0.333" width="2" x="-1" y="-1"/>
	<rect fill="currentColor" height="2" id="gpPt4" stroke="currentColor" stroke-width="0.333" width="2" x="-1" y="-1"/>
	<circle cx="0" cy="0" id="gpPt5" r="1" stroke="currentColor" stroke-width="0.333"/>
	<use fill="currentColor" id="gpPt6" stroke="none" xlink:href="#gpPt5"/>
	<path d="M0,-1.33 L-1.33,0.67 L1.33,0.67 z" id="gpPt7" stroke="currentColor" stroke-width="0.333"/>
	<use fill="currentColor" id="gpPt8" stroke="none" xlink:href="#gpPt7"/>
	<use id="gpPt9" stroke="currentColor" transform="rotate(180)" xlink:href="#gpPt7"/>
	<use fill="currentColor" id="gpPt10" stroke="none" xlink:href="#gpPt9"/>
	<use id="gpPt11" stroke="currentColor" transform="rotate(45)" xlink:href="#gpPt3"/>
	<use fill="currentColor" id="gpPt12" stroke="none" xlink:href="#gpPt11"/>
</defs>
<g style="fill:none; color:white; stroke:currentColor; stroke-width:1.00; stroke-linecap:butt; stroke-linejoin:miter">
</g>
<g style="fill:none; color:black; stroke:currentColor; stroke-width:1.00; stroke-linecap:butt; stroke-linejoin:miter">
	<g style="stroke:none; shape-rendering:crispEdges">
		<polygon fill="rgb(255, 255, 255)" points="48.4,381.6 543.0,381.6 543.0,11.4 48.4,11.4 "/>
	</g>
	<path d="M48.4,381.6 L48.4,11.4 L543.0,11.4 L543.0,381.6 L48.4,381.6  h0.01" stroke="black"/></g>
<g style="fill:none; color:black; stroke:black; stroke-width:0.50; stroke-linecap:butt; stroke-linejoin:miter">
	<path d="M48.4,381.6 L56.8,381.6 M543.1,381.6 L534.7,381.6  h0.01" stroke="black"/>	<g style="stroke:none; fill:rgb(0,0,0); font-family:{}; font-size:10.00pt; text-anchor:end" transform="translate(42.8,385.3)">
		<text><tspan>-1</tspan></text>
	</g>
	<path d="M48.4,307.5 L56.8,307.5 M543.1,307.5 L534.7,307.5  h0.01" stroke="black"/>	<g style="stroke:none; fill:rgb(0,0,0); font-family:{}; font-size:10.00pt; text-anchor:end" transform="translate(42.8,311.2)">
		<text><tspan>-0.5</tspan></text>
	</g>
	<path d="M48.4,233.5 L56.8,233.5 M543.1,233.5 L534.7,233.5  h0.01" stroke="black"/>	<g style="stroke:none; fill:rgb(0,0,0); font-family:{}; font-size:10.00pt; text-anchor:end" transform="translate(42.8,237.2)">
		<text><tspan>0</tspan></text>
	</g>
	<path d="M48.4,159.4 L56.8,159.4 M543.1,159.4 L534.7,159.4  h0.01" stroke="black"/>	<g style="stroke:none; fill:rgb(0,0,0); font-family:{}; font-size:10.00pt; text-anchor:end" transform="translate(42.8,163.1)">
		<text><tspan>0.5</tspan></text>
	</g>
	<path d="M48.4,85.4 L56.8,85.4 M543.1,85.4 L534.7,85.4  h0.01" stroke="black"/>	<g style="stroke:none; fill:rgb(0,0,0); font-family:{}; font-size:10.00pt; text-anchor:end" transform="translate(42.8,89.1)">
		<text><tspan>1</tspan></text>
	</g>
	<path d="M48.4,11.3 L56.8,11.3 M543.1,11.3 L534.7,11.3  h0.01" stroke="black"/>	<g style="stroke:none; fill:rgb(0,0,0); font-family:{}; font-size:10.00pt; text-anchor:end" transform="translate(42.8,15.0)">
		<text><tspan>1.5</tspan></text>
	</g>
	<path d="M48.4,381.6 L48.4,373.2 M48.4,11.3 L48.4,19.7  h0.01" stroke="black"/>	<g style="stroke:none; fill:rgb(0,0,0); font-family:{}; font-size:10.00pt; text-anchor:middle" transform="translate(48.4,397.3)">
		<text><tspan>-1</tspan></text>
	</g>
	<path d="M147.3,381.6 L147.3,373.2 M147.3,11.3 L147.3,19.7  h0.01" stroke="black"/>	<g style="stroke:none; fill:rgb(0,0,0); font-family:{}; font-size:10.00pt; text-anchor:middle" transform="translate(147.3,397.3)">
		<text><tspan>-0.5</tspan></text>
	</g>
	<path d="M246.3,381.6 L246.3,373.2 M246.3,11.3 L246.3,19.7  h0.01" stroke="black"/>	<g style="stroke:none; fill:rgb(0,0,0); font-family:{}; font-size:10.00pt; text-anchor:middle" transform="translate(246.3,397.3)">
		<text><tspan>0</tspan></text>
	</g>
	<path d="M345.2,381.6 L345.2,373.2 M345.2,11.3 L345.2,19.7  h0.01" stroke="black"/>	<g style="stroke:none; fill:rgb(0,0,0); font-family:{}; font-size:10.00pt; text-anchor:middle" transform="translate(345.2,397.3)">
		<text><tspan>0.5</tspan></text>
	</g>
	<path d="M444.2,381.6 L444.2,373.2 M444.2,11.3 L444.2,19.7  h0.01" stroke="black"/>	<g style="stroke:none; fill:rgb(0,0,0); font-family:{}; font-size:10.00pt; text-anchor:middle" transform="translate(444.2,397.3)">
		<text><tspan>1</tspan></text>
	</g>
	<path d="M543.1,381.6 L543.1,373.2 M543.1,11.3 L543.1,19.7  h0.01" stroke="black"/>	<g style="stroke:none; fill:rgb(0,0,0); font-family:{}; font-size:10.00pt; text-anchor:middle" transform="translate(543.1,397.3)">
		<text><tspan>1.5</tspan></text>
	</g>
	<path d="M48.4,11.3 L48.4,381.6 L543.1,381.6 L543.1,11.3 L48.4,11.3 Z  h0.01" stroke="black"/>	<g style="stroke:none; fill:rgb(0,0,0); font-family:{}; font-size:10.00pt; text-anchor:middle" transform="translate(12.5,196.5) rotate(-90)">
		<text><tspan>v</tspan></text>
	</g>
	<g style="stroke:none; fill:rgb(0,0,0); font-family:{}; font-size:10.00pt; text-anchor:middle" transform="translate(295.7,415.3)">
		<text><tspan>u</tspan></text>
	</g>
</g>
<g style="fill:none; color:black; stroke:black; stroke-width:1.00; stroke-linecap:butt; stroke-linejoin:miter">
	<path d="M469.9,41.3 L469.9,17.3 L537.5,17.3 L537.5,41.3 L469.9,41.3 Z  h0.01" stroke="black"/></g>
	<g id="gnuplot_plot_1a"><title>gnuplot_plot_1a</title>
<g style="fill:none; color:white; stroke:black; stroke-width:0.50; stroke-linecap:butt; stroke-linejoin:miter">
</g>
<g style="fill:none; color:red; stroke:currentColor; stroke-width:0.50; stroke-linecap:butt; stroke-linejoin:miter">
	<g style="stroke:none; fill:rgb(0,0,0); font-family:{}; font-size:10.00pt; text-anchor:end" transform="translate(537.5,27.0)">
		<text><tspan>y = 1</tspan></text>
	</g>
	<use color="rgb(255,   0,   0)" transform="translate(256.4,129.9) scale(6.00)" xlink:href="#gpPt0"/>
	<use color="rgb(255,   0,   0)" transform="translate(227.9,132.0) scale(6.00)" xlink:href="#gpPt0"/>
	<use color="rgb(255,   0,   0)" transform="translate(204.0,130.9) scale(6.00)" xlink:href="#gpPt0"/>
	<use color="rgb(255,   0,   0)" transform="translate(172.1,159.1) scale(6.00)" xlink:href="#gpPt0"/>
	<use color="rgb(255,   0,   0)" transform="translate(144.7,164.5) scale(6.00)" xlink:href="#gpPt0"/>
	<use color="rgb(255,   0,   0)" transform="translate(142.4,202.4) scale(6.00)" xlink:href="#gpPt0"/>
	<use color="rgb(255,   0,   0)" transform="translate(167.5,228.4) scale(6.00)" xlink:href="#gpPt0"/>
	<use color="rgb(255,   0,   0)" transform="translate(185.8,262.0) scale(6.00)" xlink:href="#gpPt0"/>
	<use color="rgb(255,   0,   0)" transform="translate(249.6,293.4) scale(6.00)" xlink:href="#gpPt0"/>
	<use color="rgb(255,   0,   0)" transform="translate(272.4,309.6) scale(6.00)" xlink:href="#gpPt0"/>
	<use color="rgb(255,   0,   0)" transform="translate(322.5,317.2) scale(6.00)" xlink:href="#gpPt0"/>
	<use color="rgb(255,   0,   0)" transform="translate(351.0,310.7) scale(6.00)" xlink:href="#gpPt0"/>
	<use color="rgb(255,   0,   0)" transform="translate(372.7,269.5) scale(6.00)" xlink:href="#gpPt0"/>
	<use color="rgb(255,   0,   0)" transform="translate(392.1,260.9) scale(6.00)" xlink:href="#gpPt0"/>
	<use color="rgb(255,   0,   0)" transform="translate(354.5,161.3) scale(6.00)" xlink:href="#gpPt0"/>
	<use color="rgb(255,   0,   0)" transform="translate(310.0,147.2) scale(6.00)" xlink:href="#gpPt0"/>
	<use color="rgb(255,   0,   0)" transform="translate(279.2,153.7) scale(6.00)" xlink:href="#gpPt0"/>
	<use color="rgb(255,   0,   0)" transform="translate(237.0,112.5) scale(6.00)" xlink:href="#gpPt0"/>
	<use color="rgb(255,   0,   0)" transform="translate(212.0,129.9) scale(6.00)" xlink:href="#gpPt0"/>
	<use color="rgb(255,   0,   0)" transform="translate(151.6,139.6) scale(6.00)" xlink:href="#gpPt0"/>
	<use color="rgb(255,   0,   0)" transform="translate(126.5,145.0) scale(6.00)" xlink:href="#gpPt0"/>
	<use color="rgb(255,   0,   0)" transform="translate(121.9,184.0) scale(6.00)" xlink:href="#gpPt0"/>
	<use color="rgb(255,   0,   0)" transform="translate(128.8,232.7) scale(6.00)" xlink:href="#gpPt0"/>
	<use color="rgb(255,   0,   0)" transform="translate(163.0,273.9) scale(6.00)" xlink:href="#gpPt0"/>
	<use color="rgb(255,   0,   0)" transform="translate(223.4,292.3) scale(6.00)" xlink:href="#gpPt0"/>
	<use color="rgb(255,   0,   0)" transform="translate(286.1,322.6) scale(6.00)" xlink:href="#gpPt0"/>
	<use color="rgb(255,   0,   0)" transform="translate(338.5,312.8) scale(6.00)" xlink:href="#gpPt0"/>
	<use color="rgb(255,   0,   0)" transform="translate(379.5,312.8) scale(6.00)" xlink:href="#gpPt0"/>
	<use color="rgb(255,   0,   0)" transform="translate(218.8,152.6) scale(6.00)" xlink:href="#gpPt0"/>
	<use color="rgb(255,   0,   0)" transform="translate(188.0,118.0) scale(6.00)" xlink:href="#gpPt0"/>
	<use color="rgb(255,   0,   0)" transform="translate(193.7,90.9) scale(6.00)" xlink:href="#gpPt0"/>
	<use color="rgb(255,   0,   0)" transform="translate(214.2,114.7) scale(6.00)" xlink:href="#gpPt0"/>
	<use color="rgb(255,   0,   0)" transform="translate(212.0,137.4) scale(6.00)" xlink:href="#gpPt0"/>
	<use color="rgb(255,   0,   0)" transform="translate(190.3,163.4) scale(6.00)" xlink:href="#gpPt0"/>
	<use color="rgb(255,   0,   0)" transform="translate(174.4,187.2) scale(6.00)" xlink:href="#gpPt0"/>
	<use color="rgb(255,   0,   0)" transform="translate(186.9,229.5) scale(6.00)" xlink:href="#gpPt0"/>
	<use color="rgb(255,   0,   0)" transform="translate(199.4,265.2) scale(6.00)" xlink:href="#gpPt0"/>
	<use color="rgb(255,   0,   0)" transform="translate(233.6,260.9) scale(6.00)" xlink:href="#gpPt0"/>
	<use color="rgb(255,   0,   0)" transform="translate(258.7,257.6) scale(6.00)" xlink:href="#gpPt0"/>
	<use color="rgb(255,   0,   0)" transform="translate(291.8,294.4) scale(6.00)" xlink:href="#gpPt0"/>
	<use color="rgb(255,   0,   0)" transform="translate(304.3,267.4) scale(6.00)" xlink:href="#gpPt0"/>
	<use color="rgb(255,   0,   0)" transform="translate(341.9,260.9) scale(6.00)" xlink:href="#gpPt0"/>
	<use color="rgb(255,   0,   0)" transform="translate(373.8,254.4) scale(6.00)" xlink:href="#gpPt0"/>
	<use color="rgb(255,   0,   0)" transform="translate(337.4,231.6) scale(6.00)" xlink:href="#gpPt0"/>
	<use color="rgb(255,   0,   0)" transform="translate(370.4,210.0) scale(6.00)" xlink:href="#gpPt0"/>
	<use color="rgb(255,   0,   0)" transform="translate(360.2,193.7) scale(6.00)" xlink:href="#gpPt0"/>
	<use color="rgb(255,   0,   0)" transform="translate(389.8,167.8) scale(6.00)" xlink:href="#gpPt0"/>
	<use color="rgb(255,   0,   0)" transform="translate(290.6,155.8) scale(6.00)" xlink:href="#gpPt0"/>
	<use color="rgb(255,   0,   0)" transform="translate(333.9,134.2) scale(6.00)" xlink:href="#gpPt0"/>
	<use color="rgb(255,   0,   0)" transform="translate(310.0,130.9) scale(6.00)" xlink:href="#gpPt0"/>
	<use color="rgb(255,   0,   0)" transform="translate(273.5,148.3) scale(6.00)" xlink:href="#gpPt0"/>
	<use color="rgb(255,   0,   0)" transform="translate(245.0,174.3) scale(6.00)" xlink:href="#gpPt0"/>
	<use color="rgb(255,   0,   0)" transform="translate(227.9,151.5) scale(6.00)" xlink:href="#gpPt0"/>
	<use color="rgb(255,   0,   0)" transform="translate(205.1,180.8) scale(6.00)" xlink:href="#gpPt0"/>
	<use color="rgb(255,   0,   0)" transform="translate(205.1,207.8) scale(6.00)" xlink:href="#gpPt0"/>
	<use color="rgb(255,   0,   0)" transform="translate(159.5,201.3) scale(6.00)" xlink:href="#gpPt0"/>
	<use color="rgb(255,   0,   0)" transform="translate(202.9,236.0) scale(6.00)" xlink:href="#gpPt0"/>
	<use color="rgb(255,   0,   0)" transform="translate(218.8,273.9) scale(6.00)" xlink:href="#gpPt0"/>
	<use color="rgb(255,   0,   0)" transform="translate(489.7,23.3) scale(6.00)" xlink:href="#gpPt0"/>
</g>
	</g>
	<g id="gnuplot_plot_2a"><title>gnuplot_plot_2a</title>
<g style="fill:none; color:green; stroke:currentColor; stroke-width:0.50; stroke-linecap:butt; stroke-linejoin:miter">
	<g style="stroke:none; fill:rgb(0,0,0); font-family:{}; font-size:10.00pt; text-anchor:end" transform="translate(537.5,39.0)">
		<text><tspan>y = 0</tspan></text>
	</g>
	<use color="rgb(  0,   0, 255)" transform="translate(282.6,95.2) scale(6.00)" xlink:href="#gpPt5"/>
	<use color="rgb(  0,   0, 255)" transform="translate(290.6,118.0) scale(6.00)" xlink:href="#gpPt5"/>
	<use color="rgb(  0,   0, 255)" transform="translate(305.4,141.8) scale(6.00)" xlink:href="#gpPt5"/>
	<use color="rgb(  0,   0, 255)" transform="translate(346.5,121.2) scale(6.00)" xlink:href="#gpPt5"/>
	<use color="rgb(  0,   0, 255)" transform="translate(368.1,125.5) scale(6.00)" xlink:href="#gpPt5"/>
	<use color="rgb(  0,   0, 255)" transform="translate(365.9,145.0) scale(6.00)" xlink:href="#gpPt5"/>
	<use color="rgb(  0,   0, 255)" transform="translate(397.8,159.1) scale(6.00)" xlink:href="#gpPt5"/>
	<use color="rgb(  0,   0, 255)" transform="translate(429.7,179.7) scale(6.00)" xlink:href="#gpPt5"/>
	<use color="rgb(  0,   0, 255)" transform="translate(409.2,192.7) scale(6.00)" xlink:href="#gpPt5"/>
	<use color="rgb(  0,   0, 255)" transform="translate(436.5,220.8) scale(6.00)" xlink:href="#gpPt5"/>
	<use color="rgb(  0,   0, 255)" transform="translate(432.0,231.6) scale(6.00)" xlink:href="#gpPt5"/>
	<use color="rgb(  0,   0, 255)" transform="translate(417.1,245.7) scale(6.00)" xlink:href="#gpPt5"/>
	<use color="rgb(  0,   0, 255)" transform="translate(424.0,264.1) scale(6.00)" xlink:href="#gpPt5"/>
	<use color="rgb(  0,   0, 255)" transform="translate(414.9,287.9) scale(6.00)" xlink:href="#gpPt5"/>
	<use color="rgb(  0,   0, 255)" transform="translate(410.3,310.7) scale(6.00)" xlink:href="#gpPt5"/>
	<use color="rgb(  0,   0, 255)" transform="translate(403.5,316.1) scale(6.00)" xlink:href="#gpPt5"/>
	<use color="rgb(  0,   0, 255)" transform="translate(363.6,343.2) scale(6.00)" xlink:href="#gpPt5"/>
	<use color="rgb(  0,   0, 255)" transform="translate(348.8,321.5) scale(6.00)" xlink:href="#gpPt5"/>
	<use color="rgb(  0,   0, 255)" transform="translate(338.5,295.5) scale(6.00)" xlink:href="#gpPt5"/>
	<use color="rgb(  0,   0, 255)" transform="translate(315.7,319.3) scale(6.00)" xlink:href="#gpPt5"/>
	<use color="rgb(  0,   0, 255)" transform="translate(303.2,347.5) scale(6.00)" xlink:href="#gpPt5"/>
	<use color="rgb(  0,   0, 255)" transform="translate(263.3,345.3) scale(6.00)" xlink:href="#gpPt5"/>
	<use color="rgb(  0,   0, 255)" transform="translate(275.8,319.3) scale(6.00)" xlink:href="#gpPt5"/>
	<use color="rgb(  0,   0, 255)" transform="translate(220.0,299.9) scale(6.00)" xlink:href="#gpPt5"/>
	<use color="rgb(  0,   0, 255)" transform="translate(165.2,294.4) scale(6.00)" xlink:href="#gpPt5"/>
	<use color="rgb(  0,   0, 255)" transform="translate(168.7,271.7) scale(6.00)" xlink:href="#gpPt5"/>
	<use color="rgb(  0,   0, 255)" transform="translate(99.1,271.7) scale(6.00)" xlink:href="#gpPt5"/>
	<use color="rgb(  0,   0, 255)" transform="translate(108.2,227.3) scale(6.00)" xlink:href="#gpPt5"/>
	<use color="rgb(  0,   0, 255)" transform="translate(96.8,190.5) scale(6.00)" xlink:href="#gpPt5"/>
	<use color="rgb(  0,   0, 255)" transform="translate(108.2,132.0) scale(6.00)" xlink:href="#gpPt5"/>
	<use color="rgb(  0,   0, 255)" transform="translate(166.4,128.8) scale(6.00)" xlink:href="#gpPt5"/>
	<use color="rgb(  0,   0, 255)" transform="translate(170.9,97.4) scale(6.00)" xlink:href="#gpPt5"/>
	<use color="rgb(  0,   0, 255)" transform="translate(145.9,99.5) scale(6.00)" xlink:href="#gpPt5"/>
	<use color="rgb(  0,   0, 255)" transform="translate(137.9,128.8) scale(6.00)" xlink:href="#gpPt5"/>
	<use color="rgb(  0,   0, 255)" transform="translate(266.7,118.0) scale(6.00)" xlink:href="#gpPt5"/>
	<use color="rgb(  0,   0, 255)" transform="translate(257.6,97.4) scale(6.00)" xlink:href="#gpPt5"/>
	<use color="rgb(  0,   0, 255)" transform="translate(225.6,86.6) scale(6.00)" xlink:href="#gpPt5"/>
	<use color="rgb(  0,   0, 255)" transform="translate(230.2,69.2) scale(6.00)" xlink:href="#gpPt5"/>
	<use color="rgb(  0,   0, 255)" transform="translate(303.2,72.5) scale(6.00)" xlink:href="#gpPt5"/>
	<use color="rgb(  0,   0, 255)" transform="translate(324.8,111.5) scale(6.00)" xlink:href="#gpPt5"/>
	<use color="rgb(  0,   0, 255)" transform="translate(372.7,101.7) scale(6.00)" xlink:href="#gpPt5"/>
	<use color="rgb(  0,   0, 255)" transform="translate(409.2,135.3) scale(6.00)" xlink:href="#gpPt5"/>
	<use color="rgb(  0,   0, 255)" transform="translate(379.5,138.5) scale(6.00)" xlink:href="#gpPt5"/>
	<use color="rgb(  0,   0, 255)" transform="translate(458.2,218.6) scale(6.00)" xlink:href="#gpPt5"/>
	<use color="rgb(  0,   0, 255)" transform="translate(237.0,319.3) scale(6.00)" xlink:href="#gpPt5"/>
	<use color="rgb(  0,   0, 255)" transform="translate(199.4,328.0) scale(6.00)" xlink:href="#gpPt5"/>
	<use color="rgb(  0,   0, 255)" transform="translate(216.5,287.9) scale(6.00)" xlink:href="#gpPt5"/>
	<use color="rgb(  0,   0, 255)" transform="translate(149.3,278.2) scale(6.00)" xlink:href="#gpPt5"/>
	<use color="rgb(  0,   0, 255)" transform="translate(153.8,253.3) scale(6.00)" xlink:href="#gpPt5"/>
	<use color="rgb(  0,   0, 255)" transform="translate(189.2,242.5) scale(6.00)" xlink:href="#gpPt5"/>
	<use color="rgb(  0,   0, 255)" transform="translate(125.3,243.5) scale(6.00)" xlink:href="#gpPt5"/>
	<use color="rgb(  0,   0, 255)" transform="translate(115.1,265.2) scale(6.00)" xlink:href="#gpPt5"/>
	<use color="rgb(  0,   0, 255)" transform="translate(127.6,295.5) scale(6.00)" xlink:href="#gpPt5"/>
	<use color="rgb(  0,   0, 255)" transform="translate(102.5,245.7) scale(6.00)" xlink:href="#gpPt5"/>
	<use color="rgb(  0,   0, 255)" transform="translate(82.0,187.2) scale(6.00)" xlink:href="#gpPt5"/>
	<use color="rgb(  0,   0, 255)" transform="translate(103.7,153.7) scale(6.00)" xlink:href="#gpPt5"/>
	<use color="rgb(  0,   0, 255)" transform="translate(128.8,160.2) scale(6.00)" xlink:href="#gpPt5"/>
	<use color="rgb(  0,   0, 255)" transform="translate(150.4,85.5) scale(6.00)" xlink:href="#gpPt5"/>
	<use color="rgb(  0,   0, 255)" transform="translate(245.0,85.5) scale(6.00)" xlink:href="#gpPt5"/>
	<use color="rgb(  0,   0, 255)" transform="translate(489.7,35.3) scale(6.00)" xlink:href="#gpPt5"/>
</g>
	</g>
	<g id="gnuplot_plot_3a"><title>gnuplot_plot_3a</title>
<g style="fill:none; color:white; stroke:rgb(  0,   0, 255); stroke-width:4.00; stroke-linecap:butt; stroke-linejoin:miter">
</g>
<g style="fill:none; color:red; stroke:currentColor; stroke-width:4.00; stroke-linecap:butt; stroke-linejoin:miter">
	<path d="M277.2,324.6 L278.4,324.7 L280.0,324.9 L281.7,325.0 L283.3,325.1 L285.0,325.3 L286.7,325.4 L288.3,325.4    L290.0,325.5 L291.6,325.6 L293.3,325.6 L294.9,325.7 L296.6,325.7 L298.2,325.7 L299.9,325.7 L301.5,325.7    L303.2,325.7 L304.8,325.6 L306.5,325.6 L308.2,325.5 L309.8,325.4 L311.5,325.3 L313.1,325.2 L314.8,325.1    L316.4,324.9 L318.1,324.8 L319.3,324.6 L319.7,324.6 L321.4,324.4 L323.0,324.1 L324.7,323.9 L326.4,323.6    L327.7,323.4 L328.0,323.3 L329.7,323.0 L331.3,322.7 L333.0,322.3 L333.8,322.2 L334.6,322.0 L336.3,321.5    L337.9,321.1 L338.6,320.9 L339.6,320.6 L341.2,320.1 L342.6,319.7 L342.9,319.6 L344.6,319.0 L346.2,318.4    L347.9,317.8 L349.3,317.2 L349.5,317.1 L351.2,316.4 L352.0,316.0 L352.8,315.6 L354.5,314.8 L354.6,314.7    L356.1,313.9 L356.9,313.5 L357.8,313.0 L359.0,312.2 L359.4,312.0 L361.0,311.0 L361.1,310.9 L362.8,309.8    L364.4,308.6 L364.5,308.5 L366.1,307.3 L367.6,306.1 L367.7,306.0 L369.0,304.8 L369.4,304.5 L370.4,303.6    L371.0,303.0 L371.6,302.3 L372.7,301.3 L372.9,301.1 L374.0,299.9 L374.3,299.5 L375.1,298.6 L376.0,297.5    L376.1,297.4 L377.1,296.1 L377.6,295.5 L378.1,294.9 L379.0,293.7 L379.3,293.2 L379.8,292.4 L380.6,291.2    L381.0,290.7 L381.4,290.0 L382.2,288.7 L382.6,288.0 L382.9,287.5 L383.6,286.2 L384.3,285.0 L384.9,283.8    L385.5,282.5 L385.9,281.7 L386.1,281.3 L386.7,280.0 L387.2,278.8 L387.6,278.0 L387.7,277.6 L388.2,276.3    L388.7,275.1 L389.2,273.9 L389.2,273.7 L389.6,272.6 L390.1,271.4 L390.5,270.1 L390.9,268.9 L390.9,268.8    L391.2,267.7 L391.6,266.4 L391.9,265.2 L392.3,263.9 L392.5,262.9 L392.6,262.7 L392.9,261.5 L393.2,260.2    L393.5,259.0 L393.7,257.8 L394.0,256.5 L394.2,255.4 L394.2,255.3 L394.4,254.0 L394.6,252.8 L394.9,251.6    L395.0,250.3 L395.2,249.1 L395.4,247.8 L395.6,246.6 L395.7,245.4 L395.8,244.1 L396.0,242.9 L396.1,241.7    L396.2,240.4 L396.3,239.2 L396.4,237.9 L396.4,236.7 L396.5,235.5 L396.6,234.2 L396.6,233.0 L396.6,231.7    L396.7,230.5 L396.7,229.3 L396.7,228.0 L396.7,226.8 L396.7,225.6 L396.7,224.3 L396.6,223.1 L396.6,221.8    L396.5,220.6 L396.5,219.4 L396.4,218.1 L396.3,216.9 L396.2,215.6 L396.1,214.4 L396.0,213.2 L395.9,211.9    L395.8,211.5 L395.8,210.7 L395.6,209.5 L395.5,208.2 L395.3,207.0 L395.1,205.7 L394.9,204.5 L394.7,203.3    L394.5,202.0 L394.3,200.8 L394.2,200.2 L394.1,199.5 L393.8,198.3 L393.5,197.1 L393.3,195.8 L393.0,194.6    L392.7,193.4 L392.5,192.8 L392.4,192.1 L392.0,190.9 L391.7,189.6 L391.3,188.4 L391.0,187.2 L390.9,186.9    L390.6,185.9 L390.2,184.7 L389.7,183.4 L389.3,182.2 L389.2,182.0 L388.9,181.0 L388.4,179.7 L387.9,178.5    L387.6,177.7 L387.4,177.3 L386.8,176.0 L386.3,174.8 L385.9,174.0 L385.7,173.5 L385.1,172.3 L384.5,171.1    L384.3,170.6 L383.8,169.8 L383.2,168.6 L382.6,167.6 L382.5,167.3 L381.7,166.1 L381.0,164.9 L381.0,164.8    L380.2,163.6 L379.4,162.4 L379.3,162.3 L378.6,161.2 L377.7,159.9 L377.6,159.9 L376.8,158.7 L376.0,157.7    L375.8,157.4 L374.8,156.2 L374.3,155.6 L373.8,155.0 L372.8,153.7 L372.7,153.6 L371.6,152.5 L371.0,151.8    L370.5,151.2 L369.4,150.1 L369.3,150.0 L368.1,148.8 L367.7,148.4 L366.7,147.5 L366.1,146.9 L365.4,146.3    L364.4,145.4 L364.0,145.1 L362.8,144.0 L362.5,143.8 L361.1,142.7 L361.0,142.6 L359.4,141.4 L359.4,141.3    L357.8,140.2 L357.7,140.1 L356.1,139.0 L355.9,138.9 L354.5,137.9 L354.1,137.6 L352.8,136.8 L352.1,136.4    L351.2,135.8 L350.1,135.1 L349.5,134.8 L348.0,133.9 L347.9,133.8 L346.2,132.9 L345.8,132.7 L344.6,132.0    L343.4,131.4 L342.9,131.2 L341.2,130.3 L341.0,130.2 L339.6,129.5 L338.4,129.0 L337.9,128.8 L336.3,128.0    L335.6,127.7 L334.6,127.3 L333.0,126.6 L332.7,126.5 L331.3,125.9 L329.7,125.2 L329.6,125.2 L328.0,124.6    L326.4,124.0 L324.7,123.4 L323.0,122.8 L322.9,122.8 L321.4,122.2 L319.7,121.7 L319.2,121.5 L318.1,121.2    L316.4,120.6 L315.2,120.3 L314.8,120.1 L313.1,119.7 L311.5,119.2 L311.0,119.0 L309.8,118.7 L308.2,118.3    L306.5,117.8 L306.4,117.8 L304.8,117.4 L303.2,117.0 L301.5,116.6 L299.9,116.2 L298.2,115.8 L296.6,115.5    L296.0,115.3 L294.9,115.1 L293.3,114.7 L291.6,114.4 L290.1,114.1 L290.0,114.1 L288.3,113.8 L286.7,113.4    L285.0,113.1 L283.4,112.9 L283.3,112.8 L281.7,112.6 L280.0,112.3 L278.4,112.0 L276.7,111.8 L275.8,111.6    L275.1,111.5 L273.4,111.3 L271.8,111.0 L270.1,110.8 L268.5,110.6 L266.9,110.4 L266.8,110.4 L265.1,110.2    L263.5,110.0 L261.8,109.8 L260.2,109.6 L258.5,109.4 L256.9,109.3 L255.7,109.1 L255.2,109.1 L253.6,108.9    L251.9,108.8 L250.3,108.7 L248.6,108.5 L246.9,108.4 L245.3,108.3 L243.6,108.2 L242.0,108.1 L240.3,108.0    L238.7,107.9 L238.5,107.9 L237.0,107.8 L235.4,107.8 L233.7,107.7 L232.1,107.6 L230.4,107.6 L228.7,107.6    L227.1,107.5 L225.4,107.5 L223.8,107.5 L222.1,107.5 L220.5,107.5 L218.8,107.5 L217.2,107.5 L215.5,107.6    L213.9,107.6 L212.2,107.6 L210.5,107.7 L208.9,107.8 L207.2,107.8 L206.2,107.9 L205.6,107.9 L203.9,108.0    L202.3,108.1 L200.6,108.3 L199.0,108.4 L197.3,108.5 L195.7,108.7 L194.0,108.9 L192.3,109.0 L191.4,109.1    L190.7,109.2 L189.0,109.4 L187.4,109.7 L185.7,109.9 L184.1,110.1 L182.6,110.4 L182.4,110.4 L180.8,110.7    L179.1,111.0 L177.5,111.3 L175.9,111.6 L175.8,111.6 L174.1,112.0 L172.5,112.4 L170.8,112.7 L170.4,112.9    L169.2,113.2 L167.5,113.6 L165.9,114.1 L165.8,114.1 L164.2,114.6 L162.6,115.1 L161.8,115.3 L160.9,115.6    L159.3,116.2 L158.2,116.6 L157.6,116.8 L155.9,117.4 L155.0,117.8 L154.3,118.1 L152.6,118.8 L152.1,119.0    L151.0,119.6 L149.5,120.3 L149.3,120.4 L147.7,121.2 L147.1,121.5 L146.0,122.1 L144.9,122.8 L144.4,123.1    L142.9,124.0 L142.7,124.1 L141.1,125.2 L141.0,125.2 L139.4,126.4 L139.3,126.5 L137.7,127.7 L136.2,129.0    L136.1,129.0 L134.7,130.2 L134.4,130.5 L133.4,131.4 L132.8,132.1 L132.2,132.7 L131.1,133.8 L131.0,133.9    L130.0,135.1 L129.5,135.7 L129.0,136.4 L128.0,137.6 L127.8,137.9 L127.1,138.9 L126.3,140.1 L126.2,140.3    L125.5,141.3 L124.7,142.6 L124.5,143.0 L124.1,143.8 L123.4,145.1 L122.9,146.2 L122.8,146.3 L122.2,147.5    L121.7,148.8 L121.2,150.0 L120.8,151.2 L120.3,152.5 L119.9,153.7 L119.6,155.0 L119.5,155.0 L119.2,156.2    L118.9,157.4 L118.6,158.7 L118.3,159.9 L118.1,161.2 L117.9,162.4 L117.7,163.6 L117.5,164.9 L117.4,166.1    L117.2,167.3 L117.1,168.6 L117.0,169.8 L117.0,171.1 L116.9,172.3 L116.9,173.5 L116.8,174.8 L116.8,176.0    L116.8,177.3 L116.9,178.5 L116.9,179.7 L116.9,181.0 L117.0,182.2 L117.1,183.4 L117.2,184.7 L117.3,185.9    L117.4,187.2 L117.6,188.4 L117.7,189.6 L117.9,190.9 L117.9,191.1 L118.0,192.1 L118.2,193.4 L118.4,194.6    L118.6,195.8 L118.8,197.1 L119.1,198.3 L119.3,199.5 L119.5,200.6 L119.6,200.8 L119.8,202.0 L120.1,203.3    L120.4,204.5 L120.7,205.7 L121.0,207.0 L121.2,207.6 L121.4,208.2 L121.7,209.5 L122.0,210.7 L122.4,211.9    L122.8,213.2 L122.9,213.5 L123.1,214.4 L123.5,215.6 L123.9,216.9 L124.3,218.1 L124.5,218.6 L124.8,219.4    L125.2,220.6 L125.7,221.8 L126.1,223.1 L126.2,223.2 L126.6,224.3 L127.1,225.6 L127.6,226.8 L127.8,227.4    L128.1,228.0 L128.6,229.3 L129.1,230.5 L129.5,231.3 L129.7,231.7 L130.2,233.0 L130.8,234.2 L131.1,234.9    L131.4,235.5 L132.0,236.7 L132.6,237.9 L132.8,238.3 L133.2,239.2 L133.8,240.4 L134.4,241.5 L134.5,241.7    L135.2,242.9 L135.8,244.1 L136.1,244.6 L136.5,245.4 L137.2,246.6 L137.7,247.5 L138.0,247.8 L138.7,249.1    L139.4,250.2 L139.5,250.3 L140.3,251.6 L141.0,252.8 L141.1,252.8 L141.9,254.0 L142.7,255.3 L143.5,256.5    L144.4,257.7 L144.4,257.8 L145.3,259.0 L146.0,260.0 L146.2,260.2 L147.1,261.5 L147.7,262.2 L148.1,262.7    L149.1,263.9 L149.3,264.3 L150.1,265.2 L151.0,266.3 L151.1,266.4 L152.1,267.7 L152.6,268.3 L153.2,268.9    L154.3,270.1 L154.3,270.2 L155.4,271.4 L155.9,272.0 L156.6,272.6 L157.6,273.7 L157.7,273.9 L158.9,275.1    L159.3,275.4 L160.2,276.3 L160.9,277.0 L161.4,277.6 L162.6,278.6 L162.8,278.8 L164.1,280.0 L164.2,280.2    L165.5,281.3 L165.9,281.6 L166.9,282.5 L167.5,283.1 L168.3,283.8 L169.2,284.5 L169.8,285.0 L170.8,285.8    L171.4,286.2 L172.5,287.1 L173.0,287.5 L174.1,288.4 L174.6,288.7 L175.8,289.6 L176.3,290.0 L177.5,290.8    L178.0,291.2 L179.1,291.9 L179.8,292.4 L180.8,293.1 L181.7,293.7 L182.4,294.2 L183.6,294.9 L184.1,295.2    L185.6,296.1 L185.7,296.3 L187.4,297.3 L187.6,297.4 L189.0,298.2 L189.7,298.6 L190.7,299.2 L191.9,299.9    L192.3,300.1 L194.0,301.0 L194.2,301.1 L195.7,301.9 L196.6,302.3 L197.3,302.7 L199.0,303.5 L199.0,303.6    L200.6,304.3 L201.6,304.8 L202.3,305.1 L203.9,305.9 L204.3,306.1 L205.6,306.6 L207.1,307.3 L207.2,307.3    L208.9,308.0 L210.1,308.5 L210.5,308.7 L212.2,309.4 L213.1,309.8 L213.9,310.0 L215.5,310.7 L216.4,311.0    L217.2,311.3 L218.8,311.9 L219.8,312.2 L220.5,312.5 L222.1,313.0 L223.5,313.5 L223.8,313.6 L225.4,314.1    L227.1,314.7 L227.3,314.7 L228.7,315.2 L230.4,315.7 L231.4,316.0 L232.1,316.1 L233.7,316.6 L235.4,317.1    L235.9,317.2 L237.0,317.5 L238.7,317.9 L240.3,318.3 L240.7,318.4 L242.0,318.7 L243.6,319.1 L245.3,319.5    L246.0,319.7 L246.9,319.9 L248.6,320.2 L250.3,320.6 L251.9,320.9 L253.6,321.2 L255.2,321.6 L256.9,321.9    L258.5,322.1 L258.6,322.2 L260.2,322.4 L261.8,322.7 L263.5,322.9 L265.1,323.2 L266.6,323.4 L266.8,323.4    L268.5,323.6 L270.1,323.8 L271.8,324.0 L273.4,324.2 L275.1,324.4 L276.7,324.6 L277.2,324.6  h0.01" stroke="rgb(255,   0, 255)"/></g>
	</g>
<g style="fill:none; color:white; stroke:rgb(255,   0, 255); stroke-width:0.50; stroke-linecap:butt; stroke-linejoin:miter">
</g>
<g style="fill:none; color:black; stroke:currentColor; stroke-width:0.50; stroke-linecap:butt; stroke-linejoin:miter">
</g>
</g>
</svg>