<svg height="420px" viewBox="0 0 560 420" width="560px" xmlns="http://www.w3.org/2000/svg" xmlns:xlink="http://www.w3.org/1999/xlink">

<title>Gnuplot</title>
<desc>Produced by GNUPLOT 4.6 patchlevel 2 </desc>

<g id="gnuplot_canvas">

<rect fill="none" height="420" width="560" x="0" y="0"/>
<defs>

	<circle id="gpDot" r="0.5" stroke-width="0.5"/>
	<path d="M-1,0 h2 M0,-1 v2" id="gpPt0" stroke="currentColor" stroke-width="0.333"/>
	<path d="M-1,-1 L1,1 M1,-1 L-1,1" id="gpPt1" stroke="currentColor" stroke-width="0.333"/>
	<path d="M-1,0 L1,0 M0,-1 L0,1 M-1,-1 L1,1 M-1,1 L1,-1" id="gpPt2" stroke="currentColor" stroke-width="0.333"/>
	<rect height="2" id="gpPt3" stroke="currentColor" stroke-width="0.333" width="2" x="-1" y="-1"/>
	<rect fill="currentColor" height="2" id="gpPt4" stroke="currentColor" stroke-width="0.333" width="2" x="-1" y="-1"/>
	<circle cx="0" cy="0" id="gpPt5" r="1" stroke="currentColor" stroke-width="0.333"/>
	<use fill="currentColor" id="gpPt6" stroke="none" xlink:href="#gpPt5"/>
	<path d="M0,-1.33 L-1.33,0.67 L1.33,0.67 z" id="gpPt7" stroke="currentColor" stroke-width="0.333"/>
	<use fill="currentColor" id="gpPt8" stroke="none" xlink:href="#gpPt7"/>
	<use id="gpPt9" stroke="currentColor" transform="rotate(180)" xlink:href="#gpPt7"/>
	<use fill="currentColor" id="gpPt10" stroke="none" xlink:href="#gpPt9"/>
	<use id="gpPt11" stroke="currentColor" transform="rotate(45)" xlink:href="#gpPt3"/>
	<use fill="currentColor" id="gpPt12" stroke="none" xlink:href="#gpPt11"/>
</defs>
<g style="fill:none; color:white; stroke:currentColor; stroke-width:1.00; stroke-linecap:butt; stroke-linejoin:miter">
</g>
<g style="fill:none; color:black; stroke:currentColor; stroke-width:1.00; stroke-linecap:butt; stroke-linejoin:miter">
	<g style="stroke:none; shape-rendering:crispEdges">
		<polygon fill="rgb(255, 255, 255)" points="42.8,381.6 543.0,381.6 543.0,11.4 42.8,11.4 "/>
	</g>
	<path d="M42.8,381.6 L42.8,11.4 L543.0,11.4 L543.0,381.6 L42.8,381.6  h0.01" stroke="black"/></g>
<g style="fill:none; color:black; stroke:black; stroke-width:0.50; stroke-linecap:butt; stroke-linejoin:miter">
</g>
<g style="fill:none; color:gray; stroke:currentColor; stroke-width:0.50; stroke-linecap:butt; stroke-linejoin:miter">
	<path class="gridline" d="M42.8,381.6 L543.1,381.6  h0.01" stroke="gray" stroke-dasharray=" 2,4"/></g>
<g style="fill:none; color:black; stroke:currentColor; stroke-width:0.50; stroke-linecap:butt; stroke-linejoin:miter">
	<path d="M42.8,381.6 L51.2,381.6 M543.1,381.6 L534.7,381.6  h0.01" stroke="black"/>	<g style="stroke:none; fill:rgb(0,0,0); font-family:{}; font-size:10.00pt; text-anchor:end" transform="translate(37.2,385.3)">
		<text><tspan>0.7</tspan></text>
	</g>
</g>
<g style="fill:none; color:gray; stroke:currentColor; stroke-width:0.50; stroke-linecap:butt; stroke-linejoin:miter">
	<path class="gridline" d="M42.8,328.7 L543.1,328.7  h0.01" stroke="gray" stroke-dasharray=" 2,4"/></g>
<g style="fill:none; color:black; stroke:currentColor; stroke-width:0.50; stroke-linecap:butt; stroke-linejoin:miter">
	<path d="M42.8,328.7 L51.2,328.7 M543.1,328.7 L534.7,328.7  h0.01" stroke="black"/>	<g style="stroke:none; fill:rgb(0,0,0); font-family:{}; font-size:10.00pt; text-anchor:end" transform="translate(37.2,332.4)">
		<text><tspan>0.8</tspan></text>
	</g>
</g>
<g style="fill:none; color:gray; stroke:currentColor; stroke-width:0.50; stroke-linecap:butt; stroke-linejoin:miter">
	<path class="gridline" d="M42.8,275.8 L543.1,275.8  h0.01" stroke="gray" stroke-dasharray=" 2,4"/></g>
<g style="fill:none; color:black; stroke:currentColor; stroke-width:0.50; stroke-linecap:butt; stroke-linejoin:miter">
	<path d="M42.8,275.8 L51.2,275.8 M543.1,275.8 L534.7,275.8  h0.01" stroke="black"/>	<g style="stroke:none; fill:rgb(0,0,0); font-family:{}; font-size:10.00pt; text-anchor:end" transform="translate(37.2,279.5)">
		<text><tspan>0.9</tspan></text>
	</g>
</g>
<g style="fill:none; color:gray; stroke:currentColor; stroke-width:0.50; stroke-linecap:butt; stroke-linejoin:miter">
	<path class="gridline" d="M42.8,222.9 L543.1,222.9  h0.01" stroke="gray" stroke-dasharray=" 2,4"/></g>
<g style="fill:none; color:black; stroke:currentColor; stroke-width:0.50; stroke-linecap:butt; stroke-linejoin:miter">
	<path d="M42.8,222.9 L51.2,222.9 M543.1,222.9 L534.7,222.9  h0.01" stroke="black"/>	<g style="stroke:none; fill:rgb(0,0,0); font-family:{}; font-size:10.00pt; text-anchor:end" transform="translate(37.2,226.6)">
		<text><tspan>1</tspan></text>
	</g>
</g>
<g style="fill:none; color:gray; stroke:currentColor; stroke-width:0.50; stroke-linecap:butt; stroke-linejoin:miter">
	<path class="gridline" d="M42.8,170.0 L543.1,170.0  h0.01" stroke="gray" stroke-dasharray=" 2,4"/></g>
<g style="fill:none; color:black; stroke:currentColor; stroke-width:0.50; stroke-linecap:butt; stroke-linejoin:miter">
	<path d="M42.8,170.0 L51.2,170.0 M543.1,170.0 L534.7,170.0  h0.01" stroke="black"/>	<g style="stroke:none; fill:rgb(0,0,0); font-family:{}; font-size:10.00pt; text-anchor:end" transform="translate(37.2,173.7)">
		<text><tspan>1.1</tspan></text>
	</g>
</g>
<g style="fill:none; color:gray; stroke:currentColor; stroke-width:0.50; stroke-linecap:butt; stroke-linejoin:miter">
	<path class="gridline" d="M42.8,117.1 L543.1,117.1  h0.01" stroke="gray" stroke-dasharray=" 2,4"/></g>
<g style="fill:none; color:black; stroke:currentColor; stroke-width:0.50; stroke-linecap:butt; stroke-linejoin:miter">
	<path d="M42.8,117.1 L51.2,117.1 M543.1,117.1 L534.7,117.1  h0.01" stroke="black"/>	<g style="stroke:none; fill:rgb(0,0,0); font-family:{}; font-size:10.00pt; text-anchor:end" transform="translate(37.2,120.8)">
		<text><tspan>1.2</tspan></text>
	</g>
</g>
<g style="fill:none; color:gray; stroke:currentColor; stroke-width:0.50; stroke-linecap:butt; stroke-linejoin:miter">
	<path class="gridline" d="M42.8,64.2 L543.1,64.2  h0.01" stroke="gray" stroke-dasharray=" 2,4"/></g>
<g style="fill:none; color:black; stroke:currentColor; stroke-width:0.50; stroke-linecap:butt; stroke-linejoin:miter">
	<path d="M42.8,64.2 L51.2,64.2 M543.1,64.2 L534.7,64.2  h0.01" stroke="black"/>	<g style="stroke:none; fill:rgb(0,0,0); font-family:{}; font-size:10.00pt; text-anchor:end" transform="translate(37.2,67.9)">
		<text><tspan>1.3</tspan></text>
	</g>
</g>
<g style="fill:none; color:gray; stroke:currentColor; stroke-width:0.50; stroke-linecap:butt; stroke-linejoin:miter">
	<path class="gridline" d="M42.8,11.3 L543.1,11.3  h0.01" stroke="gray" stroke-dasharray=" 2,4"/></g>
<g style="fill:none; color:black; stroke:currentColor; stroke-width:0.50; stroke-linecap:butt; stroke-linejoin:miter">
	<path d="M42.8,11.3 L51.2,11.3 M543.1,11.3 L534.7,11.3  h0.01" stroke="black"/>	<g style="stroke:none; fill:rgb(0,0,0); font-family:{}; font-size:10.00pt; text-anchor:end" transform="translate(37.2,15.0)">
		<text><tspan>1.4</tspan></text>
	</g>
</g>
<g style="fill:none; color:gray; stroke:currentColor; stroke-width:0.50; stroke-linecap:butt; stroke-linejoin:miter">
	<path class="gridline" d="M42.8,381.6 L42.8,11.3  h0.01" stroke="gray" stroke-dasharray=" 2,4"/></g>
<g style="fill:none; color:black; stroke:currentColor; stroke-width:0.50; stroke-linecap:butt; stroke-linejoin:miter">
	<path d="M42.8,381.6 L42.8,373.2 M42.8,11.3 L42.8,19.7  h0.01" stroke="black"/>	<g style="stroke:none; fill:rgb(0,0,0); font-family:{}; font-size:10.00pt; text-anchor:middle" transform="translate(42.8,397.3)">
		<text><tspan>1</tspan></text>
	</g>
</g>
<g style="fill:none; color:gray; stroke:currentColor; stroke-width:0.50; stroke-linecap:butt; stroke-linejoin:miter">
	<path class="gridline" d="M114.3,381.6 L114.3,11.3  h0.01" stroke="gray" stroke-dasharray=" 2,4"/></g>
<g style="fill:none; color:black; stroke:currentColor; stroke-width:0.50; stroke-linecap:butt; stroke-linejoin:miter">
	<path d="M114.3,381.6 L114.3,373.2 M114.3,11.3 L114.3,19.7  h0.01" stroke="black"/>	<g style="stroke:none; fill:rgb(0,0,0); font-family:{}; font-size:10.00pt; text-anchor:middle" transform="translate(114.3,397.3)">
		<text><tspan>2</tspan></text>
	</g>
</g>
<g style="fill:none; color:gray; stroke:currentColor; stroke-width:0.50; stroke-linecap:butt; stroke-linejoin:miter">
	<path class="gridline" d="M185.7,381.6 L185.7,11.3  h0.01" stroke="gray" stroke-dasharray=" 2,4"/></g>
<g style="fill:none; color:black; stroke:currentColor; stroke-width:0.50; stroke-linecap:butt; stroke-linejoin:miter">
	<path d="M185.7,381.6 L185.7,373.2 M185.7,11.3 L185.7,19.7  h0.01" stroke="black"/>	<g style="stroke:none; fill:rgb(0,0,0); font-family:{}; font-size:10.00pt; text-anchor:middle" transform="translate(185.7,397.3)">
		<text><tspan>3</tspan></text>
	</g>
</g>
<g style="fill:none; color:gray; stroke:currentColor; stroke-width:0.50; stroke-linecap:butt; stroke-linejoin:miter">
	<path class="gridline" d="M257.2,381.6 L257.2,11.3  h0.01" stroke="gray" stroke-dasharray=" 2,4"/></g>
<g style="fill:none; color:black; stroke:currentColor; stroke-width:0.50; stroke-linecap:butt; stroke-linejoin:miter">
	<path d="M257.2,381.6 L257.2,373.2 M257.2,11.3 L257.2,19.7  h0.01" stroke="black"/>	<g style="stroke:none; fill:rgb(0,0,0); font-family:{}; font-size:10.00pt; text-anchor:middle" transform="translate(257.2,397.3)">
		<text><tspan>4</tspan></text>
	</g>
</g>
<g style="fill:none; color:gray; stroke:currentColor; stroke-width:0.50; stroke-linecap:butt; stroke-linejoin:miter">
	<path class="gridline" d="M328.7,381.6 L328.7,11.3  h0.01" stroke="gray" stroke-dasharray=" 2,4"/></g>
<g style="fill:none; color:black; stroke:currentColor; stroke-width:0.50; stroke-linecap:butt; stroke-linejoin:miter">
	<path d="M328.7,381.6 L328.7,373.2 M328.7,11.3 L328.7,19.7  h0.01" stroke="black"/>	<g style="stroke:none; fill:rgb(0,0,0); font-family:{}; font-size:10.00pt; text-anchor:middle" transform="translate(328.7,397.3)">
		<text><tspan>5</tspan></text>
	</g>
</g>
<g style="fill:none; color:gray; stroke:currentColor; stroke-width:0.50; stroke-linecap:butt; stroke-linejoin:miter">
	<path class="gridline" d="M400.2,381.6 L400.2,11.3  h0.01" stroke="gray" stroke-dasharray=" 2,4"/></g>
<g style="fill:none; color:black; stroke:currentColor; stroke-width:0.50; stroke-linecap:butt; stroke-linejoin:miter">
	<path d="M400.2,381.6 L400.2,373.2 M400.2,11.3 L400.2,19.7  h0.01" stroke="black"/>	<g style="stroke:none; fill:rgb(0,0,0); font-family:{}; font-size:10.00pt; text-anchor:middle" transform="translate(400.2,397.3)">
		<text><tspan>6</tspan></text>
	</g>
</g>
<g style="fill:none; color:gray; stroke:currentColor; stroke-width:0.50; stroke-linecap:butt; stroke-linejoin:miter">
	<path class="gridline" d="M471.6,381.6 L471.6,11.3  h0.01" stroke="gray" stroke-dasharray=" 2,4"/></g>
<g style="fill:none; color:black; stroke:currentColor; stroke-width:0.50; stroke-linecap:butt; stroke-linejoin:miter">
	<path d="M471.6,381.6 L471.6,373.2 M471.6,11.3 L471.6,19.7  h0.01" stroke="black"/>	<g style="stroke:none; fill:rgb(0,0,0); font-family:{}; font-size:10.00pt; text-anchor:middle" transform="translate(471.6,397.3)">
		<text><tspan>7</tspan></text>
	</g>
</g>
<g style="fill:none; color:gray; stroke:currentColor; stroke-width:0.50; stroke-linecap:butt; stroke-linejoin:miter">
	<path class="gridline" d="M543.1,381.6 L543.1,11.3  h0.01" stroke="gray" stroke-dasharray=" 2,4"/></g>
<g style="fill:none; color:black; stroke:currentColor; stroke-width:0.50; stroke-linecap:butt; stroke-linejoin:miter">
	<path d="M543.1,381.6 L543.1,373.2 M543.1,11.3 L543.1,19.7  h0.01" stroke="black"/>	<g style="stroke:none; fill:rgb(0,0,0); font-family:{}; font-size:10.00pt; text-anchor:middle" transform="translate(543.1,397.3)">
		<text><tspan>8</tspan></text>
	</g>
	<path d="M42.8,11.3 L42.8,381.6 L543.1,381.6 L543.1,11.3 L42.8,11.3 Z  h0.01" stroke="black"/>	<g style="stroke:none; fill:rgb(0,0,0); font-family:{}; font-size:10.00pt; text-anchor:middle" transform="translate(12.5,196.5) rotate(-90)">
		<text><tspan>Height (m)</tspan></text>
	</g>
	<g style="stroke:none; fill:rgb(0,0,0); font-family:{}; font-size:10.00pt; text-anchor:middle" transform="translate(292.9,415.3)">
		<text><tspan>Age (yrs.)</tspan></text>
	</g>
</g>
	<g id="gnuplot_plot_1a"><title>gnuplot_plot_1a</title>
<g style="fill:none; color:red; stroke:currentColor; stroke-width:0.50; stroke-linecap:butt; stroke-linejoin:miter">
	<use color="rgb(  0, 255,   0)" transform="translate(119.0,339.7) scale(6.00)" xlink:href="#gpPt2"/>
	<use color="rgb(  0, 255,   0)" transform="translate(140.6,267.4) scale(6.00)" xlink:href="#gpPt2"/>
	<use color="rgb(  0, 255,   0)" transform="translate(152.9,273.0) scale(6.00)" xlink:href="#gpPt2"/>
	<use color="rgb(  0, 255,   0)" transform="translate(153.0,272.8) scale(6.00)" xlink:href="#gpPt2"/>
	<use color="rgb(  0, 255,   0)" transform="translate(153.5,255.2) scale(6.00)" xlink:href="#gpPt2"/>
	<use color="rgb(  0, 255,   0)" transform="translate(170.5,240.4) scale(6.00)" xlink:href="#gpPt2"/>
	<use color="rgb(  0, 255,   0)" transform="translate(179.4,241.7) scale(6.00)" xlink:href="#gpPt2"/>
	<use color="rgb(  0, 255,   0)" transform="translate(188.3,268.2) scale(6.00)" xlink:href="#gpPt2"/>
	<use color="rgb(  0, 255,   0)" transform="translate(193.9,255.0) scale(6.00)" xlink:href="#gpPt2"/>
	<use color="rgb(  0, 255,   0)" transform="translate(197.1,243.7) scale(6.00)" xlink:href="#gpPt2"/>
	<use color="rgb(  0, 255,   0)" transform="translate(209.2,276.7) scale(6.00)" xlink:href="#gpPt2"/>
	<use color="rgb(  0, 255,   0)" transform="translate(212.9,269.4) scale(6.00)" xlink:href="#gpPt2"/>
	<use color="rgb(  0, 255,   0)" transform="translate(215.2,253.4) scale(6.00)" xlink:href="#gpPt2"/>
	<use color="rgb(  0, 255,   0)" transform="translate(215.9,240.8) scale(6.00)" xlink:href="#gpPt2"/>
	<use color="rgb(  0, 255,   0)" transform="translate(223.7,195.0) scale(6.00)" xlink:href="#gpPt2"/>
	<use color="rgb(  0, 255,   0)" transform="translate(231.4,215.3) scale(6.00)" xlink:href="#gpPt2"/>
	<use color="rgb(  0, 255,   0)" transform="translate(233.9,244.2) scale(6.00)" xlink:href="#gpPt2"/>
	<use color="rgb(  0, 255,   0)" transform="translate(251.9,239.5) scale(6.00)" xlink:href="#gpPt2"/>
	<use color="rgb(  0, 255,   0)" transform="translate(260.8,182.4) scale(6.00)" xlink:href="#gpPt2"/>
	<use color="rgb(  0, 255,   0)" transform="translate(275.0,145.9) scale(6.00)" xlink:href="#gpPt2"/>
	<use color="rgb(  0, 255,   0)" transform="translate(281.8,204.9) scale(6.00)" xlink:href="#gpPt2"/>
	<use color="rgb(  0, 255,   0)" transform="translate(284.6,219.2) scale(6.00)" xlink:href="#gpPt2"/>
	<use color="rgb(  0, 255,   0)" transform="translate(287.5,240.4) scale(6.00)" xlink:href="#gpPt2"/>
	<use color="rgb(  0, 255,   0)" transform="translate(300.8,175.5) scale(6.00)" xlink:href="#gpPt2"/>
	<use color="rgb(  0, 255,   0)" transform="translate(306.4,189.3) scale(6.00)" xlink:href="#gpPt2"/>
	<use color="rgb(  0, 255,   0)" transform="translate(327.1,157.5) scale(6.00)" xlink:href="#gpPt2"/>
	<use color="rgb(  0, 255,   0)" transform="translate(331.3,205.8) scale(6.00)" xlink:href="#gpPt2"/>
	<use color="rgb(  0, 255,   0)" transform="translate(333.6,176.6) scale(6.00)" xlink:href="#gpPt2"/>
	<use color="rgb(  0, 255,   0)" transform="translate(358.4,185.7) scale(6.00)" xlink:href="#gpPt2"/>
	<use color="rgb(  0, 255,   0)" transform="translate(360.1,137.9) scale(6.00)" xlink:href="#gpPt2"/>
	<use color="rgb(  0, 255,   0)" transform="translate(361.3,181.7) scale(6.00)" xlink:href="#gpPt2"/>
	<use color="rgb(  0, 255,   0)" transform="translate(369.4,166.3) scale(6.00)" xlink:href="#gpPt2"/>
	<use color="rgb(  0, 255,   0)" transform="translate(371.7,171.5) scale(6.00)" xlink:href="#gpPt2"/>
	<use color="rgb(  0, 255,   0)" transform="translate(377.8,135.7) scale(6.00)" xlink:href="#gpPt2"/>
	<use color="rgb(  0, 255,   0)" transform="translate(380.3,148.2) scale(6.00)" xlink:href="#gpPt2"/>
	<use color="rgb(  0, 255,   0)" transform="translate(389.7,178.2) scale(6.00)" xlink:href="#gpPt2"/>
	<use color="rgb(  0, 255,   0)" transform="translate(414.3,156.6) scale(6.00)" xlink:href="#gpPt2"/>
	<use color="rgb(  0, 255,   0)" transform="translate(425.3,161.1) scale(6.00)" xlink:href="#gpPt2"/>
	<use color="rgb(  0, 255,   0)" transform="translate(434.4,118.6) scale(6.00)" xlink:href="#gpPt2"/>
	<use color="rgb(  0, 255,   0)" transform="translate(452.9,113.4) scale(6.00)" xlink:href="#gpPt2"/>
	<use color="rgb(  0, 255,   0)" transform="translate(461.9,156.7) scale(6.00)" xlink:href="#gpPt2"/>
	<use color="rgb(  0, 255,   0)" transform="translate(473.2,157.5) scale(6.00)" xlink:href="#gpPt2"/>
	<use color="rgb(  0, 255,   0)" transform="translate(477.2,110.1) scale(6.00)" xlink:href="#gpPt2"/>
	<use color="rgb(  0, 255,   0)" transform="translate(482.5,89.5) scale(6.00)" xlink:href="#gpPt2"/>
	<use color="rgb(  0, 255,   0)" transform="translate(505.0,90.8) scale(6.00)" xlink:href="#gpPt2"/>
	<use color="rgb(  0, 255,   0)" transform="translate(514.3,127.7) scale(6.00)" xlink:href="#gpPt2"/>
	<use color="rgb(  0, 255,   0)" transform="translate(524.8,122.5) scale(6.00)" xlink:href="#gpPt2"/>
	<use color="rgb(  0, 255,   0)" transform="translate(526.9,62.6) scale(6.00)" xlink:href="#gpPt2"/>
	<use color="rgb(  0, 255,   0)" transform="translate(530.7,85.3) scale(6.00)" xlink:href="#gpPt2"/>
	<use color="rgb(  0, 255,   0)" transform="translate(538.1,87.4) scale(6.00)" xlink:href="#gpPt2"/>
</g>
	</g>
	<g id="gnuplot_plot_2a"><title>gnuplot_plot_2a</title>
<g style="fill:none; color:red; stroke:currentColor; stroke-width:0.50; stroke-linecap:butt; stroke-linejoin:miter">
	<path d="M119.0,285.3 L140.6,275.0 L152.9,269.2 L153.0,269.2 L153.5,268.9 L170.5,260.9 L179.4,256.7 L188.3,252.5    L193.9,249.8 L197.1,248.3 L209.2,242.6 L212.9,240.9 L215.2,239.8 L215.9,239.4 L223.7,235.7 L231.4,232.1    L233.9,230.9 L251.9,222.4 L260.8,218.2 L275.0,211.5 L281.8,208.3 L284.6,207.0 L287.5,205.6 L300.8,199.3    L306.4,196.6 L327.1,186.9 L331.3,184.9 L333.6,183.8 L358.4,172.0 L360.1,171.2 L361.3,170.7 L369.4,166.8    L371.7,165.8 L377.8,162.9 L380.3,161.7 L389.7,157.2 L414.3,145.6 L425.3,140.4 L434.4,136.1 L452.9,127.4    L461.9,123.1 L473.2,117.8 L477.2,115.9 L482.5,113.4 L505.0,102.7 L514.3,98.3 L524.8,93.4 L526.9,92.4    L530.7,90.6 L538.1,87.1  h0.01" stroke="rgb(255,   0, 255)"/></g>
	</g>
	<g id="gnuplot_plot_3a"><title>gnuplot_plot_3a</title>
<g style="fill:none; color:blue; stroke:currentColor; stroke-width:0.50; stroke-linecap:butt; stroke-linejoin:miter">
	<path d="M42.8,236.8  h0.01" stroke="rgb(255,   0,   0)" stroke-dasharray=" 2,4"/></g>
	</g>
	<g id="gnuplot_plot_4a"><title>gnuplot_plot_4a</title>
<g style="fill:none; color:blue; stroke:currentColor; stroke-width:0.50; stroke-linecap:butt; stroke-linejoin:miter">
	<path d="M119.0,236.8 L140.6,236.8 L152.9,236.8 L153.0,236.8 L153.5,236.8 L170.5,236.8 L179.4,236.8 L188.3,236.8    L193.9,236.8 L197.1,236.8 L209.2,236.8 L212.9,236.8 L215.2,236.8 L215.9,236.8 L223.7,236.8 L231.4,236.8    L233.9,236.8 L251.9,236.8 L260.8,236.8 L275.0,236.8 L281.8,236.8 L284.6,236.8 L287.5,236.8 L300.8,236.8    L306.4,236.8 L327.1,236.8 L331.3,236.8 L333.6,236.8 L358.4,236.8 L360.1,236.8 L361.3,236.8 L369.4,236.8    L371.7,236.8 L377.8,236.8 L380.3,236.8 L389.7,236.8 L414.3,236.8 L425.3,236.8 L434.4,236.8 L452.9,236.8    L461.9,236.8 L473.2,236.8 L477.2,236.8 L482.5,236.8 L505.0,236.8 L514.3,236.8 L524.8,236.8 L526.9,236.8    L530.7,236.8 L538.1,236.8  h0.01" stroke="rgb(255,   0,   0)" stroke-dasharray=" 2,4"/></g>
	</g>
	<g id="gnuplot_plot_5a"><title>gnuplot_plot_5a</title>
<g style="fill:none; color:blue; stroke:currentColor; stroke-width:0.50; stroke-linecap:butt; stroke-linejoin:miter">
	<path d="M221.5,339.7 L221.5,267.4 L221.5,273.0 L221.5,272.8 L221.5,255.2 L221.5,240.4 L221.5,241.7 L221.5,268.2    L221.5,255.0 L221.5,243.7 L221.5,276.7 L221.5,269.4 L221.5,253.4 L221.5,240.8 L221.5,195.0 L221.5,215.3    L221.5,244.2 L221.5,239.5 L221.5,182.4 L221.5,145.9 L221.5,204.9 L221.5,219.2 L221.5,240.4 L221.5,175.5    L221.5,189.3 L221.5,157.5 L221.5,205.8 L221.5,176.6 L221.5,185.7 L221.5,137.9 L221.5,181.7 L221.5,166.3    L221.5,171.5 L221.5,135.7 L221.5,148.2 L221.5,178.2 L221.5,156.6 L221.5,161.1 L221.5,118.6 L221.5,113.4    L221.5,156.7 L221.5,157.5 L221.5,110.1 L221.5,89.5 L221.5,90.8 L221.5,127.7 L221.5,122.5 L221.5,62.6    L221.5,85.3 L221.5,87.4  h0.01" stroke="rgb(255,   0,   0)" stroke-dasharray=" 2,4"/></g>
	</g>
	<g id="gnuplot_plot_6a"><title>gnuplot_plot_6a</title>
<g style="fill:none; color:blue; stroke:currentColor; stroke-width:0.50; stroke-linecap:butt; stroke-linejoin:miter">
	<path d="M42.8,118.5  h0.01" stroke="rgb(  0,   0, 255)" stroke-dasharray=" 2,4"/></g>
	</g>
	<g id="gnuplot_plot_7a"><title>gnuplot_plot_7a</title>
<g style="fill:none; color:blue; stroke:currentColor; stroke-width:0.50; stroke-linecap:butt; stroke-linejoin:miter">
	<path d="M119.0,118.5 L140.6,118.5 L152.9,118.5 L153.0,118.5 L153.5,118.5 L170.5,118.5 L179.4,118.5 L188.3,118.5    L193.9,118.5 L197.1,118.5 L209.2,118.5 L212.9,118.5 L215.2,118.5 L215.9,118.5 L223.7,118.5 L231.4,118.5    L233.9,118.5 L251.9,118.5 L260.8,118.5 L275.0,118.5 L281.8,118.5 L284.6,118.5 L287.5,118.5 L300.8,118.5    L306.4,118.5 L327.1,118.5 L331.3,118.5 L333.6,118.5 L358.4,118.5 L360.1,118.5 L361.3,118.5 L369.4,118.5    L371.7,118.5 L377.8,118.5 L380.3,118.5 L389.7,118.5 L414.3,118.5 L425.3,118.5 L434.4,118.5 L452.9,118.5    L461.9,118.5 L473.2,118.5 L477.2,118.5 L482.5,118.5 L505.0,118.5 L514.3,118.5 L524.8,118.5 L526.9,118.5    L530.7,118.5 L538.1,118.5  h0.01" stroke="rgb(  0,   0, 255)" stroke-dasharray=" 2,4"/></g>
	</g>
	<g id="gnuplot_plot_8a"><title>gnuplot_plot_8a</title>
<g style="fill:none; color:blue; stroke:currentColor; stroke-width:0.50; stroke-linecap:butt; stroke-linejoin:miter">
	<path d="M471.6,339.7 L471.6,267.4 L471.6,273.0 L471.6,272.8 L471.6,255.2 L471.6,240.4 L471.6,241.7 L471.6,268.2    L471.6,255.0 L471.6,243.7 L471.6,276.7 L471.6,269.4 L471.6,253.4 L471.6,240.8 L471.6,195.0 L471.6,215.3    L471.6,244.2 L471.6,239.5 L471.6,182.4 L471.6,145.9 L471.6,204.9 L471.6,219.2 L471.6,240.4 L471.6,175.5    L471.6,189.3 L471.6,157.5 L471.6,205.8 L471.6,176.6 L471.6,185.7 L471.6,137.9 L471.6,181.7 L471.6,166.3    L471.6,171.5 L471.6,135.7 L471.6,148.2 L471.6,178.2 L471.6,156.6 L471.6,161.1 L471.6,118.6 L471.6,113.4    L471.6,156.7 L471.6,157.5 L471.6,110.1 L471.6,89.5 L471.6,90.8 L471.6,127.7 L471.6,122.5 L471.6,62.6    L471.6,85.3 L471.6,87.4  h0.01" stroke="rgb(  0,   0, 255)" stroke-dasharray=" 2,4"/></g>
	</g>
<g style="fill:none; color:black; stroke:currentColor; stroke-width:0.50; stroke-linecap:butt; stroke-linejoin:miter">
</g>
</g>
</svg>