<svg height="629px" viewBox="0 0 560 629" width="560px" xmlns="http://www.w3.org/2000/svg" xmlns:xlink="http://www.w3.org/1999/xlink">

<title>Gnuplot</title>
<desc>Produced by GNUPLOT 4.6 patchlevel 2 </desc>

<g id="gnuplot_canvas">

<rect fill="none" height="629" width="560" x="0" y="0"/>
<defs>

	<circle id="gpDot" r="0.5" stroke-width="0.5"/>
	<path d="M-1,0 h2 M0,-1 v2" id="gpPt0" stroke="currentColor" stroke-width="0.333"/>
	<path d="M-1,-1 L1,1 M1,-1 L-1,1" id="gpPt1" stroke="currentColor" stroke-width="0.333"/>
	<path d="M-1,0 L1,0 M0,-1 L0,1 M-1,-1 L1,1 M-1,1 L1,-1" id="gpPt2" stroke="currentColor" stroke-width="0.333"/>
	<rect height="2" id="gpPt3" stroke="currentColor" stroke-width="0.333" width="2" x="-1" y="-1"/>
	<rect fill="currentColor" height="2" id="gpPt4" stroke="currentColor" stroke-width="0.333" width="2" x="-1" y="-1"/>
	<circle cx="0" cy="0" id="gpPt5" r="1" stroke="currentColor" stroke-width="0.333"/>
	<use fill="currentColor" id="gpPt6" stroke="none" xlink:href="#gpPt5"/>
	<path d="M0,-1.33 L-1.33,0.67 L1.33,0.67 z" id="gpPt7" stroke="currentColor" stroke-width="0.333"/>
	<use fill="currentColor" id="gpPt8" stroke="none" xlink:href="#gpPt7"/>
	<use id="gpPt9" stroke="currentColor" transform="rotate(180)" xlink:href="#gpPt7"/>
	<use fill="currentColor" id="gpPt10" stroke="none" xlink:href="#gpPt9"/>
	<use id="gpPt11" stroke="currentColor" transform="rotate(45)" xlink:href="#gpPt3"/>
	<use fill="currentColor" id="gpPt12" stroke="none" xlink:href="#gpPt11"/>
</defs>
<g style="fill:none; color:white; stroke:currentColor; stroke-width:1.00; stroke-linecap:butt; stroke-linejoin:miter">
</g>
<g style="fill:none; color:black; stroke:currentColor; stroke-width:1.00; stroke-linecap:butt; stroke-linejoin:miter">
	<g style="stroke:none; shape-rendering:crispEdges">
		<polygon fill="rgb(255, 255, 255)" points="47.7,591.2 543.3,591.2 543.3,36.2 47.7,36.2 "/>
	</g>
</g>
<g style="fill:none; color:black; stroke:rgb(255, 255, 255); stroke-width:0.50; stroke-linecap:butt; stroke-linejoin:miter">
</g>
<g style="fill:none; color:gray; stroke:currentColor; stroke-width:0.50; stroke-linecap:butt; stroke-linejoin:miter">
	<path class="gridline" d="M47.7,591.2 L543.4,591.2  h0.01" stroke="gray" stroke-dasharray=" 2,4"/></g>
<g style="fill:none; color:black; stroke:currentColor; stroke-width:0.50; stroke-linecap:butt; stroke-linejoin:miter">
	<path d="M47.7,591.2 L56.0,591.2 M543.4,591.2 L535.1,591.2  h0.01" stroke="black"/>	<g style="stroke:none; fill:rgb(0,0,0); font-family:{}; font-size:10.00pt; text-anchor:end" transform="translate(42.2,594.9)">
		<text><tspan>-1.5</tspan></text>
	</g>
</g>
<g style="fill:none; color:gray; stroke:currentColor; stroke-width:0.50; stroke-linecap:butt; stroke-linejoin:miter">
	<path class="gridline" d="M47.7,511.9 L543.4,511.9  h0.01" stroke="gray" stroke-dasharray=" 2,4"/></g>
<g style="fill:none; color:black; stroke:currentColor; stroke-width:0.50; stroke-linecap:butt; stroke-linejoin:miter">
	<path d="M47.7,511.9 L56.0,511.9 M543.4,511.9 L535.1,511.9  h0.01" stroke="black"/>	<g style="stroke:none; fill:rgb(0,0,0); font-family:{}; font-size:10.00pt; text-anchor:end" transform="translate(42.2,515.6)">
		<text><tspan>-1</tspan></text>
	</g>
</g>
<g style="fill:none; color:gray; stroke:currentColor; stroke-width:0.50; stroke-linecap:butt; stroke-linejoin:miter">
	<path class="gridline" d="M47.7,432.6 L543.4,432.6  h0.01" stroke="gray" stroke-dasharray=" 2,4"/></g>
<g style="fill:none; color:black; stroke:currentColor; stroke-width:0.50; stroke-linecap:butt; stroke-linejoin:miter">
	<path d="M47.7,432.6 L56.0,432.6 M543.4,432.6 L535.1,432.6  h0.01" stroke="black"/>	<g style="stroke:none; fill:rgb(0,0,0); font-family:{}; font-size:10.00pt; text-anchor:end" transform="translate(42.2,436.3)">
		<text><tspan>-0.5</tspan></text>
	</g>
</g>
<g style="fill:none; color:gray; stroke:currentColor; stroke-width:0.50; stroke-linecap:butt; stroke-linejoin:miter">
	<path class="gridline" d="M47.7,353.3 L543.4,353.3  h0.01" stroke="gray" stroke-dasharray=" 2,4"/></g>
<g style="fill:none; color:black; stroke:currentColor; stroke-width:0.50; stroke-linecap:butt; stroke-linejoin:miter">
	<path d="M47.7,353.3 L56.0,353.3 M543.4,353.3 L535.1,353.3  h0.01" stroke="black"/>	<g style="stroke:none; fill:rgb(0,0,0); font-family:{}; font-size:10.00pt; text-anchor:end" transform="translate(42.2,357.0)">
		<text><tspan>0</tspan></text>
	</g>
</g>
<g style="fill:none; color:gray; stroke:currentColor; stroke-width:0.50; stroke-linecap:butt; stroke-linejoin:miter">
	<path class="gridline" d="M47.7,274.0 L543.4,274.0  h0.01" stroke="gray" stroke-dasharray=" 2,4"/></g>
<g style="fill:none; color:black; stroke:currentColor; stroke-width:0.50; stroke-linecap:butt; stroke-linejoin:miter">
	<path d="M47.7,274.0 L56.0,274.0 M543.4,274.0 L535.1,274.0  h0.01" stroke="black"/>	<g style="stroke:none; fill:rgb(0,0,0); font-family:{}; font-size:10.00pt; text-anchor:end" transform="translate(42.2,277.7)">
		<text><tspan>0.5</tspan></text>
	</g>
</g>
<g style="fill:none; color:gray; stroke:currentColor; stroke-width:0.50; stroke-linecap:butt; stroke-linejoin:miter">
	<path class="gridline" d="M47.7,194.7 L543.4,194.7  h0.01" stroke="gray" stroke-dasharray=" 2,4"/></g>
<g style="fill:none; color:black; stroke:currentColor; stroke-width:0.50; stroke-linecap:butt; stroke-linejoin:miter">
	<path d="M47.7,194.7 L56.0,194.7 M543.4,194.7 L535.1,194.7  h0.01" stroke="black"/>	<g style="stroke:none; fill:rgb(0,0,0); font-family:{}; font-size:10.00pt; text-anchor:end" transform="translate(42.2,198.4)">
		<text><tspan>1</tspan></text>
	</g>
</g>
<g style="fill:none; color:gray; stroke:currentColor; stroke-width:0.50; stroke-linecap:butt; stroke-linejoin:miter">
	<path class="gridline" d="M47.7,115.4 L543.4,115.4  h0.01" stroke="gray" stroke-dasharray=" 2,4"/></g>
<g style="fill:none; color:black; stroke:currentColor; stroke-width:0.50; stroke-linecap:butt; stroke-linejoin:miter">
	<path d="M47.7,115.4 L56.0,115.4 M543.4,115.4 L535.1,115.4  h0.01" stroke="black"/>	<g style="stroke:none; fill:rgb(0,0,0); font-family:{}; font-size:10.00pt; text-anchor:end" transform="translate(42.2,119.1)">
		<text><tspan>1.5</tspan></text>
	</g>
</g>
<g style="fill:none; color:gray; stroke:currentColor; stroke-width:0.50; stroke-linecap:butt; stroke-linejoin:miter">
	<path class="gridline" d="M47.7,36.1 L543.4,36.1  h0.01" stroke="gray" stroke-dasharray=" 2,4"/></g>
<g style="fill:none; color:black; stroke:currentColor; stroke-width:0.50; stroke-linecap:butt; stroke-linejoin:miter">
	<path d="M47.7,36.1 L56.0,36.1 M543.4,36.1 L535.1,36.1  h0.01" stroke="black"/>	<g style="stroke:none; fill:rgb(0,0,0); font-family:{}; font-size:10.00pt; text-anchor:end" transform="translate(42.2,39.8)">
		<text><tspan>2</tspan></text>
	</g>
</g>
<g style="fill:none; color:gray; stroke:currentColor; stroke-width:0.50; stroke-linecap:butt; stroke-linejoin:miter">
	<path class="gridline" d="M47.7,591.2 L47.7,36.1  h0.01" stroke="gray" stroke-dasharray=" 2,4"/></g>
<g style="fill:none; color:black; stroke:currentColor; stroke-width:0.50; stroke-linecap:butt; stroke-linejoin:miter">
	<path d="M47.7,591.2 L47.7,582.9 M47.7,36.1 L47.7,44.4  h0.01" stroke="black"/>	<g style="stroke:none; fill:rgb(0,0,0); font-family:{}; font-size:10.00pt; text-anchor:middle" transform="translate(47.7,606.9)">
		<text><tspan>0</tspan></text>
	</g>
</g>
<g style="fill:none; color:gray; stroke:currentColor; stroke-width:0.50; stroke-linecap:butt; stroke-linejoin:miter">
	<path class="gridline" d="M146.8,591.2 L146.8,36.1  h0.01" stroke="gray" stroke-dasharray=" 2,4"/></g>
<g style="fill:none; color:black; stroke:currentColor; stroke-width:0.50; stroke-linecap:butt; stroke-linejoin:miter">
	<path d="M146.8,591.2 L146.8,582.9 M146.8,36.1 L146.8,44.4  h0.01" stroke="black"/>	<g style="stroke:none; fill:rgb(0,0,0); font-family:{}; font-size:10.00pt; text-anchor:middle" transform="translate(146.8,606.9)">
		<text><tspan>5</tspan></text>
	</g>
</g>
<g style="fill:none; color:gray; stroke:currentColor; stroke-width:0.50; stroke-linecap:butt; stroke-linejoin:miter">
	<path class="gridline" d="M246.0,591.2 L246.0,36.1  h0.01" stroke="gray" stroke-dasharray=" 2,4"/></g>
<g style="fill:none; color:black; stroke:currentColor; stroke-width:0.50; stroke-linecap:butt; stroke-linejoin:miter">
	<path d="M246.0,591.2 L246.0,582.9 M246.0,36.1 L246.0,44.4  h0.01" stroke="black"/>	<g style="stroke:none; fill:rgb(0,0,0); font-family:{}; font-size:10.00pt; text-anchor:middle" transform="translate(246.0,606.9)">
		<text><tspan>10</tspan></text>
	</g>
</g>
<g style="fill:none; color:gray; stroke:currentColor; stroke-width:0.50; stroke-linecap:butt; stroke-linejoin:miter">
	<path class="gridline" d="M345.1,591.2 L345.1,36.1  h0.01" stroke="gray" stroke-dasharray=" 2,4"/></g>
<g style="fill:none; color:black; stroke:currentColor; stroke-width:0.50; stroke-linecap:butt; stroke-linejoin:miter">
	<path d="M345.1,591.2 L345.1,582.9 M345.1,36.1 L345.1,44.4  h0.01" stroke="black"/>	<g style="stroke:none; fill:rgb(0,0,0); font-family:{}; font-size:10.00pt; text-anchor:middle" transform="translate(345.1,606.9)">
		<text><tspan>15</tspan></text>
	</g>
</g>
<g style="fill:none; color:gray; stroke:currentColor; stroke-width:0.50; stroke-linecap:butt; stroke-linejoin:miter">
	<path class="gridline" d="M444.3,591.2 L444.3,36.1  h0.01" stroke="gray" stroke-dasharray=" 2,4"/></g>
<g style="fill:none; color:black; stroke:currentColor; stroke-width:0.50; stroke-linecap:butt; stroke-linejoin:miter">
	<path d="M444.3,591.2 L444.3,582.9 M444.3,36.1 L444.3,44.4  h0.01" stroke="black"/>	<g style="stroke:none; fill:rgb(0,0,0); font-family:{}; font-size:10.00pt; text-anchor:middle" transform="translate(444.3,606.9)">
		<text><tspan>20</tspan></text>
	</g>
</g>
<g style="fill:none; color:gray; stroke:currentColor; stroke-width:0.50; stroke-linecap:butt; stroke-linejoin:miter">
	<path class="gridline" d="M543.4,591.2 L543.4,36.1  h0.01" stroke="gray" stroke-dasharray=" 2,4"/></g>
<g style="fill:none; color:black; stroke:currentColor; stroke-width:0.50; stroke-linecap:butt; stroke-linejoin:miter">
	<path d="M543.4,591.2 L543.4,582.9 M543.4,36.1 L543.4,44.4  h0.01" stroke="black"/>	<g style="stroke:none; fill:rgb(0,0,0); font-family:{}; font-size:10.00pt; text-anchor:middle" transform="translate(543.4,606.9)">
		<text><tspan>25</tspan></text>
	</g>
	<path d="M47.7,36.1 L47.7,591.2 L543.4,591.2 L543.4,36.1 L47.7,36.1 Z  h0.01" stroke="black"/>	<g style="stroke:none; fill:rgb(0,0,0); font-family:{}; font-size:10.00pt; text-anchor:middle" transform="translate(12.4,313.7) rotate(-90)">
		<text><tspan>x[n]</tspan></text>
	</g>
	<g style="stroke:none; fill:rgb(0,0,0); font-family:{}; font-size:10.00pt; text-anchor:middle" transform="translate(295.5,624.9)">
		<text><tspan>time index n</tspan></text>
	</g>
	<g style="stroke:none; fill:rgb(0,0,0); font-family:{}; font-size:10.00pt; text-anchor:middle" transform="translate(295.5,21.8)">
		<text><tspan>Normally distributed random signal</tspan></text>
	</g>
</g>
	<g id="gnuplot_plot_1a"><title>gnuplot_plot_1a</title>
<g style="fill:none; color:blue; stroke:currentColor; stroke-width:0.50; stroke-linecap:butt; stroke-linejoin:miter">
	<path d="M67.5,353.3 L67.5,158.2 M87.4,353.3 L87.4,507.3 M107.2,353.3 L107.2,342.3 M127.0,353.3 L127.0,186.0    M146.8,353.3 L146.8,466.3 M166.7,353.3 L166.7,353.7 M186.5,353.3 L186.5,273.6 M206.3,353.3 L206.3,170.2    M226.2,353.3 L226.2,334.7 M246.0,353.3 L246.0,38.7 M265.8,353.3 L265.8,299.4 M285.6,353.3 L285.6,481.7    M305.5,353.3 L305.5,561.9 M325.3,353.3 L325.3,199.6 M345.1,353.3 L345.1,356.0 M364.9,353.3 L364.9,459.6    M384.8,353.3 L384.8,343.5 M404.6,353.3 L404.6,400.9 M424.4,353.3 L424.4,182.2 M444.3,353.3 L444.3,443.4    M464.1,353.3 L464.1,430.5 M483.9,353.3 L483.9,538.6 M503.7,353.3 L503.7,221.7 M523.6,353.3 L523.6,138.7    M543.4,353.3 L543.4,145.3  h0.01" stroke="rgb(  0, 255,   0)" stroke-dasharray=" 2,4"/></g>
	</g>
	<g id="gnuplot_plot_2a"><title>gnuplot_plot_2a</title>
<g style="fill:none; color:green; stroke:currentColor; stroke-width:0.50; stroke-linecap:butt; stroke-linejoin:miter">
	<use color="rgb(  0, 255,   0)" transform="translate(67.5,158.2) scale(6.00)" xlink:href="#gpPt12"/>
	<use color="rgb(  0, 255,   0)" transform="translate(87.4,507.3) scale(6.00)" xlink:href="#gpPt12"/>
	<use color="rgb(  0, 255,   0)" transform="translate(107.2,342.3) scale(6.00)" xlink:href="#gpPt12"/>
	<use color="rgb(  0, 255,   0)" transform="translate(127.0,186.0) scale(6.00)" xlink:href="#gpPt12"/>
	<use color="rgb(  0, 255,   0)" transform="translate(146.8,466.3) scale(6.00)" xlink:href="#gpPt12"/>
	<use color="rgb(  0, 255,   0)" transform="translate(166.7,353.7) scale(6.00)" xlink:href="#gpPt12"/>
	<use color="rgb(  0, 255,   0)" transform="translate(186.5,273.6) scale(6.00)" xlink:href="#gpPt12"/>
	<use color="rgb(  0, 255,   0)" transform="translate(206.3,170.2) scale(6.00)" xlink:href="#gpPt12"/>
	<use color="rgb(  0, 255,   0)" transform="translate(226.2,334.7) scale(6.00)" xlink:href="#gpPt12"/>
	<use color="rgb(  0, 255,   0)" transform="translate(246.0,38.7) scale(6.00)" xlink:href="#gpPt12"/>
	<use color="rgb(  0, 255,   0)" transform="translate(265.8,299.4) scale(6.00)" xlink:href="#gpPt12"/>
	<use color="rgb(  0, 255,   0)" transform="translate(285.6,481.7) scale(6.00)" xlink:href="#gpPt12"/>
	<use color="rgb(  0, 255,   0)" transform="translate(305.5,561.9) scale(6.00)" xlink:href="#gpPt12"/>
	<use color="rgb(  0, 255,   0)" transform="translate(325.3,199.6) scale(6.00)" xlink:href="#gpPt12"/>
	<use color="rgb(  0, 255,   0)" transform="translate(345.1,356.0) scale(6.00)" xlink:href="#gpPt12"/>
	<use color="rgb(  0, 255,   0)" transform="translate(364.9,459.6) scale(6.00)" xlink:href="#gpPt12"/>
	<use color="rgb(  0, 255,   0)" transform="translate(384.8,343.5) scale(6.00)" xlink:href="#gpPt12"/>
	<use color="rgb(  0, 255,   0)" transform="translate(404.6,400.9) scale(6.00)" xlink:href="#gpPt12"/>
	<use color="rgb(  0, 255,   0)" transform="translate(424.4,182.2) scale(6.00)" xlink:href="#gpPt12"/>
	<use color="rgb(  0, 255,   0)" transform="translate(444.3,443.4) scale(6.00)" xlink:href="#gpPt12"/>
	<use color="rgb(  0, 255,   0)" transform="translate(464.1,430.5) scale(6.00)" xlink:href="#gpPt12"/>
	<use color="rgb(  0, 255,   0)" transform="translate(483.9,538.6) scale(6.00)" xlink:href="#gpPt12"/>
	<use color="rgb(  0, 255,   0)" transform="translate(503.7,221.7) scale(6.00)" xlink:href="#gpPt12"/>
	<use color="rgb(  0, 255,   0)" transform="translate(523.6,138.7) scale(6.00)" xlink:href="#gpPt12"/>
	<use color="rgb(  0, 255,   0)" transform="translate(543.4,145.3) scale(6.00)" xlink:href="#gpPt12"/>
</g>
	</g>
	<g id="gnuplot_plot_3a"><title>gnuplot_plot_3a</title>
<g style="fill:none; color:red; stroke:currentColor; stroke-width:0.50; stroke-linecap:butt; stroke-linejoin:miter">
	<path d="M47.7,353.3 L543.4,353.3  h0.01" stroke="rgb(  0,   0,   0)"/></g>
	</g>
<g style="fill:none; color:black; stroke:currentColor; stroke-width:0.50; stroke-linecap:butt; stroke-linejoin:miter">
</g>
</g>
</svg>