<svg height="629px" viewBox="0 0 560 629" width="560px" xmlns="http://www.w3.org/2000/svg" xmlns:xlink="http://www.w3.org/1999/xlink">

<title>Gnuplot</title>
<desc>Produced by GNUPLOT 4.6 patchlevel 2 </desc>

<g id="gnuplot_canvas">

<rect fill="none" height="629" width="560" x="0" y="0"/>
<defs>

	<circle id="gpDot" r="0.5" stroke-width="0.5"/>
	<path d="M-1,0 h2 M0,-1 v2" id="gpPt0" stroke="currentColor" stroke-width="0.333"/>
	<path d="M-1,-1 L1,1 M1,-1 L-1,1" id="gpPt1" stroke="currentColor" stroke-width="0.333"/>
	<path d="M-1,0 L1,0 M0,-1 L0,1 M-1,-1 L1,1 M-1,1 L1,-1" id="gpPt2" stroke="currentColor" stroke-width="0.333"/>
	<rect height="2" id="gpPt3" stroke="currentColor" stroke-width="0.333" width="2" x="-1" y="-1"/>
	<rect fill="currentColor" height="2" id="gpPt4" stroke="currentColor" stroke-width="0.333" width="2" x="-1" y="-1"/>
	<circle cx="0" cy="0" id="gpPt5" r="1" stroke="currentColor" stroke-width="0.333"/>
	<use fill="currentColor" id="gpPt6" stroke="none" xlink:href="#gpPt5"/>
	<path d="M0,-1.33 L-1.33,0.67 L1.33,0.67 z" id="gpPt7" stroke="currentColor" stroke-width="0.333"/>
	<use fill="currentColor" id="gpPt8" stroke="none" xlink:href="#gpPt7"/>
	<use id="gpPt9" stroke="currentColor" transform="rotate(180)" xlink:href="#gpPt7"/>
	<use fill="currentColor" id="gpPt10" stroke="none" xlink:href="#gpPt9"/>
	<use id="gpPt11" stroke="currentColor" transform="rotate(45)" xlink:href="#gpPt3"/>
	<use fill="currentColor" id="gpPt12" stroke="none" xlink:href="#gpPt11"/>
</defs>
<g style="fill:none; color:white; stroke:currentColor; stroke-width:1.00; stroke-linecap:butt; stroke-linejoin:miter">
</g>
<g style="fill:none; color:black; stroke:currentColor; stroke-width:1.00; stroke-linecap:butt; stroke-linejoin:miter">
	<g style="stroke:none; shape-rendering:crispEdges">
		<polygon fill="rgb(255, 255, 255)" points="42.2,591.2 543.3,591.2 543.3,36.2 42.2,36.2 "/>
	</g>
</g>
<g style="fill:none; color:black; stroke:rgb(255, 255, 255); stroke-width:0.50; stroke-linecap:butt; stroke-linejoin:miter">
</g>
<g style="fill:none; color:gray; stroke:currentColor; stroke-width:0.50; stroke-linecap:butt; stroke-linejoin:miter">
	<path class="gridline" d="M42.2,591.2 L543.4,591.2  h0.01" stroke="gray" stroke-dasharray=" 2,4"/></g>
<g style="fill:none; color:black; stroke:currentColor; stroke-width:0.50; stroke-linecap:butt; stroke-linejoin:miter">
	<path d="M42.2,591.2 L50.5,591.2 M543.4,591.2 L535.1,591.2  h0.01" stroke="black"/>	<g style="stroke:none; fill:rgb(0,0,0); font-family:{}; font-size:10.00pt; text-anchor:end" transform="translate(36.7,594.9)">
		<text><tspan>0</tspan></text>
	</g>
</g>
<g style="fill:none; color:gray; stroke:currentColor; stroke-width:0.50; stroke-linecap:butt; stroke-linejoin:miter">
	<path class="gridline" d="M42.2,480.2 L543.4,480.2  h0.01" stroke="gray" stroke-dasharray=" 2,4"/></g>
<g style="fill:none; color:black; stroke:currentColor; stroke-width:0.50; stroke-linecap:butt; stroke-linejoin:miter">
	<path d="M42.2,480.2 L50.5,480.2 M543.4,480.2 L535.1,480.2  h0.01" stroke="black"/>	<g style="stroke:none; fill:rgb(0,0,0); font-family:{}; font-size:10.00pt; text-anchor:end" transform="translate(36.7,483.9)">
		<text><tspan>0.2</tspan></text>
	</g>
</g>
<g style="fill:none; color:gray; stroke:currentColor; stroke-width:0.50; stroke-linecap:butt; stroke-linejoin:miter">
	<path class="gridline" d="M42.2,369.2 L543.4,369.2  h0.01" stroke="gray" stroke-dasharray=" 2,4"/></g>
<g style="fill:none; color:black; stroke:currentColor; stroke-width:0.50; stroke-linecap:butt; stroke-linejoin:miter">
	<path d="M42.2,369.2 L50.5,369.2 M543.4,369.2 L535.1,369.2  h0.01" stroke="black"/>	<g style="stroke:none; fill:rgb(0,0,0); font-family:{}; font-size:10.00pt; text-anchor:end" transform="translate(36.7,372.9)">
		<text><tspan>0.4</tspan></text>
	</g>
</g>
<g style="fill:none; color:gray; stroke:currentColor; stroke-width:0.50; stroke-linecap:butt; stroke-linejoin:miter">
	<path class="gridline" d="M42.2,258.1 L543.4,258.1  h0.01" stroke="gray" stroke-dasharray=" 2,4"/></g>
<g style="fill:none; color:black; stroke:currentColor; stroke-width:0.50; stroke-linecap:butt; stroke-linejoin:miter">
	<path d="M42.2,258.1 L50.5,258.1 M543.4,258.1 L535.1,258.1  h0.01" stroke="black"/>	<g style="stroke:none; fill:rgb(0,0,0); font-family:{}; font-size:10.00pt; text-anchor:end" transform="translate(36.7,261.8)">
		<text><tspan>0.6</tspan></text>
	</g>
</g>
<g style="fill:none; color:gray; stroke:currentColor; stroke-width:0.50; stroke-linecap:butt; stroke-linejoin:miter">
	<path class="gridline" d="M42.2,147.1 L543.4,147.1  h0.01" stroke="gray" stroke-dasharray=" 2,4"/></g>
<g style="fill:none; color:black; stroke:currentColor; stroke-width:0.50; stroke-linecap:butt; stroke-linejoin:miter">
	<path d="M42.2,147.1 L50.5,147.1 M543.4,147.1 L535.1,147.1  h0.01" stroke="black"/>	<g style="stroke:none; fill:rgb(0,0,0); font-family:{}; font-size:10.00pt; text-anchor:end" transform="translate(36.7,150.8)">
		<text><tspan>0.8</tspan></text>
	</g>
</g>
<g style="fill:none; color:gray; stroke:currentColor; stroke-width:0.50; stroke-linecap:butt; stroke-linejoin:miter">
	<path class="gridline" d="M42.2,36.1 L543.4,36.1  h0.01" stroke="gray" stroke-dasharray=" 2,4"/></g>
<g style="fill:none; color:black; stroke:currentColor; stroke-width:0.50; stroke-linecap:butt; stroke-linejoin:miter">
	<path d="M42.2,36.1 L50.5,36.1 M543.4,36.1 L535.1,36.1  h0.01" stroke="black"/>	<g style="stroke:none; fill:rgb(0,0,0); font-family:{}; font-size:10.00pt; text-anchor:end" transform="translate(36.7,39.8)">
		<text><tspan>1</tspan></text>
	</g>
</g>
<g style="fill:none; color:gray; stroke:currentColor; stroke-width:0.50; stroke-linecap:butt; stroke-linejoin:miter">
	<path class="gridline" d="M42.2,591.2 L42.2,36.1  h0.01" stroke="gray" stroke-dasharray=" 2,4"/></g>
<g style="fill:none; color:black; stroke:currentColor; stroke-width:0.50; stroke-linecap:butt; stroke-linejoin:miter">
	<path d="M42.2,591.2 L42.2,582.9 M42.2,36.1 L42.2,44.4  h0.01" stroke="black"/>	<g style="stroke:none; fill:rgb(0,0,0); font-family:{}; font-size:10.00pt; text-anchor:middle" transform="translate(42.2,606.9)">
		<text><tspan>0</tspan></text>
	</g>
</g>
<g style="fill:none; color:gray; stroke:currentColor; stroke-width:0.50; stroke-linecap:butt; stroke-linejoin:miter">
	<path class="gridline" d="M142.4,591.2 L142.4,36.1  h0.01" stroke="gray" stroke-dasharray=" 2,4"/></g>
<g style="fill:none; color:black; stroke:currentColor; stroke-width:0.50; stroke-linecap:butt; stroke-linejoin:miter">
	<path d="M142.4,591.2 L142.4,582.9 M142.4,36.1 L142.4,44.4  h0.01" stroke="black"/>	<g style="stroke:none; fill:rgb(0,0,0); font-family:{}; font-size:10.00pt; text-anchor:middle" transform="translate(142.4,606.9)">
		<text><tspan>5</tspan></text>
	</g>
</g>
<g style="fill:none; color:gray; stroke:currentColor; stroke-width:0.50; stroke-linecap:butt; stroke-linejoin:miter">
	<path class="gridline" d="M242.7,591.2 L242.7,36.1  h0.01" stroke="gray" stroke-dasharray=" 2,4"/></g>
<g style="fill:none; color:black; stroke:currentColor; stroke-width:0.50; stroke-linecap:butt; stroke-linejoin:miter">
	<path d="M242.7,591.2 L242.7,582.9 M242.7,36.1 L242.7,44.4  h0.01" stroke="black"/>	<g style="stroke:none; fill:rgb(0,0,0); font-family:{}; font-size:10.00pt; text-anchor:middle" transform="translate(242.7,606.9)">
		<text><tspan>10</tspan></text>
	</g>
</g>
<g style="fill:none; color:gray; stroke:currentColor; stroke-width:0.50; stroke-linecap:butt; stroke-linejoin:miter">
	<path class="gridline" d="M342.9,591.2 L342.9,36.1  h0.01" stroke="gray" stroke-dasharray=" 2,4"/></g>
<g style="fill:none; color:black; stroke:currentColor; stroke-width:0.50; stroke-linecap:butt; stroke-linejoin:miter">
	<path d="M342.9,591.2 L342.9,582.9 M342.9,36.1 L342.9,44.4  h0.01" stroke="black"/>	<g style="stroke:none; fill:rgb(0,0,0); font-family:{}; font-size:10.00pt; text-anchor:middle" transform="translate(342.9,606.9)">
		<text><tspan>15</tspan></text>
	</g>
</g>
<g style="fill:none; color:gray; stroke:currentColor; stroke-width:0.50; stroke-linecap:butt; stroke-linejoin:miter">
	<path class="gridline" d="M443.2,591.2 L443.2,36.1  h0.01" stroke="gray" stroke-dasharray=" 2,4"/></g>
<g style="fill:none; color:black; stroke:currentColor; stroke-width:0.50; stroke-linecap:butt; stroke-linejoin:miter">
	<path d="M443.2,591.2 L443.2,582.9 M443.2,36.1 L443.2,44.4  h0.01" stroke="black"/>	<g style="stroke:none; fill:rgb(0,0,0); font-family:{}; font-size:10.00pt; text-anchor:middle" transform="translate(443.2,606.9)">
		<text><tspan>20</tspan></text>
	</g>
</g>
<g style="fill:none; color:gray; stroke:currentColor; stroke-width:0.50; stroke-linecap:butt; stroke-linejoin:miter">
	<path class="gridline" d="M543.4,591.2 L543.4,36.1  h0.01" stroke="gray" stroke-dasharray=" 2,4"/></g>
<g style="fill:none; color:black; stroke:currentColor; stroke-width:0.50; stroke-linecap:butt; stroke-linejoin:miter">
	<path d="M543.4,591.2 L543.4,582.9 M543.4,36.1 L543.4,44.4  h0.01" stroke="black"/>	<g style="stroke:none; fill:rgb(0,0,0); font-family:{}; font-size:10.00pt; text-anchor:middle" transform="translate(543.4,606.9)">
		<text><tspan>25</tspan></text>
	</g>
	<path d="M42.2,36.1 L42.2,591.2 L543.4,591.2 L543.4,36.1 L42.2,36.1 Z  h0.01" stroke="black"/>	<g style="stroke:none; fill:rgb(0,0,0); font-family:{}; font-size:10.00pt; text-anchor:middle" transform="translate(12.4,313.7) rotate(-90)">
		<text><tspan>unit[n]</tspan></text>
	</g>
	<g style="stroke:none; fill:rgb(0,0,0); font-family:{}; font-size:10.00pt; text-anchor:middle" transform="translate(292.8,624.9)">
		<text><tspan>time index n</tspan></text>
	</g>
	<g style="stroke:none; fill:rgb(0,0,0); font-family:{}; font-size:10.00pt; text-anchor:middle" transform="translate(292.8,21.8)">
		<text><tspan>Unit step sequence with N =25</tspan></text>
	</g>
</g>
	<g id="gnuplot_plot_1a"><title>gnuplot_plot_1a</title>
<g style="fill:none; color:blue; stroke:currentColor; stroke-width:0.50; stroke-linecap:butt; stroke-linejoin:miter">
	<path d="M62.2,591.2 L62.2,36.1 M82.3,591.2 L82.3,36.1 M102.3,591.2 L102.3,36.1 M122.4,591.2 L122.4,36.1    M142.4,591.2 L142.4,36.1 M162.5,591.2 L162.5,36.1 M182.5,591.2 L182.5,36.1 M202.6,591.2 L202.6,36.1    M222.6,591.2 L222.6,36.1 M242.7,591.2 L242.7,36.1 M262.7,591.2 L262.7,36.1 M282.8,591.2 L282.8,36.1    M302.8,591.2 L302.8,36.1 M322.9,591.2 L322.9,36.1 M342.9,591.2 L342.9,36.1 M363.0,591.2 L363.0,36.1    M383.0,591.2 L383.0,36.1 M403.1,591.2 L403.1,36.1 M423.1,591.2 L423.1,36.1 M443.2,591.2 L443.2,36.1    M463.2,591.2 L463.2,36.1 M483.3,591.2 L483.3,36.1 M503.3,591.2 L503.3,36.1 M523.4,591.2 L523.4,36.1    M543.4,591.2 L543.4,36.1  h0.01" stroke="rgb(  0, 255,   0)" stroke-dasharray=" 2,4"/></g>
	</g>
	<g id="gnuplot_plot_2a"><title>gnuplot_plot_2a</title>
<g style="fill:none; color:green; stroke:currentColor; stroke-width:0.50; stroke-linecap:butt; stroke-linejoin:miter">
	<use color="rgb(  0, 255,   0)" transform="translate(62.2,36.1) scale(6.00)" xlink:href="#gpPt6"/>
	<use color="rgb(  0, 255,   0)" transform="translate(82.3,36.1) scale(6.00)" xlink:href="#gpPt6"/>
	<use color="rgb(  0, 255,   0)" transform="translate(102.3,36.1) scale(6.00)" xlink:href="#gpPt6"/>
	<use color="rgb(  0, 255,   0)" transform="translate(122.4,36.1) scale(6.00)" xlink:href="#gpPt6"/>
	<use color="rgb(  0, 255,   0)" transform="translate(142.4,36.1) scale(6.00)" xlink:href="#gpPt6"/>
	<use color="rgb(  0, 255,   0)" transform="translate(162.5,36.1) scale(6.00)" xlink:href="#gpPt6"/>
	<use color="rgb(  0, 255,   0)" transform="translate(182.5,36.1) scale(6.00)" xlink:href="#gpPt6"/>
	<use color="rgb(  0, 255,   0)" transform="translate(202.6,36.1) scale(6.00)" xlink:href="#gpPt6"/>
	<use color="rgb(  0, 255,   0)" transform="translate(222.6,36.1) scale(6.00)" xlink:href="#gpPt6"/>
	<use color="rgb(  0, 255,   0)" transform="translate(242.7,36.1) scale(6.00)" xlink:href="#gpPt6"/>
	<use color="rgb(  0, 255,   0)" transform="translate(262.7,36.1) scale(6.00)" xlink:href="#gpPt6"/>
	<use color="rgb(  0, 255,   0)" transform="translate(282.8,36.1) scale(6.00)" xlink:href="#gpPt6"/>
	<use color="rgb(  0, 255,   0)" transform="translate(302.8,36.1) scale(6.00)" xlink:href="#gpPt6"/>
	<use color="rgb(  0, 255,   0)" transform="translate(322.9,36.1) scale(6.00)" xlink:href="#gpPt6"/>
	<use color="rgb(  0, 255,   0)" transform="translate(342.9,36.1) scale(6.00)" xlink:href="#gpPt6"/>
	<use color="rgb(  0, 255,   0)" transform="translate(363.0,36.1) scale(6.00)" xlink:href="#gpPt6"/>
	<use color="rgb(  0, 255,   0)" transform="translate(383.0,36.1) scale(6.00)" xlink:href="#gpPt6"/>
	<use color="rgb(  0, 255,   0)" transform="translate(403.1,36.1) scale(6.00)" xlink:href="#gpPt6"/>
	<use color="rgb(  0, 255,   0)" transform="translate(423.1,36.1) scale(6.00)" xlink:href="#gpPt6"/>
	<use color="rgb(  0, 255,   0)" transform="translate(443.2,36.1) scale(6.00)" xlink:href="#gpPt6"/>
	<use color="rgb(  0, 255,   0)" transform="translate(463.2,36.1) scale(6.00)" xlink:href="#gpPt6"/>
	<use color="rgb(  0, 255,   0)" transform="translate(483.3,36.1) scale(6.00)" xlink:href="#gpPt6"/>
	<use color="rgb(  0, 255,   0)" transform="translate(503.3,36.1) scale(6.00)" xlink:href="#gpPt6"/>
	<use color="rgb(  0, 255,   0)" transform="translate(523.4,36.1) scale(6.00)" xlink:href="#gpPt6"/>
	<use color="rgb(  0, 255,   0)" transform="translate(543.4,36.1) scale(6.00)" xlink:href="#gpPt6"/>
</g>
	</g>
	<g id="gnuplot_plot_3a"><title>gnuplot_plot_3a</title>
<g style="fill:none; color:red; stroke:currentColor; stroke-width:0.50; stroke-linecap:butt; stroke-linejoin:miter">
	<path d="M42.2,591.2 L543.4,591.2  h0.01" stroke="rgb(  0,   0,   0)"/></g>
	</g>
<g style="fill:none; color:black; stroke:currentColor; stroke-width:0.50; stroke-linecap:butt; stroke-linejoin:miter">
</g>
</g>
</svg>