<svg height="420px" viewBox="0 0 560 420" width="560px" xmlns="http://www.w3.org/2000/svg" xmlns:xlink="http://www.w3.org/1999/xlink">

<title>Gnuplot</title>
<desc>Produced by GNUPLOT 4.6 patchlevel 2 </desc>

<g id="gnuplot_canvas">

<rect fill="none" height="420" width="560" x="0" y="0"/>
<defs>

	<circle id="gpDot" r="0.5" stroke-width="0.5"/>
	<path d="M-1,0 h2 M0,-1 v2" id="gpPt0" stroke="currentColor" stroke-width="0.333"/>
	<path d="M-1,-1 L1,1 M1,-1 L-1,1" id="gpPt1" stroke="currentColor" stroke-width="0.333"/>
	<path d="M-1,0 L1,0 M0,-1 L0,1 M-1,-1 L1,1 M-1,1 L1,-1" id="gpPt2" stroke="currentColor" stroke-width="0.333"/>
	<rect height="2" id="gpPt3" stroke="currentColor" stroke-width="0.333" width="2" x="-1" y="-1"/>
	<rect fill="currentColor" height="2" id="gpPt4" stroke="currentColor" stroke-width="0.333" width="2" x="-1" y="-1"/>
	<circle cx="0" cy="0" id="gpPt5" r="1" stroke="currentColor" stroke-width="0.333"/>
	<use fill="currentColor" id="gpPt6" stroke="none" xlink:href="#gpPt5"/>
	<path d="M0,-1.33 L-1.33,0.67 L1.33,0.67 z" id="gpPt7" stroke="currentColor" stroke-width="0.333"/>
	<use fill="currentColor" id="gpPt8" stroke="none" xlink:href="#gpPt7"/>
	<use id="gpPt9" stroke="currentColor" transform="rotate(180)" xlink:href="#gpPt7"/>
	<use fill="currentColor" id="gpPt10" stroke="none" xlink:href="#gpPt9"/>
	<use id="gpPt11" stroke="currentColor" transform="rotate(45)" xlink:href="#gpPt3"/>
	<use fill="currentColor" id="gpPt12" stroke="none" xlink:href="#gpPt11"/>
</defs>
<g style="fill:none; color:white; stroke:currentColor; stroke-width:1.00; stroke-linecap:butt; stroke-linejoin:miter">
</g>
<g style="fill:none; color:black; stroke:currentColor; stroke-width:1.00; stroke-linecap:butt; stroke-linejoin:miter">
	<g style="stroke:none; shape-rendering:crispEdges">
		<polygon fill="rgb(255, 255, 255)" points="36.4,396.0 543.0,396.0 543.0,11.4 36.4,11.4 "/>
	</g>
	<path d="M36.4,396.0 L36.4,11.4 L543.0,11.4 L543.0,396.0 L36.4,396.0  h0.01" stroke="black"/></g>
<g style="fill:none; color:black; stroke:black; stroke-width:0.50; stroke-linecap:butt; stroke-linejoin:miter">
	<path d="M36.4,396.0 L44.8,396.0 M543.1,396.0 L534.7,396.0  h0.01" stroke="black"/>	<g style="stroke:none; fill:rgb(0,0,0); font-family:{}; font-size:10.00pt; text-anchor:end" transform="translate(30.8,399.7)">
		<text><tspan>-1</tspan></text>
	</g>
	<path d="M36.4,299.8 L44.8,299.8 M543.1,299.8 L534.7,299.8  h0.01" stroke="black"/>	<g style="stroke:none; fill:rgb(0,0,0); font-family:{}; font-size:10.00pt; text-anchor:end" transform="translate(30.8,303.5)">
		<text><tspan>-0.5</tspan></text>
	</g>
	<path d="M36.4,203.6 L44.8,203.6 M543.1,203.6 L534.7,203.6  h0.01" stroke="black"/>	<g style="stroke:none; fill:rgb(0,0,0); font-family:{}; font-size:10.00pt; text-anchor:end" transform="translate(30.8,207.3)">
		<text><tspan>0</tspan></text>
	</g>
	<path d="M36.4,107.5 L44.8,107.5 M543.1,107.5 L534.7,107.5  h0.01" stroke="black"/>	<g style="stroke:none; fill:rgb(0,0,0); font-family:{}; font-size:10.00pt; text-anchor:end" transform="translate(30.8,111.2)">
		<text><tspan>0.5</tspan></text>
	</g>
	<path d="M36.4,11.3 L44.8,11.3 M543.1,11.3 L534.7,11.3  h0.01" stroke="black"/>	<g style="stroke:none; fill:rgb(0,0,0); font-family:{}; font-size:10.00pt; text-anchor:end" transform="translate(30.8,15.0)">
		<text><tspan>1</tspan></text>
	</g>
	<path d="M36.4,396.0 L36.4,387.6 M36.4,11.3 L36.4,19.7  h0.01" stroke="black"/>	<g style="stroke:none; fill:rgb(0,0,0); font-family:{}; font-size:10.00pt; text-anchor:middle" transform="translate(36.4,411.7)">
		<text><tspan>-10</tspan></text>
	</g>
	<path d="M163.1,396.0 L163.1,387.6 M163.1,11.3 L163.1,19.7  h0.01" stroke="black"/>	<g style="stroke:none; fill:rgb(0,0,0); font-family:{}; font-size:10.00pt; text-anchor:middle" transform="translate(163.1,411.7)">
		<text><tspan>-5</tspan></text>
	</g>
	<path d="M289.8,396.0 L289.8,387.6 M289.8,11.3 L289.8,19.7  h0.01" stroke="black"/>	<g style="stroke:none; fill:rgb(0,0,0); font-family:{}; font-size:10.00pt; text-anchor:middle" transform="translate(289.8,411.7)">
		<text><tspan>0</tspan></text>
	</g>
	<path d="M416.4,396.0 L416.4,387.6 M416.4,11.3 L416.4,19.7  h0.01" stroke="black"/>	<g style="stroke:none; fill:rgb(0,0,0); font-family:{}; font-size:10.00pt; text-anchor:middle" transform="translate(416.4,411.7)">
		<text><tspan>5</tspan></text>
	</g>
	<path d="M543.1,396.0 L543.1,387.6 M543.1,11.3 L543.1,19.7  h0.01" stroke="black"/>	<g style="stroke:none; fill:rgb(0,0,0); font-family:{}; font-size:10.00pt; text-anchor:middle" transform="translate(543.1,411.7)">
		<text><tspan>10</tspan></text>
	</g>
	<path d="M36.4,11.3 L36.4,396.0 L543.1,396.0 L543.1,11.3 L36.4,11.3 Z  h0.01" stroke="black"/></g>
	<g id="gnuplot_plot_1a"><title>gnuplot_plot_1a</title>
<g style="fill:none; color:red; stroke:currentColor; stroke-width:0.50; stroke-linecap:butt; stroke-linejoin:miter">
	<path d="M36.4,99.0 L36.9,102.3 L37.4,105.6 L37.9,108.9 L38.4,112.3 L38.9,115.7 L39.4,119.1 L40.0,122.6    L40.5,126.1 L41.0,129.6 L41.5,133.2 L42.0,136.8 L42.5,140.4 L43.0,144.1 L43.5,147.7 L44.0,151.4    L44.5,155.1 L45.0,158.9 L45.5,162.6 L46.0,166.4 L46.5,170.2 L47.1,174.0 L47.6,177.8 L48.1,181.6    L48.6,185.5 L49.1,189.3 L49.6,193.1 L50.1,197.0 L50.6,200.8 L51.1,204.7 L51.6,208.5 L52.1,212.4    L52.6,216.2 L53.1,220.1 L53.6,223.9 L54.2,227.7 L54.7,231.5 L55.2,235.3 L55.7,239.1 L56.2,242.9    L56.7,246.7 L57.2,250.4 L57.7,254.1 L58.2,257.8 L58.7,261.5 L59.2,265.2 L59.7,268.8 L60.2,272.4    L60.7,276.0 L61.3,279.6 L61.8,283.1 L62.3,286.6 L62.8,290.0 L63.3,293.5 L63.8,296.9 L64.3,300.2    L64.8,303.5 L65.3,306.8 L65.8,310.0 L66.3,313.2 L66.8,316.3 L67.3,319.4 L67.8,322.5 L68.4,325.5    L68.9,328.5 L69.4,331.4 L69.9,334.2 L70.4,337.0 L70.9,339.8 L71.4,342.5 L71.9,345.1 L72.4,347.7    L72.9,350.2 L73.4,352.7 L73.9,355.1 L74.4,357.4 L74.9,359.7 L75.5,361.9 L76.0,364.1 L76.5,366.2    L77.0,368.2 L77.5,370.2 L78.0,372.0 L78.5,373.9 L79.0,375.6 L79.5,377.3 L80.0,378.9 L80.5,380.5    L81.0,382.0 L81.5,383.4 L82.0,384.7 L82.6,386.0 L83.1,387.2 L83.6,388.3 L84.1,389.3 L84.6,390.3    L85.1,391.2 L85.6,392.0 L86.1,392.8 L86.6,393.4 L87.1,394.0 L87.6,394.5 L88.1,395.0 L88.6,395.3    L89.1,395.6 L89.7,395.8 L90.2,395.9 L90.7,396.0 L91.2,396.0 L91.7,395.9 L92.2,395.7 L92.7,395.4    L93.2,395.1 L93.7,394.7 L94.2,394.2 L94.7,393.7 L95.2,393.0 L95.7,392.3 L96.3,391.5 L96.8,390.7    L97.3,389.7 L97.8,388.7 L98.3,387.6 L98.8,386.4 L99.3,385.2 L99.8,383.9 L100.3,382.5 L100.8,381.1    L101.3,379.6 L101.8,378.0 L102.3,376.3 L102.8,374.6 L103.4,372.8 L103.9,370.9 L104.4,369.0 L104.9,367.0    L105.4,364.9 L105.9,362.8 L106.4,360.6 L106.9,358.3 L107.4,356.0 L107.9,353.6 L108.4,351.2 L108.9,348.7    L109.4,346.1 L109.9,343.5 L110.5,340.8 L111.0,338.1 L111.5,335.3 L112.0,332.5 L112.5,329.6 L113.0,326.6    L113.5,323.7 L114.0,320.6 L114.5,317.6 L115.0,314.4 L115.5,311.3 L116.0,308.0 L116.5,304.8 L117.0,301.5    L117.6,298.2 L118.1,294.8 L118.6,291.4 L119.1,287.9 L119.6,284.5 L120.1,280.9 L120.6,277.4 L121.1,273.8    L121.6,270.2 L122.1,266.6 L122.6,263.0 L123.1,259.3 L123.6,255.6 L124.1,251.9 L124.7,248.1 L125.2,244.4    L125.7,240.6 L126.2,236.8 L126.7,233.0 L127.2,229.2 L127.7,225.4 L128.2,221.5 L128.7,217.7 L129.2,213.9    L129.7,210.0 L130.2,206.2 L130.7,202.3 L131.2,198.5 L131.8,194.6 L132.3,190.8 L132.8,186.9 L133.3,183.1    L133.8,179.3 L134.3,175.5 L134.8,171.7 L135.3,167.9 L135.8,164.1 L136.3,160.3 L136.8,156.6 L137.3,152.9    L137.8,149.2 L138.3,145.5 L138.9,141.8 L139.4,138.2 L139.9,134.6 L140.4,131.0 L140.9,127.5 L141.4,123.9    L141.9,120.4 L142.4,117.0 L142.9,113.6 L143.4,110.2 L143.9,106.8 L144.4,103.5 L144.9,100.3 L145.4,97.0    L146.0,93.9 L146.5,90.7 L147.0,87.6 L147.5,84.6 L148.0,81.6 L148.5,78.6 L149.0,75.7 L149.5,72.9    L150.0,70.1 L150.5,67.3 L151.0,64.6 L151.5,62.0 L152.0,59.4 L152.6,56.9 L153.1,54.4 L153.6,52.0    L154.1,49.7 L154.6,47.4 L155.1,45.2 L155.6,43.1 L156.1,41.0 L156.6,39.0 L157.1,37.0 L157.6,35.1    L158.1,33.3 L158.6,31.5 L159.1,29.8 L159.7,28.2 L160.2,26.7 L160.7,25.2 L161.2,23.8 L161.7,22.5    L162.2,21.2 L162.7,20.0 L163.2,18.9 L163.7,17.9 L164.2,16.9 L164.7,16.0 L165.2,15.2 L165.7,14.5    L166.2,13.8 L166.8,13.2 L167.3,12.7 L167.8,12.3 L168.3,12.0 L168.8,11.7 L169.3,11.5 L169.8,11.3    L170.3,11.3 L170.8,11.3 L171.3,11.4 L171.8,11.6 L172.3,11.9 L172.8,12.2 L173.3,12.6 L173.9,13.1    L174.4,13.7 L174.9,14.3 L175.4,15.1 L175.9,15.8 L176.4,16.7 L176.9,17.7 L177.4,18.7 L177.9,19.8    L178.4,20.9 L178.9,22.2 L179.4,23.5 L179.9,24.9 L180.4,26.3 L181.0,27.9 L181.5,29.5 L182.0,31.1    L182.5,32.9 L183.0,34.7 L183.5,36.6 L184.0,38.5 L184.5,40.5 L185.0,42.6 L185.5,44.7 L186.0,46.9    L186.5,49.2 L187.0,51.5 L187.5,53.9 L188.1,56.3 L188.6,58.8 L189.1,61.4 L189.6,64.0 L190.1,66.7    L190.6,69.4 L191.1,72.2 L191.6,75.1 L192.1,77.9 L192.6,80.9 L193.1,83.9 L193.6,86.9 L194.1,90.0    L194.6,93.1 L195.2,96.3 L195.7,99.5 L196.2,102.8 L196.7,106.1 L197.2,109.4 L197.7,112.8 L198.2,116.2    L198.7,119.6 L199.2,123.1 L199.7,126.6 L200.2,130.2 L200.7,133.7 L201.2,137.4 L201.7,141.0 L202.3,144.6    L202.8,148.3 L203.3,152.0 L203.8,155.7 L204.3,159.5 L204.8,163.2 L205.3,167.0 L205.8,170.8 L206.3,174.6    L206.8,178.4 L207.3,182.2 L207.8,186.0 L208.3,189.9 L208.9,193.7 L209.4,197.6 L209.9,201.4 L210.4,205.3    L210.9,209.1 L211.4,213.0 L211.9,216.8 L212.4,220.7 L212.9,224.5 L213.4,228.3 L213.9,232.1 L214.4,235.9    L214.9,239.7 L215.4,243.5 L216.0,247.3 L216.5,251.0 L217.0,254.7 L217.5,258.4 L218.0,262.1 L218.5,265.8    L219.0,269.4 L219.5,273.0 L220.0,276.6 L220.5,280.1 L221.0,283.6 L221.5,287.1 L222.0,290.6 L222.5,294.0    L223.1,297.4 L223.6,300.7 L224.1,304.0 L224.6,307.3 L225.1,310.5 L225.6,313.7 L226.1,316.8 L226.6,319.9    L227.1,323.0 L227.6,326.0 L228.1,328.9 L228.6,331.8 L229.1,334.7 L229.6,337.4 L230.2,340.2 L230.7,342.9    L231.2,345.5 L231.7,348.1 L232.2,350.6 L232.7,353.0 L233.2,355.4 L233.7,357.8 L234.2,360.0 L234.7,362.3    L235.2,364.4 L235.7,366.5 L236.2,368.5 L236.7,370.5 L237.3,372.3 L237.8,374.2 L238.3,375.9 L238.8,377.6    L239.3,379.2 L239.8,380.7 L240.3,382.2 L240.8,383.6 L241.3,384.9 L241.8,386.2 L242.3,387.3 L242.8,388.5    L243.3,389.5 L243.8,390.4 L244.4,391.3 L244.9,392.1 L245.4,392.9 L245.9,393.5 L246.4,394.1 L246.9,394.6    L247.4,395.0 L247.9,395.4 L248.4,395.6 L248.9,395.8 L249.4,396.0 L249.9,396.0 L250.4,396.0 L250.9,395.9    L251.5,395.7 L252.0,395.4 L252.5,395.1 L253.0,394.6 L253.5,394.1 L254.0,393.6 L254.5,392.9 L255.0,392.2    L255.5,391.4 L256.0,390.5 L256.5,389.6 L257.0,388.5 L257.5,387.4 L258.0,386.3 L258.6,385.0 L259.1,383.7    L259.6,382.3 L260.1,380.8 L260.6,379.3 L261.1,377.7 L261.6,376.0 L262.1,374.3 L262.6,372.5 L263.1,370.6    L263.6,368.7 L264.1,366.6 L264.6,364.6 L265.2,362.4 L265.7,360.2 L266.2,357.9 L266.7,355.6 L267.2,353.2    L267.7,350.8 L268.2,348.3 L268.7,345.7 L269.2,343.1 L269.7,340.4 L270.2,337.7 L270.7,334.9 L271.2,332.0    L271.7,329.1 L272.3,326.2 L272.8,323.2 L273.3,320.2 L273.8,317.1 L274.3,313.9 L274.8,310.8 L275.3,307.5    L275.8,304.3 L276.3,301.0 L276.8,297.6 L277.3,294.3 L277.8,290.8 L278.3,287.4 L278.8,283.9 L279.4,280.4    L279.9,276.8 L280.4,273.3 L280.9,269.7 L281.4,266.0 L281.9,262.4 L282.4,258.7 L282.9,255.0 L283.4,251.3    L283.9,247.5 L284.4,243.8 L284.9,240.0 L285.4,236.2 L285.9,232.4 L286.5,228.6 L287.0,224.8 L287.5,221.0    L288.0,217.1 L288.5,213.3 L289.0,209.4 L289.5,205.6 L290.0,201.7 L290.5,197.9 L291.0,194.0 L291.5,190.2    L292.0,186.3 L292.5,182.5 L293.0,178.7 L293.6,174.9 L294.1,171.1 L294.6,167.3 L295.1,163.5 L295.6,159.8    L296.1,156.0 L296.6,152.3 L297.1,148.6 L297.6,144.9 L298.1,141.3 L298.6,137.6 L299.1,134.0 L299.6,130.5    L300.1,126.9 L300.7,123.4 L301.2,119.9 L301.7,116.5 L302.2,113.0 L302.7,109.7 L303.2,106.3 L303.7,103.0    L304.2,99.8 L304.7,96.5 L305.2,93.4 L305.7,90.2 L306.2,87.1 L306.7,84.1 L307.2,81.1 L307.8,78.2    L308.3,75.3 L308.8,72.4 L309.3,69.6 L309.8,66.9 L310.3,64.2 L310.8,61.6 L311.3,59.0 L311.8,56.5    L312.3,54.1 L312.8,51.7 L313.3,49.4 L313.8,47.1 L314.3,44.9 L314.9,42.7 L315.4,40.7 L315.9,38.6    L316.4,36.7 L316.9,34.8 L317.4,33.0 L317.9,31.3 L318.4,29.6 L318.9,28.0 L319.4,26.5 L319.9,25.0    L320.4,23.6 L320.9,22.3 L321.5,21.0 L322.0,19.9 L322.5,18.8 L323.0,17.7 L323.5,16.8 L324.0,15.9    L324.5,15.1 L325.0,14.4 L325.5,13.7 L326.0,13.2 L326.5,12.7 L327.0,12.2 L327.5,11.9 L328.0,11.6    L328.6,11.4 L329.1,11.3 L329.6,11.3 L330.1,11.3 L330.6,11.5 L331.1,11.7 L331.6,11.9 L332.1,12.3    L332.6,12.7 L333.1,13.2 L333.6,13.8 L334.1,14.4 L334.6,15.2 L335.1,16.0 L335.7,16.9 L336.2,17.8    L336.7,18.8 L337.2,20.0 L337.7,21.1 L338.2,22.4 L338.7,23.7 L339.2,25.1 L339.7,26.6 L340.2,28.1    L340.7,29.7 L341.2,31.4 L341.7,33.1 L342.2,35.0 L342.8,36.8 L343.3,38.8 L343.8,40.8 L344.3,42.9    L344.8,45.0 L345.3,47.3 L345.8,49.5 L346.3,51.9 L346.8,54.3 L347.3,56.7 L347.8,59.2 L348.3,61.8    L348.8,64.4 L349.3,67.1 L349.9,69.9 L350.4,72.6 L350.9,75.5 L351.4,78.4 L351.9,81.3 L352.4,84.3    L352.9,87.4 L353.4,90.5 L353.9,93.6 L354.4,96.8 L354.9,100.0 L355.4,103.3 L355.9,106.6 L356.4,109.9    L357.0,113.3 L357.5,116.7 L358.0,120.2 L358.5,123.7 L359.0,127.2 L359.5,130.7 L360.0,134.3 L360.5,137.9    L361.0,141.5 L361.5,145.2 L362.0,148.9 L362.5,152.6 L363.0,156.3 L363.5,160.0 L364.1,163.8 L364.6,167.6    L365.1,171.4 L365.6,175.2 L366.1,179.0 L366.6,182.8 L367.1,186.6 L367.6,190.5 L368.1,194.3 L368.6,198.2    L369.1,202.0 L369.6,205.9 L370.1,209.7 L370.6,213.6 L371.2,217.4 L371.7,221.3 L372.2,225.1 L372.7,228.9    L373.2,232.7 L373.7,236.5 L374.2,240.3 L374.7,244.1 L375.2,247.8 L375.7,251.6 L376.2,255.3 L376.7,259.0    L377.2,262.7 L377.8,266.3 L378.3,269.9 L378.8,273.6 L379.3,277.1 L379.8,280.7 L380.3,284.2 L380.8,287.7    L381.3,291.1 L381.8,294.5 L382.3,297.9 L382.8,301.2 L383.3,304.5 L383.8,307.8 L384.3,311.0 L384.9,314.2    L385.4,317.3 L385.9,320.4 L386.4,323.4 L386.9,326.4 L387.4,329.4 L387.9,332.2 L388.4,335.1 L388.9,337.9    L389.4,340.6 L389.9,343.3 L390.4,345.9 L390.9,348.5 L391.4,351.0 L392.0,353.4 L392.5,355.8 L393.0,358.1    L393.5,360.4 L394.0,362.6 L394.5,364.7 L395.0,366.8 L395.5,368.8 L396.0,370.7 L396.5,372.6 L397.0,374.4    L397.5,376.2 L398.0,377.8 L398.5,379.4 L399.1,381.0 L399.6,382.4 L400.1,383.8 L400.6,385.1 L401.1,386.4    L401.6,387.5 L402.1,388.6 L402.6,389.6 L403.1,390.6 L403.6,391.5 L404.1,392.2 L404.6,393.0 L405.1,393.6    L405.6,394.2 L406.2,394.7 L406.7,395.1 L407.2,395.4 L407.7,395.7 L408.2,395.9 L408.7,396.0 L409.2,396.0    L409.7,396.0 L410.2,395.8 L410.7,395.6 L411.2,395.3 L411.7,395.0 L412.2,394.6 L412.7,394.1 L413.3,393.5    L413.8,392.8 L414.3,392.1 L414.8,391.3 L415.3,390.4 L415.8,389.4 L416.3,388.4 L416.8,387.3 L417.3,386.1    L417.8,384.8 L418.3,383.5 L418.8,382.1 L419.3,380.6 L419.8,379.1 L420.4,377.5 L420.9,375.8 L421.4,374.0    L421.9,372.2 L422.4,370.3 L422.9,368.3 L423.4,366.3 L423.9,364.2 L424.4,362.1 L424.9,359.9 L425.4,357.6    L425.9,355.3 L426.4,352.9 L426.9,350.4 L427.5,347.9 L428.0,345.3 L428.5,342.7 L429.0,340.0 L429.5,337.2    L430.0,334.4 L430.5,331.6 L431.0,328.7 L431.5,325.7 L432.0,322.7 L432.5,319.7 L433.0,316.6 L433.5,313.4    L434.1,310.3 L434.6,307.0 L435.1,303.8 L435.6,300.5 L436.1,297.1 L436.6,293.7 L437.1,290.3 L437.6,286.9    L438.1,283.4 L438.6,279.8 L439.1,276.3 L439.6,272.7 L440.1,269.1 L440.6,265.5 L441.2,261.8 L441.7,258.1    L442.2,254.4 L442.7,250.7 L443.2,247.0 L443.7,243.2 L444.2,239.4 L444.7,235.6 L445.2,231.8 L445.7,228.0    L446.2,224.2 L446.7,220.4 L447.2,216.5 L447.7,212.7 L448.3,208.8 L448.8,205.0 L449.3,201.1 L449.8,197.3    L450.3,193.4 L450.8,189.6 L451.3,185.8 L451.8,181.9 L452.3,178.1 L452.8,174.3 L453.3,170.5 L453.8,166.7    L454.3,162.9 L454.8,159.2 L455.4,155.4 L455.9,151.7 L456.4,148.0 L456.9,144.3 L457.4,140.7 L457.9,137.1    L458.4,133.5 L458.9,129.9 L459.4,126.4 L459.9,122.8 L460.4,119.4 L460.9,115.9 L461.4,112.5 L461.9,109.1    L462.5,105.8 L463.0,102.5 L463.5,99.3 L464.0,96.0 L464.5,92.9 L465.0,89.7 L465.5,86.7 L466.0,83.6    L466.5,80.7 L467.0,77.7 L467.5,74.8 L468.0,72.0 L468.5,69.2 L469.0,66.5 L469.6,63.8 L470.1,61.2    L470.6,58.6 L471.1,56.1 L471.6,53.7 L472.1,51.3 L472.6,49.0 L473.1,46.7 L473.6,44.5 L474.1,42.4    L474.6,40.3 L475.1,38.3 L475.6,36.4 L476.1,34.5 L476.7,32.7 L477.2,31.0 L477.7,29.3 L478.2,27.7    L478.7,26.2 L479.2,24.8 L479.7,23.4 L480.2,22.1 L480.7,20.9 L481.2,19.7 L481.7,18.6 L482.2,17.6    L482.7,16.6 L483.2,15.8 L483.8,15.0 L484.3,14.3 L484.8,13.6 L485.3,13.1 L485.8,12.6 L486.3,12.2    L486.8,11.9 L487.3,11.6 L487.8,11.4 L488.3,11.3 L488.8,11.3 L489.3,11.4 L489.8,11.5 L490.4,11.7    L490.9,12.0 L491.4,12.3 L491.9,12.8 L492.4,13.3 L492.9,13.9 L493.4,14.5 L493.9,15.3 L494.4,16.1    L494.9,17.0 L495.4,18.0 L495.9,19.0 L496.4,20.1 L496.9,21.3 L497.5,22.6 L498.0,23.9 L498.5,25.3    L499.0,26.8 L499.5,28.4 L500.0,30.0 L500.5,31.7 L501.0,33.4 L501.5,35.3 L502.0,37.1 L502.5,39.1    L503.0,41.1 L503.5,43.2 L504.0,45.4 L504.6,47.6 L505.1,49.9 L505.6,52.2 L506.1,54.6 L506.6,57.1    L507.1,59.6 L507.6,62.2 L508.1,64.8 L508.6,67.5 L509.1,70.3 L509.6,73.1 L510.1,75.9 L510.6,78.8    L511.1,81.8 L511.7,84.8 L512.2,87.9 L512.7,91.0 L513.2,94.1 L513.7,97.3 L514.2,100.5 L514.7,103.8    L515.2,107.1 L515.7,110.4 L516.2,113.8 L516.7,117.3 L517.2,120.7 L517.7,124.2 L518.2,127.7 L518.8,131.3    L519.3,134.9 L519.8,138.5 L520.3,142.1 L520.8,145.8 L521.3,149.5 L521.8,153.2 L522.3,156.9 L522.8,160.6    L523.3,164.4 L523.8,168.2 L524.3,172.0 L524.8,175.8 L525.3,179.6 L525.9,183.4 L526.4,187.2 L526.9,191.1    L527.4,194.9 L527.9,198.8 L528.4,202.6 L528.9,206.5 L529.4,210.3 L529.9,214.2 L530.4,218.0 L530.9,221.8    L531.4,225.7 L531.9,229.5 L532.4,233.3 L533.0,237.1 L533.5,240.9 L534.0,244.7 L534.5,248.4 L535.0,252.2    L535.5,255.9 L536.0,259.6 L536.5,263.2 L537.0,266.9 L537.5,270.5 L538.0,274.1 L538.5,277.7 L539.0,281.2    L539.5,284.7 L540.1,288.2 L540.6,291.6 L541.1,295.0 L541.6,298.4 L542.1,301.7 L542.6,305.0 L543.1,308.3     h0.01" stroke="rgb(  0,   0, 255)"/></g>
	</g>
<g style="fill:none; color:black; stroke:currentColor; stroke-width:0.50; stroke-linecap:butt; stroke-linejoin:miter">
</g>
</g>
</svg>