<svg height="420px" viewBox="0 0 560 420" width="560px" xmlns="http://www.w3.org/2000/svg" xmlns:xlink="http://www.w3.org/1999/xlink">

<title>Gnuplot</title>
<desc>Produced by GNUPLOT 4.6 patchlevel 2 </desc>

<g id="gnuplot_canvas">

<rect fill="none" height="420" width="560" x="0" y="0"/>
<defs>

	<circle id="gpDot" r="0.5" stroke-width="0.5"/>
	<path d="M-1,0 h2 M0,-1 v2" id="gpPt0" stroke="currentColor" stroke-width="0.333"/>
	<path d="M-1,-1 L1,1 M1,-1 L-1,1" id="gpPt1" stroke="currentColor" stroke-width="0.333"/>
	<path d="M-1,0 L1,0 M0,-1 L0,1 M-1,-1 L1,1 M-1,1 L1,-1" id="gpPt2" stroke="currentColor" stroke-width="0.333"/>
	<rect height="2" id="gpPt3" stroke="currentColor" stroke-width="0.333" width="2" x="-1" y="-1"/>
	<rect fill="currentColor" height="2" id="gpPt4" stroke="currentColor" stroke-width="0.333" width="2" x="-1" y="-1"/>
	<circle cx="0" cy="0" id="gpPt5" r="1" stroke="currentColor" stroke-width="0.333"/>
	<use fill="currentColor" id="gpPt6" stroke="none" xlink:href="#gpPt5"/>
	<path d="M0,-1.33 L-1.33,0.67 L1.33,0.67 z" id="gpPt7" stroke="currentColor" stroke-width="0.333"/>
	<use fill="currentColor" id="gpPt8" stroke="none" xlink:href="#gpPt7"/>
	<use id="gpPt9" stroke="currentColor" transform="rotate(180)" xlink:href="#gpPt7"/>
	<use fill="currentColor" id="gpPt10" stroke="none" xlink:href="#gpPt9"/>
	<use id="gpPt11" stroke="currentColor" transform="rotate(45)" xlink:href="#gpPt3"/>
	<use fill="currentColor" id="gpPt12" stroke="none" xlink:href="#gpPt11"/>
</defs>
<g style="fill:none; color:white; stroke:currentColor; stroke-width:1.00; stroke-linecap:butt; stroke-linejoin:miter">
</g>
<g style="fill:none; color:black; stroke:currentColor; stroke-width:1.00; stroke-linecap:butt; stroke-linejoin:miter">
	<g style="stroke:none; shape-rendering:crispEdges">
		<polygon fill="rgb(255, 255, 255)" points="48.4,369.6 543.0,369.6 543.0,11.4 48.4,11.4 "/>
	</g>
	<path d="M48.4,369.6 L48.4,11.4 L543.0,11.4 L543.0,369.6 L48.4,369.6  h0.01" stroke="black"/></g>
<g style="fill:none; color:black; stroke:black; stroke-width:0.50; stroke-linecap:butt; stroke-linejoin:miter">
	<path d="M48.4,369.6 L56.8,369.6 M543.1,369.6 L534.7,369.6  h0.01" stroke="black"/>	<g style="stroke:none; fill:rgb(0,0,0); font-family:{}; font-size:10.00pt; text-anchor:end" transform="translate(42.8,373.3)">
		<text><tspan>-1</tspan></text>
	</g>
	<path d="M48.4,280.0 L56.8,280.0 M543.1,280.0 L534.7,280.0  h0.01" stroke="black"/>	<g style="stroke:none; fill:rgb(0,0,0); font-family:{}; font-size:10.00pt; text-anchor:end" transform="translate(42.8,283.7)">
		<text><tspan>-0.5</tspan></text>
	</g>
	<path d="M48.4,190.4 L56.8,190.4 M543.1,190.4 L534.7,190.4  h0.01" stroke="black"/>	<g style="stroke:none; fill:rgb(0,0,0); font-family:{}; font-size:10.00pt; text-anchor:end" transform="translate(42.8,194.1)">
		<text><tspan>0</tspan></text>
	</g>
	<path d="M48.4,100.9 L56.8,100.9 M543.1,100.9 L534.7,100.9  h0.01" stroke="black"/>	<g style="stroke:none; fill:rgb(0,0,0); font-family:{}; font-size:10.00pt; text-anchor:end" transform="translate(42.8,104.6)">
		<text><tspan>0.5</tspan></text>
	</g>
	<path d="M48.4,11.3 L56.8,11.3 M543.1,11.3 L534.7,11.3  h0.01" stroke="black"/>	<g style="stroke:none; fill:rgb(0,0,0); font-family:{}; font-size:10.00pt; text-anchor:end" transform="translate(42.8,15.0)">
		<text><tspan>1</tspan></text>
	</g>
	<path d="M48.4,369.6 L48.4,361.2 M48.4,11.3 L48.4,19.7  h0.01" stroke="black"/>	<g style="stroke:none; fill:rgb(0,0,0); font-family:{}; font-size:10.00pt; text-anchor:middle" transform="translate(48.4,385.3)">
		<text><tspan>-3</tspan></text>
	</g>
	<path d="M130.9,369.6 L130.9,361.2 M130.9,11.3 L130.9,19.7  h0.01" stroke="black"/>	<g style="stroke:none; fill:rgb(0,0,0); font-family:{}; font-size:10.00pt; text-anchor:middle" transform="translate(130.9,385.3)">
		<text><tspan>-2</tspan></text>
	</g>
	<path d="M213.3,369.6 L213.3,361.2 M213.3,11.3 L213.3,19.7  h0.01" stroke="black"/>	<g style="stroke:none; fill:rgb(0,0,0); font-family:{}; font-size:10.00pt; text-anchor:middle" transform="translate(213.3,385.3)">
		<text><tspan>-1</tspan></text>
	</g>
	<path d="M295.8,369.6 L295.8,361.2 M295.8,11.3 L295.8,19.7  h0.01" stroke="black"/>	<g style="stroke:none; fill:rgb(0,0,0); font-family:{}; font-size:10.00pt; text-anchor:middle" transform="translate(295.8,385.3)">
		<text><tspan>0</tspan></text>
	</g>
	<path d="M378.2,369.6 L378.2,361.2 M378.2,11.3 L378.2,19.7  h0.01" stroke="black"/>	<g style="stroke:none; fill:rgb(0,0,0); font-family:{}; font-size:10.00pt; text-anchor:middle" transform="translate(378.2,385.3)">
		<text><tspan>1</tspan></text>
	</g>
	<path d="M460.7,369.6 L460.7,361.2 M460.7,11.3 L460.7,19.7  h0.01" stroke="black"/>	<g style="stroke:none; fill:rgb(0,0,0); font-family:{}; font-size:10.00pt; text-anchor:middle" transform="translate(460.7,385.3)">
		<text><tspan>2</tspan></text>
	</g>
	<path d="M543.1,369.6 L543.1,361.2 M543.1,11.3 L543.1,19.7  h0.01" stroke="black"/>	<g style="stroke:none; fill:rgb(0,0,0); font-family:{}; font-size:10.00pt; text-anchor:middle" transform="translate(543.1,385.3)">
		<text><tspan>3</tspan></text>
	</g>
	<path d="M48.4,11.3 L48.4,369.6 L543.1,369.6 L543.1,11.3 L48.4,11.3 Z  h0.01" stroke="black"/>	<g style="stroke:none; fill:rgb(0,0,0); font-family:{}; font-size:10.00pt; text-anchor:middle" transform="translate(12.5,190.5) rotate(-90)">
		<text><tspan style="font-family:Symbol">q</tspan><tspan dy="3.00pt" font-size="8.0pt" style="font-family:{}">1</tspan><tspan dy="-3.00pt" font-size="10.0pt"/></text>
	</g>
	<g style="stroke:none; fill:rgb(0,0,0); font-family:{}; font-size:10.00pt; text-anchor:middle" transform="translate(295.7,403.3)">
		<text><tspan style="font-family:Symbol">q</tspan><tspan dy="3.00pt" font-size="8.0pt" style="font-family:{}">0</tspan><tspan dy="-3.00pt" font-size="10.0pt"/></text>
	</g>
</g>
	<g id="gnuplot_plot_1a"><title>gnuplot_plot_1a</title>
<g style="fill:none; color:red; stroke:currentColor; stroke-width:0.50; stroke-linecap:butt; stroke-linejoin:miter">
	<path d="M399.1,201.4 L401.8,202.0 L411.9,203.1 L417.3,201.4 L411.9,198.3 L407.6,194.1 L401.8,191.5 L394.2,186.8    L391.7,185.8 L381.6,181.2 L378.6,179.5 L371.5,176.9 L361.7,172.2 L361.4,172.0 L351.3,168.9 L342.3,164.9    L341.2,164.5 L331.1,161.8 L321.0,157.9 L320.0,157.5 L310.9,155.9 L300.8,155.5 L298.4,157.5 L300.8,158.8    L308.9,164.9 L310.9,165.7 L321.0,170.9 L322.8,172.2 L331.1,175.4 L338.7,179.5 L341.2,180.4 L351.3,184.2    L356.4,186.8 L361.4,188.4 L371.5,192.1 L376.0,194.1 L381.6,195.7 L391.7,198.6 L399.1,201.4  h0.01" stroke="rgb(  0,   0, 128)"/></g>
	</g>
	<g id="gnuplot_plot_2a"><title>gnuplot_plot_2a</title>
<g style="fill:none; color:red; stroke:currentColor; stroke-width:0.50; stroke-linecap:butt; stroke-linejoin:miter">
	<path d="M409.8,208.7 L411.9,209.3 L421.9,211.3 L432.0,212.9 L440.1,208.7 L432.0,203.5 L429.9,201.4 L421.9,197.5    L416.8,194.1 L411.9,191.9 L402.6,186.8 L401.8,186.5 L391.7,182.3 L386.4,179.5 L381.6,177.6 L371.5,173.2    L369.4,172.2 L361.4,169.3 L351.4,164.9 L351.3,164.8 L341.2,161.6 L331.4,157.5 L331.1,157.4 L321.0,154.6    L310.9,151.0 L308.6,150.2 L300.8,148.4 L290.7,146.3 L280.6,144.5 L276.4,150.2 L280.6,152.6 L287.0,157.5    L290.7,159.3 L299.9,164.9 L300.8,165.3 L310.9,169.8 L314.9,172.2 L321.0,174.6 L330.6,179.5 L331.1,179.7    L341.2,183.5 L348.2,186.8 L351.3,187.9 L361.4,191.7 L366.8,194.1 L371.5,195.7 L381.6,199.2 L387.0,201.4    L391.7,202.8 L401.8,205.8 L409.8,208.7  h0.01" stroke="rgb(  0,   0, 128)"/></g>
	</g>
	<g id="gnuplot_plot_3a"><title>gnuplot_plot_3a</title>
<g style="fill:none; color:red; stroke:currentColor; stroke-width:0.50; stroke-linecap:butt; stroke-linejoin:miter">
	<path d="M441.6,223.4 L442.1,223.5 L452.2,225.3 L462.3,226.7 L472.4,225.6 L474.3,223.4 L472.4,222.0 L466.5,216.0    L462.3,213.7 L455.4,208.7 L452.2,207.1 L442.7,201.4 L442.1,201.1 L432.0,196.3 L428.3,194.1 L421.9,191.3    L413.3,186.8 L411.9,186.2 L401.8,181.8 L397.0,179.5 L391.7,177.3 L381.6,172.8 L380.3,172.2 L371.5,168.9    L362.5,164.9 L361.4,164.5 L351.3,160.8 L343.5,157.5 L341.2,156.7 L331.1,153.3 L323.5,150.2 L321.0,149.4    L310.9,146.3 L301.9,142.9 L300.8,142.6 L290.7,139.9 L280.6,136.8 L276.7,135.6 L270.5,134.2 L260.4,132.4    L250.3,131.1 L241.4,135.6 L249.7,142.9 L250.3,143.3 L260.4,149.6 L261.2,150.2 L270.5,155.0 L274.5,157.5    L280.6,160.4 L288.7,164.9 L290.7,165.7 L300.8,170.4 L304.1,172.2 L310.9,175.0 L320.1,179.5 L321.0,179.8    L331.1,183.9 L337.4,186.8 L341.2,188.2 L351.3,192.3 L355.3,194.1 L361.4,196.3 L371.5,200.3 L374.3,201.4    L381.6,203.9 L391.7,207.6 L394.5,208.7 L401.8,211.0 L411.9,214.4 L416.6,216.0 L421.9,217.5 L432.0,220.3    L441.6,223.4  h0.01" stroke="rgb(  0,   0, 128)"/></g>
	</g>
	<g id="gnuplot_plot_4a"><title>gnuplot_plot_4a</title>
<g style="fill:none; color:red; stroke:currentColor; stroke-width:0.50; stroke-linecap:butt; stroke-linejoin:miter">
	<path d="M499.4,245.3 L502.7,245.8 L512.8,246.0 L516.2,245.3 L516.5,238.0 L512.8,235.1 L508.4,230.7 L502.7,227.1    L497.7,223.4 L492.6,220.5 L485.6,216.0 L482.5,214.5 L472.6,208.7 L472.4,208.7 L462.3,203.7 L458.2,201.4    L452.2,198.7 L443.4,194.1 L442.1,193.5 L432.0,189.0 L427.7,186.8 L421.9,184.3 L411.9,179.5 L411.7,179.5    L401.8,175.4 L394.7,172.2 L391.7,171.0 L381.6,166.8 L377.2,164.9 L371.5,162.7 L361.4,158.5 L359.1,157.5    L351.3,154.7 L341.2,150.6 L340.3,150.2 L331.1,147.0 L321.0,143.1 L320.6,142.9 L310.9,139.7 L300.8,136.0    L299.8,135.6 L290.7,132.8 L280.6,129.4 L277.3,128.3 L270.5,126.4 L260.4,123.4 L252.8,121.0 L250.3,120.3    L240.2,118.0 L230.1,115.6 L222.0,113.7 L220.0,113.3 L209.9,112.3 L199.8,112.7 L197.2,113.7 L199.2,121.0    L199.8,121.4 L208.0,128.3 L209.9,129.5 L218.8,135.6 L220.0,136.3 L230.1,142.3 L231.1,142.9 L240.2,147.6    L244.7,150.2 L250.3,152.9 L258.8,157.5 L260.4,158.3 L270.5,163.1 L273.9,164.9 L280.6,167.8 L289.4,172.2    L290.7,172.7 L300.8,177.1 L305.9,179.5 L310.9,181.5 L321.0,186.0 L322.7,186.8 L331.1,190.1 L340.2,194.1    L341.2,194.5 L351.3,198.3 L358.6,201.4 L361.4,202.5 L371.5,206.2 L377.6,208.7 L381.6,210.1 L391.7,213.8    L397.5,216.0 L401.8,217.5 L411.9,220.9 L418.4,223.4 L421.9,224.5 L432.0,227.6 L440.8,230.7 L442.1,231.1    L452.2,233.8 L462.3,236.9 L466.0,238.0 L472.4,239.5 L482.5,241.8 L492.6,244.0 L499.4,245.3  h0.01" stroke="rgb(  0,   0, 128)"/></g>
	</g>
	<g id="gnuplot_plot_5a"><title>gnuplot_plot_5a</title>
<g style="fill:none; color:red; stroke:currentColor; stroke-width:0.50; stroke-linecap:butt; stroke-linejoin:miter">
	<path d="M543.1,268.4 L536.5,267.2 L533.0,266.5 L522.9,264.0 L512.8,261.5 L506.2,259.9 L502.7,258.9 L492.6,255.9    L482.5,253.2 L480.6,252.6 L472.4,249.9 L462.3,246.8 L457.4,245.3 L452.2,243.5 L442.1,240.1 L435.5,238.0    L432.0,236.7 L421.9,233.1 L414.5,230.7 L411.9,229.7 L401.8,225.9 L394.5,223.4 L391.7,222.3 L381.6,218.4    L375.1,216.0 L371.5,214.6 L361.4,210.6 L356.3,208.7 L351.3,206.6 L341.2,202.6 L338.0,201.4 L331.1,198.4    L321.0,194.4 L320.1,194.1 L310.9,190.0 L302.9,186.8 L300.8,185.8 L290.7,181.4 L286.1,179.5 L280.6,176.9    L270.5,172.5 L269.7,172.2 L260.4,167.7 L253.8,164.9 L250.3,163.1 L240.2,158.4 L238.4,157.5 L230.1,153.3    L223.5,150.2 L220.0,148.4 L209.9,143.4 L209.0,142.9 L199.8,137.9 L195.3,135.6 L189.7,132.4 L182.1,128.3    L179.6,126.7 L169.6,121.0 L169.5,121.0 L159.5,114.4 L158.2,113.7 L149.4,107.1 L148.2,106.4 L140.1,99.0    L139.3,97.1 L136.4,91.7 L139.3,89.2 L149.4,87.3 L159.5,87.9 L169.6,89.3 L179.6,91.0 L183.2,91.7    L189.7,93.3 L199.8,95.9 L209.9,98.4 L212.6,99.0 L220.0,101.3 L230.1,104.2 L237.7,106.4 L240.2,107.2    L250.3,110.5 L260.4,113.5 L260.9,113.7 L270.5,117.1 L280.6,120.3 L282.6,121.0 L290.7,124.0 L300.8,127.4    L303.3,128.3 L310.9,131.2 L321.0,134.8 L323.3,135.6 L331.1,138.7 L341.2,142.4 L342.7,142.9 L351.3,146.4    L361.4,150.2 L361.5,150.2 L371.5,154.4 L379.6,157.5 L381.6,158.4 L391.7,162.7 L397.2,164.9 L401.8,166.9    L411.9,171.1 L414.5,172.2 L421.9,175.6 L431.3,179.5 L432.0,179.8 L442.1,184.5 L447.5,186.8 L452.2,189.1    L462.3,193.6 L463.5,194.1 L472.4,198.5 L478.8,201.4 L482.5,203.4 L492.6,208.2 L493.7,208.7 L502.7,213.5    L507.9,216.0 L512.8,218.8 L521.8,223.4 L522.9,224.0 L533.0,229.7 L534.8,230.7 L543.1,235.8  h0.01" stroke="rgb(  0,   0, 128)"/></g>
	</g>
	<g id="gnuplot_plot_6a"><title>gnuplot_plot_6a</title>
<g style="fill:none; color:red; stroke:currentColor; stroke-width:0.50; stroke-linecap:butt; stroke-linejoin:miter">
	<path d="M543.1,284.7 L533.0,282.0 L532.7,281.9 L522.9,278.7 L512.8,275.7 L509.0,274.5 L502.7,272.5 L492.6,269.2    L486.3,267.2 L482.5,265.9 L472.4,262.5 L464.5,259.9 L462.3,259.2 L452.2,255.6 L443.4,252.6 L442.1,252.1    L432.0,248.4 L423.0,245.3 L421.9,244.9 L411.9,241.1 L403.2,238.0 L401.8,237.4 L391.7,233.5 L383.8,230.7    L381.6,229.8 L371.5,225.8 L364.9,223.4 L361.4,221.9 L351.3,217.9 L346.4,216.0 L341.2,213.9 L331.1,209.8    L328.3,208.7 L321.0,205.6 L310.9,201.6 L310.4,201.4 L300.8,197.3 L293.0,194.1 L290.7,193.1 L280.6,188.7    L276.0,186.8 L270.5,184.3 L260.4,180.0 L259.1,179.5 L250.3,175.4 L242.8,172.2 L240.2,171.0 L230.1,166.4    L226.7,164.9 L220.0,161.7 L210.9,157.5 L209.9,157.1 L199.8,152.2 L195.5,150.2 L189.7,147.3 L180.4,142.9    L179.6,142.5 L169.6,137.4 L165.8,135.6 L159.5,132.2 L151.5,128.3 L149.4,127.1 L139.3,121.8 L137.7,121.0    L129.2,116.2 L124.4,113.7 L119.1,110.5 L111.6,106.4 L109.0,104.7 L99.2,99.0 L98.9,98.8 L88.8,92.3    L87.8,91.7 L78.7,85.4 L77.2,84.4 L68.6,77.7 L67.7,77.1 L60.0,69.8 L58.5,67.4 L55.0,62.5    L56.8,55.2 L58.5,54.5 L68.6,53.0 L78.7,53.1 L88.8,54.0 L97.1,55.2 L98.9,55.5 L109.0,57.5    L119.1,59.6 L129.2,61.8 L132.1,62.5 L139.3,64.4 L149.4,67.0 L159.5,69.6 L160.4,69.8 L169.6,72.6    L179.6,75.4 L185.6,77.1 L189.7,78.4 L199.8,81.6 L209.4,84.4 L209.9,84.6 L220.0,88.0 L230.1,91.2    L231.9,91.7 L240.2,94.7 L250.3,98.0 L253.5,99.0 L260.4,101.6 L270.5,105.0 L274.4,106.4 L280.6,108.7    L290.7,112.3 L294.7,113.7 L300.8,116.0 L310.9,119.7 L314.5,121.0 L321.0,123.5 L331.1,127.3 L333.8,128.3    L341.2,131.2 L351.3,135.1 L352.7,135.6 L361.4,139.1 L371.3,142.9 L371.5,143.0 L381.6,147.2 L389.3,150.2    L391.7,151.2 L401.8,155.5 L407.0,157.5 L411.9,159.7 L421.9,163.8 L424.4,164.9 L432.0,168.2 L441.5,172.2    L442.1,172.4 L452.2,177.0 L458.1,179.5 L462.3,181.4 L472.4,185.9 L474.6,186.8 L482.5,190.5 L490.6,194.1    L492.6,195.1 L502.7,199.8 L506.3,201.4 L512.8,204.6 L521.7,208.7 L522.9,209.3 L533.0,214.3 L536.6,216.0    L543.1,219.4  h0.01" stroke="rgb(  0,   0, 144)"/></g>
	</g>
	<g id="gnuplot_plot_7a"><title>gnuplot_plot_7a</title>
<g style="fill:none; color:red; stroke:currentColor; stroke-width:0.50; stroke-linecap:butt; stroke-linejoin:miter">
	<path d="M543.1,302.9 L533.0,299.5 L523.6,296.5 L522.9,296.3 L512.8,292.7 L502.7,289.4 L502.0,289.2 L492.6,285.8    L482.5,282.4 L481.0,281.9 L472.4,278.7 L462.3,275.2 L460.4,274.5 L452.2,271.5 L442.1,267.9 L440.2,267.2    L432.0,264.1 L421.9,260.5 L420.4,259.9 L411.9,256.6 L401.8,252.9 L400.9,252.6 L391.7,249.0 L381.8,245.3    L381.6,245.2 L371.5,241.2 L363.1,238.0 L361.4,237.3 L351.3,233.3 L344.6,230.7 L341.2,229.3 L331.1,225.2    L326.4,223.4 L321.0,221.1 L310.9,217.0 L308.4,216.0 L300.8,212.8 L290.7,208.8 L290.6,208.7 L280.6,204.4    L273.2,201.4 L270.5,200.2 L260.4,195.9 L256.1,194.1 L250.3,191.6 L240.2,187.3 L239.1,186.8 L230.1,182.8    L222.4,179.5 L220.0,178.4 L209.9,173.9 L205.9,172.2 L199.8,169.4 L189.7,164.9 L189.6,164.9 L179.6,160.2    L173.7,157.5 L169.6,155.5 L159.5,150.9 L158.0,150.2 L149.4,146.1 L142.5,142.9 L139.3,141.3 L129.2,136.5    L127.3,135.6 L119.1,131.5 L112.4,128.3 L109.0,126.5 L98.9,121.6 L97.7,121.0 L88.8,116.4 L83.3,113.7    L78.7,111.2 L69.2,106.4 L68.6,106.0 L58.5,100.6 L55.5,99.0 L48.4,95.1  h0.01" stroke="rgb(  0,   0, 160)"/></g>
	</g>
	<g id="gnuplot_plot_8a"><title>gnuplot_plot_8a</title>
<g style="fill:none; color:red; stroke:currentColor; stroke-width:0.50; stroke-linecap:butt; stroke-linejoin:miter">
	<path d="M543.1,201.2 L533.0,196.7 L527.6,194.1 L522.9,192.0 L512.8,187.4 L511.4,186.8 L502.7,183.0 L495.0,179.5    L492.6,178.5 L482.5,174.1 L478.3,172.2 L472.4,169.7 L462.3,165.3 L461.4,164.9 L452.2,161.0 L444.2,157.5    L442.1,156.7 L432.0,152.5 L426.8,150.2 L421.9,148.3 L411.9,144.1 L409.1,142.9 L401.8,140.0 L391.7,135.8    L391.3,135.6 L381.6,131.8 L373.0,128.3 L371.5,127.7 L361.4,123.8 L354.5,121.0 L351.3,119.7 L341.2,115.8    L335.8,113.7 L331.1,111.9 L321.0,108.0 L316.7,106.4 L310.9,104.2 L300.8,100.4 L297.3,99.0 L290.7,96.7    L280.6,92.9 L277.6,91.7 L270.5,89.2 L260.4,85.5 L257.4,84.4 L250.3,81.9 L240.2,78.3 L236.9,77.1    L230.1,74.8 L220.0,71.3 L215.9,69.8 L209.9,67.8 L199.8,64.4 L194.4,62.5 L189.7,61.0 L179.6,57.7    L172.3,55.2 L169.6,54.3 L159.5,51.1 L149.6,47.9 L149.4,47.8 L139.3,44.8 L129.2,41.6 L125.7,40.5    L119.1,38.6 L109.0,35.7 L100.9,33.2 L98.9,32.7 L88.8,29.9 L78.7,27.1 L74.4,25.9 L68.6,24.4    L58.5,21.9 L48.4,19.3  h0.01" stroke="rgb(  0,   0, 160)"/></g>
	</g>
	<g id="gnuplot_plot_9a"><title>gnuplot_plot_9a</title>
<g style="fill:none; color:red; stroke:currentColor; stroke-width:0.50; stroke-linecap:butt; stroke-linejoin:miter">
	<path d="M109.6,11.3 L119.1,14.5 L129.2,17.8 L131.7,18.6 L139.3,21.2 L149.4,24.6 L153.3,25.9 L159.5,28.1    L169.6,31.6 L174.5,33.2 L179.6,35.1 L189.7,38.6 L195.4,40.5 L199.8,42.2 L209.9,45.8 L215.9,47.9    L220.0,49.4 L230.1,53.0 L236.2,55.2 L240.2,56.7 L250.3,60.4 L256.1,62.5 L260.4,64.1 L270.5,67.9    L275.8,69.8 L280.6,71.6 L290.7,75.4 L295.2,77.1 L300.8,79.3 L310.9,83.1 L314.4,84.4 L321.0,87.0    L331.1,90.8 L333.4,91.7 L341.2,94.8 L351.3,98.7 L352.2,99.0 L361.4,102.7 L370.7,106.4 L371.5,106.7    L381.6,110.8 L389.0,113.7 L391.7,114.8 L401.8,118.9 L407.1,121.0 L411.9,123.0 L421.9,127.1 L425.0,128.3    L432.0,131.2 L442.1,135.3 L442.8,135.6 L452.2,139.6 L460.3,142.9 L462.3,143.8 L472.4,148.1 L477.7,150.2    L482.5,152.3 L492.6,156.6 L494.9,157.5 L502.7,161.0 L511.9,164.9 L512.8,165.3 L522.9,169.7 L528.7,172.2    L533.0,174.1 L543.1,178.5  h0.01" stroke="rgb(  0,   0, 208)"/></g>
	</g>
	<g id="gnuplot_plot_10a"><title>gnuplot_plot_10a</title>
<g style="fill:none; color:red; stroke:currentColor; stroke-width:0.50; stroke-linecap:butt; stroke-linejoin:miter">
	<path d="M543.1,325.6 L533.0,322.0 L522.9,318.6 L522.4,318.4 L512.8,314.9 L502.7,311.4 L501.9,311.1 L492.6,307.7    L482.5,304.1 L481.6,303.8 L472.4,300.4 L462.3,296.7 L461.6,296.5 L452.2,292.9 L442.1,289.3 L441.9,289.2    L432.0,285.4 L422.4,281.9 L421.9,281.7 L411.9,277.8 L403.2,274.5 L401.8,274.0 L391.7,270.0 L384.3,267.2    L381.6,266.2 L371.5,262.2 L365.5,259.9 L361.4,258.3 L351.3,254.3 L346.9,252.6 L341.2,250.3 L331.1,246.3    L328.6,245.3 L321.0,242.2 L310.9,238.2 L310.4,238.0 L300.8,234.0 L292.5,230.7 L290.7,229.9 L280.6,225.7    L274.7,223.4 L270.5,221.6 L260.4,217.4 L257.2,216.0 L250.3,213.1 L240.2,208.9 L239.7,208.7 L230.1,204.6    L222.6,201.4 L220.0,200.3 L209.9,196.0 L205.6,194.1 L199.8,191.6 L189.7,187.3 L188.7,186.8 L179.6,182.8    L172.0,179.5 L169.6,178.4 L159.5,173.9 L155.5,172.2 L149.4,169.3 L139.3,164.9 L139.2,164.9 L129.2,160.2    L123.1,157.5 L119.1,155.7 L109.0,151.1 L107.1,150.2 L98.9,146.4 L91.3,142.9 L88.8,141.7 L78.7,137.0    L75.8,135.6 L68.6,132.1 L60.3,128.3 L58.5,127.4 L48.4,122.5  h0.01" stroke="rgb(  0,   0, 208)"/></g>
	</g>
	<g id="gnuplot_plot_11a"><title>gnuplot_plot_11a</title>
<g style="fill:none; color:red; stroke:currentColor; stroke-width:0.50; stroke-linecap:butt; stroke-linejoin:miter">
	<path d="M196.4,11.3 L199.8,12.6 L209.9,16.3 L216.4,18.6 L220.0,20.0 L230.1,23.7 L236.1,25.9 L240.2,27.5    L250.3,31.3 L255.6,33.2 L260.4,35.1 L270.5,38.9 L275.0,40.5 L280.6,42.7 L290.7,46.5 L294.2,47.9    L300.8,50.4 L310.9,54.3 L313.3,55.2 L321.0,58.2 L331.1,62.1 L332.1,62.5 L341.2,66.1 L350.9,69.8    L351.3,70.0 L361.4,74.0 L369.4,77.1 L371.5,78.0 L381.6,82.0 L387.8,84.4 L391.7,86.0 L401.8,90.1    L406.0,91.7 L411.9,94.1 L421.9,98.2 L424.1,99.0 L432.0,102.3 L442.1,106.4 L452.2,110.6 L459.9,113.7    L462.3,114.7 L472.4,118.9 L477.6,121.0 L482.5,123.1 L492.6,127.3 L495.1,128.3 L502.7,131.5 L512.6,135.6    L512.8,135.7 L522.9,140.0 L529.8,142.9 L533.0,144.3 L543.1,148.6  h0.01" stroke="rgb(  0,  18, 255)"/></g>
	</g>
	<g id="gnuplot_plot_12a"><title>gnuplot_plot_12a</title>
<g style="fill:none; color:red; stroke:currentColor; stroke-width:0.50; stroke-linecap:butt; stroke-linejoin:miter">
	<path d="M543.1,355.5 L541.5,355.0 L533.0,351.8 L522.9,348.2 L521.4,347.7 L512.8,344.5 L502.7,340.8 L501.4,340.4    L492.6,337.1 L482.5,333.4 L481.6,333.0 L472.4,329.6 L462.3,325.8 L462.0,325.7 L452.2,322.0 L442.6,318.4    L442.1,318.2 L432.0,314.3 L423.4,311.1 L421.9,310.5 L411.9,306.6 L404.4,303.8 L401.8,302.7 L391.7,298.8    L385.5,296.5 L381.6,294.9 L371.5,291.0 L366.8,289.2 L361.4,287.0 L351.3,283.0 L348.2,281.9 L341.2,279.0    L331.1,275.0 L329.8,274.5 L321.0,271.0 L311.5,267.2 L310.9,267.0 L300.8,262.8 L293.4,259.9 L290.7,258.8    L280.6,254.7 L275.5,252.6 L270.5,250.5 L260.4,246.4 L257.6,245.3 L250.3,242.2 L240.2,238.1 L239.9,238.0    L230.1,233.9 L222.3,230.7 L220.0,229.7 L209.9,225.4 L204.9,223.4 L199.8,221.2 L189.7,216.9 L187.6,216.0    L179.6,212.6 L170.4,208.7 L169.6,208.3 L159.5,204.0 L153.4,201.4 L149.4,199.6 L139.3,195.3 L136.5,194.1    L129.2,190.9 L119.7,186.8 L119.1,186.5 L109.0,182.0 L103.1,179.5 L98.9,177.6 L88.8,173.1 L86.6,172.2    L78.7,168.6 L70.2,164.9 L68.6,164.1 L58.5,159.6 L54.0,157.5 L48.4,155.0  h0.01" stroke="rgb(  0,  18, 255)"/></g>
	</g>
	<g id="gnuplot_plot_13a"><title>gnuplot_plot_13a</title>
<g style="fill:none; color:red; stroke:currentColor; stroke-width:0.50; stroke-linecap:butt; stroke-linejoin:miter">
	<path d="M301.6,11.3 L310.9,14.9 L320.5,18.6 L321.0,18.8 L331.1,22.8 L339.2,25.9 L341.2,26.7 L351.3,30.7    L357.8,33.2 L361.4,34.7 L371.5,38.6 L376.3,40.5 L381.6,42.6 L391.7,46.6 L394.7,47.9 L401.8,50.7    L411.9,54.7 L413.0,55.2 L421.9,58.8 L431.2,62.5 L432.0,62.8 L442.1,66.9 L449.3,69.8 L452.2,71.0    L462.3,75.1 L467.3,77.1 L472.4,79.2 L482.5,83.4 L485.1,84.4 L492.6,87.5 L502.7,91.6 L502.9,91.7    L512.8,95.9 L520.6,99.0 L522.9,100.0 L533.0,104.2 L538.2,106.4 L543.1,108.4  h0.01" stroke="rgb(  0, 164, 255)"/></g>
	</g>
	<g id="gnuplot_plot_14a"><title>gnuplot_plot_14a</title>
<g style="fill:none; color:red; stroke:currentColor; stroke-width:0.50; stroke-linecap:butt; stroke-linejoin:miter">
	<path d="M473.4,369.6 L472.4,369.2 L462.3,365.4 L454.1,362.3 L452.2,361.6 L442.1,357.7 L435.0,355.0 L432.0,353.8    L421.9,349.9 L416.1,347.7 L411.9,346.0 L401.8,342.1 L397.2,340.4 L391.7,338.2 L381.6,334.3 L378.4,333.0    L371.5,330.3 L361.4,326.3 L359.8,325.7 L351.3,322.3 L341.2,318.4 L331.1,314.3 L322.8,311.1 L321.0,310.4    L310.9,306.3 L304.6,303.8 L300.8,302.3 L290.7,298.2 L286.4,296.5 L280.6,294.1 L270.5,290.1 L268.2,289.2    L260.4,286.0 L250.3,281.9 L250.2,281.9 L240.2,277.7 L232.4,274.5 L230.1,273.6 L220.0,269.4 L214.6,267.2    L209.9,265.3 L199.8,261.1 L196.9,259.9 L189.7,256.9 L179.6,252.7 L179.3,252.6 L169.6,248.5 L161.8,245.3    L159.5,244.3 L149.4,240.0 L144.5,238.0 L139.3,235.8 L129.2,231.5 L127.1,230.7 L119.1,227.2 L109.9,223.4    L109.0,222.9 L98.9,218.6 L92.9,216.0 L88.8,214.3 L78.7,209.9 L75.9,208.7 L68.6,205.6 L58.9,201.4    L58.5,201.2 L48.4,196.8  h0.01" stroke="rgb(  0, 164, 255)"/></g>
	</g>
	<g id="gnuplot_plot_15a"><title>gnuplot_plot_15a</title>
<g style="fill:none; color:red; stroke:currentColor; stroke-width:0.50; stroke-linecap:butt; stroke-linejoin:miter">
	<path d="M334.6,369.6 L331.1,368.2 L321.0,364.2 L316.2,362.3 L310.9,360.2 L300.8,356.2 L297.8,355.0 L290.7,352.1    L280.6,348.1 L279.6,347.7 L270.5,344.0 L261.4,340.4 L260.4,340.0 L250.3,335.9 L243.3,333.0 L240.2,331.8    L230.1,327.7 L225.2,325.7 L220.0,323.6 L209.9,319.5 L207.3,318.4 L199.8,315.4 L189.7,311.3 L189.4,311.1    L179.6,307.1 L171.6,303.8 L169.6,303.0 L159.5,298.8 L153.8,296.5 L149.4,294.6 L139.3,290.4 L136.2,289.2    L129.2,286.2 L119.1,282.1 L118.6,281.9 L109.0,277.8 L101.0,274.5 L98.9,273.6 L88.8,269.4 L83.6,267.2    L78.7,265.1 L68.6,260.9 L66.2,259.9 L58.5,256.6 L48.9,252.6 L48.4,252.4  h0.01" stroke="rgb(168, 255,  87)"/></g>
	</g>
	<g id="gnuplot_plot_16a"><title>gnuplot_plot_16a</title>
<g style="fill:none; color:red; stroke:currentColor; stroke-width:0.50; stroke-linecap:butt; stroke-linejoin:miter">
	<path d="M438.0,11.3 L442.1,13.0 L452.2,17.0 L456.2,18.6 L462.3,21.1 L472.4,25.2 L474.3,25.9 L482.5,29.3    L492.3,33.2 L492.6,33.4 L502.7,37.5 L510.3,40.5 L512.8,41.6 L522.9,45.7 L528.1,47.9 L533.0,49.9    L543.1,54.0  h0.01" stroke="rgb(168, 255,  87)"/></g>
	</g>
	<g id="gnuplot_plot_17a"><title>gnuplot_plot_17a</title>
<g style="fill:none; color:red; stroke:currentColor; stroke-width:0.50; stroke-linecap:butt; stroke-linejoin:miter">
	<path d="M151.2,369.6 L149.4,368.8 L139.3,364.7 L133.3,362.3 L129.2,360.6 L119.1,356.4 L115.5,355.0 L109.0,352.3    L98.9,348.2 L97.7,347.7 L88.8,344.0 L79.9,340.4 L78.7,339.8 L68.6,335.6 L62.3,333.0 L58.5,331.5    L48.4,327.3  h0.01" stroke="rgb(128,   0,   0)"/></g>
	</g>
<g style="fill:none; color:black; stroke:currentColor; stroke-width:0.50; stroke-linecap:butt; stroke-linejoin:miter">
</g>
</g>
</svg>