<svg height="420px" viewBox="0 0 560 420" width="560px" xmlns="http://www.w3.org/2000/svg" xmlns:xlink="http://www.w3.org/1999/xlink">

<title>Gnuplot</title>
<desc>Produced by GNUPLOT 4.6 patchlevel 2 </desc>

<g id="gnuplot_canvas">

<rect fill="none" height="420" width="560" x="0" y="0"/>
<defs>

	<circle id="gpDot" r="0.5" stroke-width="0.5"/>
	<path d="M-1,0 h2 M0,-1 v2" id="gpPt0" stroke="currentColor" stroke-width="0.333"/>
	<path d="M-1,-1 L1,1 M1,-1 L-1,1" id="gpPt1" stroke="currentColor" stroke-width="0.333"/>
	<path d="M-1,0 L1,0 M0,-1 L0,1 M-1,-1 L1,1 M-1,1 L1,-1" id="gpPt2" stroke="currentColor" stroke-width="0.333"/>
	<rect height="2" id="gpPt3" stroke="currentColor" stroke-width="0.333" width="2" x="-1" y="-1"/>
	<rect fill="currentColor" height="2" id="gpPt4" stroke="currentColor" stroke-width="0.333" width="2" x="-1" y="-1"/>
	<circle cx="0" cy="0" id="gpPt5" r="1" stroke="currentColor" stroke-width="0.333"/>
	<use fill="currentColor" id="gpPt6" stroke="none" xlink:href="#gpPt5"/>
	<path d="M0,-1.33 L-1.33,0.67 L1.33,0.67 z" id="gpPt7" stroke="currentColor" stroke-width="0.333"/>
	<use fill="currentColor" id="gpPt8" stroke="none" xlink:href="#gpPt7"/>
	<use id="gpPt9" stroke="currentColor" transform="rotate(180)" xlink:href="#gpPt7"/>
	<use fill="currentColor" id="gpPt10" stroke="none" xlink:href="#gpPt9"/>
	<use id="gpPt11" stroke="currentColor" transform="rotate(45)" xlink:href="#gpPt3"/>
	<use fill="currentColor" id="gpPt12" stroke="none" xlink:href="#gpPt11"/>
</defs>
<g style="fill:none; color:white; stroke:currentColor; stroke-width:1.00; stroke-linecap:butt; stroke-linejoin:miter">
</g>
<g style="fill:none; color:black; stroke:currentColor; stroke-width:1.00; stroke-linecap:butt; stroke-linejoin:miter">
	<g style="stroke:none; shape-rendering:crispEdges">
		<polygon fill="rgb(255, 255, 255)" points="42.8,381.6 543.0,381.6 543.0,11.4 42.8,11.4 "/>
	</g>
	<path d="M42.8,381.6 L42.8,11.4 L543.0,11.4 L543.0,381.6 L42.8,381.6  h0.01" stroke="black"/></g>
<g style="fill:none; color:black; stroke:black; stroke-width:0.50; stroke-linecap:butt; stroke-linejoin:miter">
	<path d="M42.8,381.6 L51.2,381.6 M543.1,381.6 L534.7,381.6  h0.01" stroke="black"/>	<g style="stroke:none; fill:rgb(0,0,0); font-family:{}; font-size:10.00pt; text-anchor:end" transform="translate(37.2,385.3)">
		<text><tspan>0</tspan></text>
	</g>
	<path d="M42.8,328.7 L51.2,328.7 M543.1,328.7 L534.7,328.7  h0.01" stroke="black"/>	<g style="stroke:none; fill:rgb(0,0,0); font-family:{}; font-size:10.00pt; text-anchor:end" transform="translate(37.2,332.4)">
		<text><tspan>0.5</tspan></text>
	</g>
	<path d="M42.8,275.8 L51.2,275.8 M543.1,275.8 L534.7,275.8  h0.01" stroke="black"/>	<g style="stroke:none; fill:rgb(0,0,0); font-family:{}; font-size:10.00pt; text-anchor:end" transform="translate(37.2,279.5)">
		<text><tspan>1</tspan></text>
	</g>
	<path d="M42.8,222.9 L51.2,222.9 M543.1,222.9 L534.7,222.9  h0.01" stroke="black"/>	<g style="stroke:none; fill:rgb(0,0,0); font-family:{}; font-size:10.00pt; text-anchor:end" transform="translate(37.2,226.6)">
		<text><tspan>1.5</tspan></text>
	</g>
	<path d="M42.8,170.0 L51.2,170.0 M543.1,170.0 L534.7,170.0  h0.01" stroke="black"/>	<g style="stroke:none; fill:rgb(0,0,0); font-family:{}; font-size:10.00pt; text-anchor:end" transform="translate(37.2,173.7)">
		<text><tspan>2</tspan></text>
	</g>
	<path d="M42.8,117.1 L51.2,117.1 M543.1,117.1 L534.7,117.1  h0.01" stroke="black"/>	<g style="stroke:none; fill:rgb(0,0,0); font-family:{}; font-size:10.00pt; text-anchor:end" transform="translate(37.2,120.8)">
		<text><tspan>2.5</tspan></text>
	</g>
	<path d="M42.8,64.2 L51.2,64.2 M543.1,64.2 L534.7,64.2  h0.01" stroke="black"/>	<g style="stroke:none; fill:rgb(0,0,0); font-family:{}; font-size:10.00pt; text-anchor:end" transform="translate(37.2,67.9)">
		<text><tspan>3</tspan></text>
	</g>
	<path d="M42.8,11.3 L51.2,11.3 M543.1,11.3 L534.7,11.3  h0.01" stroke="black"/>	<g style="stroke:none; fill:rgb(0,0,0); font-family:{}; font-size:10.00pt; text-anchor:end" transform="translate(37.2,15.0)">
		<text><tspan>3.5</tspan></text>
	</g>
	<path d="M42.8,381.6 L42.8,373.2 M42.8,11.3 L42.8,19.7  h0.01" stroke="black"/>	<g style="stroke:none; fill:rgb(0,0,0); font-family:{}; font-size:10.00pt; text-anchor:middle" transform="translate(42.8,397.3)">
		<text><tspan>2</tspan></text>
	</g>
	<path d="M126.2,381.6 L126.2,373.2 M126.2,11.3 L126.2,19.7  h0.01" stroke="black"/>	<g style="stroke:none; fill:rgb(0,0,0); font-family:{}; font-size:10.00pt; text-anchor:middle" transform="translate(126.2,397.3)">
		<text><tspan>3</tspan></text>
	</g>
	<path d="M209.6,381.6 L209.6,373.2 M209.6,11.3 L209.6,19.7  h0.01" stroke="black"/>	<g style="stroke:none; fill:rgb(0,0,0); font-family:{}; font-size:10.00pt; text-anchor:middle" transform="translate(209.6,397.3)">
		<text><tspan>4</tspan></text>
	</g>
	<path d="M293.0,381.6 L293.0,373.2 M293.0,11.3 L293.0,19.7  h0.01" stroke="black"/>	<g style="stroke:none; fill:rgb(0,0,0); font-family:{}; font-size:10.00pt; text-anchor:middle" transform="translate(293.0,397.3)">
		<text><tspan>5</tspan></text>
	</g>
	<path d="M376.3,381.6 L376.3,373.2 M376.3,11.3 L376.3,19.7  h0.01" stroke="black"/>	<g style="stroke:none; fill:rgb(0,0,0); font-family:{}; font-size:10.00pt; text-anchor:middle" transform="translate(376.3,397.3)">
		<text><tspan>6</tspan></text>
	</g>
	<path d="M459.7,381.6 L459.7,373.2 M459.7,11.3 L459.7,19.7  h0.01" stroke="black"/>	<g style="stroke:none; fill:rgb(0,0,0); font-family:{}; font-size:10.00pt; text-anchor:middle" transform="translate(459.7,397.3)">
		<text><tspan>7</tspan></text>
	</g>
	<path d="M543.1,381.6 L543.1,373.2 M543.1,11.3 L543.1,19.7  h0.01" stroke="black"/>	<g style="stroke:none; fill:rgb(0,0,0); font-family:{}; font-size:10.00pt; text-anchor:middle" transform="translate(543.1,397.3)">
		<text><tspan>8</tspan></text>
	</g>
	<path d="M42.8,11.3 L42.8,381.6 L543.1,381.6 L543.1,11.3 L42.8,11.3 Z  h0.01" stroke="black"/>	<g style="stroke:none; fill:rgb(0,0,0); font-family:{}; font-size:10.00pt; text-anchor:middle" transform="translate(12.5,196.5) rotate(-90)">
		<text><tspan>Height (m)</tspan></text>
	</g>
	<g style="stroke:none; fill:rgb(0,0,0); font-family:{}; font-size:10.00pt; text-anchor:middle" transform="translate(292.9,415.3)">
		<text><tspan>Age (yrs.)</tspan></text>
	</g>
</g>
<g style="fill:none; color:black; stroke:black; stroke-width:1.00; stroke-linecap:butt; stroke-linejoin:miter">
	<path d="M374.7,77.3 L374.7,17.3 L537.5,17.3 L537.5,77.3 L374.7,77.3 Z  h0.01" stroke="black"/></g>
	<g id="gnuplot_plot_1a"><title>gnuplot_plot_1a</title>
<g style="fill:none; color:white; stroke:black; stroke-width:0.50; stroke-linecap:butt; stroke-linejoin:miter">
</g>
<g style="fill:none; color:red; stroke:currentColor; stroke-width:0.50; stroke-linecap:butt; stroke-linejoin:miter">
	<g style="stroke:none; fill:rgb(0,0,0); font-family:{}; font-size:10.00pt; text-anchor:end" transform="translate(537.5,27.0)">
		<text><tspan>Data</tspan></text>
	</g>
	<use color="rgb(  0, 255,   0)" transform="translate(48.3,299.2) scale(6.00)" xlink:href="#gpPt2"/>
	<use color="rgb(  0, 255,   0)" transform="translate(73.5,284.7) scale(6.00)" xlink:href="#gpPt2"/>
	<use color="rgb(  0, 255,   0)" transform="translate(87.8,285.8) scale(6.00)" xlink:href="#gpPt2"/>
	<use color="rgb(  0, 255,   0)" transform="translate(88.0,285.8) scale(6.00)" xlink:href="#gpPt2"/>
	<use color="rgb(  0, 255,   0)" transform="translate(88.6,282.3) scale(6.00)" xlink:href="#gpPt2"/>
	<use color="rgb(  0, 255,   0)" transform="translate(108.4,279.3) scale(6.00)" xlink:href="#gpPt2"/>
	<use color="rgb(  0, 255,   0)" transform="translate(118.8,279.6) scale(6.00)" xlink:href="#gpPt2"/>
	<use color="rgb(  0, 255,   0)" transform="translate(129.2,284.9) scale(6.00)" xlink:href="#gpPt2"/>
	<use color="rgb(  0, 255,   0)" transform="translate(135.7,282.2) scale(6.00)" xlink:href="#gpPt2"/>
	<use color="rgb(  0, 255,   0)" transform="translate(139.4,280.0) scale(6.00)" xlink:href="#gpPt2"/>
	<use color="rgb(  0, 255,   0)" transform="translate(153.5,286.6) scale(6.00)" xlink:href="#gpPt2"/>
	<use color="rgb(  0, 255,   0)" transform="translate(157.8,285.1) scale(6.00)" xlink:href="#gpPt2"/>
	<use color="rgb(  0, 255,   0)" transform="translate(160.6,281.9) scale(6.00)" xlink:href="#gpPt2"/>
	<use color="rgb(  0, 255,   0)" transform="translate(161.3,279.4) scale(6.00)" xlink:href="#gpPt2"/>
	<use color="rgb(  0, 255,   0)" transform="translate(170.5,270.2) scale(6.00)" xlink:href="#gpPt2"/>
	<use color="rgb(  0, 255,   0)" transform="translate(179.5,274.3) scale(6.00)" xlink:href="#gpPt2"/>
	<use color="rgb(  0, 255,   0)" transform="translate(182.3,280.1) scale(6.00)" xlink:href="#gpPt2"/>
	<use color="rgb(  0, 255,   0)" transform="translate(203.4,279.1) scale(6.00)" xlink:href="#gpPt2"/>
	<use color="rgb(  0, 255,   0)" transform="translate(213.7,267.7) scale(6.00)" xlink:href="#gpPt2"/>
	<use color="rgb(  0, 255,   0)" transform="translate(230.3,260.4) scale(6.00)" xlink:href="#gpPt2"/>
	<use color="rgb(  0, 255,   0)" transform="translate(238.3,272.2) scale(6.00)" xlink:href="#gpPt2"/>
	<use color="rgb(  0, 255,   0)" transform="translate(241.5,275.1) scale(6.00)" xlink:href="#gpPt2"/>
	<use color="rgb(  0, 255,   0)" transform="translate(244.8,279.3) scale(6.00)" xlink:href="#gpPt2"/>
	<use color="rgb(  0, 255,   0)" transform="translate(260.5,266.3) scale(6.00)" xlink:href="#gpPt2"/>
	<use color="rgb(  0, 255,   0)" transform="translate(266.9,269.1) scale(6.00)" xlink:href="#gpPt2"/>
	<use color="rgb(  0, 255,   0)" transform="translate(291.1,262.7) scale(6.00)" xlink:href="#gpPt2"/>
	<use color="rgb(  0, 255,   0)" transform="translate(296.0,272.4) scale(6.00)" xlink:href="#gpPt2"/>
	<use color="rgb(  0, 255,   0)" transform="translate(298.7,266.5) scale(6.00)" xlink:href="#gpPt2"/>
	<use color="rgb(  0, 255,   0)" transform="translate(327.6,268.4) scale(6.00)" xlink:href="#gpPt2"/>
	<use color="rgb(  0, 255,   0)" transform="translate(329.6,258.8) scale(6.00)" xlink:href="#gpPt2"/>
	<use color="rgb(  0, 255,   0)" transform="translate(331.0,267.6) scale(6.00)" xlink:href="#gpPt2"/>
	<use color="rgb(  0, 255,   0)" transform="translate(340.5,264.5) scale(6.00)" xlink:href="#gpPt2"/>
	<use color="rgb(  0, 255,   0)" transform="translate(343.1,265.5) scale(6.00)" xlink:href="#gpPt2"/>
	<use color="rgb(  0, 255,   0)" transform="translate(350.3,258.4) scale(6.00)" xlink:href="#gpPt2"/>
	<use color="rgb(  0, 255,   0)" transform="translate(353.1,260.9) scale(6.00)" xlink:href="#gpPt2"/>
	<use color="rgb(  0, 255,   0)" transform="translate(364.2,266.9) scale(6.00)" xlink:href="#gpPt2"/>
	<use color="rgb(  0, 255,   0)" transform="translate(392.8,262.5) scale(6.00)" xlink:href="#gpPt2"/>
	<use color="rgb(  0, 255,   0)" transform="translate(405.6,263.4) scale(6.00)" xlink:href="#gpPt2"/>
	<use color="rgb(  0, 255,   0)" transform="translate(416.3,254.9) scale(6.00)" xlink:href="#gpPt2"/>
	<use color="rgb(  0, 255,   0)" transform="translate(437.9,253.9) scale(6.00)" xlink:href="#gpPt2"/>
	<use color="rgb(  0, 255,   0)" transform="translate(448.4,262.6) scale(6.00)" xlink:href="#gpPt2"/>
	<use color="rgb(  0, 255,   0)" transform="translate(461.6,262.7) scale(6.00)" xlink:href="#gpPt2"/>
	<use color="rgb(  0, 255,   0)" transform="translate(466.2,253.2) scale(6.00)" xlink:href="#gpPt2"/>
	<use color="rgb(  0, 255,   0)" transform="translate(472.3,249.1) scale(6.00)" xlink:href="#gpPt2"/>
	<use color="rgb(  0, 255,   0)" transform="translate(498.6,249.4) scale(6.00)" xlink:href="#gpPt2"/>
	<use color="rgb(  0, 255,   0)" transform="translate(509.5,256.8) scale(6.00)" xlink:href="#gpPt2"/>
	<use color="rgb(  0, 255,   0)" transform="translate(521.8,255.7) scale(6.00)" xlink:href="#gpPt2"/>
	<use color="rgb(  0, 255,   0)" transform="translate(524.2,243.7) scale(6.00)" xlink:href="#gpPt2"/>
	<use color="rgb(  0, 255,   0)" transform="translate(528.6,248.3) scale(6.00)" xlink:href="#gpPt2"/>
	<use color="rgb(  0, 255,   0)" transform="translate(537.3,248.7) scale(6.00)" xlink:href="#gpPt2"/>
	<use color="rgb(  0, 255,   0)" transform="translate(394.5,23.3) scale(6.00)" xlink:href="#gpPt2"/>
</g>
	</g>
	<g id="gnuplot_plot_2a"><title>gnuplot_plot_2a</title>
<g style="fill:none; color:red; stroke:currentColor; stroke-width:0.50; stroke-linecap:butt; stroke-linejoin:miter">
	<g style="stroke:none; fill:rgb(0,0,0); font-family:{}; font-size:10.00pt; text-anchor:end" transform="translate(537.5,39.0)">
		<text><tspan>Initial theta</tspan></text>
	</g>
	<path d="M380.3,35.3 L408.7,35.3 M48.3,381.6 L73.5,381.6 L87.8,381.6 L88.0,381.6 L88.6,381.6 L108.4,381.6    L118.8,381.6 L129.2,381.6 L135.7,381.6 L139.4,381.6 L153.5,381.6 L157.8,381.6 L160.6,381.6 L161.3,381.6    L170.5,381.6 L179.5,381.6 L182.3,381.6 L203.4,381.6 L213.7,381.6 L230.3,381.6 L238.3,381.6 L241.5,381.6    L244.8,381.6 L260.5,381.6 L266.9,381.6 L291.1,381.6 L296.0,381.6 L298.7,381.6 L327.6,381.6 L329.6,381.6    L331.0,381.6 L340.5,381.6 L343.1,381.6 L350.3,381.6 L353.1,381.6 L364.2,381.6 L392.8,381.6 L405.6,381.6    L416.3,381.6 L437.9,381.6 L448.4,381.6 L461.6,381.6 L466.2,381.6 L472.3,381.6 L498.6,381.6 L509.5,381.6    L521.8,381.6 L524.2,381.6 L528.6,381.6 L537.3,381.6  h0.01" stroke="rgb(255,   0,   0)"/>	<use color="rgb(255,   0,   0)" transform="translate(48.3,381.6) scale(6.00)" xlink:href="#gpPt3"/>
	<use color="rgb(255,   0,   0)" transform="translate(73.5,381.6) scale(6.00)" xlink:href="#gpPt3"/>
	<use color="rgb(255,   0,   0)" transform="translate(87.8,381.6) scale(6.00)" xlink:href="#gpPt3"/>
	<use color="rgb(255,   0,   0)" transform="translate(88.0,381.6) scale(6.00)" xlink:href="#gpPt3"/>
	<use color="rgb(255,   0,   0)" transform="translate(88.6,381.6) scale(6.00)" xlink:href="#gpPt3"/>
	<use color="rgb(255,   0,   0)" transform="translate(108.4,381.6) scale(6.00)" xlink:href="#gpPt3"/>
	<use color="rgb(255,   0,   0)" transform="translate(118.8,381.6) scale(6.00)" xlink:href="#gpPt3"/>
	<use color="rgb(255,   0,   0)" transform="translate(129.2,381.6) scale(6.00)" xlink:href="#gpPt3"/>
	<use color="rgb(255,   0,   0)" transform="translate(135.7,381.6) scale(6.00)" xlink:href="#gpPt3"/>
	<use color="rgb(255,   0,   0)" transform="translate(139.4,381.6) scale(6.00)" xlink:href="#gpPt3"/>
	<use color="rgb(255,   0,   0)" transform="translate(153.5,381.6) scale(6.00)" xlink:href="#gpPt3"/>
	<use color="rgb(255,   0,   0)" transform="translate(157.8,381.6) scale(6.00)" xlink:href="#gpPt3"/>
	<use color="rgb(255,   0,   0)" transform="translate(160.6,381.6) scale(6.00)" xlink:href="#gpPt3"/>
	<use color="rgb(255,   0,   0)" transform="translate(161.3,381.6) scale(6.00)" xlink:href="#gpPt3"/>
	<use color="rgb(255,   0,   0)" transform="translate(170.5,381.6) scale(6.00)" xlink:href="#gpPt3"/>
	<use color="rgb(255,   0,   0)" transform="translate(179.5,381.6) scale(6.00)" xlink:href="#gpPt3"/>
	<use color="rgb(255,   0,   0)" transform="translate(182.3,381.6) scale(6.00)" xlink:href="#gpPt3"/>
	<use color="rgb(255,   0,   0)" transform="translate(203.4,381.6) scale(6.00)" xlink:href="#gpPt3"/>
	<use color="rgb(255,   0,   0)" transform="translate(213.7,381.6) scale(6.00)" xlink:href="#gpPt3"/>
	<use color="rgb(255,   0,   0)" transform="translate(230.3,381.6) scale(6.00)" xlink:href="#gpPt3"/>
	<use color="rgb(255,   0,   0)" transform="translate(238.3,381.6) scale(6.00)" xlink:href="#gpPt3"/>
	<use color="rgb(255,   0,   0)" transform="translate(241.5,381.6) scale(6.00)" xlink:href="#gpPt3"/>
	<use color="rgb(255,   0,   0)" transform="translate(244.8,381.6) scale(6.00)" xlink:href="#gpPt3"/>
	<use color="rgb(255,   0,   0)" transform="translate(260.5,381.6) scale(6.00)" xlink:href="#gpPt3"/>
	<use color="rgb(255,   0,   0)" transform="translate(266.9,381.6) scale(6.00)" xlink:href="#gpPt3"/>
	<use color="rgb(255,   0,   0)" transform="translate(291.1,381.6) scale(6.00)" xlink:href="#gpPt3"/>
	<use color="rgb(255,   0,   0)" transform="translate(296.0,381.6) scale(6.00)" xlink:href="#gpPt3"/>
	<use color="rgb(255,   0,   0)" transform="translate(298.7,381.6) scale(6.00)" xlink:href="#gpPt3"/>
	<use color="rgb(255,   0,   0)" transform="translate(327.6,381.6) scale(6.00)" xlink:href="#gpPt3"/>
	<use color="rgb(255,   0,   0)" transform="translate(329.6,381.6) scale(6.00)" xlink:href="#gpPt3"/>
	<use color="rgb(255,   0,   0)" transform="translate(331.0,381.6) scale(6.00)" xlink:href="#gpPt3"/>
	<use color="rgb(255,   0,   0)" transform="translate(340.5,381.6) scale(6.00)" xlink:href="#gpPt3"/>
	<use color="rgb(255,   0,   0)" transform="translate(343.1,381.6) scale(6.00)" xlink:href="#gpPt3"/>
	<use color="rgb(255,   0,   0)" transform="translate(350.3,381.6) scale(6.00)" xlink:href="#gpPt3"/>
	<use color="rgb(255,   0,   0)" transform="translate(353.1,381.6) scale(6.00)" xlink:href="#gpPt3"/>
	<use color="rgb(255,   0,   0)" transform="translate(364.2,381.6) scale(6.00)" xlink:href="#gpPt3"/>
	<use color="rgb(255,   0,   0)" transform="translate(392.8,381.6) scale(6.00)" xlink:href="#gpPt3"/>
	<use color="rgb(255,   0,   0)" transform="translate(405.6,381.6) scale(6.00)" xlink:href="#gpPt3"/>
	<use color="rgb(255,   0,   0)" transform="translate(416.3,381.6) scale(6.00)" xlink:href="#gpPt3"/>
	<use color="rgb(255,   0,   0)" transform="translate(437.9,381.6) scale(6.00)" xlink:href="#gpPt3"/>
	<use color="rgb(255,   0,   0)" transform="translate(448.4,381.6) scale(6.00)" xlink:href="#gpPt3"/>
	<use color="rgb(255,   0,   0)" transform="translate(461.6,381.6) scale(6.00)" xlink:href="#gpPt3"/>
	<use color="rgb(255,   0,   0)" transform="translate(466.2,381.6) scale(6.00)" xlink:href="#gpPt3"/>
	<use color="rgb(255,   0,   0)" transform="translate(472.3,381.6) scale(6.00)" xlink:href="#gpPt3"/>
	<use color="rgb(255,   0,   0)" transform="translate(498.6,381.6) scale(6.00)" xlink:href="#gpPt3"/>
	<use color="rgb(255,   0,   0)" transform="translate(509.5,381.6) scale(6.00)" xlink:href="#gpPt3"/>
	<use color="rgb(255,   0,   0)" transform="translate(521.8,381.6) scale(6.00)" xlink:href="#gpPt3"/>
	<use color="rgb(255,   0,   0)" transform="translate(524.2,381.6) scale(6.00)" xlink:href="#gpPt3"/>
	<use color="rgb(255,   0,   0)" transform="translate(528.6,381.6) scale(6.00)" xlink:href="#gpPt3"/>
	<use color="rgb(255,   0,   0)" transform="translate(537.3,381.6) scale(6.00)" xlink:href="#gpPt3"/>
	<use color="rgb(255,   0,   0)" transform="translate(394.5,35.3) scale(6.00)" xlink:href="#gpPt3"/>
</g>
	</g>
	<g id="gnuplot_plot_3a"><title>gnuplot_plot_3a</title>
<g style="fill:none; color:red; stroke:currentColor; stroke-width:0.50; stroke-linecap:butt; stroke-linejoin:miter">
	<g style="stroke:none; fill:rgb(0,0,0); font-family:{}; font-size:10.00pt; text-anchor:end" transform="translate(537.5,51.0)">
		<text><tspan>First iteration theta</tspan></text>
	</g>
	<path d="M380.3,47.3 L408.7,47.3 M48.3,290.7 L73.5,278.5 L87.8,271.6 L88.0,271.5 L88.6,271.2 L108.4,261.7    L118.8,256.6 L129.2,251.7 L135.7,248.5 L139.4,246.7 L153.5,239.9 L157.8,237.8 L160.6,236.5 L161.3,236.1    L170.5,231.7 L179.5,227.4 L182.3,226.0 L203.4,215.9 L213.7,210.9 L230.3,202.9 L238.3,199.1 L241.5,197.5    L244.8,195.9 L260.5,188.4 L266.9,185.2 L291.1,173.6 L296.0,171.2 L298.7,169.9 L327.6,156.0 L329.6,155.0    L331.0,154.3 L340.5,149.8 L343.1,148.5 L350.3,145.0 L353.1,143.7 L364.2,138.4 L392.8,124.5 L405.6,118.4    L416.3,113.2 L437.9,102.8 L448.4,97.7 L461.6,91.4 L466.2,89.1 L472.3,86.2 L498.6,73.5 L509.5,68.3    L521.8,62.4 L524.2,61.2 L528.6,59.0 L537.3,54.9  h0.01" stroke="rgb(  0,   0, 255)"/>	<use color="rgb(  0,   0, 255)" transform="translate(48.3,290.7) scale(6.00)" xlink:href="#gpPt11"/>
	<use color="rgb(  0,   0, 255)" transform="translate(73.5,278.5) scale(6.00)" xlink:href="#gpPt11"/>
	<use color="rgb(  0,   0, 255)" transform="translate(87.8,271.6) scale(6.00)" xlink:href="#gpPt11"/>
	<use color="rgb(  0,   0, 255)" transform="translate(88.0,271.5) scale(6.00)" xlink:href="#gpPt11"/>
	<use color="rgb(  0,   0, 255)" transform="translate(88.6,271.2) scale(6.00)" xlink:href="#gpPt11"/>
	<use color="rgb(  0,   0, 255)" transform="translate(108.4,261.7) scale(6.00)" xlink:href="#gpPt11"/>
	<use color="rgb(  0,   0, 255)" transform="translate(118.8,256.6) scale(6.00)" xlink:href="#gpPt11"/>
	<use color="rgb(  0,   0, 255)" transform="translate(129.2,251.7) scale(6.00)" xlink:href="#gpPt11"/>
	<use color="rgb(  0,   0, 255)" transform="translate(135.7,248.5) scale(6.00)" xlink:href="#gpPt11"/>
	<use color="rgb(  0,   0, 255)" transform="translate(139.4,246.7) scale(6.00)" xlink:href="#gpPt11"/>
	<use color="rgb(  0,   0, 255)" transform="translate(153.5,239.9) scale(6.00)" xlink:href="#gpPt11"/>
	<use color="rgb(  0,   0, 255)" transform="translate(157.8,237.8) scale(6.00)" xlink:href="#gpPt11"/>
	<use color="rgb(  0,   0, 255)" transform="translate(160.6,236.5) scale(6.00)" xlink:href="#gpPt11"/>
	<use color="rgb(  0,   0, 255)" transform="translate(161.3,236.1) scale(6.00)" xlink:href="#gpPt11"/>
	<use color="rgb(  0,   0, 255)" transform="translate(170.5,231.7) scale(6.00)" xlink:href="#gpPt11"/>
	<use color="rgb(  0,   0, 255)" transform="translate(179.5,227.4) scale(6.00)" xlink:href="#gpPt11"/>
	<use color="rgb(  0,   0, 255)" transform="translate(182.3,226.0) scale(6.00)" xlink:href="#gpPt11"/>
	<use color="rgb(  0,   0, 255)" transform="translate(203.4,215.9) scale(6.00)" xlink:href="#gpPt11"/>
	<use color="rgb(  0,   0, 255)" transform="translate(213.7,210.9) scale(6.00)" xlink:href="#gpPt11"/>
	<use color="rgb(  0,   0, 255)" transform="translate(230.3,202.9) scale(6.00)" xlink:href="#gpPt11"/>
	<use color="rgb(  0,   0, 255)" transform="translate(238.3,199.1) scale(6.00)" xlink:href="#gpPt11"/>
	<use color="rgb(  0,   0, 255)" transform="translate(241.5,197.5) scale(6.00)" xlink:href="#gpPt11"/>
	<use color="rgb(  0,   0, 255)" transform="translate(244.8,195.9) scale(6.00)" xlink:href="#gpPt11"/>
	<use color="rgb(  0,   0, 255)" transform="translate(260.5,188.4) scale(6.00)" xlink:href="#gpPt11"/>
	<use color="rgb(  0,   0, 255)" transform="translate(266.9,185.2) scale(6.00)" xlink:href="#gpPt11"/>
	<use color="rgb(  0,   0, 255)" transform="translate(291.1,173.6) scale(6.00)" xlink:href="#gpPt11"/>
	<use color="rgb(  0,   0, 255)" transform="translate(296.0,171.2) scale(6.00)" xlink:href="#gpPt11"/>
	<use color="rgb(  0,   0, 255)" transform="translate(298.7,169.9) scale(6.00)" xlink:href="#gpPt11"/>
	<use color="rgb(  0,   0, 255)" transform="translate(327.6,156.0) scale(6.00)" xlink:href="#gpPt11"/>
	<use color="rgb(  0,   0, 255)" transform="translate(329.6,155.0) scale(6.00)" xlink:href="#gpPt11"/>
	<use color="rgb(  0,   0, 255)" transform="translate(331.0,154.3) scale(6.00)" xlink:href="#gpPt11"/>
	<use color="rgb(  0,   0, 255)" transform="translate(340.5,149.8) scale(6.00)" xlink:href="#gpPt11"/>
	<use color="rgb(  0,   0, 255)" transform="translate(343.1,148.5) scale(6.00)" xlink:href="#gpPt11"/>
	<use color="rgb(  0,   0, 255)" transform="translate(350.3,145.0) scale(6.00)" xlink:href="#gpPt11"/>
	<use color="rgb(  0,   0, 255)" transform="translate(353.1,143.7) scale(6.00)" xlink:href="#gpPt11"/>
	<use color="rgb(  0,   0, 255)" transform="translate(364.2,138.4) scale(6.00)" xlink:href="#gpPt11"/>
	<use color="rgb(  0,   0, 255)" transform="translate(392.8,124.5) scale(6.00)" xlink:href="#gpPt11"/>
	<use color="rgb(  0,   0, 255)" transform="translate(405.6,118.4) scale(6.00)" xlink:href="#gpPt11"/>
	<use color="rgb(  0,   0, 255)" transform="translate(416.3,113.2) scale(6.00)" xlink:href="#gpPt11"/>
	<use color="rgb(  0,   0, 255)" transform="translate(437.9,102.8) scale(6.00)" xlink:href="#gpPt11"/>
	<use color="rgb(  0,   0, 255)" transform="translate(448.4,97.7) scale(6.00)" xlink:href="#gpPt11"/>
	<use color="rgb(  0,   0, 255)" transform="translate(461.6,91.4) scale(6.00)" xlink:href="#gpPt11"/>
	<use color="rgb(  0,   0, 255)" transform="translate(466.2,89.1) scale(6.00)" xlink:href="#gpPt11"/>
	<use color="rgb(  0,   0, 255)" transform="translate(472.3,86.2) scale(6.00)" xlink:href="#gpPt11"/>
	<use color="rgb(  0,   0, 255)" transform="translate(498.6,73.5) scale(6.00)" xlink:href="#gpPt11"/>
	<use color="rgb(  0,   0, 255)" transform="translate(509.5,68.3) scale(6.00)" xlink:href="#gpPt11"/>
	<use color="rgb(  0,   0, 255)" transform="translate(521.8,62.4) scale(6.00)" xlink:href="#gpPt11"/>
	<use color="rgb(  0,   0, 255)" transform="translate(524.2,61.2) scale(6.00)" xlink:href="#gpPt11"/>
	<use color="rgb(  0,   0, 255)" transform="translate(528.6,59.0) scale(6.00)" xlink:href="#gpPt11"/>
	<use color="rgb(  0,   0, 255)" transform="translate(537.3,54.9) scale(6.00)" xlink:href="#gpPt11"/>
	<use color="rgb(  0,   0, 255)" transform="translate(394.5,47.3) scale(6.00)" xlink:href="#gpPt11"/>
</g>
	</g>
	<g id="gnuplot_plot_4a"><title>gnuplot_plot_4a</title>
<g style="fill:none; color:blue; stroke:currentColor; stroke-width:0.50; stroke-linecap:butt; stroke-linejoin:miter">
	<g style="stroke:none; fill:rgb(0,0,0); font-family:{}; font-size:10.00pt; text-anchor:end" transform="translate(537.5,63.0)">
		<text><tspan>500th iteration theta</tspan></text>
	</g>
	<path d="M380.3,59.3 L408.7,59.3 M48.3,289.5 L73.5,287.3 L87.8,286.1 L88.0,286.1 L88.6,286.0 L108.4,284.4    L118.8,283.5 L129.2,282.6 L135.7,282.0 L139.4,281.7 L153.5,280.5 L157.8,280.1 L160.6,279.9 L161.3,279.8    L170.5,279.1 L179.5,278.3 L182.3,278.1 L203.4,276.3 L213.7,275.4 L230.3,274.0 L238.3,273.3 L241.5,273.0    L244.8,272.7 L260.5,271.4 L266.9,270.8 L291.1,268.8 L296.0,268.4 L298.7,268.1 L327.6,265.7 L329.6,265.5    L331.0,265.4 L340.5,264.6 L343.1,264.3 L350.3,263.7 L353.1,263.5 L364.2,262.5 L392.8,260.1 L405.6,259.0    L416.3,258.1 L437.9,256.3 L448.4,255.4 L461.6,254.2 L466.2,253.8 L472.3,253.3 L498.6,251.1 L509.5,250.1    L521.8,249.1 L524.2,248.9 L528.6,248.5 L537.3,247.8  h0.01" stroke="rgb(255,   0,   0)" stroke-dasharray=" 2,4"/></g>
	</g>
	<g id="gnuplot_plot_5a"><title>gnuplot_plot_5a</title>
<g style="fill:none; color:red; stroke:currentColor; stroke-width:0.50; stroke-linecap:butt; stroke-linejoin:miter">
	<g style="stroke:none; fill:rgb(0,0,0); font-family:{}; font-size:10.00pt; text-anchor:end" transform="translate(537.5,75.0)">
		<text><tspan>1500th iteration theta</tspan></text>
	</g>
	<path d="M380.3,71.3 L408.7,71.3 M48.3,288.3 L73.5,286.2 L87.8,285.1 L88.0,285.1 L88.6,285.0 L108.4,283.4    L118.8,282.6 L129.2,281.7 L135.7,281.2 L139.4,280.9 L153.5,279.7 L157.8,279.4 L160.6,279.2 L161.3,279.1    L170.5,278.4 L179.5,277.6 L182.3,277.4 L203.4,275.7 L213.7,274.9 L230.3,273.5 L238.3,272.9 L241.5,272.6    L244.8,272.3 L260.5,271.1 L266.9,270.5 L291.1,268.6 L296.0,268.2 L298.7,268.0 L327.6,265.6 L329.6,265.5    L331.0,265.4 L340.5,264.6 L343.1,264.4 L350.3,263.8 L353.1,263.6 L364.2,262.7 L392.8,260.3 L405.6,259.3    L416.3,258.4 L437.9,256.7 L448.4,255.8 L461.6,254.8 L466.2,254.4 L472.3,253.9 L498.6,251.8 L509.5,250.9    L521.8,249.9 L524.2,249.7 L528.6,249.3 L537.3,248.6  h0.01" stroke="rgb(255,   0, 255)"/></g>
	</g>
<g style="fill:none; color:black; stroke:currentColor; stroke-width:0.50; stroke-linecap:butt; stroke-linejoin:miter">
</g>
</g>
</svg>