<svg height="420px" viewBox="0 0 560 420" width="560px" xmlns="http://www.w3.org/2000/svg" xmlns:xlink="http://www.w3.org/1999/xlink">

<title>Gnuplot</title>
<desc>Produced by GNUPLOT 4.6 patchlevel 2 </desc>

<g id="gnuplot_canvas">

<rect fill="none" height="420" width="560" x="0" y="0"/>
<defs>

	<circle id="gpDot" r="0.5" stroke-width="0.5"/>
	<path d="M-1,0 h2 M0,-1 v2" id="gpPt0" stroke="currentColor" stroke-width="0.333"/>
	<path d="M-1,-1 L1,1 M1,-1 L-1,1" id="gpPt1" stroke="currentColor" stroke-width="0.333"/>
	<path d="M-1,0 L1,0 M0,-1 L0,1 M-1,-1 L1,1 M-1,1 L1,-1" id="gpPt2" stroke="currentColor" stroke-width="0.333"/>
	<rect height="2" id="gpPt3" stroke="currentColor" stroke-width="0.333" width="2" x="-1" y="-1"/>
	<rect fill="currentColor" height="2" id="gpPt4" stroke="currentColor" stroke-width="0.333" width="2" x="-1" y="-1"/>
	<circle cx="0" cy="0" id="gpPt5" r="1" stroke="currentColor" stroke-width="0.333"/>
	<use fill="currentColor" id="gpPt6" stroke="none" xlink:href="#gpPt5"/>
	<path d="M0,-1.33 L-1.33,0.67 L1.33,0.67 z" id="gpPt7" stroke="currentColor" stroke-width="0.333"/>
	<use fill="currentColor" id="gpPt8" stroke="none" xlink:href="#gpPt7"/>
	<use id="gpPt9" stroke="currentColor" transform="rotate(180)" xlink:href="#gpPt7"/>
	<use fill="currentColor" id="gpPt10" stroke="none" xlink:href="#gpPt9"/>
	<use id="gpPt11" stroke="currentColor" transform="rotate(45)" xlink:href="#gpPt3"/>
	<use fill="currentColor" id="gpPt12" stroke="none" xlink:href="#gpPt11"/>
</defs>
<g style="fill:none; color:white; stroke:currentColor; stroke-width:1.00; stroke-linecap:butt; stroke-linejoin:miter">
</g>
<g style="fill:none; color:black; stroke:currentColor; stroke-width:1.00; stroke-linecap:butt; stroke-linejoin:miter">
	<g style="stroke:none; shape-rendering:crispEdges">
		<polygon fill="rgb(255, 255, 255)" points="42.8,381.6 543.0,381.6 543.0,11.4 42.8,11.4 "/>
	</g>
	<path d="M42.8,381.6 L42.8,11.4 L543.0,11.4 L543.0,381.6 L42.8,381.6  h0.01" stroke="black"/></g>
<g style="fill:none; color:black; stroke:black; stroke-width:0.50; stroke-linecap:butt; stroke-linejoin:miter">
	<path d="M42.8,381.6 L51.2,381.6 M543.1,381.6 L534.7,381.6  h0.01" stroke="black"/>	<g style="stroke:none; fill:rgb(0,0,0); font-family:{}; font-size:10.00pt; text-anchor:end" transform="translate(37.2,385.3)">
		<text><tspan>0.7</tspan></text>
	</g>
	<path d="M42.8,328.7 L51.2,328.7 M543.1,328.7 L534.7,328.7  h0.01" stroke="black"/>	<g style="stroke:none; fill:rgb(0,0,0); font-family:{}; font-size:10.00pt; text-anchor:end" transform="translate(37.2,332.4)">
		<text><tspan>0.8</tspan></text>
	</g>
	<path d="M42.8,275.8 L51.2,275.8 M543.1,275.8 L534.7,275.8  h0.01" stroke="black"/>	<g style="stroke:none; fill:rgb(0,0,0); font-family:{}; font-size:10.00pt; text-anchor:end" transform="translate(37.2,279.5)">
		<text><tspan>0.9</tspan></text>
	</g>
	<path d="M42.8,222.9 L51.2,222.9 M543.1,222.9 L534.7,222.9  h0.01" stroke="black"/>	<g style="stroke:none; fill:rgb(0,0,0); font-family:{}; font-size:10.00pt; text-anchor:end" transform="translate(37.2,226.6)">
		<text><tspan>1</tspan></text>
	</g>
	<path d="M42.8,170.0 L51.2,170.0 M543.1,170.0 L534.7,170.0  h0.01" stroke="black"/>	<g style="stroke:none; fill:rgb(0,0,0); font-family:{}; font-size:10.00pt; text-anchor:end" transform="translate(37.2,173.7)">
		<text><tspan>1.1</tspan></text>
	</g>
	<path d="M42.8,117.1 L51.2,117.1 M543.1,117.1 L534.7,117.1  h0.01" stroke="black"/>	<g style="stroke:none; fill:rgb(0,0,0); font-family:{}; font-size:10.00pt; text-anchor:end" transform="translate(37.2,120.8)">
		<text><tspan>1.2</tspan></text>
	</g>
	<path d="M42.8,64.2 L51.2,64.2 M543.1,64.2 L534.7,64.2  h0.01" stroke="black"/>	<g style="stroke:none; fill:rgb(0,0,0); font-family:{}; font-size:10.00pt; text-anchor:end" transform="translate(37.2,67.9)">
		<text><tspan>1.3</tspan></text>
	</g>
	<path d="M42.8,11.3 L51.2,11.3 M543.1,11.3 L534.7,11.3  h0.01" stroke="black"/>	<g style="stroke:none; fill:rgb(0,0,0); font-family:{}; font-size:10.00pt; text-anchor:end" transform="translate(37.2,15.0)">
		<text><tspan>1.4</tspan></text>
	</g>
	<path d="M42.8,381.6 L42.8,373.2 M42.8,11.3 L42.8,19.7  h0.01" stroke="black"/>	<g style="stroke:none; fill:rgb(0,0,0); font-family:{}; font-size:10.00pt; text-anchor:middle" transform="translate(42.8,397.3)">
		<text><tspan>2</tspan></text>
	</g>
	<path d="M126.2,381.6 L126.2,373.2 M126.2,11.3 L126.2,19.7  h0.01" stroke="black"/>	<g style="stroke:none; fill:rgb(0,0,0); font-family:{}; font-size:10.00pt; text-anchor:middle" transform="translate(126.2,397.3)">
		<text><tspan>3</tspan></text>
	</g>
	<path d="M209.6,381.6 L209.6,373.2 M209.6,11.3 L209.6,19.7  h0.01" stroke="black"/>	<g style="stroke:none; fill:rgb(0,0,0); font-family:{}; font-size:10.00pt; text-anchor:middle" transform="translate(209.6,397.3)">
		<text><tspan>4</tspan></text>
	</g>
	<path d="M293.0,381.6 L293.0,373.2 M293.0,11.3 L293.0,19.7  h0.01" stroke="black"/>	<g style="stroke:none; fill:rgb(0,0,0); font-family:{}; font-size:10.00pt; text-anchor:middle" transform="translate(293.0,397.3)">
		<text><tspan>5</tspan></text>
	</g>
	<path d="M376.3,381.6 L376.3,373.2 M376.3,11.3 L376.3,19.7  h0.01" stroke="black"/>	<g style="stroke:none; fill:rgb(0,0,0); font-family:{}; font-size:10.00pt; text-anchor:middle" transform="translate(376.3,397.3)">
		<text><tspan>6</tspan></text>
	</g>
	<path d="M459.7,381.6 L459.7,373.2 M459.7,11.3 L459.7,19.7  h0.01" stroke="black"/>	<g style="stroke:none; fill:rgb(0,0,0); font-family:{}; font-size:10.00pt; text-anchor:middle" transform="translate(459.7,397.3)">
		<text><tspan>7</tspan></text>
	</g>
	<path d="M543.1,381.6 L543.1,373.2 M543.1,11.3 L543.1,19.7  h0.01" stroke="black"/>	<g style="stroke:none; fill:rgb(0,0,0); font-family:{}; font-size:10.00pt; text-anchor:middle" transform="translate(543.1,397.3)">
		<text><tspan>8</tspan></text>
	</g>
	<path d="M42.8,11.3 L42.8,381.6 L543.1,381.6 L543.1,11.3 L42.8,11.3 Z  h0.01" stroke="black"/>	<g style="stroke:none; fill:rgb(0,0,0); font-family:{}; font-size:10.00pt; text-anchor:middle" transform="translate(12.5,196.5) rotate(-90)">
		<text><tspan>Height (m)</tspan></text>
	</g>
	<g style="stroke:none; fill:rgb(0,0,0); font-family:{}; font-size:10.00pt; text-anchor:middle" transform="translate(292.9,415.3)">
		<text><tspan>Age (yrs.)</tspan></text>
	</g>
</g>
	<g id="gnuplot_plot_1a"><title>gnuplot_plot_1a</title>
<g style="fill:none; color:red; stroke:currentColor; stroke-width:0.50; stroke-linecap:butt; stroke-linejoin:miter">
	<use color="rgb(  0, 255,   0)" transform="translate(48.3,339.7) scale(6.00)" xlink:href="#gpPt2"/>
	<use color="rgb(  0, 255,   0)" transform="translate(73.5,267.4) scale(6.00)" xlink:href="#gpPt2"/>
	<use color="rgb(  0, 255,   0)" transform="translate(87.8,273.0) scale(6.00)" xlink:href="#gpPt2"/>
	<use color="rgb(  0, 255,   0)" transform="translate(88.0,272.8) scale(6.00)" xlink:href="#gpPt2"/>
	<use color="rgb(  0, 255,   0)" transform="translate(88.6,255.2) scale(6.00)" xlink:href="#gpPt2"/>
	<use color="rgb(  0, 255,   0)" transform="translate(108.4,240.4) scale(6.00)" xlink:href="#gpPt2"/>
	<use color="rgb(  0, 255,   0)" transform="translate(118.8,241.7) scale(6.00)" xlink:href="#gpPt2"/>
	<use color="rgb(  0, 255,   0)" transform="translate(129.2,268.2) scale(6.00)" xlink:href="#gpPt2"/>
	<use color="rgb(  0, 255,   0)" transform="translate(135.7,255.0) scale(6.00)" xlink:href="#gpPt2"/>
	<use color="rgb(  0, 255,   0)" transform="translate(139.4,243.7) scale(6.00)" xlink:href="#gpPt2"/>
	<use color="rgb(  0, 255,   0)" transform="translate(153.5,276.7) scale(6.00)" xlink:href="#gpPt2"/>
	<use color="rgb(  0, 255,   0)" transform="translate(157.8,269.4) scale(6.00)" xlink:href="#gpPt2"/>
	<use color="rgb(  0, 255,   0)" transform="translate(160.6,253.4) scale(6.00)" xlink:href="#gpPt2"/>
	<use color="rgb(  0, 255,   0)" transform="translate(161.3,240.8) scale(6.00)" xlink:href="#gpPt2"/>
	<use color="rgb(  0, 255,   0)" transform="translate(170.5,195.0) scale(6.00)" xlink:href="#gpPt2"/>
	<use color="rgb(  0, 255,   0)" transform="translate(179.5,215.3) scale(6.00)" xlink:href="#gpPt2"/>
	<use color="rgb(  0, 255,   0)" transform="translate(182.3,244.2) scale(6.00)" xlink:href="#gpPt2"/>
	<use color="rgb(  0, 255,   0)" transform="translate(203.4,239.5) scale(6.00)" xlink:href="#gpPt2"/>
	<use color="rgb(  0, 255,   0)" transform="translate(213.7,182.4) scale(6.00)" xlink:href="#gpPt2"/>
	<use color="rgb(  0, 255,   0)" transform="translate(230.3,145.9) scale(6.00)" xlink:href="#gpPt2"/>
	<use color="rgb(  0, 255,   0)" transform="translate(238.3,204.9) scale(6.00)" xlink:href="#gpPt2"/>
	<use color="rgb(  0, 255,   0)" transform="translate(241.5,219.2) scale(6.00)" xlink:href="#gpPt2"/>
	<use color="rgb(  0, 255,   0)" transform="translate(244.8,240.4) scale(6.00)" xlink:href="#gpPt2"/>
	<use color="rgb(  0, 255,   0)" transform="translate(260.5,175.5) scale(6.00)" xlink:href="#gpPt2"/>
	<use color="rgb(  0, 255,   0)" transform="translate(266.9,189.3) scale(6.00)" xlink:href="#gpPt2"/>
	<use color="rgb(  0, 255,   0)" transform="translate(291.1,157.5) scale(6.00)" xlink:href="#gpPt2"/>
	<use color="rgb(  0, 255,   0)" transform="translate(296.0,205.8) scale(6.00)" xlink:href="#gpPt2"/>
	<use color="rgb(  0, 255,   0)" transform="translate(298.7,176.6) scale(6.00)" xlink:href="#gpPt2"/>
	<use color="rgb(  0, 255,   0)" transform="translate(327.6,185.7) scale(6.00)" xlink:href="#gpPt2"/>
	<use color="rgb(  0, 255,   0)" transform="translate(329.6,137.9) scale(6.00)" xlink:href="#gpPt2"/>
	<use color="rgb(  0, 255,   0)" transform="translate(331.0,181.7) scale(6.00)" xlink:href="#gpPt2"/>
	<use color="rgb(  0, 255,   0)" transform="translate(340.5,166.3) scale(6.00)" xlink:href="#gpPt2"/>
	<use color="rgb(  0, 255,   0)" transform="translate(343.1,171.5) scale(6.00)" xlink:href="#gpPt2"/>
	<use color="rgb(  0, 255,   0)" transform="translate(350.3,135.7) scale(6.00)" xlink:href="#gpPt2"/>
	<use color="rgb(  0, 255,   0)" transform="translate(353.1,148.2) scale(6.00)" xlink:href="#gpPt2"/>
	<use color="rgb(  0, 255,   0)" transform="translate(364.2,178.2) scale(6.00)" xlink:href="#gpPt2"/>
	<use color="rgb(  0, 255,   0)" transform="translate(392.8,156.6) scale(6.00)" xlink:href="#gpPt2"/>
	<use color="rgb(  0, 255,   0)" transform="translate(405.6,161.1) scale(6.00)" xlink:href="#gpPt2"/>
	<use color="rgb(  0, 255,   0)" transform="translate(416.3,118.6) scale(6.00)" xlink:href="#gpPt2"/>
	<use color="rgb(  0, 255,   0)" transform="translate(437.9,113.4) scale(6.00)" xlink:href="#gpPt2"/>
	<use color="rgb(  0, 255,   0)" transform="translate(448.4,156.7) scale(6.00)" xlink:href="#gpPt2"/>
	<use color="rgb(  0, 255,   0)" transform="translate(461.6,157.5) scale(6.00)" xlink:href="#gpPt2"/>
	<use color="rgb(  0, 255,   0)" transform="translate(466.2,110.1) scale(6.00)" xlink:href="#gpPt2"/>
	<use color="rgb(  0, 255,   0)" transform="translate(472.3,89.5) scale(6.00)" xlink:href="#gpPt2"/>
	<use color="rgb(  0, 255,   0)" transform="translate(498.6,90.8) scale(6.00)" xlink:href="#gpPt2"/>
	<use color="rgb(  0, 255,   0)" transform="translate(509.5,127.7) scale(6.00)" xlink:href="#gpPt2"/>
	<use color="rgb(  0, 255,   0)" transform="translate(521.8,122.5) scale(6.00)" xlink:href="#gpPt2"/>
	<use color="rgb(  0, 255,   0)" transform="translate(524.2,62.6) scale(6.00)" xlink:href="#gpPt2"/>
	<use color="rgb(  0, 255,   0)" transform="translate(528.6,85.3) scale(6.00)" xlink:href="#gpPt2"/>
	<use color="rgb(  0, 255,   0)" transform="translate(537.3,87.4) scale(6.00)" xlink:href="#gpPt2"/>
</g>
	</g>
<g style="fill:none; color:black; stroke:currentColor; stroke-width:0.50; stroke-linecap:butt; stroke-linejoin:miter">
</g>
</g>
</svg>