<svg height="480px" viewBox="0 0 204 230" width="720px" xmlns="http://www.w3.org/2000/svg" xmlns:xlink="http://www.w3.org/1999/xlink">

<title>Gnuplot</title>
<desc>Produced by GNUPLOT 4.6 patchlevel 2 </desc>

<g id="gnuplot_canvas">

<rect fill="none" height="230" width="204" x="0" y="0"/>
<defs>

	<circle id="gpDot" r="0.5" stroke-width="0.5"/>
	<path d="M-1,0 h2 M0,-1 v2" id="gpPt0" stroke="currentColor" stroke-width="0.333"/>
	<path d="M-1,-1 L1,1 M1,-1 L-1,1" id="gpPt1" stroke="currentColor" stroke-width="0.333"/>
	<path d="M-1,0 L1,0 M0,-1 L0,1 M-1,-1 L1,1 M-1,1 L1,-1" id="gpPt2" stroke="currentColor" stroke-width="0.333"/>
	<rect height="2" id="gpPt3" stroke="currentColor" stroke-width="0.333" width="2" x="-1" y="-1"/>
	<rect fill="currentColor" height="2" id="gpPt4" stroke="currentColor" stroke-width="0.333" width="2" x="-1" y="-1"/>
	<circle cx="0" cy="0" id="gpPt5" r="1" stroke="currentColor" stroke-width="0.333"/>
	<use fill="currentColor" id="gpPt6" stroke="none" xlink:href="#gpPt5"/>
	<path d="M0,-1.33 L-1.33,0.67 L1.33,0.67 z" id="gpPt7" stroke="currentColor" stroke-width="0.333"/>
	<use fill="currentColor" id="gpPt8" stroke="none" xlink:href="#gpPt7"/>
	<use id="gpPt9" stroke="currentColor" transform="rotate(180)" xlink:href="#gpPt7"/>
	<use fill="currentColor" id="gpPt10" stroke="none" xlink:href="#gpPt9"/>
	<use id="gpPt11" stroke="currentColor" transform="rotate(45)" xlink:href="#gpPt3"/>
	<use fill="currentColor" id="gpPt12" stroke="none" xlink:href="#gpPt11"/>
</defs>
<g style="fill:none; color:white; stroke:currentColor; stroke-width:1.00; stroke-linecap:butt; stroke-linejoin:miter">
</g>
<g style="fill:none; color:white; stroke:currentColor; stroke-width:0.50; stroke-linecap:butt; stroke-linejoin:miter">
</g>
<g style="fill:none; color:black; stroke:currentColor; stroke-width:0.50; stroke-linecap:butt; stroke-linejoin:miter">
	<path d="M42.2,192.0 L50.5,192.0 M187.8,192.0 L179.5,192.0  h0.01" stroke="black"/>	<g style="stroke:none; fill:rgb(0,0,0); font-family:{}; font-size:10.00pt; text-anchor:end" transform="translate(36.7,195.7)">
		<text><tspan>0.7</tspan></text>
	</g>
	<path d="M42.2,166.2 L50.5,166.2 M187.8,166.2 L179.5,166.2  h0.01" stroke="black"/>	<g style="stroke:none; fill:rgb(0,0,0); font-family:{}; font-size:10.00pt; text-anchor:end" transform="translate(36.7,169.9)">
		<text><tspan>0.8</tspan></text>
	</g>
	<path d="M42.2,140.3 L50.5,140.3 M187.8,140.3 L179.5,140.3  h0.01" stroke="black"/>	<g style="stroke:none; fill:rgb(0,0,0); font-family:{}; font-size:10.00pt; text-anchor:end" transform="translate(36.7,144.0)">
		<text><tspan>0.9</tspan></text>
	</g>
	<path d="M42.2,114.5 L50.5,114.5 M187.8,114.5 L179.5,114.5  h0.01" stroke="black"/>	<g style="stroke:none; fill:rgb(0,0,0); font-family:{}; font-size:10.00pt; text-anchor:end" transform="translate(36.7,118.2)">
		<text><tspan>1</tspan></text>
	</g>
	<path d="M42.2,88.6 L50.5,88.6 M187.8,88.6 L179.5,88.6  h0.01" stroke="black"/>	<g style="stroke:none; fill:rgb(0,0,0); font-family:{}; font-size:10.00pt; text-anchor:end" transform="translate(36.7,92.3)">
		<text><tspan>1.1</tspan></text>
	</g>
	<path d="M42.2,62.8 L50.5,62.8 M187.8,62.8 L179.5,62.8  h0.01" stroke="black"/>	<g style="stroke:none; fill:rgb(0,0,0); font-family:{}; font-size:10.00pt; text-anchor:end" transform="translate(36.7,66.5)">
		<text><tspan>1.2</tspan></text>
	</g>
	<path d="M42.2,36.9 L50.5,36.9 M187.8,36.9 L179.5,36.9  h0.01" stroke="black"/>	<g style="stroke:none; fill:rgb(0,0,0); font-family:{}; font-size:10.00pt; text-anchor:end" transform="translate(36.7,40.6)">
		<text><tspan>1.3</tspan></text>
	</g>
	<path d="M42.2,11.1 L50.5,11.1 M187.8,11.1 L179.5,11.1  h0.01" stroke="black"/>	<g style="stroke:none; fill:rgb(0,0,0); font-family:{}; font-size:10.00pt; text-anchor:end" transform="translate(36.7,14.8)">
		<text><tspan>1.4</tspan></text>
	</g>
	<path d="M42.2,192.0 L42.2,183.7 M42.2,11.1 L42.2,19.4  h0.01" stroke="black"/>	<g style="stroke:none; fill:rgb(0,0,0); font-family:{}; font-size:10.00pt; text-anchor:middle" transform="translate(42.2,207.7)">
		<text><tspan>2</tspan></text>
	</g>
	<path d="M66.5,192.0 L66.5,183.7 M66.5,11.1 L66.5,19.4  h0.01" stroke="black"/>	<g style="stroke:none; fill:rgb(0,0,0); font-family:{}; font-size:10.00pt; text-anchor:middle" transform="translate(66.5,207.7)">
		<text><tspan>3</tspan></text>
	</g>
	<path d="M90.7,192.0 L90.7,183.7 M90.7,11.1 L90.7,19.4  h0.01" stroke="black"/>	<g style="stroke:none; fill:rgb(0,0,0); font-family:{}; font-size:10.00pt; text-anchor:middle" transform="translate(90.7,207.7)">
		<text><tspan>4</tspan></text>
	</g>
	<path d="M115.0,192.0 L115.0,183.7 M115.0,11.1 L115.0,19.4  h0.01" stroke="black"/>	<g style="stroke:none; fill:rgb(0,0,0); font-family:{}; font-size:10.00pt; text-anchor:middle" transform="translate(115.0,207.7)">
		<text><tspan>5</tspan></text>
	</g>
	<path d="M139.3,192.0 L139.3,183.7 M139.3,11.1 L139.3,19.4  h0.01" stroke="black"/>	<g style="stroke:none; fill:rgb(0,0,0); font-family:{}; font-size:10.00pt; text-anchor:middle" transform="translate(139.3,207.7)">
		<text><tspan>6</tspan></text>
	</g>
	<path d="M163.5,192.0 L163.5,183.7 M163.5,11.1 L163.5,19.4  h0.01" stroke="black"/>	<g style="stroke:none; fill:rgb(0,0,0); font-family:{}; font-size:10.00pt; text-anchor:middle" transform="translate(163.5,207.7)">
		<text><tspan>7</tspan></text>
	</g>
	<path d="M187.8,192.0 L187.8,183.7 M187.8,11.1 L187.8,19.4  h0.01" stroke="black"/>	<g style="stroke:none; fill:rgb(0,0,0); font-family:{}; font-size:10.00pt; text-anchor:middle" transform="translate(187.8,207.7)">
		<text><tspan>8</tspan></text>
	</g>
	<path d="M42.2,11.1 L42.2,192.0 L187.8,192.0 L187.8,11.1 L42.2,11.1 Z  h0.01" stroke="black"/>	<g style="stroke:none; fill:rgb(0,0,0); font-family:{}; font-size:10.00pt; text-anchor:middle" transform="translate(12.4,101.6) rotate(-90)">
		<text><tspan>Height (m)</tspan></text>
	</g>
	<g style="stroke:none; fill:rgb(0,0,0); font-family:{}; font-size:10.00pt; text-anchor:middle" transform="translate(115.0,225.7)">
		<text><tspan>Age (yrs.)</tspan></text>
	</g>
</g>
	<g id="gnuplot_plot_1a"><title>gnuplot_plot_1a</title>
<g style="fill:none; color:red; stroke:currentColor; stroke-width:0.50; stroke-linecap:butt; stroke-linejoin:miter">
	<use color="rgb(255,   0,   0)" transform="translate(43.8,171.5) scale(6.00)" xlink:href="#gpPt2"/>
	<use color="rgb(255,   0,   0)" transform="translate(51.1,136.2) scale(6.00)" xlink:href="#gpPt2"/>
	<use color="rgb(255,   0,   0)" transform="translate(55.3,138.9) scale(6.00)" xlink:href="#gpPt2"/>
	<use color="rgb(255,   0,   0)" transform="translate(55.4,138.9) scale(6.00)" xlink:href="#gpPt2"/>
	<use color="rgb(255,   0,   0)" transform="translate(55.5,130.2) scale(6.00)" xlink:href="#gpPt2"/>
	<use color="rgb(255,   0,   0)" transform="translate(61.3,123.0) scale(6.00)" xlink:href="#gpPt2"/>
	<use color="rgb(255,   0,   0)" transform="translate(64.3,123.7) scale(6.00)" xlink:href="#gpPt2"/>
	<use color="rgb(255,   0,   0)" transform="translate(67.3,136.6) scale(6.00)" xlink:href="#gpPt2"/>
	<use color="rgb(255,   0,   0)" transform="translate(69.2,130.1) scale(6.00)" xlink:href="#gpPt2"/>
	<use color="rgb(255,   0,   0)" transform="translate(70.3,124.6) scale(6.00)" xlink:href="#gpPt2"/>
	<use color="rgb(255,   0,   0)" transform="translate(74.4,140.7) scale(6.00)" xlink:href="#gpPt2"/>
	<use color="rgb(255,   0,   0)" transform="translate(75.7,137.2) scale(6.00)" xlink:href="#gpPt2"/>
	<use color="rgb(255,   0,   0)" transform="translate(76.5,129.4) scale(6.00)" xlink:href="#gpPt2"/>
	<use color="rgb(255,   0,   0)" transform="translate(76.7,123.2) scale(6.00)" xlink:href="#gpPt2"/>
	<use color="rgb(255,   0,   0)" transform="translate(79.4,100.9) scale(6.00)" xlink:href="#gpPt2"/>
	<use color="rgb(255,   0,   0)" transform="translate(82.0,110.8) scale(6.00)" xlink:href="#gpPt2"/>
	<use color="rgb(255,   0,   0)" transform="translate(82.8,124.9) scale(6.00)" xlink:href="#gpPt2"/>
	<use color="rgb(255,   0,   0)" transform="translate(88.9,122.6) scale(6.00)" xlink:href="#gpPt2"/>
	<use color="rgb(255,   0,   0)" transform="translate(91.9,94.7) scale(6.00)" xlink:href="#gpPt2"/>
	<use color="rgb(255,   0,   0)" transform="translate(96.8,76.9) scale(6.00)" xlink:href="#gpPt2"/>
	<use color="rgb(255,   0,   0)" transform="translate(99.1,105.7) scale(6.00)" xlink:href="#gpPt2"/>
	<use color="rgb(255,   0,   0)" transform="translate(100.0,112.7) scale(6.00)" xlink:href="#gpPt2"/>
	<use color="rgb(255,   0,   0)" transform="translate(101.0,123.0) scale(6.00)" xlink:href="#gpPt2"/>
	<use color="rgb(255,   0,   0)" transform="translate(105.5,91.3) scale(6.00)" xlink:href="#gpPt2"/>
	<use color="rgb(255,   0,   0)" transform="translate(107.4,98.1) scale(6.00)" xlink:href="#gpPt2"/>
	<use color="rgb(255,   0,   0)" transform="translate(114.5,82.5) scale(6.00)" xlink:href="#gpPt2"/>
	<use color="rgb(255,   0,   0)" transform="translate(115.9,106.1) scale(6.00)" xlink:href="#gpPt2"/>
	<use color="rgb(255,   0,   0)" transform="translate(116.7,91.9) scale(6.00)" xlink:href="#gpPt2"/>
	<use color="rgb(255,   0,   0)" transform="translate(125.1,96.3) scale(6.00)" xlink:href="#gpPt2"/>
	<use color="rgb(255,   0,   0)" transform="translate(125.7,73.0) scale(6.00)" xlink:href="#gpPt2"/>
	<use color="rgb(255,   0,   0)" transform="translate(126.1,94.4) scale(6.00)" xlink:href="#gpPt2"/>
	<use color="rgb(255,   0,   0)" transform="translate(128.8,86.8) scale(6.00)" xlink:href="#gpPt2"/>
	<use color="rgb(255,   0,   0)" transform="translate(129.6,89.4) scale(6.00)" xlink:href="#gpPt2"/>
	<use color="rgb(255,   0,   0)" transform="translate(131.7,71.9) scale(6.00)" xlink:href="#gpPt2"/>
	<use color="rgb(255,   0,   0)" transform="translate(132.5,78.0) scale(6.00)" xlink:href="#gpPt2"/>
	<use color="rgb(255,   0,   0)" transform="translate(135.7,92.7) scale(6.00)" xlink:href="#gpPt2"/>
	<use color="rgb(255,   0,   0)" transform="translate(144.1,82.1) scale(6.00)" xlink:href="#gpPt2"/>
	<use color="rgb(255,   0,   0)" transform="translate(147.8,84.3) scale(6.00)" xlink:href="#gpPt2"/>
	<use color="rgb(255,   0,   0)" transform="translate(150.9,63.5) scale(6.00)" xlink:href="#gpPt2"/>
	<use color="rgb(255,   0,   0)" transform="translate(157.2,61.0) scale(6.00)" xlink:href="#gpPt2"/>
	<use color="rgb(255,   0,   0)" transform="translate(160.2,82.1) scale(6.00)" xlink:href="#gpPt2"/>
	<use color="rgb(255,   0,   0)" transform="translate(164.1,82.5) scale(6.00)" xlink:href="#gpPt2"/>
	<use color="rgb(255,   0,   0)" transform="translate(165.4,59.4) scale(6.00)" xlink:href="#gpPt2"/>
	<use color="rgb(255,   0,   0)" transform="translate(167.2,49.3) scale(6.00)" xlink:href="#gpPt2"/>
	<use color="rgb(255,   0,   0)" transform="translate(174.9,49.9) scale(6.00)" xlink:href="#gpPt2"/>
	<use color="rgb(255,   0,   0)" transform="translate(178.0,68.0) scale(6.00)" xlink:href="#gpPt2"/>
	<use color="rgb(255,   0,   0)" transform="translate(181.6,65.4) scale(6.00)" xlink:href="#gpPt2"/>
	<use color="rgb(255,   0,   0)" transform="translate(182.3,36.2) scale(6.00)" xlink:href="#gpPt2"/>
	<use color="rgb(255,   0,   0)" transform="translate(183.6,47.3) scale(6.00)" xlink:href="#gpPt2"/>
	<use color="rgb(255,   0,   0)" transform="translate(186.1,48.3) scale(6.00)" xlink:href="#gpPt2"/>
</g>
	</g>
<g style="fill:none; color:black; stroke:currentColor; stroke-width:0.50; stroke-linecap:butt; stroke-linejoin:miter">
</g>
</g>
</svg>